<?xml version="1.0" encoding="UTF-8" standalone="no"?>
<!-- Created with Inkscape (http://www.inkscape.org/) -->

<svg
   xmlns:dc="http://purl.org/dc/elements/1.1/"
   xmlns:cc="http://creativecommons.org/ns#"
   xmlns:rdf="http://www.w3.org/1999/02/22-rdf-syntax-ns#"
   xmlns:svg="http://www.w3.org/2000/svg"
   xmlns="http://www.w3.org/2000/svg"
   xmlns:sodipodi="http://sodipodi.sourceforge.net/DTD/sodipodi-0.dtd"
   xmlns:inkscape="http://www.inkscape.org/namespaces/inkscape"
   width="1024"
   height="1024"
   viewBox="0 0 270.93332 270.93334"
   version="1.1"
   id="svg8"
   inkscape:version="0.92.4 (5da689c313, 2019-01-14)"
   sodipodi:docname="0011.WQ.svg">
  <defs
     id="defs2" />
  <sodipodi:namedview
     id="base"
     pagecolor="#ffffff"
     bordercolor="#666666"
     borderopacity="1.0"
     inkscape:pageopacity="0.0"
     inkscape:pageshadow="2"
     inkscape:zoom="0.70710678"
     inkscape:cx="223.70548"
     inkscape:cy="197.65474"
     inkscape:document-units="mm"
     inkscape:current-layer="svg8"
     showgrid="false"
     inkscape:window-width="1920"
     inkscape:window-height="1027"
     inkscape:window-x="-8"
     inkscape:window-y="-8"
     inkscape:window-maximized="1"
     units="px"
     showguides="true"
     inkscape:guide-bbox="true" />
  <metadata
     id="metadata5">
    <rdf:RDF>
      <cc:Work
         rdf:about="">
        <dc:format>image/svg+xml</dc:format>
        <dc:type
           rdf:resource="http://purl.org/dc/dcmitype/StillImage" />
        <dc:title></dc:title>
      </cc:Work>
    </rdf:RDF>
  </metadata>
  <path
     inkscape:connector-curvature="0"
     d="m 121.56778,32.825217 c 2.4e-4,5.846 3.70373,10.8701 8.86242,12.9051 l 0.10915,0.4889 -14.15234,64.826423 -29.144733,-59.574123 c 3.32617,-2.5471 5.5217,-6.5136 5.52182,-10.9872 -2.5e-4,-7.6202 -6.26895,-13.8888 -13.88914,-13.8892 -7.6202,4e-4 -13.88878,6.269 -13.88915,13.8892 3.7e-4,6.8951 5.14862,12.6366 11.77076,13.676 l 4.005,65.866883 -44.36256,-48.129423 c 2.03241,-2.4176 3.30919,-5.48726 3.30932,-8.86246 0.005,-7.6236 -6.26543,-13.895 -13.88915,-13.8954 -7.6236,4e-4 -13.89363,6.2718 -13.88914,13.8954 4.8e-4,7.62016 6.26894,13.888763 13.88914,13.889163 0.43539,0 0.84654,-0.091 1.27243,-0.1316 l 36.62821,91.01904 c -0.62463,0.78293 -1.20437,1.59006 -1.69232,2.43811 -0.95088,1.65403 -1.6182,3.43093 -1.9179,5.30245 v 0.005 c -0.0851,0.54237 -0.12733,1.0962 -0.15042,1.65466 v 0.0117 l -0.097,0.36345 0.005,0.12543 c 0,0.0154 -0.0117,0.0217 -0.0117,0.038 v 0.30708 l 0.0117,0.10059 v 0.005 c -0.005,0.11278 -0.0117,-0.0934 -0.0117,0.10668 v 42.40703 c -0.002,1.34755 -0.0219,3.33626 0.31582,4.764 0.33776,1.42774 0.8557,2.85289 1.61955,4.18065 0.63432,1.10383 1.39334,2.1535 2.2563,3.14635 0.43178,0.49749 0.8927,0.97406 1.3726,1.44157 0.47785,0.46535 0.97879,0.9196 1.498,1.35381 4.25039,3.55279 9.89919,6.41567 16.67827,8.81236 8.47369,2.99582 18.740373,5.22464 30.141203,6.47447 7.67328,0.77839 14.51158,1.14209 21.60468,1.14701 9.10273,0.0131 19.49691,-0.76358 27.72537,-1.93548 4.19813,-0.64307 8.31694,-1.39122 12.31594,-2.31901 6.51056,-1.53931 12.82206,-3.48445 18.80286,-6.30535 0.46818,-0.22127 0.95212,-0.43604 1.4039,-0.66437 4.80123,-2.47991 9.55434,-5.59645 12.60439,-10.06584 0.35178,-0.52156 0.67314,-1.05762 0.96544,-1.60453 0.89505,-1.67529 1.3641,-3.49145 1.64117,-4.48323 0.29416,-1.05299 0.26841,-2.69613 0.26994,-9.92136 0.002,-7.22522 0.001,-34.91313 0.002,-35.49678 9.1e-4,-0.99598 0.008,-0.8937 0.002,-1.75094 -0.005,-0.72809 -0.21677,-2.17116 -0.30167,-2.96233 -0.31051,-1.28362 -0.73134,-2.53407 -1.36011,-3.71046 -0.29232,-0.5469 -0.61369,-1.08297 -0.96544,-1.60453 -0.35658,-0.52961 -0.75442,-1.04366 -1.17163,-1.54185 l 36.55956,-90.83728 c 0.42817,0.04 0.84049,0.1316 1.27862,0.1316 7.62019,-4e-4 13.88878,-6.268903 13.88915,-13.889163 0.005,-7.6236 -6.26555,-13.895 -13.88915,-13.8954 -7.6236,4e-4 -13.89364,6.2718 -13.88916,13.8954 2.4e-4,3.3735 1.27885,6.43916 3.30932,8.85626 l -44.36875,48.135633 4.00502,-65.866893 c 6.62504,-1.0367 11.77656,-6.7787 11.77693,-13.676 -3.7e-4,-7.6202 -6.26894,-13.8888 -13.88915,-13.8891 -7.62007,4e-4 -13.88878,6.2689 -13.88914,13.8891 2.4e-4,4.4722 2.19748,8.4337 5.52182,10.9809 L 154.54024,111.04676 140.413,46.226617 l 0.10915,-0.5014 c 5.14841,-2.0398 8.84256,-7.0598 8.84292,-12.8989 -3.6e-4,-7.6202 -6.26895,-13.8888 -13.89861,-13.88935 -7.62965,-5.5e-4 -13.89821,6.26805 -13.89859,13.88825 z m 13.88902,-5.3526 c 3.00658,2e-4 5.3525,2.3461 5.35263,5.3526 -1.3e-4,3.0065 -2.34605,5.3524 -5.35263,5.3526 -3.00644,-2e-4 -5.35238,-2.3461 -5.3525,-5.3526 1.2e-4,-3.0065 2.34606,-5.3524 5.3525,-5.3526 z m -56.584373,7.6591 c 3.00645,10e-5 5.35238,2.3461 5.3525,5.3526 -1.2e-4,3.0065 -2.34605,5.3524 -5.3525,5.3525 -3.00658,-1e-4 -5.35251,-2.346 -5.35263,-5.3525 1.2e-4,-3.0065 2.34605,-5.3525 5.35263,-5.3526 z m 113.168863,0 c 3.00658,10e-5 5.35251,2.3461 5.35263,5.3526 -1.2e-4,3.0065 -2.34605,5.3524 -5.35263,5.3525 -3.00632,-1e-4 -5.35249,-2.346 -5.35249,-5.3525 0,-3.0065 2.34617,-5.3525 5.35249,-5.3526 z m -166.224643,22.5448 c 3.00791,1e-4 5.35432,2.3509 5.3525,5.3588 -1.1e-4,3.0065 -2.34604,5.35246 -5.3525,5.35256 -3.00658,-1e-4 -5.35249,-2.34606 -5.35262,-5.35256 -0.003,-3.0079 2.34459,-5.3587 5.35262,-5.3588 z m 219.280433,0 c 3.00803,1e-4 5.35443,2.3509 5.35262,5.3588 -1.2e-4,3.0065 -2.34606,5.35246 -5.35262,5.35256 -3.00646,-1e-4 -5.35239,-2.34606 -5.35251,-5.35256 -0.003,-3.0079 2.3446,-5.3587 5.35251,-5.3588 z m -109.63397,11.15006 15.53125,71.288463 32.3098,-65.99846 -4.40609,72.32254 47.07015,-51.07524 -26.51231,65.88573 c -3.53368,-2.19642 -7.66458,-4.10998 -12.38483,-5.77879 -16.28852,-5.31462 -36.3618,-7.47882 -51.49219,-7.5957 -17.48143,0.19012 -36.060033,2.17402 -51.745893,7.62149 -4.71368,1.66651 -8.84168,3.57998 -12.37233,5.77251 l -26.54359,-65.93004 47.09526,51.10032 -4.38111,-72.29752 32.284693,65.97344 z m 48.39847,95.719813 c 6.05355,2.14021 10.78747,4.67412 13.71365,7.12007 2.87546,2.40345 3.78535,4.36654 3.81701,5.9731 -0.004,0.0189 -0.003,0.0434 -0.005,0.0633 0.0489,0.91463 0.0244,1.83026 0.0489,2.74523 l -8.21694,4.50645 c -2.50142,1.37134 -1.80742,2.86979 0,5.07682 l 8.21694,10.02825 v 6.90697 c -3.92119,-2.76822 -8.72014,-5.11399 -14.35961,-7.10781 -13.55803,-4.79338 -31.70397,-7.6213 -51.74588,-7.62148 -19.84274,0.003 -37.843623,2.77993 -51.363463,7.49613 -5.79945,2.02307 -10.72623,4.41373 -14.73524,7.24542 v -6.92577 l 8.20432,-10.02199 c 1.80741,-2.20704 2.5014,-3.7055 0,-5.07683 l -8.20432,-4.50017 v -0.69568 c 0.005,-0.68745 0.008,-1.37507 0.0117,-2.06206 0.0117,-1.61491 0.9327,-3.59685 3.83581,-6.02323 2.92617,-2.44596 7.65998,-4.97987 13.71365,-7.12006 12.10709,-4.28038 29.414573,-7.06977 48.534293,-7.0731 19.11973,-0.003 36.4271,2.78603 48.53418,7.06644 z m -53.15595,-0.72073 -14.20886,7.7907 c -2.50131,1.37134 -2.50131,3.68044 0,5.05175 l 14.20886,7.79071 c 2.50142,1.37132 6.7371,1.38467 9.23853,0.0117 l 14.20872,-7.79071 c 2.50143,-1.37132 2.50143,-3.70549 0,-5.0768 l -14.20872,-7.79071 c -2.92391,-1.28972 -6.52091,-1.43025 -9.23853,0.0134 z m 4.6192,38.03214 c 19.1223,1.7e-4 36.42967,2.7895 48.53675,7.06993 6.05355,2.14019 10.78747,4.6741 13.71365,7.12005 2.80476,2.34437 3.72458,4.26352 3.59823,6.12097 -0.12634,1.85746 -0.82491,3.28226 -2.40697,4.88538 -4.03335,3.28483 -8.19716,5.60605 -12.36061,7.25801 -16.77662,6.0638 -34.40584,7.9903 -51.07457,8.0599 -15.78473,-0.0222 -34.08133,-2.07221 -48.535253,-7.06989 -6.05366,-2.1402 -10.78748,-4.67411 -13.71365,-7.12006 -2.85909,-2.38979 -3.76897,-4.34018 -3.70482,-6.15646 0.0641,-1.81628 1.05628,-3.80469 3.96049,-6.16591 2.99335,-2.43372 7.75445,-4.93547 13.80146,-7.04485 12.09386,-4.21879 29.266733,-6.95464 48.198253,-6.95712 z"
     />
</svg>
