<?xml version="1.0" encoding="UTF-8" standalone="no"?>
<!-- Created with Inkscape (http://www.inkscape.org/) -->

<svg
   xmlns:dc="http://purl.org/dc/elements/1.1/"
   xmlns:cc="http://creativecommons.org/ns#"
   xmlns:rdf="http://www.w3.org/1999/02/22-rdf-syntax-ns#"
   xmlns:svg="http://www.w3.org/2000/svg"
   xmlns="http://www.w3.org/2000/svg"
   xmlns:sodipodi="http://sodipodi.sourceforge.net/DTD/sodipodi-0.dtd"
   xmlns:inkscape="http://www.inkscape.org/namespaces/inkscape"
   width="1024"
   height="1024"
   viewBox="0 0 270.93332 270.93334"
   version="1.1"
   id="svg8"
   inkscape:version="0.92.4 (5da689c313, 2019-01-14)"
   sodipodi:docname="0012.WK.svg">
  <defs
     id="defs2" />
  <sodipodi:namedview
     id="base"
     pagecolor="#ffffff"
     bordercolor="#666666"
     borderopacity="1.0"
     inkscape:pageopacity="0.0"
     inkscape:pageshadow="2"
     inkscape:zoom="0.088388348"
     inkscape:cx="7048.8435"
     inkscape:cy="3170.1372"
     inkscape:document-units="mm"
     inkscape:current-layer="layer1"
     showgrid="false"
     inkscape:window-width="1920"
     inkscape:window-height="1027"
     inkscape:window-x="-8"
     inkscape:window-y="-8"
     inkscape:window-maximized="1"
     units="px"
     showguides="true"
     inkscape:guide-bbox="true">
    <sodipodi:guide
       position="-118.77941,312.75383"
       orientation="0,1"
       id="guide6804"
       inkscape:locked="false" />
    <sodipodi:guide
       position="-307.27932,312.75383"
       orientation="1,0"
       id="guide6806"
       inkscape:locked="false" />
    <sodipodi:guide
       position="-304.28597,1328.1532"
       orientation="0,1"
       id="guide6808"
       inkscape:locked="false" />
    <sodipodi:guide
       position="391.14502,989.68683"
       orientation="0,1"
       id="guide6810"
       inkscape:locked="false" />
    <sodipodi:guide
       position="391.14766,651.22028"
       orientation="0,1"
       id="guide6812"
       inkscape:locked="false" />
    <sodipodi:guide
       position="391.14505,312.75383"
       orientation="0,1"
       id="guide6814"
       inkscape:locked="false" />
  </sodipodi:namedview>
  <metadata
     id="metadata5">
    <rdf:RDF>
      <cc:Work
         rdf:about="">
        <dc:format>image/svg+xml</dc:format>
        <dc:type
           rdf:resource="http://purl.org/dc/dcmitype/StillImage" />
        <dc:title />
      </cc:Work>
    </rdf:RDF>
  </metadata>
  <g
     inkscape:label="Livello 1"
     inkscape:groupmode="layer"
     id="layer1"
     transform="translate(0,-26.06663)">
    <path
       style="color:#000000;font-style:normal;font-variant:normal;font-weight:normal;font-stretch:normal;font-size:medium;line-height:normal;font-family:sans-serif;font-variant-ligatures:normal;font-variant-position:normal;font-variant-caps:normal;font-variant-numeric:normal;font-variant-alternates:normal;font-feature-settings:normal;text-indent:0;text-align:start;text-decoration:none;text-decoration-line:none;text-decoration-style:solid;text-decoration-color:#000000;letter-spacing:normal;word-spacing:normal;text-transform:none;writing-mode:lr-tb;direction:ltr;text-orientation:mixed;dominant-baseline:auto;baseline-shift:baseline;text-anchor:start;white-space:normal;shape-padding:0;clip-rule:nonzero;display:inline;overflow:visible;visibility:visible;opacity:1;isolation:auto;mix-blend-mode:normal;color-interpolation:sRGB;color-interpolation-filters:linearRGB;solid-color:#000000;solid-opacity:1;vector-effect:none;fill:#333333;fill-opacity:1;fill-rule:nonzero;stroke:none;stroke-width:10.01873779;stroke-linecap:round;stroke-linejoin:miter;stroke-miterlimit:4;stroke-dasharray:none;stroke-dashoffset:0;stroke-opacity:1;paint-order:normal;color-rendering:auto;image-rendering:auto;shape-rendering:auto;text-rendering:auto;enable-background:accumulate"
       d="m 107.51741,45.980572 v 5.0203 49.583498 h 12.10286 c -0.35965,0.2486 -0.72021,0.4935 -1.078,0.7521 -0.31088,0.2275 -0.61903,0.4621 -0.92761,0.702 -4.27826,3.278 -8.37355,7.6331 -12.23447,13.0681 -1.16448,-1.0031 -2.36855,-2.0045 -3.61645,-3.0085 -9.717647,-7.8181 -22.422741,-11.93 -34.917101,-12.059 -12.49447,-0.128898 -24.99804,3.7731 -33.73262,12.7234 -10.83928,11.1069 -12.37076,25.4979 -10.21003,37.49942 2.16072,12.00154 7.4624,21.86048 12.10283,26.98228 6.48701,7.15975 18.91052,17.40544 25.13969,22.41944 -0.2401,1.02475 -0.40145,2.07201 -0.40145,3.1589 v 0.10668 l 0.005,0.11279 c 0.0117,0.25042 0.0489,0.4964 0.0725,0.74591 -0.0362,0.24563 -0.0851,0.1696 -0.0851,0.50138 v 42.407 c 0,0.20029 0.007,-0.0117 0.0117,0.10059 v 0.006 l -0.0117,0.0946 v 0.30707 c 0,0.0154 0.0117,0.028 0.0117,0.0434 l -0.005,0.12525 0.097,0.36355 v 0.0117 c 0.0244,0.55848 0.0606,1.11232 0.15041,1.65466 v 0.005 c 0.29956,1.87153 0.96665,3.64842 1.91792,5.30244 0.63431,1.10383 1.39334,2.15352 2.25629,3.14638 0.43177,0.49749 0.8927,0.97404 1.37259,1.44155 0.47786,0.46536 0.97879,0.9196 1.49802,1.35382 4.2504,3.55278 9.89923,6.41564 16.67823,8.81234 8.473764,2.99582 18.740331,5.22465 30.141201,6.47449 4.56033,0.49992 9.30225,0.84193 14.18371,1.01542 2.44073,0.086 4.91568,0.13159 7.42092,0.13159 2.43752,-2e-5 4.84377,-0.0435 7.22035,-0.12544 0.0254,-8.8e-4 0.0498,-0.005 0.0751,-0.005 2.35376,-0.0823 4.67273,-0.2037 6.95712,-0.36344 1.61099,-0.11278 3.17837,-0.26381 4.75089,-0.41368 4.41663,-0.38226 8.67923,-0.98735 17.14772,-2.69904 8.46849,-1.71169 17.8639,-3.89765 26.87001,-9.14692 3.63578,-2.22085 7.67174,-5.44489 9.83404,-8.53635 1.15321,-1.8448 2.26919,-3.91775 2.60538,-6.11464 0.14723,-1.04602 0.26325,-1.99957 0.26325,-2.50542 0,-2.61417 0.0102,-42.88547 0.0102,-42.88547 0,-0.21315 -0.0815,-0.31188 -0.10059,-0.50771 0.0226,-0.17387 0.0598,-0.34573 0.0751,-0.52021 l 0.019,-0.21938 v -0.21937 c 0,-1.08685 -0.16056,-2.13417 -0.40111,-3.15891 6.22914,-5.01398 18.65276,-15.25967 25.1396,-22.41942 4.64053,-5.12181 9.94217,-14.98074 12.10287,-26.98229 2.16072,-12.00156 0.629,-26.39256 -10.21004,-37.49946 -8.73453,-8.9503 -21.23814,-12.852298 -33.73256,-12.7233 -12.49441,0.1289 -25.19948,4.2408 -34.91716,12.059 -1.24788,1.004 -2.45191,2.0054 -3.61643,3.0084 -3.8609,-5.435 -7.95622,-9.7901 -12.23448,-13.068 -0.30852,-0.2399 -0.61677,-0.4745 -0.92761,-0.7021 -0.35792,-0.2585 -0.71849,-0.5034 -1.07799,-0.752 h 11.93362 V 45.980472 Z m 17.0355,10.0219 h 21.66732 l -10.83053,10.5548 z m 28.70591,6.5936 v 21.379 l -10.96841,-10.6863 z m -35.71942,0.019 10.94961,10.6676 -10.94961,10.6738 z m 17.8503,17.3991 10.82426,10.5484 h -21.65478 z m 0.0815,24.951498 c 2.4803,0.026 4.79161,0.6804 6.96334,1.6673 6.7878,3.0416 12.34657,10.1462 15.83834,15.3808 -12.77544,12.9191 -19.28764,25.3376 -22.32543,35.23679 -0.1905,0.62083 -0.31168,1.18982 -0.4763,1.79254 -0.16471,-0.60265 -0.2859,-1.17176 -0.4763,-1.79254 -3.03779,-9.8992 -9.54999,-22.31769 -22.32543,-35.23679 4.57597,-6.3167 9.02831,-12.2954 15.83842,-15.3808 2.19349,-1.0163 4.61441,-1.6578 6.96334,-1.6673 z m -68.718701,4.7133 c 10.4203,0.108 21.203894,3.6555 28.969194,9.9029 19.006257,15.2911 26.802927,29.87003 30.059697,40.48289 1.78376,5.81275 2.19114,10.13807 2.22502,13.0054 -17.06735,0.61006 -32.428057,3.29929 -44.281041,7.48986 -6.779,2.39667 -12.42784,5.25955 -16.67825,8.81232 -0.69133,0.57758 -1.33585,1.19261 -1.95551,1.82391 -5.69441,-4.62222 -17.21591,-14.08885 -22.95217,-20.42007 -2.65339,-2.92854 -7.9546,-12.198 -9.75874,-22.21885 -1.80413,-10.02086 -0.67559,-20.56156 7.62773,-29.06946 6.47417,-6.6341 16.32386,-9.9165 26.74407,-9.8089 z m 137.437371,0 c 10.42027,-0.1079 20.26992,3.1749 26.74409,9.8089 8.30283,8.5079 9.43193,19.0486 7.62779,29.06946 -1.80413,10.02085 -7.10541,19.29031 -9.75881,22.21885 -5.73623,6.33122 -17.25779,15.79785 -22.95213,20.42007 -0.61967,-0.63134 -1.26448,-1.24629 -1.95552,-1.82391 -4.25042,-3.55277 -9.89925,-6.41565 -16.67825,-8.81232 -11.853,-4.19057 -27.21371,-6.87985 -44.28105,-7.48986 0.0343,-2.86733 0.44118,-7.19265 2.22503,-13.0054 3.25678,-10.61286 11.05344,-25.19179 30.05971,-40.48289 7.76529,-6.2474 18.54888,-9.7954 28.96914,-9.9029 z m -68.71867,72.8867 c 19.12221,1.5e-4 36.42966,2.78953 48.5368,7.06992 6.05355,2.1402 10.78737,4.67412 13.71364,7.12006 2.87539,2.40344 3.78525,4.36652 3.81701,5.9731 -0.004,0.0189 -0.003,0.038 -0.006,0.0569 l -0.25069,1.34126 0.29458,0.76474 v 0.63929 l -8.2169,4.50646 c -2.50139,1.37133 -1.80738,2.8698 0,5.0768 l 8.2169,10.02826 v 6.90697 c -3.92076,-2.76793 -8.71965,-5.11369 -14.35921,-7.10753 -13.55802,-4.79336 -31.70395,-7.62131 -51.74583,-7.62148 -19.84273,0.003 -37.843707,2.77991 -51.363507,7.49612 -5.799434,2.02307 -10.726254,4.41377 -14.735284,7.24543 v -6.92577 l 8.20437,-10.022 c 1.80739,-2.207 2.5014,-3.70547 0,-5.0768 l -8.20437,-4.49982 v -0.69569 l 0.20679,-0.70818 -0.163,-1.06549 c -0.0154,-0.0971 -0.0226,-0.19341 -0.0317,-0.28834 0.0146,-1.6149 0.93293,-3.59685 3.83581,-6.02323 2.92627,-2.44596 7.66006,-4.97986 13.713644,-7.12007 12.10715,-4.2804 29.414597,-7.06976 48.536797,-7.06992 z m 0,5.31498 c -1.68554,0.003 -3.36856,0.34843 -4.61927,1.03421 l -14.2088,7.7907 c -2.50138,1.37133 -2.50138,3.68043 0,5.05173 l 14.2088,7.79071 c 2.50141,1.37132 6.73715,1.38386 9.23854,0.0117 l 14.2088,-7.79069 c 2.50139,-1.37132 2.50139,-3.7055 0,-5.07681 l -14.2088,-7.79071 c -1.2507,-0.68563 -2.93372,-1.02451 -4.61927,-1.0216 z m 0,39.06635 c 19.12221,1.6e-4 36.42966,2.7895 48.5368,7.06991 6.05355,2.14021 10.78737,4.67412 13.71364,7.12009 2.8047,2.34435 3.7245,4.26351 3.5954,6.12095 -0.81565,4.15426 -4.07481,6.59452 -7.13574,8.43181 -6.82854,3.92585 -13.847,5.88395 -18.19683,7.31152 -8.40997,2.75765 -26.20603,4.39382 -40.51177,4.46002 -2.3881,-10e-5 -4.7513,-0.0417 -7.0762,-0.12544 h -0.005 c -2.32477,-0.0851 -4.61469,-0.21204 -6.86309,-0.37612 h -0.005 c -13.50217,-0.98605 -25.504607,-3.35881 -34.584957,-6.56912 -6.053584,-2.1402 -10.787384,-4.67411 -13.713654,-7.12007 -2.85906,-2.3898 -3.76889,-4.34019 -3.70894,-6.15646 0.0599,-1.81627 1.05682,-3.80465 3.96098,-6.16591 2.99333,-2.4337 7.75446,-4.93547 13.801394,-7.04487 12.09386,-4.21878 29.266827,-6.95461 48.198347,-6.9571 z"
       id="rect4531"
       inkscape:connector-curvature="0"
       sodipodi:nodetypes="ccccccccccsccscccsscccsccccccccccccccccccscccsscccscccccccccccccccccccccccccccccccccccccccccsccccccccccsccccccccccccccccccccsccccccccccccccccccccccccccccsccccccccccscccc" />
    <text
       xml:space="preserve"
       style="font-style:normal;font-weight:normal;font-size:10.58333302px;line-height:1.25;font-family:sans-serif;letter-spacing:0px;word-spacing:0px;fill:#000000;fill-opacity:1;stroke:none;stroke-width:0.26458332"
       x="94.038704"
       y="16.326693"
       id="text5812"><tspan
         sodipodi:role="line"
         id="tspan5810"
         x="94.038704"
         y="25.982187"
         style="stroke-width:0.26458332" /></text>
  </g>
</svg>
