<?xml version="1.0" encoding="UTF-8" standalone="no"?>
<!-- Created with Inkscape (http://www.inkscape.org/) -->

<svg
   xmlns:dc="http://purl.org/dc/elements/1.1/"
   xmlns:cc="http://creativecommons.org/ns#"
   xmlns:rdf="http://www.w3.org/1999/02/22-rdf-syntax-ns#"
   xmlns:svg="http://www.w3.org/2000/svg"
   xmlns="http://www.w3.org/2000/svg"
   xmlns:sodipodi="http://sodipodi.sourceforge.net/DTD/sodipodi-0.dtd"
   xmlns:inkscape="http://www.inkscape.org/namespaces/inkscape"
   width="1024"
   height="1024"
   viewBox="0 0 270.93332 270.93334"
   version="1.1"
   id="svg8"
   inkscape:version="0.92.4 (5da689c313, 2019-01-14)"
   sodipodi:docname="0015.WN.svg">
  <defs
     id="defs2" />
  <sodipodi:namedview
     id="base"
     pagecolor="#ffffff"
     bordercolor="#666666"
     borderopacity="1.0"
     inkscape:pageopacity="0.0"
     inkscape:pageshadow="2"
     inkscape:zoom="0.088388348"
     inkscape:cx="4259.321"
     inkscape:cy="2827.4775"
     inkscape:document-units="mm"
     inkscape:current-layer="layer1"
     showgrid="false"
     inkscape:window-width="1920"
     inkscape:window-height="1027"
     inkscape:window-x="-8"
     inkscape:window-y="-8"
     inkscape:window-maximized="1"
     units="px"
     showguides="true"
     inkscape:guide-bbox="true">
    <sodipodi:guide
       position="-118.77941,312.75383"
       orientation="0,1"
       id="guide6804"
       inkscape:locked="false" />
    <sodipodi:guide
       position="-307.27932,312.75383"
       orientation="1,0"
       id="guide6806"
       inkscape:locked="false" />
    <sodipodi:guide
       position="-304.28597,1328.1532"
       orientation="0,1"
       id="guide6808"
       inkscape:locked="false" />
    <sodipodi:guide
       position="391.14502,989.68683"
       orientation="0,1"
       id="guide6810"
       inkscape:locked="false" />
    <sodipodi:guide
       position="391.14766,651.22028"
       orientation="0,1"
       id="guide6812"
       inkscape:locked="false" />
    <sodipodi:guide
       position="391.14505,312.75383"
       orientation="0,1"
       id="guide6814"
       inkscape:locked="false" />
  </sodipodi:namedview>
  <metadata
     id="metadata5">
    <rdf:RDF>
      <cc:Work
         rdf:about="">
        <dc:format>image/svg+xml</dc:format>
        <dc:type
           rdf:resource="http://purl.org/dc/dcmitype/StillImage" />
        <dc:title />
      </cc:Work>
    </rdf:RDF>
  </metadata>
  <g
     inkscape:label="Livello 1"
     inkscape:groupmode="layer"
     id="layer1"
     transform="translate(0,-26.06663)">
    <path
       style="color:#000000;font-style:normal;font-variant:normal;font-weight:normal;font-stretch:normal;font-size:medium;line-height:normal;font-family:sans-serif;font-variant-ligatures:normal;font-variant-position:normal;font-variant-caps:normal;font-variant-numeric:normal;font-variant-alternates:normal;font-feature-settings:normal;text-indent:0;text-align:start;text-decoration:none;text-decoration-line:none;text-decoration-style:solid;text-decoration-color:#000000;letter-spacing:normal;word-spacing:normal;text-transform:none;writing-mode:lr-tb;direction:ltr;text-orientation:mixed;dominant-baseline:auto;baseline-shift:baseline;text-anchor:start;white-space:normal;shape-padding:0;clip-rule:nonzero;display:inline;overflow:visible;visibility:visible;opacity:1;isolation:auto;mix-blend-mode:normal;color-interpolation:sRGB;color-interpolation-filters:linearRGB;solid-color:#000000;solid-opacity:1;vector-effect:none;fill:#333333;fill-opacity:1;fill-rule:nonzero;stroke:none;stroke-width:9.62713242;stroke-linecap:round;stroke-linejoin:round;stroke-miterlimit:4;stroke-dasharray:none;stroke-dashoffset:0;stroke-opacity:1;color-rendering:auto;image-rendering:auto;shape-rendering:auto;text-rendering:auto;enable-background:accumulate"
       d="m 117.05947,49.499972 a 4.8140473,4.8140473 0 0 0 -4.5504,3.8797 l -4.2871,21.6548 -8.642996,0.4513 -16.9165,-21.0343 a 4.8140473,4.8140473 0 0 0 -8.5052,3.8108 l 3.4598,20.5391 -19.4047,28.405098 a 4.8140473,4.8140473 0 0 0 -0.8027,2.25 l -1.5858,16.8663 c -0.7837,1.026 -8.0141,10.4763 -16.064,22.5511 -4.237,6.3556 -8.4798,13.1326 -11.7455,19.3044 -3.2659,6.1718 -5.8039,11.2832 -5.8039,16.603 0,14.359 6.193,24.7216 14.4719,30.5612 1.7732,1.2507 6.2753,4.4907 12.0592,3.1777 0.4678,-0.1067 0.8606,-1.2228 1.3224,-1.3789 0,0.04 -0.046,0.1297 -0.046,0.1692 0.063,1.1993 0.3566,2.6081 1.2285,3.8609 0.8723,1.2528 2.2429,2.0804 3.2969,2.4381 2.1077,0.7153 3.2565,0.4609 4.0738,0.4952 4.0229,0.1683 8.9886,0.8287 13.9768,-0.445 2.4943,-0.6369 5.1206,-1.9186 7.0825,-4.2182 1.9621,-2.2995 3.0395,-5.4021 3.2217,-8.8624 0.3249,-6.1815 -0.8815,-10.6737 -0.9279,-12.7171 -0.027,-1.0218 0.063,-1.2361 0.2887,-1.6108 0.2309,-0.3747 0.8842,-1.1236 2.7203,-2.1561 3.5131,-1.9762 9.9602,-3.6255 16.847396,-5.2586 6.8872,-1.633 14.2369,-3.31 20.4639,-6.5873 6.9603,-3.6634 8.1737,-6.8008 12.0339,-11.2755 l -1.4415,22.457 c -0.037,0.1334 -0.439,2.0545 -3.629,6.3492 -3.2966,4.4379 -9.3268,10.6854 -20.1819,17.1984 -25.817396,15.4905 -23.309396,52.0216 -23.309396,52.0216 a 4.8140473,4.8140473 0 0 0 4.8073,4.5692 H 243.72027 a 4.8140473,4.8140473 0 0 0 4.8326,-4.7635 c 0.4705,-42.2994 0.9303,-86.89 -12.8614,-122.9903 -13.5814,-35.5475 -42.2861,-62.199198 -95.9203,-68.010498 -6.9206,-14.0284 -19.2104,-26.9572 -19.2104,-26.9572 a 4.8140473,4.8140473 0 0 0 -3.5039,-1.3474 z m 2.7451,16.5529 c 4.3905,4.8585 9.3727,9.2255 12.8175,17.8378 a 4.8140473,4.8140473 0 0 0 4.0051,3.0085 c 52.5696,4.9771 77.2521,28.852598 90.06,62.375798 12.3239,32.256 12.5435,73.8982 12.1342,114.6544 H 95.905974 c 0.1214,-6.4773 1.1511,-28.5279 18.119896,-38.7091 11.8364,-7.1019 18.8742,-14.1973 22.9521,-19.6868 4.0779,-5.4895 5.3338,-9.8778 5.3338,-9.8778 a 4.8140473,4.8140473 0 0 0 0.1386,-0.9213 l 2.2752,-35.1553 a 4.8140473,4.8140473 0 0 0 -8.7624,-3.0524 c 0,0 -9.0726,12.4174 -18.1448,17.1922 -4.5513,2.3955 -11.3506,4.1311 -18.219896,5.76 -6.8696,1.6289 -13.7663,3.1007 -19.3294,6.23 -2.703,1.5204 -4.8224,3.2478 -6.2052,5.4968 -1.3828,2.249 -1.7524,4.7961 -1.7048,6.8944 0.097,4.1967 1.1633,7.3618 0.9218,11.9587 -0.097,1.9289 -0.5375,2.6777 -0.9218,3.1276 -0.3828,0.4499 -0.9364,0.8357 -2.1309,1.1407 -2.0708,0.5288 -5.9292,0.2997 -9.715,0.1379 0.343,-1.339 0.9473,-4.448 4.7886,-13.1433 a 4.8140473,4.8140473 0 0 0 -8.6745,-4.1492 c -4.801,9.3921 -8.5168,11.6233 -10.022,11.965 -1.5051,0.3416 -2.6103,-0.4119 -4.3811,-1.6609 -5.8965,-4.1592 -10.3729,-10.9591 -10.3729,-22.6952 0,-1.2039 1.6532,-6.4149 4.663,-12.1029 3.0099,-5.688 7.1265,-12.2816 11.2568,-18.4771 8.2607,-12.391 16.5591,-23.2154 16.5591,-23.2154 a 4.8140473,4.8140473 0 0 0 0.9716,-2.4632 l 1.5857,-16.9352 19.7808,-28.950398 a 4.8140473,4.8140473 0 0 0 0.7774,-3.5287 l -0.7086,-4.262 6.8944,8.5742 a 4.8140473,4.8140473 0 0 0 4.005,1.7988 l 14.847996,-0.7835 a 4.8140473,4.8140473 0 0 0 4.4814,-3.8608 z M 91.875874,118.42547 c -3.2421,-0.1473 -11.1811,3.1444 -14.6851,7.6027 -1.1679,1.4867 -1.3098,6.2864 -1.3098,6.2864 0,0 -0.1665,2.1802 1.203,2.4068 1.3696,0.2267 1.7173,-1.9272 3.861,-3.2591 2.1435,-1.3319 6.2562,0.61 8.3235,-1.5043 2.1459,-2.195 0.4143,-3.3194 1.6232,-7.12 0.6779,-2.1316 4.0214,-2.7853 2.0621,-4.1304 -0.2453,-0.1682 -0.6145,-0.261 -1.0782,-0.2821 z m -46.5749,62.8271 c -1.4409,-0.6814 -5.847,5.2095 -6.2927,7.634 -0.6733,3.6618 0.2742,5.5622 1.185,6.5058 0.9109,0.9436 2.708,1.8319 4.0552,1.6046 1.3659,-0.2306 3.4232,-1.5489 3.9109,-2.7829 0.4,-1.0092 0.3413,-3.2991 -0.4072,-4.1304 -0.7484,-0.8311 -2.7469,0.2746 -3.6853,-1.3475 -0.9387,-1.6223 3.7801,-6.5481 1.2347,-7.4836 z"
       id="path5806"
       inkscape:connector-curvature="0" />
    <text
       xml:space="preserve"
       style="font-style:normal;font-weight:normal;font-size:10.58333302px;line-height:1.25;font-family:sans-serif;letter-spacing:0px;word-spacing:0px;fill:#000000;fill-opacity:1;stroke:none;stroke-width:0.26458332"
       x="94.038704"
       y="16.326693"
       id="text5812"><tspan
         sodipodi:role="line"
         id="tspan5810"
         x="94.038704"
         y="25.982187"
         style="stroke-width:0.26458332" /></text>
  </g>
</svg>
