<?xml version="1.0" encoding="UTF-8" standalone="no"?>
<!-- Created with Inkscape (http://www.inkscape.org/) -->

<svg
   xmlns:dc="http://purl.org/dc/elements/1.1/"
   xmlns:cc="http://creativecommons.org/ns#"
   xmlns:rdf="http://www.w3.org/1999/02/22-rdf-syntax-ns#"
   xmlns:svg="http://www.w3.org/2000/svg"
   xmlns="http://www.w3.org/2000/svg"
   xmlns:sodipodi="http://sodipodi.sourceforge.net/DTD/sodipodi-0.dtd"
   xmlns:inkscape="http://www.inkscape.org/namespaces/inkscape"
   width="1024"
   height="1024"
   viewBox="0 0 270.93332 270.93334"
   version="1.1"
   id="svg8"
   inkscape:version="0.92.4 (5da689c313, 2019-01-14)"
   sodipodi:docname="0016.WP.svg">
  <defs
     id="defs2" />
  <sodipodi:namedview
     id="base"
     pagecolor="#ffffff"
     bordercolor="#666666"
     borderopacity="1.0"
     inkscape:pageopacity="0.0"
     inkscape:pageshadow="2"
     inkscape:zoom="0.088388348"
     inkscape:cx="3953.8509"
     inkscape:cy="2985.8694"
     inkscape:document-units="mm"
     inkscape:current-layer="layer1"
     showgrid="false"
     inkscape:window-width="1920"
     inkscape:window-height="1027"
     inkscape:window-x="-8"
     inkscape:window-y="-8"
     inkscape:window-maximized="1"
     units="px"
     showguides="true"
     inkscape:guide-bbox="true">
    <sodipodi:guide
       position="-118.77941,312.75383"
       orientation="0,1"
       id="guide6804"
       inkscape:locked="false" />
    <sodipodi:guide
       position="-307.27932,312.75383"
       orientation="1,0"
       id="guide6806"
       inkscape:locked="false" />
    <sodipodi:guide
       position="-304.28597,1328.1532"
       orientation="0,1"
       id="guide6808"
       inkscape:locked="false" />
    <sodipodi:guide
       position="391.14502,989.68683"
       orientation="0,1"
       id="guide6810"
       inkscape:locked="false" />
    <sodipodi:guide
       position="391.14766,651.22028"
       orientation="0,1"
       id="guide6812"
       inkscape:locked="false" />
    <sodipodi:guide
       position="391.14505,312.75383"
       orientation="0,1"
       id="guide6814"
       inkscape:locked="false" />
  </sodipodi:namedview>
  <metadata
     id="metadata5">
    <rdf:RDF>
      <cc:Work
         rdf:about="">
        <dc:format>image/svg+xml</dc:format>
        <dc:type
           rdf:resource="http://purl.org/dc/dcmitype/StillImage" />
        <dc:title />
      </cc:Work>
    </rdf:RDF>
  </metadata>
  <g
     inkscape:label="Livello 1"
     inkscape:groupmode="layer"
     id="layer1"
     transform="translate(0,-26.06663)">
    <text
       xml:space="preserve"
       style="font-style:normal;font-weight:normal;font-size:10.58333302px;line-height:1.25;font-family:sans-serif;letter-spacing:0px;word-spacing:0px;fill:#000000;fill-opacity:1;stroke:none;stroke-width:0.26458332"
       x="94.038704"
       y="16.326693"
       id="text5812"><tspan
         sodipodi:role="line"
         id="tspan5810"
         x="94.038704"
         y="25.982187"
         style="stroke-width:0.26458332" /></text>
    <path
       style="color:#000000;font-style:normal;font-variant:normal;font-weight:normal;font-stretch:normal;font-size:medium;line-height:normal;font-family:sans-serif;font-variant-ligatures:normal;font-variant-position:normal;font-variant-caps:normal;font-variant-numeric:normal;font-variant-alternates:normal;font-feature-settings:normal;text-indent:0;text-align:start;text-decoration:none;text-decoration-line:none;text-decoration-style:solid;text-decoration-color:#000000;letter-spacing:normal;word-spacing:normal;text-transform:none;writing-mode:lr-tb;direction:ltr;text-orientation:mixed;dominant-baseline:auto;baseline-shift:baseline;text-anchor:start;white-space:normal;shape-padding:0;clip-rule:nonzero;display:inline;overflow:visible;visibility:visible;opacity:1;isolation:auto;mix-blend-mode:normal;color-interpolation:sRGB;color-interpolation-filters:linearRGB;solid-color:#000000;solid-opacity:1;vector-effect:none;fill:#333333;fill-opacity:1;fill-rule:nonzero;stroke:none;stroke-width:9.15839958;stroke-linecap:round;stroke-linejoin:miter;stroke-miterlimit:4;stroke-dasharray:none;stroke-dashoffset:0;stroke-opacity:1;paint-order:fill markers stroke;color-rendering:auto;image-rendering:auto;shape-rendering:auto;text-rendering:auto;enable-background:accumulate"
       d="m 135.45592,51.855447 c -19.0897,0 -34.632,15.8976 -34.6415,35.3559 0.012,7.5906 4.0303,14.112603 8.3862,20.144303 -13.790503,6.207 -24.652403,16.4412 -28.599203,29.6586 l -1.7927,5.948 h 36.565503 c -0.6063,19.3224 -3.9968,31.6104 -8.9,41.5734 -5.1294,10.4228 -11.858103,19.8469 -17.467903,33.7451 -19.1408,3.4198 -34.3907,18.3647 -34.3907,37.7376 v 0.025 c 0.012,3.5616 0,10.5611 0,10.5611 l -0.027,4.6067 h 65.121003 31.5077 65.1274 l -0.028,-4.6067 c 0,0 -0.012,-6.9995 0,-10.5611 v -0.025 c 0,-19.3774 -15.2719,-34.3192 -34.4158,-37.7376 -5.609,-13.8971 -12.3247,-23.3225 -17.4492,-33.7451 -4.8983,-9.9629 -8.2951,-22.2503 -8.9,-41.5734 h 36.5467 l -1.7925,-5.948 c -3.9444,-13.1997 -14.7886,-23.4246 -28.5555,-29.6335 4.3471,-6.043 8.3508,-12.575103 8.3422,-20.169403 -0.012,-19.4583 -15.5517,-35.353 -34.6414,-35.3559 z m 0,9.2198 c 14.1489,0 25.5587,11.6321 25.5659,26.1361 0.012,7.1032 -2.8226,13.896703 -7.8097,18.828103 l -5.2084,5.1771 6.8631,2.4757 c 11.013,3.9908 18.451,11.5251 23.0839,20.0503 h -31.915 -21.1345 -31.933903 c 4.6374,-8.5398 12.086103,-16.086 23.121603,-20.0754 l 6.8879,-2.4757 -5.2522,-5.1771 c -4.9961,-4.9202 -7.8211,-11.700803 -7.8283,-18.803003 0.012,-14.504 11.4108,-26.134 25.5596,-26.1361 z m -10.6675,81.887003 h 21.3601 c 0.5584,21.0989 4.7418,34.6397 10.1725,45.685 5.8246,11.8467 12.62,20.7185 17.8941,34.4471 l 1.0031,2.6575 2.7953,0.2506 c 16.6001,1.5759 29.2204,14.5205 29.2323,29.9971 -0.012,2.0465 0,3.6648 0,5.9919 h -56.0202 -31.5138 -56.020403 c 0,-2.3271 0.012,-3.9454 0,-5.9919 0.012,-15.4805 12.6076,-28.4213 29.2073,-29.9971 l 2.7952,-0.2506 1.0092,-2.6575 c 5.273903,-13.7277 12.057803,-22.6005 17.887903,-34.4471 5.4359,-11.0452 9.6337,-24.5856 10.1976,-45.685 z"
       id="path5847-9"
       inkscape:connector-curvature="0" />
  </g>
</svg>
