<?xml version="1.0" encoding="UTF-8" standalone="no"?>
<!-- Created with Inkscape (http://www.inkscape.org/) -->

<svg
   xmlns:dc="http://purl.org/dc/elements/1.1/"
   xmlns:cc="http://creativecommons.org/ns#"
   xmlns:rdf="http://www.w3.org/1999/02/22-rdf-syntax-ns#"
   xmlns:svg="http://www.w3.org/2000/svg"
   xmlns="http://www.w3.org/2000/svg"
   xmlns:sodipodi="http://sodipodi.sourceforge.net/DTD/sodipodi-0.dtd"
   xmlns:inkscape="http://www.inkscape.org/namespaces/inkscape"
   width="1024"
   height="1024"
   viewBox="0 0 270.93332 270.93334"
   version="1.1"
   id="svg8"
   inkscape:version="0.92.4 (5da689c313, 2019-01-14)"
   sodipodi:docname="0017.WE.svg">
  <defs
     id="defs2" />
  <sodipodi:namedview
     id="base"
     pagecolor="#ffffff"
     bordercolor="#666666"
     borderopacity="1.0"
     inkscape:pageopacity="0.0"
     inkscape:pageshadow="2"
     inkscape:zoom="0.088388348"
     inkscape:cx="3671.0082"
     inkscape:cy="3347.9081"
     inkscape:document-units="mm"
     inkscape:current-layer="layer1"
     showgrid="false"
     inkscape:window-width="1920"
     inkscape:window-height="1027"
     inkscape:window-x="-8"
     inkscape:window-y="-8"
     inkscape:window-maximized="1"
     units="px"
     showguides="true"
     inkscape:guide-bbox="true">
    <sodipodi:guide
       position="-118.77941,312.75383"
       orientation="0,1"
       id="guide6804"
       inkscape:locked="false" />
    <sodipodi:guide
       position="-307.27932,312.75383"
       orientation="1,0"
       id="guide6806"
       inkscape:locked="false" />
    <sodipodi:guide
       position="-304.28597,1328.1532"
       orientation="0,1"
       id="guide6808"
       inkscape:locked="false" />
    <sodipodi:guide
       position="391.14502,989.68683"
       orientation="0,1"
       id="guide6810"
       inkscape:locked="false" />
    <sodipodi:guide
       position="391.14766,651.22028"
       orientation="0,1"
       id="guide6812"
       inkscape:locked="false" />
    <sodipodi:guide
       position="391.14505,312.75383"
       orientation="0,1"
       id="guide6814"
       inkscape:locked="false" />
  </sodipodi:namedview>
  <metadata
     id="metadata5">
    <rdf:RDF>
      <cc:Work
         rdf:about="">
        <dc:format>image/svg+xml</dc:format>
        <dc:type
           rdf:resource="http://purl.org/dc/dcmitype/StillImage" />
        <dc:title />
      </cc:Work>
    </rdf:RDF>
  </metadata>
  <g
     inkscape:label="Livello 1"
     inkscape:groupmode="layer"
     id="layer1"
     transform="translate(0,-26.06663)">
    <text
       xml:space="preserve"
       style="font-style:normal;font-weight:normal;font-size:10.58333302px;line-height:1.25;font-family:sans-serif;letter-spacing:0px;word-spacing:0px;fill:#000000;fill-opacity:1;stroke:none;stroke-width:0.26458332"
       x="94.038704"
       y="16.326693"
       id="text5812"><tspan
         sodipodi:role="line"
         id="tspan5810"
         x="94.038704"
         y="25.982187"
         style="stroke-width:0.26458332" /></text>
    <path
       style="color:#000000;font-style:normal;font-variant:normal;font-weight:normal;font-stretch:normal;font-size:medium;line-height:normal;font-family:sans-serif;font-variant-ligatures:normal;font-variant-position:normal;font-variant-caps:normal;font-variant-numeric:normal;font-variant-alternates:normal;font-feature-settings:normal;text-indent:0;text-align:start;text-decoration:none;text-decoration-line:none;text-decoration-style:solid;text-decoration-color:#000000;letter-spacing:normal;word-spacing:normal;text-transform:none;writing-mode:lr-tb;direction:ltr;text-orientation:mixed;dominant-baseline:auto;baseline-shift:baseline;text-anchor:start;white-space:normal;shape-padding:0;clip-rule:nonzero;display:inline;overflow:visible;visibility:visible;opacity:1;isolation:auto;mix-blend-mode:normal;color-interpolation:sRGB;color-interpolation-filters:linearRGB;solid-color:#000000;solid-opacity:1;vector-effect:none;fill:#333333;fill-opacity:1;fill-rule:nonzero;stroke:none;stroke-width:10.01873779;stroke-linecap:round;stroke-linejoin:miter;stroke-miterlimit:4;stroke-dasharray:none;stroke-dashoffset:0;stroke-opacity:1;paint-order:normal;color-rendering:auto;image-rendering:auto;shape-rendering:auto;text-rendering:auto;enable-background:accumulate"
       d="m 130.32702,47.105879 v 8.5359 c 3.0026,0 5.3442,2.349 5.3444,5.3527 -2e-4,3.0037 -2.3418,5.3477 -5.3444,5.3521 v 5.9247 c -6.762,-10.7535 -14.9056,-19.3213 -14.9056,-19.3213 -0.9368,-0.9043 -2.2001,-1.3905 -3.5015,-1.3477 -2.2335,0.08 -4.1179,1.6872 -4.5501,3.8799 l -4.2871,21.655 -8.642903,0.4511 -16.9168,-21.0344 c -1.3706,-1.712 -3.7254,-2.2811 -5.7268,-1.3844 -2.0014,0.8968 -3.1435,3.0326 -2.7781,5.1951 l 3.4597,20.5393 -19.405,28.405001 c -0.4523,0.6706 -0.7283,1.4444 -0.8025,2.25 l -1.586,16.8666 c -0.7837,1.026 -8.0137,10.4763 -16.0636,22.5511 -4.237,6.3556 -8.4802,13.1325 -11.7461,19.3043 -3.2658,6.1717 -5.8037,11.2832 -5.8037,16.6031 0,14.3589 6.1931,24.7214 14.4719,30.5609 1.7733,1.2507 6.2754,4.4906 12.0593,3.1776 0.4678,-0.1067 0.8607,-1.2227 1.3224,-1.3787 0,0.04 -0.046,0.1299 -0.046,0.1694 0.063,1.1994 0.3564,2.608 1.2283,3.8608 0.8724,1.2528 2.2431,2.0804 3.297,2.4381 2.1078,0.7153 3.2568,0.4609 4.0741,0.4951 4.023,0.1683 8.9883,0.8287 13.9765,-0.445 2.4943,-0.6368 5.1208,-1.9187 7.0827,-4.2183 1.9621,-2.2996 3.0393,-5.4021 3.2215,-8.8625 0.3249,-6.1815 -0.8811,-10.6736 -0.9276,-12.7171 -0.027,-1.0217 0.063,-1.236 0.2884,-1.6107 0.2309,-0.3747 0.8841,-1.1235 2.7202,-2.156 3.5132,-1.9762 9.9604,-3.6255 16.8476,-5.2586 6.887203,-1.633 14.236903,-3.3098 20.463903,-6.5872 6.9603,-3.6633 8.1737,-6.801 12.0339,-11.2758 l -1.4413,22.4571 c -0.037,0.1334 -0.4392,2.0548 -3.6292,6.3494 -3.2966,4.438 -9.3266,10.6854 -20.1818,17.1985 -25.817303,15.4904 -23.309603,52.0216 -23.309603,52.0216 0.1306,2.5599 2.2442,4.5686 4.8074,4.5687 h 44.896503 c 2.3969,-0.001 4.764,-0.044 13.8798,0.2522 8.9661,0.072 15.9225,0.132 25.5746,-0.7591 6.6618,-0.615 13.2899,-2.7364 19.2707,-5.5573 0.4682,-0.2213 0.9522,-0.4362 1.404,-0.6646 4.8013,-2.4799 9.5544,-5.5961 12.6045,-10.0655 0.3517,-0.5216 0.673,-1.0576 0.9653,-1.6045 0.8951,-1.6753 1.3641,-3.4917 1.6412,-4.4835 0.2942,-1.053 0.2683,-2.6962 0.2698,-9.9214 v -35.4965 c 0.024,-0.3528 -0.01,-0.8477 -0.01,-1.2475 v -0.2191 c 0.061,-1.0942 -0.2097,-2.4557 -0.2946,-3.2468 -0.3105,-1.2836 -0.7314,-2.534 -1.3601,-3.7104 -0.2924,-0.5469 -0.6141,-1.083 -0.9658,-1.6045 -0.3566,-0.5297 -0.7543,-1.0438 -1.1715,-1.5421 l 36.5595,-90.8373 c 0.4281,0.04 0.8402,0.1318 1.2784,0.1318 7.6203,0 13.8893,-6.268901 13.8896,-13.889101 0,-7.6237 -6.266,-13.8949 -13.8896,-13.8953 -7.6236,3e-4 -13.8935,6.2716 -13.889,13.8953 0,3.3734 1.2789,6.4392 3.3093,8.856301 l -44.3688,48.1356 4.0049,-65.866801 c 6.625,-1.0368 11.7767,-6.779 11.7771,-13.6762 0,-7.6202 -6.2689,-13.8887 -13.8891,-13.8891 -7.6201,0 -13.8887,6.2689 -13.8891,13.8891 0,4.4722 2.1973,8.4335 5.5216,10.9807 l -29.1507,59.580901 -14.1273,-64.820301 0.1091,-0.5013 c 5.1484,-2.0398 8.8425,-7.0598 8.8429,-12.899 0,-7.6202 -6.2689,-13.8887 -13.8891,-13.889 z m 56.5764,16.1949 c 3.0066,2e-4 5.352,2.3462 5.3521,5.3527 -1e-4,3.0065 -2.3455,5.3525 -5.3521,5.3526 -3.0063,-2e-4 -5.3527,-2.3461 -5.3527,-5.3526 0,-3.0065 2.3464,-5.3525 5.3527,-5.3527 z m -72.238,4.8545 c 4.3905,4.8584 9.3725,9.2254 12.8173,17.8377 1.6822,3.9219 2.0534,6.8575 2.8443,11.0122 l 15.5293,71.278901 32.3097,-65.9986 -4.406,72.3227 47.07,-51.0754 -26.5121,65.8859 c -3.5336,-2.1964 -7.6645,-4.1102 -12.3848,-5.779 -16.2884,-5.3146 -42.7123,-7.4783 -50.3343,-7.5354 -0.038,0 -0.2135,-17.8749 -0.2135,-17.8749 -1.9916,2.6031 -10.8716,13.4687 -18.7063,17.5922 -4.5513,2.3955 -11.3508,4.131 -18.220103,5.7599 -6.8696,1.6288 -13.7659,3.1007 -19.329,6.2301 -2.703,1.5203 -4.8226,3.2478 -6.2053,5.4968 -1.3828,2.249 -1.7525,4.7958 -1.7049,6.8941 0.097,4.1967 1.1635,7.3621 0.922,11.959 -0.097,1.9288 -0.5377,2.6776 -0.922,3.1274 -0.3828,0.4499 -0.9366,0.8356 -2.1311,1.1406 -2.0708,0.5288 -5.9288,0.2998 -9.7146,0.1379 0.343,-1.3389 0.947,-4.4481 4.7883,-13.1433 0.987,-2.3659 -0.053,-5.0904 -2.3658,-6.1966 -2.3125,-1.1061 -5.0862,-0.2058 -6.3086,2.0475 -4.8011,9.392 -8.5169,11.6234 -10.0221,11.9651 -1.5051,0.3416 -2.6105,-0.4118 -4.3812,-1.6609 -5.8966,-4.1591 -10.373,-10.9591 -10.373,-22.6952 0,-1.2039 1.6535,-6.4151 4.6633,-12.1032 3.0099,-5.688 7.1265,-12.2813 11.2567,-18.4769 8.2607,-12.391 16.5592,-23.2156 16.5592,-23.2156 0.5476,-0.714 0.8842,-1.5673 0.9715,-2.4629 l 1.586,-16.9354 19.7807,-28.950201 c 0.7075,-1.0308 0.9862,-2.2963 0.7772,-3.529 l -0.7085,-4.2617 6.8941,8.5741 c 0.9681,1.2091 2.4587,1.8785 4.0055,1.7989 l 14.847603,-0.7834 c 2.2017,-0.1093 4.0478,-1.7 4.4814,-3.8613 z m 125.2937,17.6904 c 3.008,10e-5 5.3544,2.3509 5.3526,5.3588 -1e-4,3.0065 -2.346,5.3525 -5.3526,5.3527 -3.0065,-2e-4 -5.3526,-2.3462 -5.3527,-5.3527 0,-3.0079 2.3448,-5.3587 5.3527,-5.3588 z M 86.419117,120.52418 c -3.4165,0.063 -10.9731,3.2873 -14.3676,7.6063 -1.1679,1.4867 -1.31,6.2864 -1.31,6.2864 0,0 -0.1665,2.1804 1.203,2.4071 1.3696,0.2267 1.7176,-1.9273 3.8613,-3.2593 2.1435,-1.3318 6.2562,0.61 8.3235,-1.5042 2.1459,-2.1951 0.4143,-3.3194 1.6232,-7.12 0.6779,-2.1316 4.0212,-2.7854 2.0618,-4.1305 -0.2452,-0.1682 -0.6142,-0.2611 -1.0779,-0.2822 -0.1013,0 -0.2071,-0.01 -0.3173,0 z m -46.561,62.7776 c -1.6729,0.095 -5.5713,5.4144 -5.9893,7.6873 -0.6732,3.6618 0.2742,5.562 1.185,6.5056 0.9108,0.9436 2.7082,1.8319 4.0555,1.6046 1.3658,-0.2307 3.4231,-1.5488 3.9109,-2.7828 0.4,-1.0093 0.3412,-3.2993 -0.4072,-4.1305 -0.7484,-0.8312 -2.7472,0.2749 -3.6856,-1.3472 -0.9388,-1.6223 3.78,-6.5482 1.2346,-7.4838 -0.09,-0.043 -0.1919,-0.06 -0.3034,-0.053 z m 91.527203,2.345 c 19.0666,0.014 35.2608,2.7995 47.3382,7.0694 6.0536,2.1402 10.7877,4.674 13.7139,7.1199 2.8754,2.4035 3.7852,4.3663 3.8168,5.9728 v 0.064 c 0.049,0.9147 0.024,1.8301 0.049,2.7451 l -8.217,4.5067 c -2.5014,1.3713 -1.8074,2.8696 0,5.0767 l 8.217,10.0283 v 6.9071 c -3.9211,-2.7683 -8.7204,-5.1143 -14.3598,-7.1081 -13.5289,-4.7831 -31.6259,-7.6084 -51.6165,-7.6208 v 9.6207 c 19.0666,0.014 36.3191,2.7993 48.3965,7.0693 6.0536,2.1402 10.7877,4.674 13.7139,7.12 2.8047,2.3443 3.724,4.2636 3.5977,6.121 -0.1264,1.8575 -0.8244,3.2824 -2.4065,4.8855 -4.0333,3.2849 -8.1975,5.606 -12.361,7.258 -16.7319,6.0476 -34.3112,3.4708 -50.9406,3.5502 H 90.766517 c 0.1214,-6.4773 1.1511,-28.5276 18.119903,-38.7088 10.4927,-6.2957 17.2088,-12.5837 21.4405,-17.755 v 4.0918 c 1.6372,-0.015 3.2633,-0.3527 4.4793,-1.0201 l 14.2084,-7.7908 c 2.5014,-1.3713 2.5014,-3.7054 0,-5.0767 l -14.2084,-7.7907 c -1.216,-0.6666 -1.7826,-1.0029 -3.421,-1.0185 z"
       id="rect4531-09-6-5"
       inkscape:connector-curvature="0"
       sodipodi:nodetypes="ccccccccccccccccccsscccccccccccccscccccccccccccccccsccccccscccccccccccccccccccscccccccccccccccsccccccscccscccccccccccccccccccccccccccccccccccccccsccccccccccccccccccscccccccc" />
  </g>
</svg>
