<?xml version="1.0" encoding="UTF-8" standalone="no"?>
<!-- Created with Inkscape (http://www.inkscape.org/) -->

<svg
   xmlns:dc="http://purl.org/dc/elements/1.1/"
   xmlns:cc="http://creativecommons.org/ns#"
   xmlns:rdf="http://www.w3.org/1999/02/22-rdf-syntax-ns#"
   xmlns:svg="http://www.w3.org/2000/svg"
   xmlns="http://www.w3.org/2000/svg"
   xmlns:sodipodi="http://sodipodi.sourceforge.net/DTD/sodipodi-0.dtd"
   xmlns:inkscape="http://www.inkscape.org/namespaces/inkscape"
   width="1024"
   height="1024"
   viewBox="0 0 270.93332 270.93334"
   version="1.1"
   id="svg8"
   inkscape:version="0.92.4 (5da689c313, 2019-01-14)"
   sodipodi:docname="0018.WT.svg">
  <defs
     id="defs2" />
  <sodipodi:namedview
     id="base"
     pagecolor="#ffffff"
     bordercolor="#666666"
     borderopacity="1.0"
     inkscape:pageopacity="0.0"
     inkscape:pageshadow="2"
     inkscape:zoom="0.088388348"
     inkscape:cx="5053.561"
     inkscape:cy="3370.5355"
     inkscape:document-units="mm"
     inkscape:current-layer="layer1"
     showgrid="false"
     inkscape:window-width="1920"
     inkscape:window-height="1027"
     inkscape:window-x="-8"
     inkscape:window-y="-8"
     inkscape:window-maximized="1"
     units="px"
     showguides="true"
     inkscape:guide-bbox="true">
    <sodipodi:guide
       position="-118.77941,312.75383"
       orientation="0,1"
       id="guide6804"
       inkscape:locked="false" />
    <sodipodi:guide
       position="-307.27932,312.75383"
       orientation="1,0"
       id="guide6806"
       inkscape:locked="false" />
    <sodipodi:guide
       position="-304.28597,1328.1532"
       orientation="0,1"
       id="guide6808"
       inkscape:locked="false" />
    <sodipodi:guide
       position="391.14502,989.68683"
       orientation="0,1"
       id="guide6810"
       inkscape:locked="false" />
    <sodipodi:guide
       position="391.14766,651.22028"
       orientation="0,1"
       id="guide6812"
       inkscape:locked="false" />
    <sodipodi:guide
       position="391.14505,312.75383"
       orientation="0,1"
       id="guide6814"
       inkscape:locked="false" />
  </sodipodi:namedview>
  <metadata
     id="metadata5">
    <rdf:RDF>
      <cc:Work
         rdf:about="">
        <dc:format>image/svg+xml</dc:format>
        <dc:type
           rdf:resource="http://purl.org/dc/dcmitype/StillImage" />
        <dc:title />
      </cc:Work>
    </rdf:RDF>
  </metadata>
  <g
     inkscape:label="Livello 1"
     inkscape:groupmode="layer"
     id="layer1"
     transform="translate(0,-26.06663)">
    <text
       xml:space="preserve"
       style="font-style:normal;font-weight:normal;font-size:10.58333302px;line-height:1.25;font-family:sans-serif;letter-spacing:0px;word-spacing:0px;fill:#000000;fill-opacity:1;stroke:none;stroke-width:0.26458332"
       x="94.038704"
       y="16.326693"
       id="text5812"><tspan
         sodipodi:role="line"
         id="tspan5810"
         x="94.038704"
         y="25.982187"
         style="stroke-width:0.26458332" /></text>
    <path
       style="color:#000000;font-style:normal;font-variant:normal;font-weight:normal;font-stretch:normal;font-size:medium;line-height:normal;font-family:sans-serif;font-variant-ligatures:normal;font-variant-position:normal;font-variant-caps:normal;font-variant-numeric:normal;font-variant-alternates:normal;font-feature-settings:normal;text-indent:0;text-align:start;text-decoration:none;text-decoration-line:none;text-decoration-style:solid;text-decoration-color:#000000;letter-spacing:normal;word-spacing:normal;text-transform:none;writing-mode:lr-tb;direction:ltr;text-orientation:mixed;dominant-baseline:auto;baseline-shift:baseline;text-anchor:start;white-space:normal;shape-padding:0;clip-rule:nonzero;display:inline;overflow:visible;visibility:visible;opacity:1;isolation:auto;mix-blend-mode:normal;color-interpolation:sRGB;color-interpolation-filters:linearRGB;solid-color:#000000;solid-opacity:1;vector-effect:none;fill:#333333;fill-opacity:1;fill-rule:nonzero;stroke:none;stroke-width:9.62713242;stroke-linecap:round;stroke-linejoin:round;stroke-miterlimit:4;stroke-dasharray:none;stroke-dashoffset:0;stroke-opacity:1;color-rendering:auto;image-rendering:auto;shape-rendering:auto;text-rendering:auto;enable-background:accumulate"
       d="m 144.44047,48.928297 v 9.6459 11.343 c -6.6508,-10.362 -14.3763,-18.5002 -14.3763,-18.5002 -0.9368,-0.9041 -2.1999,-1.3904 -3.5011,-1.3477 -2.2337,0.08 -4.1184,1.687 -4.5507,3.8799 l -4.287,21.655 -8.6429,0.4511 -16.916803,-21.0343 c -1.3706,-1.7121 -3.7251,-2.2814 -5.7265,-1.3847 -2.0014,0.8967 -3.1438,3.0328 -2.7784,5.1953 l 3.4597,20.5393 -19.405,28.405003 c -0.4523,0.6706 -0.7283,1.4445 -0.8025,2.25 l -1.586,16.8666 c -0.7836,1.026 -8.0137,10.4763 -16.0636,22.5511 -4.2369,6.3556 -8.4798,13.1325 -11.7455,19.3043 -3.2659,6.1717 -5.8043,11.2832 -5.8043,16.6031 0,14.3589 6.1931,24.7214 14.472,30.5609 1.7731,1.2507 6.2753,4.4906 12.0592,3.1776 0.4678,-0.1067 0.8606,-1.2227 1.3224,-1.3787 0,0.04 -0.046,0.1299 -0.046,0.1695 0.063,1.1992 0.3564,2.6079 1.2283,3.8607 0.8724,1.2528 2.243,2.0804 3.297,2.4381 2.1077,0.7153 3.2567,0.4608 4.0741,0.4951 4.0229,0.1683 8.9888,0.8287 13.977,-0.445 2.4943,-0.6368 5.1204,-1.9188 7.0822,-4.2183 1.9621,-2.2996 3.0394,-5.4022 3.2215,-8.8625 0.325,-6.1815 -0.8812,-10.6736 -0.9276,-12.7171 -0.027,-1.0217 0.063,-1.236 0.2889,-1.6107 0.2309,-0.3747 0.8842,-1.1235 2.7203,-2.156 3.5131,-1.9762 9.959803,-3.6255 16.847003,-5.2586 6.8872,-1.633 14.2369,-3.3098 20.4639,-6.5872 6.9603,-3.6633 8.1737,-6.801 12.0338,-11.2758 l -1.4412,22.4571 c -0.037,0.1334 -0.4393,2.0548 -3.6293,6.3494 -3.2966,4.438 -9.3266,10.6855 -20.1817,17.1985 -25.817403,15.4904 -23.309103,52.0216 -23.309103,52.0216 0.1306,2.5597 2.2439,4.5683 4.806903,4.5687 h 44.3673 0.5292 20.6179 73.6322 v -37.4494 l -19.2857,-19.2856 v -13.4504 l -22.6699,-25.3715 0.5266,-58.1324 25.5591,-17.0356 V 48.953597 h -37.4302 v 22.67 h -23.2844 v -22.6953 h -4.9826 -3.8897 z m 51.1003,9.6459 h 18.1637 v 37.713 h -50.555 -18.709 v 9.614403 h 18.709 39.0787 l -13.9955,9.3327 h -3.0773 -40.7149 v 9.6206 h 40.7149 2.9517 l -0.4511,50.7179 h -2.5947 -40.0916 v -17.8181 c -1.9917,2.6032 -9.8133,12.4104 -17.648,16.5339 -4.5513,2.3955 -11.3508,4.131 -18.2201,5.7599 -6.8696,1.6288 -13.765903,3.1007 -19.329003,6.2301 -2.7031,1.5203 -4.8225,3.2478 -6.2054,5.4968 -1.3828,2.249 -1.7524,4.7958 -1.7048,6.8941 0.097,4.1967 1.1634,7.3621 0.922,11.959 -0.097,1.9288 -0.5376,2.6776 -0.922,3.1275 -0.3828,0.4498 -0.9366,0.8354 -2.1311,1.1405 -2.0708,0.5288 -5.9289,0.2998 -9.7146,0.1379 0.343,-1.3389 0.947,-4.448 4.7883,-13.1434 0.9872,-2.3659 -0.053,-5.0903 -2.3656,-6.1965 -2.3127,-1.1062 -5.0865,-0.206 -6.3088,2.0474 -4.8011,9.3921 -8.517,11.6235 -10.0221,11.9652 -1.5052,0.3416 -2.6106,-0.4118 -4.3812,-1.6609 -5.8967,-4.1591 -10.373,-10.9591 -10.373,-22.6952 0,-1.2039 1.6536,-6.4151 4.6633,-12.1032 3.01,-5.688 7.1265,-12.2813 11.2567,-18.4769 8.2607,-12.391 16.5592,-23.2156 16.5592,-23.2156 0.5476,-0.714 0.8842,-1.5673 0.9715,-2.4629 l 1.5859,-16.9354 19.7807,-28.950203 c 0.7075,-1.0307 0.9862,-2.2963 0.7773,-3.5289 l -0.7085,-4.2618 6.894603,8.5742 c 0.968,1.2088 2.4584,1.8783 4.005,1.7988 l 14.8476,-0.7834 c 2.2017,-0.1093 4.0479,-1.7 4.4814,-3.8613 l 2.8391,-14.5221 c 4.3906,4.8585 9.3726,9.2254 12.8173,17.8377 0.4391,1.0914 1.1845,2.1848 2.5533,2.221 1.3687,0.036 4.0921,-1.1925 8.336,-5.4363 h 42.5261 z m -94.479,60.416503 v 5e-4 c -3.416503,0.063 -10.973103,3.2873 -14.367603,7.6063 -1.1679,1.4867 -1.31,6.2869 -1.31,6.2869 0,0 -0.1665,2.18 1.203,2.4066 1.3696,0.2267 1.7176,-1.9273 3.8613,-3.2592 2.1435,-1.3319 6.2562,0.61 8.3235,-1.5043 2.145903,-2.1951 0.4142,-3.3194 1.623203,-7.12 0.6778,-2.1315 4.0211,-2.7854 2.0619,-4.1305 -0.2453,-0.1682 -0.6143,-0.2611 -1.078,-0.2822 -0.1013,0 -0.2071,-0.01 -0.3173,0 z m -46.561003,62.7781 c -1.6729,0.095 -5.5713,5.4144 -5.9893,7.6873 -0.6733,3.6618 0.2741,5.562 1.1849,6.5056 0.9109,0.9436 2.7084,1.8318 4.0556,1.6045 1.3659,-0.2306 3.4231,-1.5487 3.9109,-2.7827 0.3999,-1.0093 0.3412,-3.2988 -0.4072,-4.13 -0.7485,-0.8312 -2.7471,0.2744 -3.6856,-1.3477 -0.9387,-1.6223 3.7805,-6.5483 1.2351,-7.4838 v 0 c -0.09,-0.043 -0.1919,-0.06 -0.3034,-0.053 z m 90.468903,3.4437 h 40.0916 5.2271 l 16.9416,18.9725 h -42.9209 -19.3394 z m -0.5292,23.4549 v 5.1382 h 19.8686 45.9858 v 7.5778 l 18.126,18.1007 h -64.7262 -19.2542 v 9.6149 h 19.2542 65.9107 v 15.3996 h -64.0178 -20.6179 -0.5292 -39.0312 c 0.1213,-6.4773 1.151,-28.5275 18.1198,-38.7088 10.0705,-6.0422 16.6561,-12.0747 20.9114,-17.1224 z"
       id="path5806-38"
       inkscape:connector-curvature="0"
       sodipodi:nodetypes="cccccccccscccccccscccccccccccccccccccccccccccccccccccccccccccccccccccccccccccccccccccscccscccccccccccccccccccccccccccccccccccccccccccccccccccccccccccccccccc" />
  </g>
</svg>
