<?xml version="1.0" encoding="UTF-8" standalone="no"?>
<!-- Created with Inkscape (http://www.inkscape.org/) -->

<svg
   xmlns:dc="http://purl.org/dc/elements/1.1/"
   xmlns:cc="http://creativecommons.org/ns#"
   xmlns:rdf="http://www.w3.org/1999/02/22-rdf-syntax-ns#"
   xmlns:svg="http://www.w3.org/2000/svg"
   xmlns="http://www.w3.org/2000/svg"
   xmlns:sodipodi="http://sodipodi.sourceforge.net/DTD/sodipodi-0.dtd"
   xmlns:inkscape="http://www.inkscape.org/namespaces/inkscape"
   width="1024"
   height="1024"
   viewBox="0 0 270.93332 270.93334"
   version="1.1"
   id="svg8"
   inkscape:version="0.92.4 (5da689c313, 2019-01-14)"
   sodipodi:docname="0019.WA.svg">
  <defs
     id="defs2" />
  <sodipodi:namedview
     id="base"
     pagecolor="#ffffff"
     bordercolor="#666666"
     borderopacity="1.0"
     inkscape:pageopacity="0.0"
     inkscape:pageshadow="2"
     inkscape:zoom="0.088388348"
     inkscape:cx="2053.1478"
     inkscape:cy="3393.1629"
     inkscape:document-units="mm"
     inkscape:current-layer="layer1"
     showgrid="false"
     inkscape:window-width="1920"
     inkscape:window-height="1027"
     inkscape:window-x="-8"
     inkscape:window-y="-8"
     inkscape:window-maximized="1"
     units="px"
     showguides="true"
     inkscape:guide-bbox="true">
    <sodipodi:guide
       position="-118.77941,312.75383"
       orientation="0,1"
       id="guide6804"
       inkscape:locked="false" />
    <sodipodi:guide
       position="-307.27932,312.75383"
       orientation="1,0"
       id="guide6806"
       inkscape:locked="false" />
    <sodipodi:guide
       position="-304.28597,1328.1532"
       orientation="0,1"
       id="guide6808"
       inkscape:locked="false" />
    <sodipodi:guide
       position="391.14502,989.68683"
       orientation="0,1"
       id="guide6810"
       inkscape:locked="false" />
    <sodipodi:guide
       position="391.14766,651.22028"
       orientation="0,1"
       id="guide6812"
       inkscape:locked="false" />
    <sodipodi:guide
       position="391.14505,312.75383"
       orientation="0,1"
       id="guide6814"
       inkscape:locked="false" />
  </sodipodi:namedview>
  <metadata
     id="metadata5">
    <rdf:RDF>
      <cc:Work
         rdf:about="">
        <dc:format>image/svg+xml</dc:format>
        <dc:type
           rdf:resource="http://purl.org/dc/dcmitype/StillImage" />
        <dc:title />
      </cc:Work>
    </rdf:RDF>
  </metadata>
  <g
     inkscape:label="Livello 1"
     inkscape:groupmode="layer"
     id="layer1"
     transform="translate(0,-26.06663)">
    <path
       style="color:#000000;font-style:normal;font-variant:normal;font-weight:normal;font-stretch:normal;font-size:medium;line-height:normal;font-family:sans-serif;font-variant-ligatures:normal;font-variant-position:normal;font-variant-caps:normal;font-variant-numeric:normal;font-variant-alternates:normal;font-feature-settings:normal;text-indent:0;text-align:start;text-decoration:none;text-decoration-line:none;text-decoration-style:solid;text-decoration-color:#000000;letter-spacing:normal;word-spacing:normal;text-transform:none;writing-mode:lr-tb;direction:ltr;text-orientation:mixed;dominant-baseline:auto;baseline-shift:baseline;text-anchor:start;white-space:normal;shape-padding:0;clip-rule:nonzero;display:inline;overflow:visible;visibility:visible;opacity:1;isolation:auto;mix-blend-mode:normal;color-interpolation:sRGB;color-interpolation-filters:linearRGB;solid-color:#000000;solid-opacity:1;vector-effect:none;fill:#333333;fill-opacity:1;fill-rule:nonzero;stroke:none;stroke-width:9.62713242;stroke-linecap:round;stroke-linejoin:round;stroke-miterlimit:4;stroke-dasharray:none;stroke-dashoffset:0;stroke-opacity:1;color-rendering:auto;image-rendering:auto;shape-rendering:auto;text-rendering:auto;enable-background:accumulate"
       d="m 115.81666,49.500348 c -2.2325,0.081 -4.1158,1.6876 -4.5481,3.8794 l -4.287,21.655 -8.642896,0.4511 -16.9168,-21.0343 c -1.3706,-1.7123 -3.7254,-2.2816 -5.7269,-1.3848 -2.0015,0.8969 -3.1437,3.0333 -2.778,5.1959 l 3.4597,20.5388 -19.4045,28.404902 c -0.4526,0.6707 -0.7288,1.4447 -0.8031,2.2505 l -1.5859,16.8661 c -0.7837,1.026 -8.013695,10.4763 -16.063595,22.5511 -4.237,6.3557 -8.4799,13.1325 -11.7456,19.3043 -3.2658,6.1718 -5.8037,11.2833 -5.8037,16.6031 0,14.359 6.1925,24.7214 14.4714,30.5609 1.7732,1.2508 6.2753,4.4911 12.0592,3.1781 0.4679,-0.1066 0.8607,-1.2231 1.3224,-1.3792 0,0.04 -0.046,0.1299 -0.046,0.1695 0.063,1.1993 0.357,2.608 1.2289,3.8607 0.8723,1.2528 2.2426,2.0804 3.296395,2.4381 2.1079,0.7154 3.2569,0.4609 4.0742,0.4951 4.0229,0.1683 8.9887,0.8288 13.9769,-0.4449 2.4943,-0.6369 5.1204,-1.9188 7.0823,-4.2184 1.9621,-2.2995 3.0393,-5.4016 3.2215,-8.862 0.3249,-6.1815 -0.8812,-10.6741 -0.9276,-12.7175 -0.027,-1.0218 0.063,-1.2361 0.2889,-1.6108 0.2309,-0.3747 0.8841,-1.1235 2.7202,-2.1559 3.5132,-1.9763 9.9599,-3.6256 16.847096,-5.2586 6.8872,-1.6331 14.2369,-3.3099 20.4638,-6.5872 6.9603,-3.6634 6.5862,-5.2136 10.4464,-9.6883 l -0.9121,20.8695 c -0.037,0.1334 0.6191,2.0548 -2.5709,6.3495 -3.2966,4.4379 -9.3266,10.6854 -20.1817,17.1984 -25.817396,15.4905 -23.309196,52.0216 -23.309196,52.0216 0.1304,2.56 2.2438,4.5688 4.807,4.5693 l 45.955596,-10e-5 c 2.046,-5.1986 2.9229,-12.3934 9.9723,-9.7492 4.9837,3.4436 10.5941,5.0506 15.7075,6.2999 l 0.095,0.025 0.072,0.025 c 19.7684,4.1405 34.4241,-2.7333 50.1288,-2.2247 1.7894,0.09 2.7543,0.3122 3.0086,0.401 0.091,0.1954 1.4704,2.6047 4.4751,3.9109 l 0.9209,0.401 h 0.9968 c 5.5413,0 14.8459,-0.2382 24.4942,-0.2382 h 4.8069 v -4.807 c 0,-5.3986 -1.4448,-9.5043 -3.3151,-12.9806 -1.7773,-3.3033 -4.2859,-7.6335 -9.0257,-11.0184 -4.7397,-3.3849 -11.4446,-5.6269 -21.0091,-5.9232 -10.2697,-0.3181 -25.9267,3.0109 -39.0162,2.7957 -6.5448,-0.1079 -12.2046,-1.1614 -15.6378,-3.1967 -2.2168,-1.3142 -2.578,-4.2184 -3.3848,-6.6812 6.957,-1.2495 14.0376,-3.5539 18.7595,-9.5705 l 1.0212,-1.3038 v -31.3195 c 5.2858,-3.1575 16.9358,-11.6929 18.928,-26.9069 1.6405,-12.5287 -1.0343,-23.852 -10.3291,-35.864 -8.493,-10.9758 -22.5931,-23.2335 -43.9115,-39.930802 5.9464,-3.1535 10.0345,-9.4118 10.0345,-16.5654 0,-10.2897 -8.9794,-18.7404 -19.2691,-18.7404 h -0.01 c -0.034,0 -0.068,0 -0.1023,0 v 9.6459 c 0.034,-3e-4 0.068,0 0.1023,0 5.0867,0 9.6299,4.0078 9.6299,9.0946 0,4.9441 -4.2923,8.8908 -9.2036,9.1085 v -8.0879 c -6.762,-10.7536 -14.9055,-19.3213 -14.9055,-19.3213 -0.9369,-0.904 -2.1999,-1.39 -3.5011,-1.3472 z m 2.7476,16.5525 c 4.3905,4.8585 9.3725,9.226 12.8173,17.8382 0.4392,1.0915 1.263,1.9844 2.3156,2.5099 v 4.6473 c 0,-5e-4 0,0 0,0 v 5e-4 c 22.8611,17.801302 37.7974,30.387602 45.6184,40.495102 8.1804,10.5718 9.8076,18.0273 8.4052,28.7373 -1.7169,13.1115 -14.1551,19.7288 -15.4874,20.4205 -9.6299,-4.1247 -22.629,-6.6781 -38.0101,-7.0725 v -11.8499 h 3.1863 v -16.3085 h 16.3086 v -6.3867 h -16.3086 v -16.3086 h -3.715 v 35.0868 c -2.5517,3.263 -9.7979,12.0051 -17.1194,15.8584 -4.5512,2.3955 -11.3502,4.131 -18.219496,5.7599 -6.8696,1.6289 -13.7666,3.1008 -19.3296,6.2301 -2.703,1.5203 -4.8226,3.2479 -6.2054,5.4968 -1.3827,2.249 -1.7523,4.7959 -1.7047,6.8942 0.097,4.1967 1.1633,7.362 0.9218,11.9589 -0.097,1.9289 -0.5376,2.6776 -0.9218,3.1275 -0.3828,0.4499 -0.9361,0.8355 -2.1306,1.1405 -2.0708,0.5288 -5.9294,0.2998 -9.7153,0.138 0.343,-1.339 0.9471,-4.4481 4.7884,-13.1434 0.987,-2.3659 -0.053,-5.0902 -2.3656,-6.1964 -2.3127,-1.1061 -5.0863,-0.206 -6.3088,2.0473 -4.800895,9.3921 -8.516895,11.6235 -10.022095,11.9652 -1.5051,0.3416 -2.6104,-0.4119 -4.3811,-1.6609 -5.8965,-4.1591 -10.3731,-10.9592 -10.3731,-22.6953 0,-1.2039 1.6535,-6.4151 4.6634,-12.1031 3.0099,-5.688 7.1264,-12.2814 11.2566,-18.4769 8.260595,-12.3911 16.559195,-23.2152 16.559195,-23.2152 0.5478,-0.7142 0.8844,-1.5676 0.9715,-2.4634 l 1.586,-16.9354 19.7807,-28.950102 c 0.7073,-1.0306 0.9861,-2.296 0.7772,-3.5284 l -0.7086,-4.2623 6.8947,8.5741 c 0.9679,1.2089 2.4584,1.8784 4.005,1.7989 l 14.847596,-0.7834 c 2.2015,-0.1092 4.0476,-1.6997 4.4814,-3.8608 z M 90.317964,118.42165 c -3.4166,0.063 -10.9731,3.2878 -14.3676,7.6068 -1.1679,1.4867 -1.31,6.2864 -1.31,6.2864 0,0 -0.1665,2.18 1.203,2.4066 1.3696,0.2267 1.7176,-1.9273 3.8613,-3.2592 2.1435,-1.3319 6.2562,0.61 8.3235,-1.5043 2.1459,-2.1951 0.4142,-3.3194 1.6231,-7.12 0.6779,-2.1315 4.0212,-2.7854 2.0619,-4.1305 -0.2453,-0.1682 -0.6142,-0.2611 -1.078,-0.2822 v 6e-4 c -0.1013,0 -0.207,-0.01 -0.3172,0 z m -46.560495,62.7776 c -1.673,0.095 -5.572,5.4144 -5.9898,7.6874 -0.6733,3.6617 0.2741,5.5625 1.1849,6.5061 0.9109,0.9436 2.7084,1.8318 4.0556,1.6045 1.3659,-0.2306 3.4232,-1.5493 3.9109,-2.7833 0.4,-1.0092 0.3412,-3.2987 -0.4072,-4.13 -0.7484,-0.8311 -2.7472,0.2745 -3.6856,-1.3477 -0.9387,-1.6222 3.7805,-6.5482 1.2351,-7.4838 v 0 c -0.09,-0.043 -0.1913,-0.06 -0.3029,-0.053 z m 90.468391,2.0702 c 14.2654,0.3376 26.7997,2.3827 34.5002,5.4658 v 6.5179 l -4.2054,4.206 4.2054,4.2054 v 9.8025 c -11.5032,-2.5082 -23.5476,-4.0484 -35.0284,-4.1956 v 6.3996 c 9.9212,0.1295 20.441,1.3402 30.4907,3.3621 -2.3414,1.2824 -5.0785,2.2193 -8.3737,2.7197 -5.6948,0.8647 -12.2302,0.756 -18.3766,0.7338 -0.5322,0 -1.0924,0 -1.6175,0 h -2.1229 c -0.01,11.5432 0.01,28.0446 0.01,34.6217 l -3.727,6.8213 H 94.670164 c 0.1214,-6.4773 1.151,-28.5281 18.119796,-38.7093 10.4924,-6.2954 17.2088,-12.5833 21.4406,-17.7545 v -7.0853 h 1.2749 v -2.5513 h 5.7412 v -4.964 h -5.7412 v -2.557 h -1.2749 z m 15.3396,48.3112 c 1.4129,5.6215 3.0384,11.3566 7.4585,13.977 5.8864,3.4896 13.0295,4.4295 20.3951,4.5506 14.7311,0.2422 31.3395,-3.0292 38.8783,-2.7957 8.2439,0.2554 12.8009,2.0297 15.7251,4.1181 2.9244,2.0884 4.4853,4.7031 6.1361,7.7716 0.6461,1.2013 0.5947,2.5763 0.9462,3.6478 -6.4644,0.061 -12.8818,0.1497 -16.8647,0.1695 -0.01,-0.027 -0.1334,-0.2047 -0.8976,-1.1157 -0.8263,-0.9843 -2.3006,-2.0701 -3.9108,-2.6324 -1.61,-0.5622 -3.3662,-0.8307 -5.685,-0.9467 h -0.046 -0.045 c -18.3903,-0.6298 -31.8844,5.8411 -48.4431,2.4195 -6.4198,-1.5714 -11.7944,-3.3733 -15.6626,-7.6279 -3.1925,-3.5115 -4.8351,-11.4543 -5.6596,-21.2535 2.4926,0.01 5.0297,-0.1623 7.675,-0.2822 z"
       id="path5806-2"
       inkscape:connector-curvature="0"
       sodipodi:nodetypes="cccccscccccccscccccccccccccsccccccccccccccccsscsccccccccccccsssccssccccccccccccccccccccccccccccccccccscccscccccccccccccsccccccccccsccccccccscccccccccccsccccsccccccccccccccccccccccccccccc" />
    <text
       xml:space="preserve"
       style="font-style:normal;font-weight:normal;font-size:10.58333302px;line-height:1.25;font-family:sans-serif;letter-spacing:0px;word-spacing:0px;fill:#000000;fill-opacity:1;stroke:none;stroke-width:0.26458332"
       x="94.038704"
       y="16.326693"
       id="text5812"><tspan
         sodipodi:role="line"
         id="tspan5810"
         x="94.038704"
         y="25.982187"
         style="stroke-width:0.26458332" /></text>
  </g>
</svg>
