<?xml version="1.0" encoding="UTF-8" standalone="no"?>
<!-- Created with Inkscape (http://www.inkscape.org/) -->

<svg
   xmlns:dc="http://purl.org/dc/elements/1.1/"
   xmlns:cc="http://creativecommons.org/ns#"
   xmlns:rdf="http://www.w3.org/1999/02/22-rdf-syntax-ns#"
   xmlns:svg="http://www.w3.org/2000/svg"
   xmlns="http://www.w3.org/2000/svg"
   xmlns:sodipodi="http://sodipodi.sourceforge.net/DTD/sodipodi-0.dtd"
   xmlns:inkscape="http://www.inkscape.org/namespaces/inkscape"
   width="1024"
   height="1024"
   viewBox="0 0 270.93332 270.93334"
   version="1.1"
   id="svg8"
   inkscape:version="0.92.4 (5da689c313, 2019-01-14)"
   sodipodi:docname="0021.BQ.svg">
  <defs
     id="defs2" />
  <sodipodi:namedview
     id="base"
     pagecolor="#ffffff"
     bordercolor="#666666"
     borderopacity="1.0"
     inkscape:pageopacity="0.0"
     inkscape:pageshadow="2"
     inkscape:zoom="0.088388348"
     inkscape:cx="3480.2917"
     inkscape:cy="3370.5355"
     inkscape:document-units="mm"
     inkscape:current-layer="layer1"
     showgrid="false"
     inkscape:window-width="1920"
     inkscape:window-height="1027"
     inkscape:window-x="-8"
     inkscape:window-y="-8"
     inkscape:window-maximized="1"
     units="px"
     showguides="true"
     inkscape:guide-bbox="true">
    <sodipodi:guide
       position="-118.77941,312.75383"
       orientation="0,1"
       id="guide6804"
       inkscape:locked="false" />
    <sodipodi:guide
       position="-307.27932,312.75383"
       orientation="1,0"
       id="guide6806"
       inkscape:locked="false" />
    <sodipodi:guide
       position="-304.28597,1328.1532"
       orientation="0,1"
       id="guide6808"
       inkscape:locked="false" />
    <sodipodi:guide
       position="391.14502,989.68683"
       orientation="0,1"
       id="guide6810"
       inkscape:locked="false" />
    <sodipodi:guide
       position="391.14766,651.22028"
       orientation="0,1"
       id="guide6812"
       inkscape:locked="false" />
    <sodipodi:guide
       position="391.14505,312.75383"
       orientation="0,1"
       id="guide6814"
       inkscape:locked="false" />
  </sodipodi:namedview>
  <metadata
     id="metadata5">
    <rdf:RDF>
      <cc:Work
         rdf:about="">
        <dc:format>image/svg+xml</dc:format>
        <dc:type
           rdf:resource="http://purl.org/dc/dcmitype/StillImage" />
        <dc:title />
      </cc:Work>
    </rdf:RDF>
  </metadata>
  <g
     inkscape:label="Livello 1"
     inkscape:groupmode="layer"
     id="layer1"
     transform="translate(0,-26.06663)">
    <path
       style="color:#000000;font-style:normal;font-variant:normal;font-weight:normal;font-stretch:normal;font-size:medium;line-height:normal;font-family:sans-serif;font-variant-ligatures:normal;font-variant-position:normal;font-variant-caps:normal;font-variant-numeric:normal;font-variant-alternates:normal;font-feature-settings:normal;text-indent:0;text-align:start;text-decoration:none;text-decoration-line:none;text-decoration-style:solid;text-decoration-color:#000000;letter-spacing:normal;word-spacing:normal;text-transform:none;writing-mode:lr-tb;direction:ltr;text-orientation:mixed;dominant-baseline:auto;baseline-shift:baseline;text-anchor:start;white-space:normal;shape-padding:0;clip-rule:nonzero;display:inline;overflow:visible;visibility:visible;opacity:1;isolation:auto;mix-blend-mode:normal;color-interpolation:sRGB;color-interpolation-filters:linearRGB;solid-color:#000000;solid-opacity:1;vector-effect:none;fill:#333333;fill-opacity:1;fill-rule:nonzero;stroke:none;stroke-width:10.01873779;stroke-linecap:round;stroke-linejoin:miter;stroke-miterlimit:4;stroke-dasharray:none;stroke-dashoffset:0;stroke-opacity:1;paint-order:normal;color-rendering:auto;image-rendering:auto;shape-rendering:auto;text-rendering:auto;enable-background:accumulate"
       d="m 135.46063,45.009547 c -7.62019,4.4e-4 -13.88878,6.26895 -13.88915,13.88915 2.4e-4,5.84603 3.70373,10.87008 8.86242,12.90511 l 0.10915,0.48889 -14.15234,64.826453 -29.144723,-59.574203 c 3.32617,-2.54697 5.5217,-6.51356 5.52182,-10.98718 -3.6e-4,-7.62017 -6.26895,-13.88878 -13.88914,-13.88917 -7.6202,3.9e-4 -13.88879,6.269 -13.88914,13.88917 3.5e-4,6.89513 5.14861,12.63661 11.77075,13.67606 l 4.005,65.866883 -44.36255,-48.129403 c 2.03229,-2.41763 3.30919,-5.48731 3.30932,-8.8625 0.004,-7.62361 -6.26557,-13.89502 -13.88916,-13.89539 -7.6236,3.7e-4 -13.89376,6.27178 -13.88914,13.89539 3.5e-4,7.62021 6.26894,13.888713 13.88914,13.889183 0.4354,-6e-5 0.84654,-0.091 1.27242,-0.13158 l 36.62823,91.019 c -0.62464,0.78293 -1.20438,1.59009 -1.69231,2.43814 -0.95091,1.65401 -1.61823,3.43091 -1.91792,5.30241 v 0 c -0.0851,0.5424 -0.12733,1.0962 -0.15041,1.6547 v 0.012 l -0.0971,0.3636 0.005,0.1255 c 0,0.015 -0.0117,0.023 -0.0117,0.038 v 0.307 l 0.0117,0.1006 v 0 c -0.007,0.1128 -0.0117,-0.093 -0.0117,0.1067 v 42.407 c 0,0.3319 0.0489,0.2558 0.0851,0.5014 -0.0243,0.2496 -0.0606,0.4955 -0.0725,0.7458 l -0.006,0.1128 v 0.10669 c 0,1.08691 0.15403,2.1341 0.3954,3.15891 -0.0363,0.025 -0.0851,0.068 -0.10915,0.093 0.35412,1.4716 0.87814,2.8967 1.6421,4.2244 0.63433,1.1039 1.38716,2.1536 2.25011,3.1464 0.43296,0.4975 0.89876,0.97399 1.3788,1.44159 0.47784,0.46531 0.97878,0.91961 1.49801,1.35371 13.77745,9.99889 31.72338,13.5763 46.819453,15.2869 4.56039,0.49959 9.29603,0.8417 14.17745,1.0154 2.44078,0.091 4.91576,0.1313 7.42092,0.1313 2.43751,-1e-4 4.84384,-0.045 7.22032,-0.12581 0.0243,-9e-4 0.0489,0 0.0725,0 2.35369,-0.082 4.67257,-0.2037 6.95701,-0.3639 1.61106,-0.11309 3.17844,-0.2642 4.75092,-0.4135 0.74709,-0.072 1.51184,-0.12759 2.25011,-0.20729 1.64526,-0.1774 3.24212,-0.3909 4.83861,-0.6082 0.54093,-0.072 1.10007,-0.1348 1.6358,-0.21351 1.42076,-0.20729 2.79104,-0.45069 4.16802,-0.6897 0.75921,-0.1312 1.53658,-0.2479 2.28151,-0.3882 1.41058,-0.2661 2.76572,-0.5665 4.12413,-0.8652 0.5773,-0.1267 1.17404,-0.2434 1.7424,-0.3765 1.41347,-0.3303 2.76825,-0.6878 4.11781,-1.0529 0.51304,-0.1384 1.04427,-0.2697 1.5481,-0.4136 1.19225,-0.3402 2.32943,-0.705 3.466,-1.0717 4.85949,-1.464 9.51106,-3.5307 13.84524,-5.9606 0.39414,-0.2307 0.80538,-0.4525 1.18497,-0.6896 0.85018,-0.5312 1.64441,-1.0938 2.41944,-1.6608 0.26318,-0.1928 0.56644,-0.3675 0.82111,-0.5639 0.0971,-0.072 0.16978,-0.1583 0.26318,-0.2316 0.23041,-0.1819 0.49848,-0.3467 0.72048,-0.5331 1.73282,-1.4485 3.2346,-3.0816 4.43121,-4.8575 0.35177,-0.5215 0.67315,-1.0576 0.96545,-1.6045 0.89504,-1.6753 1.49812,-3.4634 1.7236,-5.3526 0.0117,-0.053 0.0489,-0.096 0.0606,-0.1504 l 0.10915,-1.0342 -0.005,-0.012 v 0 l 0.0243,-0.2131 v -0.2194 -0.1943 l -0.0117,-0.14409 c 0.0117,-0.2201 0.0117,0.18509 0.0117,-0.1692 v -42.407 c 0.0243,-0.3529 -0.004,-0.8475 -0.005,-1.2473 v -0.2193 c 0.0606,-1.0943 -0.21106,-2.4555 -0.29476,-3.2467 -0.31052,-1.2836 -0.73134,-2.5341 -1.36012,-3.7105 -0.29232,-0.54685 -0.61368,-1.08292 -0.96543,-1.60446 -0.35658,-0.5297 -0.75443,-1.04368 -1.17163,-1.54187 l 36.55301,-90.83725 c 0.42816,0.0398 0.84049,0.1316 1.2786,0.1316 7.62021,-4.4e-4 13.88879,-6.268973 13.88916,-13.889183 0.004,-7.62362 -6.26555,-13.89503 -13.88916,-13.89541 -7.62359,3.8e-4 -13.89363,6.27179 -13.88914,13.89541 2.5e-4,3.37345 1.27884,6.43915 3.3093,8.85623 l -44.36872,48.135663 4.005,-65.866863 c 6.62505,-1.03677 11.77657,-6.7788 11.77694,-13.67607 -3.7e-4,-7.62019 -6.26895,-13.88877 -13.88914,-13.88915 -7.62008,4.1e-4 -13.88868,6.26896 -13.88915,13.88915 2.4e-4,4.47218 2.19748,8.4337 5.52182,10.98093 l -29.15078,59.580443 -14.12735,-64.820193 0.10914,-0.50138 c 5.14922,-2.03977 8.84338,-7.05971 8.84373,-12.89886 -3.5e-4,-7.62018 -6.26892,-13.88877 -13.88913,-13.88916 z m 0,8.53657 c 3.00646,1.3e-4 5.3525,2.34609 5.35263,5.35258 -1.3e-4,3.00649 -2.34617,5.35239 -5.35263,5.35258 -3.00646,-1.9e-4 -5.35238,-2.34612 -5.35263,-5.35258 2.5e-4,-3.00649 2.34617,-5.35245 5.35263,-5.35258 z m -56.584493,7.65907 c 3.00657,1.5e-4 5.35238,2.34605 5.35263,5.35259 -2.5e-4,3.00649 -2.34606,5.35244 -5.35263,5.35261 -3.00646,-1.7e-4 -5.3525,-2.34611 -5.3525,-5.35261 0,-3.00654 2.34604,-5.35244 5.3525,-5.35259 z m 113.168983,0 c 3.00645,1.5e-4 5.3525,2.34605 5.3525,5.35259 0,3.00649 -2.34605,5.35244 -5.3525,5.35261 -3.00645,-2e-4 -5.3525,-2.34611 -5.35263,-5.35261 1.3e-4,-3.00648 2.34618,-5.35242 5.35263,-5.35259 z m -166.224763,22.5448 c 3.00803,1.6e-4 5.35445,2.3509 5.35264,5.35883 -2.5e-4,3.00649 -2.34619,5.35243 -5.35264,5.35262 -3.00645,-1.9e-4 -5.35238,-2.34613 -5.35262,-5.35262 -9.2e-4,-3.00793 2.34471,-5.35868 5.35262,-5.35883 z m 219.280533,0 c 3.00791,1.6e-4 5.35433,2.3509 5.35252,5.35883 -1.3e-4,3.00649 -2.34606,5.35243 -5.35252,5.35262 -3.00657,-1.9e-4 -5.3525,-2.34613 -5.35261,-5.35262 -0.003,-3.00793 2.34458,-5.35868 5.35261,-5.35883 z M 132.71543,169.64833 c 17.38135,-0.41277 34.61886,2.48841 51.77086,8.70578 8.61087,3.12135 16.00609,6.48905 17.05424,7.76564 0.46327,0.56362 0.63314,1.50775 0.41965,2.35661 -0.64038,2.55335 -2.49523,2.37848 -10.37921,-0.99648 -13.05446,-5.58839 -26.86684,-9.42312 -40.45144,-11.23165 -8.43984,-1.12361 -24.91034,-0.86113 -34.31539,0.55151 -12.85724,1.93114 -25.727463,5.6536 -38.640253,11.16898 -6.21316,2.65382 -7.51868,2.92948 -8.61804,1.83013 -1.1607,-1.16046 -0.81259,-3.74759 0.63317,-4.69446 0.72282,-0.47377 5.17832,-2.39299 9.89673,-4.26828 17.72727,-7.04562 35.248113,-10.775 52.629583,-11.18775 z m 3.40331,21.3351 c 1.98497,0.11044 3.94326,0.66917 5.93552,1.66094 5.84238,2.92421 12.1579,6.63559 12.98653,7.63399 1.16313,1.40179 0.16743,2.433 -5.19591,5.3714 -14.66601,8.03579 -14.04998,7.9667 -24.21829,2.5948 -8.615,-4.55131 -10.20992,-5.6463 -10.20992,-7.0135 0,-1.37381 1.6216,-2.484 10.26012,-7.02603 3.74971,-2.35035 7.1336,-3.40643 10.44195,-3.2216 z m 63.5666,18.75913 c 1.10976,0 1.39139,1.4169 1.39139,7.01979 0,4.8187 -0.46933,6.5935 -1.74241,6.5935 -0.20859,0 -1.882,-1.7998 -3.7167,-3.99869 -1.83458,-2.1989 -3.41483,-4.2364 -3.5161,-4.5252 -0.20742,-0.5917 6.49538,-5.0894 7.58382,-5.0894 z m -129.953733,0.2131 c 0.79804,-0.30651 7.29102,3.24579 7.98502,4.3686 0.31531,0.5102 -6.40842,9.0317 -7.12631,9.0317 -0.18074,0 -0.63433,-0.30901 -1.0091,-0.6832 -1.06369,-1.0634 -0.93028,-12.3023 0.1504,-12.7171 z m 63.008803,12.9929 c 17.38147,-0.4128 34.61898,2.4884 51.77086,8.7058 8.61099,3.1213 16.0062,6.4891 17.05438,7.7656 0.46326,0.5637 0.62707,1.5078 0.41357,2.3567 -0.64037,2.5533 -2.48892,2.3721 -10.37291,-1.0028 -13.05459,-5.5884 -26.86707,-9.4231 -40.45155,-11.2317 -8.43998,-1.1236 -24.91664,-0.8548 -34.3217,0.5578 -12.85725,1.9311 -25.727453,5.6473 -38.640253,11.1627 -6.21316,2.6538 -7.51238,2.9357 -8.61171,1.8364 -1.16073,-1.1605 -0.81261,-3.7476 0.63314,-4.6945 0.72283,-0.4737 5.17204,-2.3992 9.89044,-4.2745 17.72727,-7.0456 35.254423,-10.7688 52.635773,-11.1815 z"
       id="rect4531-09-6-9"
       inkscape:connector-curvature="0" />
    <text
       xml:space="preserve"
       style="font-style:normal;font-weight:normal;font-size:10.58333302px;line-height:1.25;font-family:sans-serif;letter-spacing:0px;word-spacing:0px;fill:#000000;fill-opacity:1;stroke:none;stroke-width:0.26458332"
       x="94.038704"
       y="16.326693"
       id="text5812"><tspan
         sodipodi:role="line"
         id="tspan5810"
         x="94.038704"
         y="25.982187"
         style="stroke-width:0.26458332" /></text>
  </g>
</svg>
