<?xml version="1.0" encoding="UTF-8" standalone="no"?>
<!-- Created with Inkscape (http://www.inkscape.org/) -->

<svg
   xmlns:dc="http://purl.org/dc/elements/1.1/"
   xmlns:cc="http://creativecommons.org/ns#"
   xmlns:rdf="http://www.w3.org/1999/02/22-rdf-syntax-ns#"
   xmlns:svg="http://www.w3.org/2000/svg"
   xmlns="http://www.w3.org/2000/svg"
   xmlns:sodipodi="http://sodipodi.sourceforge.net/DTD/sodipodi-0.dtd"
   xmlns:inkscape="http://www.inkscape.org/namespaces/inkscape"
   width="1024"
   height="1024"
   viewBox="0 0 270.93332 270.93334"
   version="1.1"
   id="svg8"
   inkscape:version="0.92.4 (5da689c313, 2019-01-14)"
   sodipodi:docname="0022.BK.svg">
  <defs
     id="defs2" />
  <sodipodi:namedview
     id="base"
     pagecolor="#ffffff"
     bordercolor="#666666"
     borderopacity="1.0"
     inkscape:pageopacity="0.0"
     inkscape:pageshadow="2"
     inkscape:zoom="0.088388348"
     inkscape:cx="2214.609"
     inkscape:cy="3370.5355"
     inkscape:document-units="mm"
     inkscape:current-layer="layer1"
     showgrid="false"
     inkscape:window-width="1920"
     inkscape:window-height="1027"
     inkscape:window-x="-8"
     inkscape:window-y="-8"
     inkscape:window-maximized="1"
     units="px"
     showguides="true"
     inkscape:guide-bbox="true">
    <sodipodi:guide
       position="-118.77941,312.75383"
       orientation="0,1"
       id="guide6804"
       inkscape:locked="false" />
    <sodipodi:guide
       position="-307.27932,312.75383"
       orientation="1,0"
       id="guide6806"
       inkscape:locked="false" />
    <sodipodi:guide
       position="-304.28597,1328.1532"
       orientation="0,1"
       id="guide6808"
       inkscape:locked="false" />
    <sodipodi:guide
       position="391.14502,989.68683"
       orientation="0,1"
       id="guide6810"
       inkscape:locked="false" />
    <sodipodi:guide
       position="391.14766,651.22028"
       orientation="0,1"
       id="guide6812"
       inkscape:locked="false" />
    <sodipodi:guide
       position="391.14505,312.75383"
       orientation="0,1"
       id="guide6814"
       inkscape:locked="false" />
  </sodipodi:namedview>
  <metadata
     id="metadata5">
    <rdf:RDF>
      <cc:Work
         rdf:about="">
        <dc:format>image/svg+xml</dc:format>
        <dc:type
           rdf:resource="http://purl.org/dc/dcmitype/StillImage" />
        <dc:title />
      </cc:Work>
    </rdf:RDF>
  </metadata>
  <g
     inkscape:label="Livello 1"
     inkscape:groupmode="layer"
     id="layer1"
     transform="translate(0,-26.06663)">
    <path
       style="color:#000000;font-style:normal;font-variant:normal;font-weight:normal;font-stretch:normal;font-size:medium;line-height:normal;font-family:sans-serif;font-variant-ligatures:normal;font-variant-position:normal;font-variant-caps:normal;font-variant-numeric:normal;font-variant-alternates:normal;font-feature-settings:normal;text-indent:0;text-align:start;text-decoration:none;text-decoration-line:none;text-decoration-style:solid;text-decoration-color:#000000;letter-spacing:normal;word-spacing:normal;text-transform:none;writing-mode:lr-tb;direction:ltr;text-orientation:mixed;dominant-baseline:auto;baseline-shift:baseline;text-anchor:start;white-space:normal;shape-padding:0;clip-rule:nonzero;display:inline;overflow:visible;visibility:visible;opacity:1;isolation:auto;mix-blend-mode:normal;color-interpolation:sRGB;color-interpolation-filters:linearRGB;solid-color:#000000;solid-opacity:1;vector-effect:none;fill:#333333;fill-opacity:1;fill-rule:nonzero;stroke:none;stroke-width:10.01873779;stroke-linecap:round;stroke-linejoin:miter;stroke-miterlimit:4;stroke-dasharray:none;stroke-dashoffset:0;stroke-opacity:1;paint-order:normal;color-rendering:auto;image-rendering:auto;shape-rendering:auto;text-rendering:auto;enable-background:accumulate"
       d="m 107.51183,45.986522 v 5.02038 49.583478 h 12.10285 c -0.35965,0.24861 -0.7202,0.49351 -1.078,0.75206 -0.31086,0.22754 -0.61902,0.46209 -0.9276,0.70201 -4.27826,3.27797 -8.37356,7.63316 -12.23448,13.06809 -1.16447,-1.00305 -2.36856,-2.00449 -3.61644,-3.00847 -9.717655,-7.81809 -22.422788,-11.93006 -34.917138,-12.059 -12.49446,-0.129048 -24.99803,3.77301 -33.73261,12.72339 -10.83928,11.10685 -12.37076,25.49785 -10.20993,37.4994 2.16072,12.0016 7.46229,21.8605 12.10285,26.98233 6.48689,7.15969 18.91042,17.40547 25.13957,22.41938 -0.24018,1.0248 -0.40145,2.0721 -0.40145,3.1589 v 0.1067 l 0.005,0.1128 c 0.0105,0.2503 0.0489,0.4964 0.0725,0.74579 -0.0362,0.2455 -0.0851,0.1694 -0.0851,0.5014 v 42.407 c 0,0.2003 0.003,-0.014 0.005,0.1006 v 0 l -0.005,0.095 v 0.3071 c 0,0.015 0.005,0.029 0.005,0.043 l -0.005,0.1254 0.10914,0.36361 v 0.012 c 0.0244,0.5584 0.0606,1.1123 0.1504,1.6546 v 0.01 c 0.29957,1.8715 0.96666,3.6485 1.91792,5.30239 0.63432,1.10391 1.39346,2.1536 2.25629,3.14641 0.43296,0.4975 0.89269,0.9741 1.3726,1.4416 0.47784,0.4653 0.97879,0.9196 1.49802,1.35379 4.25037,3.55291 9.8993,6.41571 16.67825,8.8123 8.473753,2.9959 18.740338,5.2247 30.141168,6.4746 4.56035,0.49951 9.30227,0.84161 14.18373,1.0152 2.44074,0.091 4.91569,0.13119 7.42092,0.13119 2.43752,0 4.84376,-0.045 7.22035,-0.1258 0.0254,-8e-4 0.0498,-0.01 0.0752,-0.01 2.35376,-0.082 4.67273,-0.2036 6.95711,-0.3638 1.61098,-0.1131 3.17838,-0.26421 4.75089,-0.4136 0.74744,-0.072 1.51177,-0.12759 2.2501,-0.2063 1.64518,-0.17739 3.24218,-0.391 4.83863,-0.6082 0.54147,-0.072 1.10032,-0.1348 1.63585,-0.2135 1.42069,-0.2073 2.7909,-0.4507 4.16799,-0.6897 0.75868,-0.1312 1.53657,-0.24791 2.28145,-0.3882 1.41061,-0.2661 2.76581,-0.56651 4.12412,-0.8652 0.57758,-0.12671 1.17466,-0.24341 1.74241,-0.37561 1.41351,-0.3303 2.76832,-0.6878 4.11785,-1.053 0.51333,-0.1384 1.0444,-0.2696 1.54812,-0.4135 1.19262,-0.3403 2.32944,-0.7051 3.46602,-1.0719 0.49784,-0.161 1.02996,-0.304 1.51677,-0.4706 0.1258,-0.045 0.23857,-0.091 0.36354,-0.1312 0.22345,-0.082 0.46853,-0.14749 0.68934,-0.2253 0.82411,-0.2914 1.57894,-0.6091 2.3692,-0.9152 0.58535,-0.2262 1.1886,-0.448 1.75494,-0.6833 1.03445,-0.428 2.00814,-0.8841 2.97713,-1.3412 0.46781,-0.2208 0.95187,-0.4362 1.40396,-0.6643 0.96968,-0.4887 1.8746,-1.0068 2.77031,-1.5293 0.39431,-0.2308 0.805,-0.4516 1.18461,-0.6897 0.8507,-0.5312 1.63807,-1.0936 2.41304,-1.6608 0.26345,-0.1928 0.56653,-0.3666 0.82112,-0.5639 0.0946,-0.072 0.16987,-0.1583 0.26317,-0.2316 0.23005,-0.1819 0.49838,-0.3467 0.72085,-0.5331 1.7329,-1.4484 3.23463,-3.0815 4.43124,-4.8574 0.35133,-0.5216 0.67315,-1.0576 0.9652,-1.60449 0.89477,-1.6753 1.49815,-3.46351 1.72361,-5.3526 0.0117,-0.053 0.0416,-0.096 0.0498,-0.1504 l 0.11278,-1.0342 -0.005,-0.012 v -0.01 l 0.0317,-0.2132 v -0.21929 -0.19439 l -0.0117,-0.144 c 0.0146,-0.2201 0.0117,0.1852 0.0117,-0.1692 v -42.407 c 0,-0.2131 -0.0869,-0.312 -0.10669,-0.5077 0.0226,-0.174 0.0598,-0.3457 0.0752,-0.5202 l 0.0317,-0.2194 v -0.2194 c 0,-1.0868 -0.16055,-2.1342 -0.40109,-3.1589 6.22844,-5.01425 18.65229,-15.2604 25.13925,-22.4201 4.64044,-5.12183 9.94208,-14.98075 12.10289,-26.98232 2.16071,-12.00153 0.62898,-26.39256 -10.21006,-37.49943 -8.73459,-8.95037 -21.23816,-12.852308 -33.73258,-12.72337 -12.49443,0.12906 -25.19949,4.24092 -34.91716,12.059 -1.24788,1.004 -2.45191,2.00552 -3.61646,3.00849 -3.86089,-5.43493 -7.95619,-9.79017 -12.23447,-13.06809 -0.30851,-0.23964 -0.61676,-0.4745 -0.92759,-0.70201 -0.35794,-0.25855 -0.7185,-0.50345 -1.07799,-0.75206 h 11.93362 V 45.975642 Z m 16.06401,12.98659 9.52058,9.52057 2.36918,-0.984 2.38173,0.984 9.5331,-9.52057 2.25009,2.25009 -9.52685,9.5331 0.984,2.38172 -0.97769,2.36917 9.52058,9.5206 -2.25009,2.27515 -9.53311,-9.53312 -2.38171,0.99032 -2.37545,-0.984 -9.5143,9.52684 -2.27518,-2.27514 9.52685,-9.51434 -0.984,-2.37544 0.984,-2.38797 -9.52685,-9.52685 z m 11.8835,45.998378 h 0.006 c 0.90794,0 1.83377,0.097 2.77029,0.26951 0.35415,0.0652 0.7195,0.19648 1.07801,0.28833 0.58002,0.14762 1.15973,0.29133 1.74868,0.50772 0.44988,0.16553 0.91097,0.39548 1.36635,0.60174 0.52906,0.24001 1.05713,0.4679 1.59199,0.76473 0.38481,0.21214 0.77125,0.47921 1.15949,0.72084 0.6889,0.4335 1.37813,0.87325 2.0746,1.40397 0.1829,0.13701 0.362,0.29531 0.54527,0.43865 3.43427,2.73877 6.94908,6.73818 10.46073,12.05273 -12.77544,12.91912 -19.28766,25.33762 -22.32543,35.23681 -0.1905,0.62083 -0.31179,1.18982 -0.47631,1.79254 -0.16471,-0.60266 -0.27974,-1.17175 -0.47016,-1.79254 -3.03775,-9.89923 -9.54997,-22.31769 -22.32541,-35.23681 3.51165,-5.31455 7.02644,-9.31396 10.46074,-12.05273 0.18353,-0.14343 0.36227,-0.30164 0.54526,-0.43865 0.69641,-0.5308 1.38571,-0.97055 2.0746,-1.40397 0.38826,-0.24163 0.77469,-0.5087 1.15951,-0.72084 0.53486,-0.29711 1.06282,-0.52445 1.59198,-0.76473 0.45539,-0.20634 0.91656,-0.4363 1.36635,-0.60174 0.58898,-0.21621 1.16859,-0.3602 1.74868,-0.50772 0.35848,-0.0922 0.72382,-0.22254 1.078,-0.28833 0.93658,-0.17294 1.86228,-0.26951 2.77031,-0.26951 z m -68.712428,4.71327 c 10.42034,0.10797 21.203883,3.65546 28.969173,9.90292 19.006275,15.29104 26.802935,29.86997 30.059715,40.48282 1.78377,5.81279 2.19111,10.13812 2.22501,13.00544 -17.06737,0.61006 -32.428055,3.29926 -44.281028,7.48984 -6.77897,2.39663 -12.42778,5.25958 -16.67827,8.81232 -0.69134,0.57758 -1.33585,1.19263 -1.95551,1.8239 -5.69428,-4.62218 -17.21592,-14.08884 -22.95217,-20.42006 -2.65327,-2.92854 -7.95458,-12.19802 -9.75873,-22.21887 -1.80413,-10.0208 -0.67559,-20.56157 7.62773,-29.06942 6.47415,-6.63406 16.32385,-9.91648 26.74408,-9.80889 z m 137.437378,0 c 10.42024,-0.10798 20.26995,3.17484 26.74407,9.80889 8.30284,8.50788 9.43193,19.04861 7.62779,29.06942 -1.80414,10.02085 -7.10541,19.29033 -9.75876,22.21887 -5.73626,6.33122 -17.25782,15.79788 -22.95219,20.42006 -0.61966,-0.63134 -1.26447,-1.24627 -1.9555,-1.8239 -4.25041,-3.55274 -9.89926,-6.41569 -16.67826,-8.81232 -11.853,-4.19058 -27.21371,-6.87981 -44.28105,-7.48984 0.0343,-2.86732 0.44128,-7.19265 2.22502,-13.00544 3.25678,-10.61285 11.05347,-25.19178 30.05973,-40.48282 7.76528,-6.24746 18.54889,-9.79541 28.96915,-9.90292 z m -68.46171,2.48201 c -3.11383,-0.14625 -6.18798,1.42398 -9.30749,4.7258 -4.54804,4.81389 -4.40863,4.08939 -1.42276,7.60897 1.43684,1.69368 3.4773,4.34536 4.53153,5.89786 1.96434,2.89257 5.52181,10.04806 5.52181,11.10628 0,0.90374 0.23793,0.47512 1.72988,-3.10248 1.64664,-3.94853 5.60439,-10.08868 8.90634,-13.82018 1.31542,-1.48653 2.38815,-2.85025 2.38798,-3.0273 -8.2e-4,-0.92627 -4.36495,-5.67945 -6.67506,-7.27051 -1.91678,-1.32011 -3.80394,-2.03083 -5.67223,-2.11844 z m -69.226368,5.8101 c -6.24396,0.0154 -9.23344,0.66346 -14.13985,3.05238 -2.78559,1.35636 -3.71974,2.01643 -5.92922,4.21186 -2.8722,2.854 -4.85013,5.91112 -5.87269,9.07559 -2.36631,7.32196 -1.24417,16.27711 3.18389,25.4091 2.75175,5.67483 5.77506,8.92719 17.12955,18.42693 l 4.87622,4.08024 1.19103,-1.07182 c 7.60383,-6.86964 24.545883,-11.75405 45.641108,-13.15582 l 3.03984,-0.20064 -0.23821,-2.46944 c -0.46879,-4.8499 -1.72769,-9.02031 -4.39363,-14.57235 -3.86099,-8.04076 -9.80839,-15.56353 -17.655995,-22.31915 -5.66874,-4.87985 -9.14536,-6.96221 -14.509673,-8.6995 -4.4648,-1.44589 -6.78635,-1.78082 -12.32224,-1.7675 z m 137.938758,0 c -5.5358,-0.0136 -7.85731,0.32156 -12.32221,1.7675 -5.36429,1.73729 -8.83462,3.81965 -14.50337,8.6995 -7.84761,6.75562 -13.80128,14.27839 -17.6623,22.31917 -2.66591,5.55202 -3.91848,9.72227 -4.38735,14.57233 l -0.24436,2.46944 3.04608,0.20065 c 21.09527,1.40177 38.03728,6.28609 45.64113,13.15582 l 1.18462,1.07182 4.87623,-4.08026 c 11.35449,-9.49989 14.37782,-12.75217 17.12953,-18.42703 4.428,-9.13197 5.55013,-18.08713 3.18398,-25.40911 -1.02269,-3.16447 -2.99429,-6.22158 -5.86653,-9.07557 -2.20942,-2.19555 -3.14365,-2.8555 -5.92922,-4.21186 -4.90634,-2.38895 -7.90209,-3.03746 -14.14611,-3.05238 z m -69.06337,70.63658 c 2.30255,-0.0399 4.74037,1.11608 11.40714,4.76344 4.13409,2.26167 7.81174,4.38795 8.17929,4.71955 1.49281,1.3466 1.26095,2.9638 -0.58925,4.0928 -3.03694,1.8533 -15.10451,8.2903 -16.01387,8.5428 -1.47548,0.4097 -4.82394,0.3605 -6.07965,-0.087 -1.60953,-0.5751 -15.91596,-8.4593 -16.6281,-9.1633 -0.91815,-0.9076 -0.85986,-2.3341 0.13792,-3.253 1.19455,-1.1002 15.52022,-8.79086 17.17341,-9.21968 0.88953,-0.23077 1.64552,-0.38173 2.41303,-0.39494 z m -64.939278,19.51119 c 0.32753,-0.01 0.64771,0.078 0.92178,0.2571 l 6.06082,3.7229 c 0.88538,0.5702 0.99091,1.8283 0.21348,2.5385 l -6.06081,7.0511 c -1.02972,0.9626 -2.71209,0.225 -2.70129,-1.1846 v -10.7742 c -0.004,-0.8728 0.69378,-1.5889 1.5669,-1.6107 z m 129.232978,0 c 0.87252,0.022 1.57055,0.7381 1.56691,1.6108 v 10.7742 c 0.0105,1.4095 -1.67168,2.1472 -2.70138,1.1846 l -6.06082,-7.0512 c -0.77813,-0.7101 -0.67278,-1.9682 0.21314,-2.5384 l 6.06081,-3.723 c 0.27414,-0.179 0.59397,-0.2664 0.92142,-0.257 z m -65.65379,13.1496 c 21.74321,-0.3131 43.97641,4.517 66.66288,15.4435 a 3.2102467,3.2102467 0 1 1 -2.79537,5.7788 c -43.76925,-21.0806 -84.79753,-18.6599 -124.864368,0.025 a 3.212307,3.212307 0 0 1 -2.70143,-5.829 c 20.708203,-9.657 41.955058,-15.1053 63.698288,-15.4185 z"
       id="rect4531-0-1"
       inkscape:connector-curvature="0" />
    <text
       xml:space="preserve"
       style="font-style:normal;font-weight:normal;font-size:10.58333302px;line-height:1.25;font-family:sans-serif;letter-spacing:0px;word-spacing:0px;fill:#000000;fill-opacity:1;stroke:none;stroke-width:0.26458332"
       x="94.038704"
       y="16.326693"
       id="text5812"><tspan
         sodipodi:role="line"
         id="tspan5810"
         x="94.038704"
         y="25.982187"
         style="stroke-width:0.26458332" /></text>
  </g>
</svg>
