<?xml version="1.0" encoding="UTF-8" standalone="no"?>
<!-- Created with Inkscape (http://www.inkscape.org/) -->

<svg
   xmlns:dc="http://purl.org/dc/elements/1.1/"
   xmlns:cc="http://creativecommons.org/ns#"
   xmlns:rdf="http://www.w3.org/1999/02/22-rdf-syntax-ns#"
   xmlns:svg="http://www.w3.org/2000/svg"
   xmlns="http://www.w3.org/2000/svg"
   xmlns:sodipodi="http://sodipodi.sourceforge.net/DTD/sodipodi-0.dtd"
   xmlns:inkscape="http://www.inkscape.org/namespaces/inkscape"
   width="1024"
   height="1024"
   viewBox="0 0 270.93332 270.93334"
   version="1.1"
   id="svg8"
   inkscape:version="0.92.4 (5da689c313, 2019-01-14)"
   sodipodi:docname="0024.BB.svg">
  <defs
     id="defs2" />
  <sodipodi:namedview
     id="base"
     pagecolor="#ffffff"
     bordercolor="#666666"
     borderopacity="1.0"
     inkscape:pageopacity="0.0"
     inkscape:pageshadow="2"
     inkscape:zoom="0.088388348"
     inkscape:cx="3241.0872"
     inkscape:cy="3257.3984"
     inkscape:document-units="mm"
     inkscape:current-layer="layer1"
     showgrid="false"
     inkscape:window-width="1920"
     inkscape:window-height="1027"
     inkscape:window-x="-8"
     inkscape:window-y="-8"
     inkscape:window-maximized="1"
     units="px"
     showguides="true"
     inkscape:guide-bbox="true">
    <sodipodi:guide
       position="-118.77941,312.75383"
       orientation="0,1"
       id="guide6804"
       inkscape:locked="false" />
    <sodipodi:guide
       position="-307.27932,312.75383"
       orientation="1,0"
       id="guide6806"
       inkscape:locked="false" />
    <sodipodi:guide
       position="-304.28597,1328.1532"
       orientation="0,1"
       id="guide6808"
       inkscape:locked="false" />
    <sodipodi:guide
       position="391.14502,989.68683"
       orientation="0,1"
       id="guide6810"
       inkscape:locked="false" />
    <sodipodi:guide
       position="391.14766,651.22028"
       orientation="0,1"
       id="guide6812"
       inkscape:locked="false" />
    <sodipodi:guide
       position="391.14505,312.75383"
       orientation="0,1"
       id="guide6814"
       inkscape:locked="false" />
  </sodipodi:namedview>
  <metadata
     id="metadata5">
    <rdf:RDF>
      <cc:Work
         rdf:about="">
        <dc:format>image/svg+xml</dc:format>
        <dc:type
           rdf:resource="http://purl.org/dc/dcmitype/StillImage" />
        <dc:title />
      </cc:Work>
    </rdf:RDF>
  </metadata>
  <g
     inkscape:label="Livello 1"
     inkscape:groupmode="layer"
     id="layer1"
     transform="translate(0,-26.06663)">
    <path
       style="color:#000000;font-style:normal;font-variant:normal;font-weight:normal;font-stretch:normal;font-size:medium;line-height:normal;font-family:sans-serif;font-variant-ligatures:normal;font-variant-position:normal;font-variant-caps:normal;font-variant-numeric:normal;font-variant-alternates:normal;font-feature-settings:normal;text-indent:0;text-align:start;text-decoration:none;text-decoration-line:none;text-decoration-style:solid;text-decoration-color:#000000;letter-spacing:normal;word-spacing:normal;text-transform:none;writing-mode:lr-tb;direction:ltr;text-orientation:mixed;dominant-baseline:auto;baseline-shift:baseline;text-anchor:start;white-space:normal;shape-padding:0;clip-rule:nonzero;display:inline;overflow:visible;visibility:visible;opacity:1;isolation:auto;mix-blend-mode:normal;color-interpolation:sRGB;color-interpolation-filters:linearRGB;solid-color:#000000;solid-opacity:1;vector-effect:none;fill:#333333;fill-opacity:1;fill-rule:nonzero;stroke:none;stroke-width:9.62713242;stroke-linecap:butt;stroke-linejoin:miter;stroke-miterlimit:4;stroke-dasharray:none;stroke-dashoffset:0;stroke-opacity:1;color-rendering:auto;image-rendering:auto;shape-rendering:auto;text-rendering:auto;enable-background:accumulate"
       d="m 135.56931,50.407742 c -10.28969,0 -18.73406,8.45061 -18.73406,18.74031 0,7.10393 4.02975,13.3284 9.90911,16.50277 -21.36369,16.732308 -35.469498,29.003398 -43.973918,39.993968 -9.29458,12.01197 -11.99469,23.33485 -10.35412,35.86356 1.99222,15.21472 13.6423,23.74995 18.92829,26.90711 v 31.31946 l 1.02164,1.3037 c 4.72189,6.0166 11.802028,8.3213 18.759148,9.5707 -0.80729,2.4606 -1.15025,5.3679 -3.3658,6.6814 -3.43325,2.0354 -9.086718,3.0889 -15.631508,3.1965 -13.08937,0.2151 -28.77159,-3.1135 -39.04132,-2.7954 -9.56442,0.2963 -16.26947,2.538 -21.00911,5.92291 -4.73974,3.3849 -7.24827,7.7153 -9.02549,11.0186 -1.87031,3.47629 -3.32187,7.5817 -3.32187,12.9803 v 4.80729 h 4.83859 c 9.64826,0 18.95273,0.238 24.49408,0.238 h 0.99034 l 0.92756,-0.40089 c 2.71676,-1.1809 4.24722,-3.3635 4.5942,-3.9361 0.31852,-0.097 1.19794,-0.2887 2.79539,-0.3764 15.74015,-0.5394 30.39001,6.3737 50.197708,2.225 l 0.0951,-0.027 0.0723,-0.027 c 6.8558,-1.67489 14.60547,-3.9909 20.53911,-10.5172 2.56208,-2.81779 4.62999,-6.3614 6.19249,-10.68009 1.56258,4.3192 3.63663,7.862 6.1988,10.68009 5.93355,6.5263 13.68322,8.84231 20.53911,10.5172 l 0.0941,0.027 0.0723,0.027 c 19.76835,4.1404 34.42415,-2.7337 50.12879,-2.225 1.78957,0.091 2.7542,0.3122 3.00847,0.40089 0.0906,0.1955 1.47023,2.60481 4.47512,3.91101 l 0.92133,0.40089 h 0.99648 c 5.54117,0 14.84591,-0.238 24.49398,-0.238 h 4.80738 v -4.8073 c 0,-5.3987 -1.44542,-9.504 -3.31564,-12.9803 -1.77721,-3.30329 -4.28575,-7.63369 -9.02549,-11.0186 -4.73964,-3.3849 -11.44451,-5.6266 -21.00911,-5.9229 -10.26973,-0.3181 -25.92677,3.0105 -39.01615,2.7954 -6.54478,-0.108 -12.20466,-1.1613 -15.63792,-3.1966 -2.21683,-1.3141 -2.57773,-4.2185 -3.38456,-6.6813 6.95703,-1.2494 14.03726,-3.5542 18.75915,-9.5707 l 1.02155,-1.3037 v -31.31895 c 5.28635,-3.1575 16.93625,-11.69304 18.92838,-26.9071 1.64057,-12.52865 -1.03428,-23.8516 -10.32914,-35.86356 -8.49297,-10.97587 -22.59292,-23.23392 -43.91122,-39.931288 5.94655,-3.15349 10.03451,-9.41189 10.03451,-16.56543 0,-10.2897 -8.4506,-18.74032 -18.74029,-18.74032 z m 0,9.64594 c 5.08682,0 9.10064,4.00754 9.10064,9.09437 0,5.08682 -4.01382,9.11946 -9.10064,9.11946 -5.0869,0 -9.1194,-4.03262 -9.1194,-9.11946 0,-5.08682 4.0325,-9.09437 9.1194,-9.09437 z m -3.3031,62.720498 h 6.38671 v 16.30846 h 16.30846 v 6.38677 h -16.30846 v 16.30846 h -6.38671 v -16.30846 h -16.30836 v -6.38677 h 16.30836 z m 1.66721,52.78627 c 11.08388,-0.21004 22.6915,1.21556 34.89835,4.92641 4.25491,1.16035 2.30306,7.55089 -1.87396,6.136 -23.14082,-7.03399 -43.55215,-5.44716 -63.153,0.0254 -4.092168,1.09692 -5.797438,-5.00129 -1.72989,-6.1862 10.20804,-2.84972 20.77479,-4.69125 31.8585,-4.9013 z m 0.25701,14.7478 h 2.551 v 2.55724 h 5.74107 v 4.96397 h -5.74107 v 2.55095 h -2.551 v -2.55095 h -5.74747 v -4.96397 h 5.74747 z m -34.309188,6.1235 3.810718,3.71046 -3.810718,4.8136 z m 71.407448,0 v 8.52406 l -3.81072,-4.8136 z m -37.35527,12.57926 c 11.08388,-0.2101 22.6915,1.2156 34.89835,4.9263 4.25391,1.161 2.3026,7.5499 -1.87396,6.1361 -23.14082,-7.0341 -43.55215,-5.4472 -63.153,0.025 -4.129688,1.1634 -5.864068,-5.0386 -1.72989,-6.1862 10.20813,-2.8497 20.77479,-4.6912 31.8585,-4.9013 z"
       id="path5613-9"
       inkscape:connector-curvature="0"
       sodipodi:nodetypes="csccscccccccccscsscccccccccccccccccsscsccscccccccccsccssssscccccccccccccccccccccccccccccccccccccccccccccccc" />
    <text
       xml:space="preserve"
       style="font-style:normal;font-weight:normal;font-size:10.58333302px;line-height:1.25;font-family:sans-serif;letter-spacing:0px;word-spacing:0px;fill:#000000;fill-opacity:1;stroke:none;stroke-width:0.26458332"
       x="94.038704"
       y="16.326693"
       id="text5812"><tspan
         sodipodi:role="line"
         id="tspan5810"
         x="94.038704"
         y="25.982187"
         style="stroke-width:0.26458332" /></text>
  </g>
</svg>
