<?xml version="1.0" encoding="UTF-8" standalone="no"?>
<!-- Created with Inkscape (http://www.inkscape.org/) -->

<svg
   xmlns:dc="http://purl.org/dc/elements/1.1/"
   xmlns:cc="http://creativecommons.org/ns#"
   xmlns:rdf="http://www.w3.org/1999/02/22-rdf-syntax-ns#"
   xmlns:svg="http://www.w3.org/2000/svg"
   xmlns="http://www.w3.org/2000/svg"
   xmlns:sodipodi="http://sodipodi.sourceforge.net/DTD/sodipodi-0.dtd"
   xmlns:inkscape="http://www.inkscape.org/namespaces/inkscape"
   width="1024"
   height="1024"
   viewBox="0 0 270.93332 270.93334"
   version="1.1"
   id="svg8"
   inkscape:version="0.92.4 (5da689c313, 2019-01-14)"
   sodipodi:docname="0025.BN.svg">
  <defs
     id="defs2" />
  <sodipodi:namedview
     id="base"
     pagecolor="#ffffff"
     bordercolor="#666666"
     borderopacity="1.0"
     inkscape:pageopacity="0.0"
     inkscape:pageshadow="2"
     inkscape:zoom="0.088388348"
     inkscape:cx="3580.4985"
     inkscape:cy="2736.9678"
     inkscape:document-units="mm"
     inkscape:current-layer="layer1"
     showgrid="false"
     inkscape:window-width="1920"
     inkscape:window-height="1027"
     inkscape:window-x="-8"
     inkscape:window-y="-8"
     inkscape:window-maximized="1"
     units="px"
     showguides="true"
     inkscape:guide-bbox="true">
    <sodipodi:guide
       position="-118.77941,312.75383"
       orientation="0,1"
       id="guide6804"
       inkscape:locked="false" />
    <sodipodi:guide
       position="-307.27932,312.75383"
       orientation="1,0"
       id="guide6806"
       inkscape:locked="false" />
    <sodipodi:guide
       position="-304.28597,1328.1532"
       orientation="0,1"
       id="guide6808"
       inkscape:locked="false" />
    <sodipodi:guide
       position="391.14502,989.68683"
       orientation="0,1"
       id="guide6810"
       inkscape:locked="false" />
    <sodipodi:guide
       position="391.14766,651.22028"
       orientation="0,1"
       id="guide6812"
       inkscape:locked="false" />
    <sodipodi:guide
       position="391.14505,312.75383"
       orientation="0,1"
       id="guide6814"
       inkscape:locked="false" />
  </sodipodi:namedview>
  <metadata
     id="metadata5">
    <rdf:RDF>
      <cc:Work
         rdf:about="">
        <dc:format>image/svg+xml</dc:format>
        <dc:type
           rdf:resource="http://purl.org/dc/dcmitype/StillImage" />
        <dc:title />
      </cc:Work>
    </rdf:RDF>
  </metadata>
  <g
     inkscape:label="Livello 1"
     inkscape:groupmode="layer"
     id="layer1"
     transform="translate(0,-26.06663)">
    <text
       xml:space="preserve"
       style="font-style:normal;font-weight:normal;font-size:10.58333302px;line-height:1.25;font-family:sans-serif;letter-spacing:0px;word-spacing:0px;fill:#000000;fill-opacity:1;stroke:none;stroke-width:0.26458332"
       x="94.038704"
       y="16.326693"
       id="text5812"><tspan
         sodipodi:role="line"
         id="tspan5810"
         x="94.038704"
         y="25.982187"
         style="stroke-width:0.26458332" /></text>
    <path
       style="color:#000000;font-style:normal;font-variant:normal;font-weight:normal;font-stretch:normal;font-size:medium;line-height:normal;font-family:sans-serif;font-variant-ligatures:normal;font-variant-position:normal;font-variant-caps:normal;font-variant-numeric:normal;font-variant-alternates:normal;font-feature-settings:normal;text-indent:0;text-align:start;text-decoration:none;text-decoration-line:none;text-decoration-style:solid;text-decoration-color:#000000;letter-spacing:normal;word-spacing:normal;text-transform:none;writing-mode:lr-tb;direction:ltr;text-orientation:mixed;dominant-baseline:auto;baseline-shift:baseline;text-anchor:start;white-space:normal;shape-padding:0;clip-rule:nonzero;display:inline;overflow:visible;visibility:visible;opacity:1;isolation:auto;mix-blend-mode:normal;color-interpolation:sRGB;color-interpolation-filters:linearRGB;solid-color:#000000;solid-opacity:1;vector-effect:none;fill:#333333;fill-opacity:1;fill-rule:nonzero;stroke:none;stroke-width:9.62713242;stroke-linecap:round;stroke-linejoin:round;stroke-miterlimit:4;stroke-dasharray:none;stroke-dashoffset:0;stroke-opacity:1;color-rendering:auto;image-rendering:auto;shape-rendering:auto;text-rendering:auto;enable-background:accumulate"
       d="m 117.05278,49.499901 c -2.2307,0.0824 -4.1122,1.68911 -4.5442,3.8797 l -4.2868,21.65477 -8.643198,0.45133 -16.9165,-21.0343 c -3.1034,-3.87776 -9.3335,-1.08636 -8.5053,3.81074 l 3.4599,20.53911 -19.4048,28.405059 c -0.4524,0.6707 -0.7285,1.44465 -0.8027,2.25011 l -1.5857,16.86628 c -0.7838,1.02598 -8.0143,10.47625 -16.064,22.55105 -4.2372,6.35564 -8.4798,13.13262 -11.7456,19.3044 -3.2657,6.17179 -5.8038,11.28319 -5.8038,16.60304 0,14.35896 6.1929,24.72156 14.472,30.56116 1.7732,1.2507 6.2752,4.4906 12.059,3.1777 0.4679,-0.1067 0.8607,-1.2229 1.3225,-1.3789 0,0.04 -0.045,0.1297 -0.045,0.1692 0.063,1.1993 0.3565,2.6081 1.2283,3.8609 0.8724,1.2528 2.2427,2.0805 3.2967,2.4381 2.1081,0.7154 3.2568,0.4612 4.0741,0.4953 4.0228,0.1683 8.9887,0.8287 13.9768,-0.445 2.4942,-0.6369 5.1205,-1.9186 7.0825,-4.2182 1.9619,-2.2995 3.0395,-5.4021 3.2216,-8.8625 0.3248,-6.1815 -0.8806,-10.67356 -0.928,-12.71705 -0.028,-1.02171 0.063,-1.23607 0.2887,-1.61078 0.2308,-0.37469 0.8843,-1.12361 2.7202,-2.15607 3.5134,-1.97623 9.9604,-3.62554 16.847498,-5.25859 6.8871,-1.63301 14.2369,-3.30996 20.4639,-6.5873 6.9604,-3.66334 8.1734,-6.80076 12.034,-11.27552 l -1.4417,22.45702 c -0.037,0.1334 -0.4389,2.05446 -3.629,6.34915 -3.2966,4.43794 -9.3267,10.68544 -20.1818,17.19844 -25.817398,15.4905 -23.309198,52.0217 -23.309198,52.0217 0.1311,2.56 2.2438,4.5687 4.8071,4.5691 H 243.72068 c 2.6463,0.01 4.8048,-2.1173 4.8326,-4.7634 0.4705,-42.2995 0.9301,-86.8901 -12.8614,-122.99044 -13.5813,-35.54738 -42.2861,-62.199199 -95.9203,-68.010449 -6.9207,-14.0284 -19.2105,-26.95722 -19.2105,-26.95722 -0.9362,-0.90339 -2.1974,-1.38921 -3.4973,-1.34756 z m 33.3564,42.33808 c 18.1621,-0.5916 41.9914,15.605709 52.1473,26.574899 13.6828,14.77903 20.8436,30.30871 23.7669,40.51417 2.9231,10.20548 5.1142,19.85597 6.418,29.4831 1.3035,9.62714 2.7076,29.4831 2.9081,37.9068 0.2,8.4238 0.2,36.5029 0.2,36.5029 l -19.2542,0.1006 c 0,0 0.9229,-34.9453 0.4072,-51.0815 -0.5158,-16.13649 -1.2488,-28.75471 -5.5031,-44.63863 -4.2545,-15.88398 -4.5401,-20.41895 -10.7803,-30.63011 -6.2399,-10.21111 -6.0676,-13.21817 -14.7351,-20.7773 -9.2211,-8.04193 -15.5012,-12.41978 -26.9574,-15.73809 -12.9197,-3.742209 -25.6863,-7.660979 -8.6182,-8.216919 z M 91.875582,118.42542 c 0.4635,0.0208 0.8336,0.11407 1.0783,0.28209 1.9594,1.34514 -1.3842,2.00513 -2.0621,4.13664 -1.208,3.80061 0.523,4.91874 -1.6234,7.11382 -2.0672,2.11435 -6.1798,0.17231 -8.3233,1.50423 -2.1436,1.33192 -2.4916,3.48586 -3.861,3.25917 -1.3693,-0.2267 -1.2031,-2.40677 -1.2031,-2.40677 0,0 0.1421,-4.79974 1.3098,-6.28646 3.5039,-4.4583 11.4429,-7.75003 14.6852,-7.60267 z m -46.5749,62.82706 c 2.5454,0.93561 -2.1735,5.86135 -1.2348,7.48357 0.9388,1.6222 2.9369,0.51632 3.6854,1.34758 0.7484,0.83116 0.8083,3.12118 0.4073,4.13036 -0.4879,1.23404 -2.5452,2.55857 -3.9111,2.78915 -1.3471,0.22723 -3.1444,-0.66094 -4.0553,-1.60454 -0.9107,-0.9436 -1.8575,-2.85035 -1.1849,-6.51212 0.4453,-2.42448 4.8519,-8.31537 6.2927,-7.634 z"
       id="path5806-1"
       inkscape:connector-curvature="0" />
  </g>
</svg>
