<?xml version="1.0" encoding="UTF-8" standalone="no"?>
<!-- Created with Inkscape (http://www.inkscape.org/) -->

<svg
   xmlns:dc="http://purl.org/dc/elements/1.1/"
   xmlns:cc="http://creativecommons.org/ns#"
   xmlns:rdf="http://www.w3.org/1999/02/22-rdf-syntax-ns#"
   xmlns:svg="http://www.w3.org/2000/svg"
   xmlns="http://www.w3.org/2000/svg"
   xmlns:sodipodi="http://sodipodi.sourceforge.net/DTD/sodipodi-0.dtd"
   xmlns:inkscape="http://www.inkscape.org/namespaces/inkscape"
   width="1024"
   height="1024"
   viewBox="0 0 270.93332 270.93334"
   version="1.1"
   id="svg8"
   inkscape:version="0.92.4 (5da689c313, 2019-01-14)"
   sodipodi:docname="0027.BE.svg">
  <defs
     id="defs2" />
  <sodipodi:namedview
     id="base"
     pagecolor="#ffffff"
     bordercolor="#666666"
     borderopacity="1.0"
     inkscape:pageopacity="0.0"
     inkscape:pageshadow="2"
     inkscape:zoom="0.088388348"
     inkscape:cx="3908.596"
     inkscape:cy="3359.2218"
     inkscape:document-units="mm"
     inkscape:current-layer="layer1"
     showgrid="false"
     inkscape:window-width="1920"
     inkscape:window-height="1027"
     inkscape:window-x="-8"
     inkscape:window-y="-8"
     inkscape:window-maximized="1"
     units="px"
     showguides="true"
     inkscape:guide-bbox="true">
    <sodipodi:guide
       position="-118.77941,312.75383"
       orientation="0,1"
       id="guide6804"
       inkscape:locked="false" />
    <sodipodi:guide
       position="-307.27932,312.75383"
       orientation="1,0"
       id="guide6806"
       inkscape:locked="false" />
    <sodipodi:guide
       position="-304.28597,1328.1532"
       orientation="0,1"
       id="guide6808"
       inkscape:locked="false" />
    <sodipodi:guide
       position="391.14502,989.68683"
       orientation="0,1"
       id="guide6810"
       inkscape:locked="false" />
    <sodipodi:guide
       position="391.14766,651.22028"
       orientation="0,1"
       id="guide6812"
       inkscape:locked="false" />
    <sodipodi:guide
       position="391.14505,312.75383"
       orientation="0,1"
       id="guide6814"
       inkscape:locked="false" />
  </sodipodi:namedview>
  <metadata
     id="metadata5">
    <rdf:RDF>
      <cc:Work
         rdf:about="">
        <dc:format>image/svg+xml</dc:format>
        <dc:type
           rdf:resource="http://purl.org/dc/dcmitype/StillImage" />
        <dc:title />
      </cc:Work>
    </rdf:RDF>
  </metadata>
  <g
     inkscape:label="Livello 1"
     inkscape:groupmode="layer"
     id="layer1"
     transform="translate(0,-26.06663)">
    <text
       xml:space="preserve"
       style="font-style:normal;font-weight:normal;font-size:10.58333302px;line-height:1.25;font-family:sans-serif;letter-spacing:0px;word-spacing:0px;fill:#000000;fill-opacity:1;stroke:none;stroke-width:0.26458332"
       x="94.038704"
       y="16.326693"
       id="text5812"><tspan
         sodipodi:role="line"
         id="tspan5810"
         x="94.038704"
         y="25.982187"
         style="stroke-width:0.26458332" /></text>
    <path
       style="color:#000000;font-style:normal;font-variant:normal;font-weight:normal;font-stretch:normal;font-size:medium;line-height:normal;font-family:sans-serif;font-variant-ligatures:normal;font-variant-position:normal;font-variant-caps:normal;font-variant-numeric:normal;font-variant-alternates:normal;font-feature-settings:normal;text-indent:0;text-align:start;text-decoration:none;text-decoration-line:none;text-decoration-style:solid;text-decoration-color:#000000;letter-spacing:normal;word-spacing:normal;text-transform:none;writing-mode:lr-tb;direction:ltr;text-orientation:mixed;dominant-baseline:auto;baseline-shift:baseline;text-anchor:start;white-space:normal;shape-padding:0;clip-rule:nonzero;display:inline;overflow:visible;visibility:visible;opacity:1;isolation:auto;mix-blend-mode:normal;color-interpolation:sRGB;color-interpolation-filters:linearRGB;solid-color:#000000;solid-opacity:1;vector-effect:none;fill:#333333;fill-opacity:1;fill-rule:nonzero;stroke:none;stroke-width:10.01873779;stroke-linecap:round;stroke-linejoin:miter;stroke-miterlimit:4;stroke-dasharray:none;stroke-dashoffset:0;stroke-opacity:1;paint-order:normal;color-rendering:auto;image-rendering:auto;shape-rendering:auto;text-rendering:auto;enable-background:accumulate"
       d="m 130.33757,47.252437 -0.01,9.9e-4 v 8.53747 c 3.0032,0.004 5.3457,2.3484 5.3459,5.35263 -2e-4,3.00425 -2.3427,5.34894 -5.3459,5.35265 v 5.98361 -0.0661 c -6.7621,-10.75356 -14.9056,-19.32129 -14.9056,-19.32129 -0.9362,-0.9033 -2.197,-1.38891 -3.4969,-1.34721 h -0.011 c -2.2307,0.082 -4.1119,1.68875 -4.5439,3.87935 l -4.2871,21.65501 -8.642903,0.45114 -16.9168,-21.03438 c -3.1034,-3.8778 -9.3331,-1.08648 -8.5049,3.81062 l 3.4597,20.53932 -19.405,28.404983 c -0.4524,0.6707 -0.7283,1.44459 -0.8025,2.24999 l -1.5854,16.86667 c -0.7838,1.026 -8.0145,10.47628 -16.0642,22.55108 -4.2372,6.3556 -8.4797,13.13244 -11.7455,19.30425 -3.2657,6.1718 -5.8038,11.28322 -5.8038,16.60312 0,14.359 6.1929,24.72132 14.472,30.56092 1.7732,1.2507 6.2749,4.491 12.0587,3.1781 0.4679,-0.1068 0.8606,-1.22324 1.3224,-1.37924 0,0.04 -0.045,0.13 -0.045,0.1695 0.063,1.1993 0.3566,2.60795 1.2284,3.86075 0.8724,1.25279 2.2429,2.08049 3.297,2.43809 2.108,0.7153 3.2568,0.46096 4.0741,0.49506 4.0228,0.1683 8.9882,0.82876 13.9764,-0.44493 2.4942,-0.63691 5.1208,-1.91824 7.0828,-4.21784 1.9619,-2.29949 3.0394,-5.40211 3.2215,-8.8625 0.3248,-6.18151 -0.8807,-10.67356 -0.9281,-12.71706 -0.028,-1.0217 0.063,-1.23657 0.2889,-1.61127 0.2308,-0.3747 0.8843,-1.12354 2.7202,-2.15594 3.5134,-1.9763 9.9605,-3.62559 16.8476,-5.25859 6.887103,-1.633 14.236803,-3.3099 20.463803,-6.5872 6.9604,-3.66339 8.1733,-6.80058 12.0339,-11.27528 l -1.4418,22.45703 c -0.037,0.1334 -0.4386,2.05426 -3.6287,6.34897 -3.2966,4.438 -9.3271,10.68552 -20.1822,17.19842 -25.817303,15.49061 -23.309203,52.02164 -23.309203,52.02164 0.1311,2.56 2.2442,4.56883 4.8075,4.56923 l 56.021303,-0.64306 c 11.2871,-0.12956 32.6154,3.02707 51.7659,-7.61743 0.3941,-0.2307 0.8053,-0.45226 1.1849,-0.68936 0.8503,-0.5312 1.6444,-1.09388 2.4195,-1.66088 0.2632,-0.1928 0.5665,-0.36739 0.8212,-0.56379 0.097,-0.072 0.1696,-0.15821 0.263,-0.23151 0.2304,-0.1819 0.4984,-0.3469 0.7204,-0.5333 1.7329,-1.4485 3.2345,-3.08169 4.4312,-4.85759 0.3517,-0.5215 0.6731,-1.05765 0.9653,-1.60455 0.895,-1.6753 1.4985,-3.46345 1.724,-5.35265 0.012,-0.053 0.049,-0.096 0.061,-0.15038 l 0.1091,-1.03404 -0.01,-0.0119 0.024,-0.21342 v -0.21911 -0.1943 l -0.012,-0.14418 c 0.012,-0.2201 0.012,0.18532 0.012,-0.16899 v -42.40725 c 0.024,-0.3529 0,-0.84767 0,-1.24747 v -0.21911 c 0.061,-1.0943 -0.2109,-2.45563 -0.2946,-3.24683 -0.3105,-1.2836 -0.7313,-2.53397 -1.3601,-3.71037 -0.2923,-0.5469 -0.614,-1.08295 -0.9658,-1.60455 -0.3565,-0.5297 -0.7543,-1.04383 -1.1715,-1.54203 l 36.5533,-90.83683 c 0.4282,0.0398 0.8404,0.13126 1.2785,0.13126 7.6202,-5.3e-4 13.8886,-6.268873 13.889,-13.889073 0,-7.62361 -6.2654,-13.8949 -13.889,-13.89527 -7.6236,2.6e-4 -13.8936,6.27166 -13.8891,13.89527 2e-4,3.37346 1.2789,6.43921 3.3093,8.856313 l -44.3688,48.13556 4.0049,-65.866783 c 6.625,-1.03676 11.7767,-6.7789 11.7771,-13.67616 0,-7.62019 -6.2689,-13.8887 -13.8891,-13.88909 -7.6201,5.4e-4 -13.8886,6.2689 -13.8891,13.88909 0,4.47218 2.1974,8.43349 5.5217,10.98072 l -29.1507,59.580863 -14.1273,-64.820333 0.109,-0.50126 c 5.1493,-2.03977 8.8435,-7.05981 8.8439,-12.89896 0,-7.62017 -6.2694,-13.88868 -13.8896,-13.88907 z m 56.5718,16.19798 c 3.0065,1.3e-4 5.3521,2.34609 5.3521,5.35264 0,3.00648 -2.3456,5.35195 -5.3521,5.35212 -3.0064,-1.9e-4 -5.3526,-2.34564 -5.3527,-5.35212 1e-4,-3.00649 2.3463,-5.35249 5.3527,-5.35264 z m 53.0556,22.54436 c 3.0079,1.6e-4 5.3545,2.35091 5.3527,5.35884 -1e-4,3.00649 -2.3462,5.35245 -5.3527,5.35265 -3.0066,-1.9e-4 -5.3525,-2.34616 -5.3526,-5.35265 0,-3.00793 2.3446,-5.35869 5.3526,-5.35884 z M 86.422967,120.66656 c 0.1102,-0.002 0.216,-5.3e-4 0.3173,0.004 0.4635,0.021 0.8333,0.11364 1.0779,0.28164 1.9594,1.3452 -1.3839,2.0051 -2.0618,4.1367 -1.208,3.8006 0.5227,4.91867 -1.6237,7.11377 -2.0672,2.1143 -6.1795,0.1724 -8.323,1.5043 -2.1436,1.3319 -2.4919,3.48594 -3.8613,3.25924 -1.3693,-0.2267 -1.203,-2.40658 -1.203,-2.40658 0,0 0.1423,-4.79974 1.31,-6.28643 3.3944,-4.31908 10.9509,-7.54349 14.3676,-7.60677 z m 44.684103,51.19274 c 16.1868,0.0335 32.2521,2.94352 48.243,8.74004 8.6109,3.1214 16.0062,6.48891 17.0543,7.76541 0.4633,0.5637 0.6336,1.50755 0.4201,2.35645 -0.6404,2.5533 -2.4952,2.37858 -10.3792,-0.99632 -13.0545,-5.5884 -26.8672,-9.42327 -40.4518,-11.23187 -3.7838,-0.50376 -9.1878,-0.72242 -14.8399,-0.68989 z m -91.246603,11.58482 v 0 c 0.1115,-0.006 0.2127,0.0106 0.3028,0.0532 2.5454,0.9356 -2.1738,5.86148 -1.2351,7.48378 0.9388,1.6222 2.9371,0.51652 3.6856,1.34772 0.7484,0.8312 0.8081,3.12078 0.4072,4.12998 -0.4879,1.234 -2.545,2.5589 -3.9109,2.7895 -1.3471,0.22719 -3.1447,-0.66096 -4.0555,-1.60456 -0.9108,-0.9436 -1.8576,-2.85046 -1.185,-6.51227 0.4174,-2.27296 4.3169,-7.59276 5.9898,-7.68738 z m 91.413503,9.80871 c 1.8854,0.14683 3.75,0.69341 5.6446,1.63659 5.8423,2.9242 12.1577,6.63576 12.9863,7.63416 1.1631,1.4018 0.1672,2.43285 -5.196,5.37125 -6.9053,3.7835 -10.4213,5.76688 -13.2716,6.24923 z m 63.2752,18.73477 c 1.1098,0 1.3917,1.41683 1.3917,7.01973 0,4.8187 -0.4695,6.59339 -1.7426,6.59339 -0.2086,0 -1.8818,-1.79982 -3.7165,-3.99872 -1.8347,-2.1989 -3.4148,-4.23599 -3.5161,-4.52479 -0.2074,-0.5917 6.4951,-5.08961 7.5835,-5.08961 z m -63.0261,13.17336 c 16.0547,0.0791 31.9903,2.98863 47.8524,8.73848 8.611,3.1213 16.006,6.48892 17.0542,7.76542 0.4632,0.5637 0.6269,1.50806 0.4134,2.35696 -0.6403,2.5533 -2.4885,2.37186 -10.3725,-1.00304 -13.0546,-5.5884 -26.8674,-9.42275 -40.4518,-11.23135 -3.3636,-0.4478 -9.1394,-0.66993 -14.4492,-0.6904 z"
       id="rect4531-09-6-9-2"
       inkscape:connector-curvature="0"
       sodipodi:nodetypes="cccccccccccccccccccccscccccccccccccscccccccsccccccccccccccccscscccccccccccccccccccccccccccccccccccccccccccccccccccccccccccccccsccsssccsccccczccccc" />
  </g>
</svg>
