<?xml version="1.0" encoding="UTF-8" standalone="no"?>
<!-- Created with Inkscape (http://www.inkscape.org/) -->

<svg
   xmlns:dc="http://purl.org/dc/elements/1.1/"
   xmlns:cc="http://creativecommons.org/ns#"
   xmlns:rdf="http://www.w3.org/1999/02/22-rdf-syntax-ns#"
   xmlns:svg="http://www.w3.org/2000/svg"
   xmlns="http://www.w3.org/2000/svg"
   xmlns:sodipodi="http://sodipodi.sourceforge.net/DTD/sodipodi-0.dtd"
   xmlns:inkscape="http://www.inkscape.org/namespaces/inkscape"
   width="1024"
   height="1024"
   viewBox="0 0 270.93332 270.93334"
   version="1.1"
   id="svg8"
   inkscape:version="0.92.4 (5da689c313, 2019-01-14)"
   sodipodi:docname="0028.BT.svg">
  <defs
     id="defs2" />
  <sodipodi:namedview
     id="base"
     pagecolor="#ffffff"
     bordercolor="#666666"
     borderopacity="1.0"
     inkscape:pageopacity="0.0"
     inkscape:pageshadow="2"
     inkscape:zoom="0.088388348"
     inkscape:cx="3320.2832"
     inkscape:cy="3234.771"
     inkscape:document-units="mm"
     inkscape:current-layer="layer1"
     showgrid="false"
     inkscape:window-width="1920"
     inkscape:window-height="1027"
     inkscape:window-x="-8"
     inkscape:window-y="-8"
     inkscape:window-maximized="1"
     units="px"
     showguides="true"
     inkscape:guide-bbox="true">
    <sodipodi:guide
       position="-118.77941,312.75383"
       orientation="0,1"
       id="guide6804"
       inkscape:locked="false" />
    <sodipodi:guide
       position="-307.27932,312.75383"
       orientation="1,0"
       id="guide6806"
       inkscape:locked="false" />
    <sodipodi:guide
       position="-304.28597,1328.1532"
       orientation="0,1"
       id="guide6808"
       inkscape:locked="false" />
    <sodipodi:guide
       position="391.14502,989.68683"
       orientation="0,1"
       id="guide6810"
       inkscape:locked="false" />
    <sodipodi:guide
       position="391.14766,651.22028"
       orientation="0,1"
       id="guide6812"
       inkscape:locked="false" />
    <sodipodi:guide
       position="391.14505,312.75383"
       orientation="0,1"
       id="guide6814"
       inkscape:locked="false" />
  </sodipodi:namedview>
  <metadata
     id="metadata5">
    <rdf:RDF>
      <cc:Work
         rdf:about="">
        <dc:format>image/svg+xml</dc:format>
        <dc:type
           rdf:resource="http://purl.org/dc/dcmitype/StillImage" />
        <dc:title />
      </cc:Work>
    </rdf:RDF>
  </metadata>
  <g
     inkscape:label="Livello 1"
     inkscape:groupmode="layer"
     id="layer1"
     transform="translate(0,-26.06663)">
    <text
       xml:space="preserve"
       style="font-style:normal;font-weight:normal;font-size:10.58333302px;line-height:1.25;font-family:sans-serif;letter-spacing:0px;word-spacing:0px;fill:#000000;fill-opacity:1;stroke:none;stroke-width:0.26458332"
       x="94.038704"
       y="16.326693"
       id="text5812"><tspan
         sodipodi:role="line"
         id="tspan5810"
         x="94.038704"
         y="25.982187"
         style="stroke-width:0.26458332" /></text>
    <path
       style="color:#000000;font-style:normal;font-variant:normal;font-weight:normal;font-stretch:normal;font-size:medium;line-height:normal;font-family:sans-serif;font-variant-ligatures:normal;font-variant-position:normal;font-variant-caps:normal;font-variant-numeric:normal;font-variant-alternates:normal;font-feature-settings:normal;text-indent:0;text-align:start;text-decoration:none;text-decoration-line:none;text-decoration-style:solid;text-decoration-color:#000000;letter-spacing:normal;word-spacing:normal;text-transform:none;writing-mode:lr-tb;direction:ltr;text-orientation:mixed;dominant-baseline:auto;baseline-shift:baseline;text-anchor:start;white-space:normal;shape-padding:0;clip-rule:nonzero;display:inline;overflow:visible;visibility:visible;opacity:1;isolation:auto;mix-blend-mode:normal;color-interpolation:sRGB;color-interpolation-filters:linearRGB;solid-color:#000000;solid-opacity:1;vector-effect:none;fill:#333333;fill-opacity:1;fill-rule:nonzero;stroke:none;stroke-width:9.62713242;stroke-linecap:round;stroke-linejoin:round;stroke-miterlimit:4;stroke-dasharray:none;stroke-dashoffset:0;stroke-opacity:1;color-rendering:auto;image-rendering:auto;shape-rendering:auto;text-rendering:auto;enable-background:accumulate"
       d="m 144.39242,48.928277 v 20.01791 c -6.5529,-9.89716 -14.2762,-17.52914 -14.2762,-17.52914 -0.9362,-0.90332 -2.1975,-1.38943 -3.4974,-1.34773 h -0.011 c -2.2307,0.082 -4.1119,1.68927 -4.5439,3.87987 l -4.2871,21.65449 -8.6434,0.45165 -16.916303,-21.0344 c -3.1034,-3.87775 -9.3336,-1.08645 -8.5054,3.81065 l 3.4603,20.53932 -19.405,28.404983 c -0.4525,0.67071 -0.7284,1.4446 -0.8026,2.24999 l -1.5859,16.86615 c -0.7837,1.02601 -8.0145,10.47629 -16.0642,22.55108 -4.2372,6.35571 -8.4797,13.13307 -11.7455,19.30476 -3.2657,6.17181 -5.8038,11.28323 -5.8038,16.60314 0,14.35899 6.1929,24.72131 14.472,30.5609 1.7732,1.25072 6.2754,4.49059 12.0592,3.1776 0.4679,-0.10672 0.8607,-1.22272 1.3224,-1.37872 0,0.04 -0.045,0.12948 -0.045,0.16896 0.063,1.19931 0.3565,2.60798 1.2283,3.86075 0.8725,1.2528 2.2425,2.0805 3.2964,2.43811 2.1082,0.71541 3.2568,0.46149 4.0742,0.49556 4.0228,0.16831 8.9887,0.82879 13.977,-0.44492 2.4942,-0.63691 5.1202,-1.91876 7.0822,-4.21836 1.9619,-2.29938 3.0399,-5.40211 3.222,-8.86251 0.3248,-6.18149 -0.8807,-10.67353 -0.9281,-12.71704 -0.028,-1.02171 0.063,-1.23605 0.2889,-1.61075 0.2308,-0.37471 0.8838,-1.12356 2.7197,-2.15593 3.5134,-1.97632 9.960503,-3.62561 16.847603,-5.2586 6.8871,-1.63311 14.2368,-3.30991 20.4638,-6.5872 6.9498,-3.65781 8.6983,-6.79174 12.5466,-11.25565 v 0.24546 l -1.4248,22.19139 c -0.037,0.1334 -0.9683,2.0548 -4.1584,6.34949 -3.2966,4.43791 -9.3266,10.68544 -20.1817,17.19842 -25.817403,15.49052 -23.309203,52.02164 -23.309203,52.02164 0.1311,2.56 2.2437,4.56832 4.807003,4.56872 h 44.2671 1.1585 19.9916 73.626 v -37.44939 l -19.2789,-19.28564 v -13.45036 l -22.6767,-25.37158 0.5385,-58.13234 25.5596,-17.03568 V 48.953627 h -37.4307 v 22.66993 h -23.2844 v -22.69525 h -4.9826 z m 1.1585,36.6975 h 68.7669 v 16.847553 h -68.7669 z m -44.4376,33.365413 h 5e-4 c 0.1101,-0.003 0.2157,-8e-5 0.3168,0.004 0.4633,0.0212 0.8334,0.11423 1.078,0.28215 1.9594,1.3451 -1.3845,2.0052 -2.0624,4.13668 -1.208003,3.80061 0.5232,4.91868 -1.623203,7.1138 -2.0672,2.11428 -6.18,0.1724 -8.3235,1.50429 -2.1436,1.33191 -2.4913,3.48594 -3.8607,3.25924 -1.3693,-0.22672 -1.2031,-2.4071 -1.2031,-2.4071 0,0 0.1418,-4.79965 1.3095,-6.28645 3.3944,-4.31898 10.9514,-7.54295 14.368103,-7.60624 z m -46.562003,62.77756 h 5e-4 c 0.1116,-0.006 0.2133,0.0106 0.3034,0.0532 2.5454,0.93559 -2.1733,5.86158 -1.2346,7.48379 0.9389,1.62219 2.9367,0.51603 3.6851,1.34718 0.7485,0.83122 0.8082,3.12132 0.4072,4.13052 -0.4878,1.23399 -2.545,2.55847 -3.9109,2.78897 -1.3471,0.2273 -3.1441,-0.66095 -4.055,-1.60456 -0.9107,-0.94358 -1.8577,-2.85004 -1.185,-6.51173 0.4175,-2.27297 4.3163,-7.59279 5.9893,-7.68739 z m 90.999603,5.12993 h 12.314 34.8671 l 17.2486,16.63412 h -52.1157 -12.314 z m 0,35.04232 h 31.2798 34.8671 l 17.2486,16.63462 h -52.1157 -31.2798 z"
       id="path5806-1-5"
       inkscape:connector-curvature="0" />
  </g>
</svg>
