<?xml version="1.0" encoding="UTF-8" standalone="no"?>
<!-- Created with Inkscape (http://www.inkscape.org/) -->

<svg
   xmlns:dc="http://purl.org/dc/elements/1.1/"
   xmlns:cc="http://creativecommons.org/ns#"
   xmlns:rdf="http://www.w3.org/1999/02/22-rdf-syntax-ns#"
   xmlns:svg="http://www.w3.org/2000/svg"
   xmlns="http://www.w3.org/2000/svg"
   xmlns:sodipodi="http://sodipodi.sourceforge.net/DTD/sodipodi-0.dtd"
   xmlns:inkscape="http://www.inkscape.org/namespaces/inkscape"
   width="1024"
   height="1024"
   viewBox="0 0 270.93332 270.93334"
   version="1.1"
   id="svg8"
   inkscape:version="0.92.4 (5da689c313, 2019-01-14)"
   sodipodi:docname="0029.BA.svg">
  <defs
     id="defs2" />
  <sodipodi:namedview
     id="base"
     pagecolor="#ffffff"
     bordercolor="#666666"
     borderopacity="1.0"
     inkscape:pageopacity="0.0"
     inkscape:pageshadow="2"
     inkscape:zoom="0.088388348"
     inkscape:cx="3467.3614"
     inkscape:cy="3381.8492"
     inkscape:document-units="mm"
     inkscape:current-layer="layer1"
     showgrid="false"
     inkscape:window-width="1920"
     inkscape:window-height="1027"
     inkscape:window-x="-8"
     inkscape:window-y="-8"
     inkscape:window-maximized="1"
     units="px"
     showguides="true"
     inkscape:guide-bbox="true">
    <sodipodi:guide
       position="-118.77941,312.75383"
       orientation="0,1"
       id="guide6804"
       inkscape:locked="false" />
    <sodipodi:guide
       position="-307.27932,312.75383"
       orientation="1,0"
       id="guide6806"
       inkscape:locked="false" />
    <sodipodi:guide
       position="-304.28597,1328.1532"
       orientation="0,1"
       id="guide6808"
       inkscape:locked="false" />
    <sodipodi:guide
       position="391.14502,989.68683"
       orientation="0,1"
       id="guide6810"
       inkscape:locked="false" />
    <sodipodi:guide
       position="391.14766,651.22028"
       orientation="0,1"
       id="guide6812"
       inkscape:locked="false" />
    <sodipodi:guide
       position="391.14505,312.75383"
       orientation="0,1"
       id="guide6814"
       inkscape:locked="false" />
  </sodipodi:namedview>
  <metadata
     id="metadata5">
    <rdf:RDF>
      <cc:Work
         rdf:about="">
        <dc:format>image/svg+xml</dc:format>
        <dc:type
           rdf:resource="http://purl.org/dc/dcmitype/StillImage" />
        <dc:title />
      </cc:Work>
    </rdf:RDF>
  </metadata>
  <g
     inkscape:label="Livello 1"
     inkscape:groupmode="layer"
     id="layer1"
     transform="translate(0,-26.06663)">
    <text
       xml:space="preserve"
       style="font-style:normal;font-weight:normal;font-size:10.58333302px;line-height:1.25;font-family:sans-serif;letter-spacing:0px;word-spacing:0px;fill:#000000;fill-opacity:1;stroke:none;stroke-width:0.26458332"
       x="94.038704"
       y="16.326693"
       id="text5812"><tspan
         sodipodi:role="line"
         id="tspan5810"
         x="94.038704"
         y="25.982187"
         style="stroke-width:0.26458332" /></text>
    <path
       style="color:#000000;font-style:normal;font-variant:normal;font-weight:normal;font-stretch:normal;font-size:medium;line-height:normal;font-family:sans-serif;font-variant-ligatures:normal;font-variant-position:normal;font-variant-caps:normal;font-variant-numeric:normal;font-variant-alternates:normal;font-feature-settings:normal;text-indent:0;text-align:start;text-decoration:none;text-decoration-line:none;text-decoration-style:solid;text-decoration-color:#000000;letter-spacing:normal;word-spacing:normal;text-transform:none;writing-mode:lr-tb;direction:ltr;text-orientation:mixed;dominant-baseline:auto;baseline-shift:baseline;text-anchor:start;white-space:normal;shape-padding:0;clip-rule:nonzero;display:inline;overflow:visible;visibility:visible;opacity:1;isolation:auto;mix-blend-mode:normal;color-interpolation:sRGB;color-interpolation-filters:linearRGB;solid-color:#000000;solid-opacity:1;vector-effect:none;fill:#333333;fill-opacity:1;fill-rule:nonzero;stroke:none;stroke-width:9.62713242;stroke-linecap:round;stroke-linejoin:round;stroke-miterlimit:4;stroke-dasharray:none;stroke-dashoffset:0;stroke-opacity:1;color-rendering:auto;image-rendering:auto;shape-rendering:auto;text-rendering:auto;enable-background:accumulate"
       d="m 115.81332,49.500001 c -2.2307,0.0824 -4.1124,1.68929 -4.5444,3.87988 l -4.2865,21.65448 -8.643503,0.45167 -16.9162,-21.03438 c -3.1034,-3.87776 -9.3337,-1.08648 -8.5055,3.81061 l 3.4598,20.53931 -19.4045,28.405009 c -0.4524,0.67069 -0.7288,1.44452 -0.8031,2.24999 l -1.5854,16.86615 c -0.7838,1.02595 -8.0144,10.47629 -16.0641,22.55108 -4.2371,6.35563 -8.4799,13.13299 -11.7456,19.30476 -3.2658,6.17181 -5.8038,11.28274 -5.8038,16.60261 0,14.35896 6.193,24.72184 14.472,30.56143 1.7732,1.25072 6.2755,4.49051 12.0592,3.17757 0.4679,-0.10671 0.8607,-1.22272 1.3224,-1.37872 0,0.04 -0.045,0.12949 -0.045,0.16899 0.063,1.19931 0.3565,2.60795 1.2283,3.86075 0.8725,1.2528 2.2425,2.08047 3.2965,2.43808 2.1081,0.71538 3.2568,0.46149 4.0741,0.49559 4.0228,0.16831 8.9889,0.82876 13.977,-0.44495 2.4942,-0.6369 5.1202,-1.91873 7.0822,-4.21833 1.9619,-2.29949 3.0394,-5.4021 3.2215,-8.86251 0.3248,-6.18148 -0.8802,-10.67358 -0.9276,-12.71706 -0.028,-1.02172 0.063,-1.23606 0.2884,-1.61076 0.2308,-0.3747 0.8844,-1.12347 2.7202,-2.15593 3.5134,-1.97625 9.9605,-3.62556 16.847603,-5.25859 6.8871,-1.63301 14.2369,-3.30986 20.4639,-6.5872 6.9603,-3.66334 8.1732,-6.80106 12.0338,-11.2758 l -1.4412,22.45704 c -0.037,0.1334 -0.4391,2.05427 -3.6292,6.34896 -3.2966,4.43794 -9.3267,10.68544 -20.1818,17.19842 -25.817303,15.49051 -23.309103,52.02217 -23.309103,52.02217 0.1311,2.55997 2.2436,4.56829 4.8069,4.56869 h 45.954303 v -22.02294 c 1.4026,3.15201 3.1194,5.8293 5.1413,8.05326 5.9336,6.52629 13.6834,8.84229 20.5393,10.51718 l 0.094,0.0274 0.072,0.0269 c 19.7683,4.14038 34.4241,-2.73389 50.1287,-2.2252 1.7896,0.091 2.7543,0.31242 3.0086,0.40103 0.091,0.1955 1.4703,2.60466 4.4752,3.91086 l 0.9214,0.401 h 0.9963 c 5.5412,0 14.8455,-0.23823 24.4936,-0.23823 h 4.8075 v -4.80692 c 0,-5.39861 -1.4454,-9.50421 -3.3156,-12.98062 -1.7773,-3.30319 -4.2856,-7.63355 -9.0253,-11.01844 -4.7397,-3.38481 -11.4444,-5.62687 -21.009,-5.92315 -10.2698,-0.318 -25.9269,3.0108 -39.0162,2.7957 -6.5449,-0.10801 -12.2046,-1.16142 -15.6378,-3.19673 -2.2169,-1.31416 -2.578,-4.21833 -3.3849,-6.68123 6.9571,-1.24931 14.0372,-3.55399 18.7591,-9.57048 l 1.0216,-1.30379 v -31.31902 c 5.2864,-3.15751 16.9365,-11.69278 18.9286,-26.90688 1.6406,-12.5286 -1.0343,-23.85197 -10.3291,-35.86395 -8.493,-10.97582 -22.5932,-23.23402 -43.9115,-39.931419 5.9465,-3.15352 10.0345,-9.41189 10.0345,-16.5654 0,-10.2897 -8.9794,-18.73994 -19.2691,-18.73994 h -0.01 c -0.034,0 -0.068,0.003 -0.1029,0.003 v 9.64594 c 0.034,0 0.068,-0.003 0.1029,-0.003 5.0868,0 9.6299,4.00775 9.6299,9.09455 0,4.58533 -3.6921,8.31246 -8.1458,9.00305 v -7.98348 c -6.762,-10.75309 -15.9634,-19.32027 -15.9634,-19.32027 -0.9362,-0.90337 -2.1975,-1.38936 -3.4974,-1.34774 z M 90.318317,118.42189 h 5e-4 c 0.11,-0.003 0.2161,-7e-5 0.3172,0.004 0.4633,0.0209 0.8334,0.11419 1.078,0.28215 1.9594,1.34514 -1.3845,2.0052 -2.0624,4.13671 -1.208,3.80061 0.5233,4.91868 -1.6231,7.11377 -2.0672,2.11434 -6.18,0.17235 -8.3236,1.50429 -2.1435,1.33191 -2.4913,3.48594 -3.8607,3.25924 -1.3693,-0.22669 -1.203,-2.4071 -1.203,-2.4071 0,0 0.1417,-4.7997 1.3094,-6.28642 3.3944,-4.319 10.951,-7.54295 14.3677,-7.60627 z m 44.966703,4.35272 h 2.1286 v 16.30804 h 16.3085 v 6.3867 h -16.3085 v 16.30857 h -2.1286 z m 0,52.77662 c 10.1871,0.0909 21.2386,1.5707 32.3076,4.93562 4.255,1.16041 2.3027,7.55097 -1.8743,6.13605 -10.4698,-3.18246 -20.8534,-4.5947 -30.4333,-4.686 z m -91.528203,5.64825 h 5e-4 c 0.1115,-0.006 0.2133,0.0106 0.3033,0.0532 2.5454,0.93562 -2.1733,5.86103 -1.2345,7.48327 0.9387,1.62218 2.9365,0.51646 3.685,1.34773 0.7484,0.83116 0.8082,3.12132 0.4072,4.13049 -0.4879,1.23404 -2.5449,2.55839 -3.9108,2.78897 -1.3471,0.22723 -3.1442,-0.66095 -4.0551,-1.60454 -0.9107,-0.94361 -1.8575,-2.84998 -1.1849,-6.51176 0.4174,-2.27293 4.3163,-7.59272 5.9893,-7.68736 z m 91.528203,9.10899 h 0.2171 v 2.55696 h 5.7412 v 4.96403 h -5.7412 v 2.55125 h -0.2171 z m 34.7643,6.12365 v 8.52403 l -3.8106,-4.81365 z m -34.7643,12.56771 c 10.2996,0.0436 21.0475,1.51476 32.3076,4.93768 4.254,1.16102 2.3022,7.54986 -1.8743,6.13606 -10.6622,-3.24102 -20.7424,-4.64397 -30.4333,-4.68757 z"
       id="path5806-1-7"
       inkscape:connector-curvature="0" />
  </g>
</svg>
