<?xml version="1.0" encoding="UTF-8" standalone="no"?>
<!-- Created with Inkscape (http://www.inkscape.org/) -->

<svg
   xmlns:dc="http://purl.org/dc/elements/1.1/"
   xmlns:cc="http://creativecommons.org/ns#"
   xmlns:rdf="http://www.w3.org/1999/02/22-rdf-syntax-ns#"
   xmlns:svg="http://www.w3.org/2000/svg"
   xmlns="http://www.w3.org/2000/svg"
   xmlns:sodipodi="http://sodipodi.sourceforge.net/DTD/sodipodi-0.dtd"
   xmlns:inkscape="http://www.inkscape.org/namespaces/inkscape"
   width="1024"
   height="1024"
   viewBox="0 0 270.93332 270.93334"
   version="1.1"
   id="svg8"
   inkscape:version="0.92.4 (5da689c313, 2019-01-14)"
   sodipodi:docname="0031.NQ.svg">
  <defs
     id="defs2" />
  <sodipodi:namedview
     id="base"
     pagecolor="#ffffff"
     bordercolor="#666666"
     borderopacity="1.0"
     inkscape:pageopacity="0.0"
     inkscape:pageshadow="2"
     inkscape:zoom="0.088388348"
     inkscape:cx="5062.5943"
     inkscape:cy="3347.9081"
     inkscape:document-units="mm"
     inkscape:current-layer="layer1"
     showgrid="false"
     inkscape:window-width="1920"
     inkscape:window-height="1027"
     inkscape:window-x="-8"
     inkscape:window-y="-8"
     inkscape:window-maximized="1"
     units="px"
     showguides="true"
     inkscape:guide-bbox="true">
    <sodipodi:guide
       position="-118.77941,312.75383"
       orientation="0,1"
       id="guide6804"
       inkscape:locked="false" />
    <sodipodi:guide
       position="-307.27932,312.75383"
       orientation="1,0"
       id="guide6806"
       inkscape:locked="false" />
    <sodipodi:guide
       position="-304.28597,1328.1532"
       orientation="0,1"
       id="guide6808"
       inkscape:locked="false" />
    <sodipodi:guide
       position="391.14502,989.68683"
       orientation="0,1"
       id="guide6810"
       inkscape:locked="false" />
    <sodipodi:guide
       position="391.14766,651.22028"
       orientation="0,1"
       id="guide6812"
       inkscape:locked="false" />
    <sodipodi:guide
       position="391.14505,312.75383"
       orientation="0,1"
       id="guide6814"
       inkscape:locked="false" />
  </sodipodi:namedview>
  <metadata
     id="metadata5">
    <rdf:RDF>
      <cc:Work
         rdf:about="">
        <dc:format>image/svg+xml</dc:format>
        <dc:type
           rdf:resource="http://purl.org/dc/dcmitype/StillImage" />
        <dc:title />
      </cc:Work>
    </rdf:RDF>
  </metadata>
  <g
     inkscape:label="Livello 1"
     inkscape:groupmode="layer"
     id="layer1"
     transform="translate(0,-26.06663)">
    <text
       xml:space="preserve"
       style="font-style:normal;font-weight:normal;font-size:10.58333302px;line-height:1.25;font-family:sans-serif;letter-spacing:0px;word-spacing:0px;fill:#000000;fill-opacity:1;stroke:none;stroke-width:0.26458332"
       x="94.038704"
       y="16.326693"
       id="text5812"><tspan
         sodipodi:role="line"
         id="tspan5810"
         x="94.038704"
         y="25.982187"
         style="stroke-width:0.26458332" /></text>
    <path
       style="color:#000000;font-style:normal;font-variant:normal;font-weight:normal;font-stretch:normal;font-size:medium;line-height:normal;font-family:sans-serif;font-variant-ligatures:normal;font-variant-position:normal;font-variant-caps:normal;font-variant-numeric:normal;font-variant-alternates:normal;font-feature-settings:normal;text-indent:0;text-align:start;text-decoration:none;text-decoration-line:none;text-decoration-style:solid;text-decoration-color:#000000;letter-spacing:normal;word-spacing:normal;text-transform:none;writing-mode:lr-tb;direction:ltr;text-orientation:mixed;dominant-baseline:auto;baseline-shift:baseline;text-anchor:start;white-space:normal;shape-padding:0;clip-rule:nonzero;display:inline;overflow:visible;visibility:visible;opacity:1;isolation:auto;mix-blend-mode:normal;color-interpolation:sRGB;color-interpolation-filters:linearRGB;solid-color:#000000;solid-opacity:1;vector-effect:none;fill:#333333;fill-opacity:1;fill-rule:nonzero;stroke:none;stroke-width:10.01873779;stroke-linecap:round;stroke-linejoin:miter;stroke-miterlimit:4;stroke-dasharray:none;stroke-dashoffset:0;stroke-opacity:1;paint-order:normal;color-rendering:auto;image-rendering:auto;shape-rendering:auto;text-rendering:auto;enable-background:accumulate"
       d="m 135.47988,45.001156 -0.0233,0.003 c -7.62019,4.5e-4 -13.88867,6.26888 -13.88907,13.88907 3e-4,5.84604 3.70381,10.87014 8.86251,12.90515 l 0.10903,0.48887 -14.1521,64.826524 -29.144987,-59.574144 c 3.3261,-2.54696 5.52204,-6.5138 5.52214,-10.98743 0,-7.62019 -6.26939,-13.88869 -13.88959,-13.88907 -7.6202,4e-4 -13.88878,6.26888 -13.88907,13.88907 0,6.89512 5.14875,12.63671 11.77085,13.67615 l 4.00493,65.866814 -44.36267,-48.129384 c 2.0323,-2.41763 3.30926,-5.48733 3.30936,-8.86251 0,-7.62362 -6.26548,-13.89491 -13.88908,-13.89528 -7.6236,2.9e-4 -13.89367,6.27166 -13.88907,13.89528 0,7.62021 6.26877,13.888614 13.88907,13.889094 0.4354,-8e-5 0.84689,-0.0907 1.27279,-0.13126 l 36.62774,91.01871 c -0.6246,0.7829 -1.20398,1.59 -1.69188,2.4381 -0.9509,1.654 -1.61853,3.431 -1.91823,5.3025 v 0.01 c -0.085,0.5424 -0.12738,1.0962 -0.15038,1.6547 v 0.012 l -0.0966,0.3633 0.01,0.1256 c 0,0.015 -0.0119,0.023 -0.0119,0.038 v 0.3069 l 0.0119,0.1008 v 0.01 c -0.01,0.1128 -0.0119,-0.093 -0.0119,0.1065 v 42.4072 c 0,0.3319 0.0487,0.2557 0.0847,0.5012 -0.024,0.2497 -0.0608,0.4955 -0.0718,0.7458 l -0.0103,0.1131 v 0.1065 c 0,1.0868 0.15444,2.1341 0.39584,3.1589 -0.036,0.025 -0.0854,0.068 -0.10955,0.093 0.3541,1.4716 0.87827,2.8969 1.64227,4.2246 0.6343,1.1038 1.38709,2.1531 2.25,3.146 0.43299,0.4975 0.89872,0.9742 1.37872,1.4418 0.4779,0.4653 0.9789,0.9198 1.4981,1.3539 13.77751,9.9989 31.72327,13.5763 46.819367,15.287 4.5604,0.4996 9.29603,0.8412 14.17743,1.0149 2.4408,0.091 4.91605,0.1313 7.42125,0.1313 0.16159,0 0.32186,0 0.48317,0 v -0.01 c 2.27665,0 4.52707,-0.047 6.7505,-0.1236 0.024,-7e-4 0.0488,-0.01 0.0718,-0.01 7.0113,-0.2704 13.68896,-0.8285 20.43286,-1.8045 4.1981,-0.6431 8.31652,-1.3914 12.31552,-2.3192 6.5106,-1.5393 12.82219,-3.4847 18.80299,-6.3056 0.4682,-0.2213 0.95225,-0.4357 1.40405,-0.664 4.8012,-2.4799 9.5543,-5.5967 12.6044,-10.0661 0.3518,-0.5215 0.67301,-1.0576 0.96531,-1.6045 0.8951,-1.6753 1.36415,-3.4912 1.64125,-4.483 0.2941,-1.053 0.26825,-2.6961 0.26975,-9.9213 v -35.4971 c 0.024,-0.3529 -0.01,-0.8471 -0.01,-1.2469 v -0.2197 c 0.061,-1.0942 -0.20966,-2.4556 -0.29456,-3.2468 -0.3104,-1.2836 -0.73132,-2.534 -1.36012,-3.7104 -0.2923,-0.5468 -0.61413,-1.0829 -0.96583,-1.6045 -0.3566,-0.5296 -0.75431,-1.0433 -1.17151,-1.5415 l 36.55953,-90.83736 c 0.4282,0.0398 0.84079,0.13126 1.27899,0.13126 7.6201,-2.7e-4 13.88867,-6.268884 13.88907,-13.889094 0,-7.62363 -6.26557,-13.89489 -13.88907,-13.89526 -7.6236,2.4e-4 -13.89409,6.27163 -13.88959,13.89526 2e-4,3.37346 1.27886,6.43922 3.30936,8.85632 l -44.3699,48.135564 4.00492,-65.866774 c 6.625,-1.03677 11.77624,-6.77892 11.77654,-13.67618 0,-7.62019 -6.26887,-13.88867 -13.88907,-13.88907 -7.6201,4e-4 -13.88868,6.26888 -13.88908,13.88907 3e-4,4.4722 2.19775,8.43401 5.52215,10.98124 l -29.15119,59.580354 -14.12731,-64.820354 0.10904,-0.50125 c 5.1484,-2.03978 8.84299,-7.05982 8.84339,-12.89894 0,-7.50446 -6.0816,-13.69346 -13.5444,-13.88031 v -0.007 c -0.11324,-0.003 -0.22565,-0.009 -0.33951,-0.009 z m -0.0233,8.53903 v 0.003 h 0.003 c 0.0863,0 0.17214,0.002 0.25735,0.006 0.008,3.4e-4 0.0152,1.5e-4 0.0227,5.3e-4 0.002,1.3e-4 0.005,3.7e-4 0.007,5e-4 2.86748,0.14412 5.06522,2.43536 5.06532,5.3454 -1e-4,2.88544 -2.16117,5.16136 -4.99298,5.34025 v -0.004 c -0.11986,0.008 -0.24061,0.0129 -0.36277,0.0129 -3.0065,-2.1e-4 -5.35244,-2.34617 -5.35264,-5.35265 2e-4,-3.00649 2.34614,-5.3525 5.35264,-5.35263 z m -56.584137,7.65895 c 3.0066,1.5e-4 5.35193,2.34611 5.35213,5.35265 -2e-4,3.00649 -2.34553,5.35247 -5.35213,5.35265 -3.0065,-1.8e-4 -5.35264,-2.34616 -5.35264,-5.35265 0,-3.00654 2.34614,-5.3525 5.35264,-5.35265 z m 113.171897,0.003 c 3.0066,1.6e-4 5.35255,2.34614 5.35265,5.35265 -10e-5,3.00649 -2.34605,5.3525 -5.35265,5.35266 -3.00629,-1.9e-4 -5.35264,-2.34617 -5.35264,-5.35266 0,-3.00648 2.34635,-5.35246 5.35264,-5.35265 z M 25.816253,83.743926 c 3.0081,1.6e-4 5.35444,2.35093 5.35264,5.35884 -3e-4,3.00649 -2.34614,5.35247 -5.35264,5.35265 -3.0064,-1.8e-4 -5.35235,-2.34616 -5.35265,-5.35265 0,-3.00791 2.34475,-5.35868 5.35265,-5.35884 z m 219.283767,0.003 c 3.008,1.6e-4 5.35444,2.3509 5.35264,5.35885 -1e-4,3.00648 -2.34614,5.35249 -5.35264,5.35265 -3.0065,-1.6e-4 -5.35254,-2.34617 -5.35265,-5.35265 0,-3.00795 2.34475,-5.35869 5.35265,-5.35885 z m -109.28067,12.77287 15.17789,69.665534 32.30965,-65.99806 -4.40593,72.3222 47.06999,-51.07492 -26.51207,65.8854 c -3.5337,-2.19644 -7.66457,-4.10967 -12.38477,-5.77848 -16.28861,-5.3146 -36.36207,-7.47903 -51.49247,-7.59592 -0.0415,4.5e-4 -0.0835,0.002 -0.12506,0.002 v 1.60973 c -6.7033,0.0676 -13.66426,0.48781 -18.6464,1.2361 -12.8572,1.9312 -25.727117,5.65394 -38.640017,11.16934 -6.2131,2.65383 -7.51868,2.92918 -8.61808,1.82988 -1.1607,-1.16051 -0.81276,-3.7474 0.63304,-4.69429 0.7228,-0.47381 5.17815,-2.39318 9.89655,-4.26847 17.7273,-7.04561 35.248357,-10.77473 52.629857,-11.18743 1.03652,-0.0246 2.07232,-0.0367 3.10782,-0.0377 z m 0,87.029834 c 18.92674,0.0476 36.04211,2.82366 48.04513,7.06727 6.0535,2.14022 10.78728,4.67401 13.71338,7.12001 2.8755,2.4034 3.78574,4.3667 3.81734,5.9732 0,0.019 -3.4e-4,0.043 -0.0103,0.063 0.049,0.9147 0.0241,1.8306 0.0491,2.7456 l -8.21655,4.5062 c -2.5014,1.3713 -1.8074,2.8697 0,5.0767 l 8.21655,10.0283 v 6.9071 c -3.9212,-2.7682 -8.71983,-5.1138 -14.35933,-7.1076 -13.44705,-4.7541 -31.40833,-7.5737 -51.25527,-7.6197 v -5.702 c 1.51639,-0.057 2.9991,-0.3886 4.12792,-1.0082 l 14.20843,-7.7907 c 2.5014,-1.3713 2.5014,-3.7059 0,-5.0772 l -14.20843,-7.79065 c -1.12896,-0.61883 -2.61057,-0.94898 -4.12792,-1.00613 z m -0.60358,7.41144 c 0.0804,-9.5e-4 0.1605,0.002 0.24081,0.003 v 21.03854 c -2.69433,0.085 -5.09297,-1.259 -9.83402,-3.7636 -8.6149,-4.5513 -10.20971,-5.6464 -10.20971,-7.0136 0,-1.3738 1.62124,-2.4838 10.25984,-7.0259 3.41078,-2.13787 6.51919,-3.20208 9.54308,-3.23801 z m -65.397037,18.97094 c 1.107,-0.069 7.22178,3.2985 7.89409,4.3863 0.3153,0.5101 -6.40827,9.0315 -7.12618,9.0315 -0.1808,0 -0.63444,-0.3091 -1.00924,-0.6832 -1.0637,-1.0635 -0.93032,-12.3022 0.15038,-12.717 0.0249,-0.01 0.0552,-0.015 0.0909,-0.018 z m 65.637847,12.9754 v 5.0214 c 19.07111,0.013 36.32805,2.7985 48.4079,7.0693 6.0535,2.1402 10.78728,4.6741 13.71338,7.12 2.8048,2.3444 3.72504,4.2637 3.59874,6.1211 -0.1264,1.8575 -0.82509,3.2824 -2.40708,4.8855 -4.03341,3.2848 -8.19709,5.606 -12.36049,7.2579 -16.61441,6.0052 -34.0639,7.9496 -50.58968,8.0543 v -39.5877 c -6.80862,0.058 -13.9238,0.4839 -18.99005,1.2449 -12.8572,1.9311 -25.727737,5.6473 -38.640537,11.1626 -6.2132,2.6539 -7.51206,2.9359 -8.61136,1.8366 -1.1607,-1.1605 -0.81266,-3.7479 0.63304,-4.6948 0.7228,-0.4738 5.17195,-2.3994 9.89035,-4.2747 17.7273,-7.0456 35.254247,-10.7684 52.635547,-11.1812 0.90707,-0.022 1.8139,-0.032 2.72024,-0.035 z"
       id="rect4531-09-6-3"
       inkscape:connector-curvature="0" />
  </g>
</svg>
