<?xml version="1.0" encoding="UTF-8" standalone="no"?>
<!-- Created with Inkscape (http://www.inkscape.org/) -->

<svg
   xmlns:dc="http://purl.org/dc/elements/1.1/"
   xmlns:cc="http://creativecommons.org/ns#"
   xmlns:rdf="http://www.w3.org/1999/02/22-rdf-syntax-ns#"
   xmlns:svg="http://www.w3.org/2000/svg"
   xmlns="http://www.w3.org/2000/svg"
   xmlns:sodipodi="http://sodipodi.sourceforge.net/DTD/sodipodi-0.dtd"
   xmlns:inkscape="http://www.inkscape.org/namespaces/inkscape"
   width="1024"
   height="1024"
   viewBox="0 0 270.93332 270.93334"
   version="1.1"
   id="svg8"
   inkscape:version="0.92.4 (5da689c313, 2019-01-14)"
   sodipodi:docname="0032.NK.svg">
  <defs
     id="defs2" />
  <sodipodi:namedview
     id="base"
     pagecolor="#ffffff"
     bordercolor="#666666"
     borderopacity="1.0"
     inkscape:pageopacity="0.0"
     inkscape:pageshadow="2"
     inkscape:zoom="0.088388348"
     inkscape:cx="9162.4396"
     inkscape:cy="3370.5355"
     inkscape:document-units="mm"
     inkscape:current-layer="layer1"
     showgrid="false"
     inkscape:window-width="1920"
     inkscape:window-height="1027"
     inkscape:window-x="-8"
     inkscape:window-y="-8"
     inkscape:window-maximized="1"
     units="px"
     showguides="true"
     inkscape:guide-bbox="true">
    <sodipodi:guide
       position="-118.77941,312.75383"
       orientation="0,1"
       id="guide6804"
       inkscape:locked="false" />
    <sodipodi:guide
       position="-307.27932,312.75383"
       orientation="1,0"
       id="guide6806"
       inkscape:locked="false" />
    <sodipodi:guide
       position="-304.28597,1328.1532"
       orientation="0,1"
       id="guide6808"
       inkscape:locked="false" />
    <sodipodi:guide
       position="391.14502,989.68683"
       orientation="0,1"
       id="guide6810"
       inkscape:locked="false" />
    <sodipodi:guide
       position="391.14766,651.22028"
       orientation="0,1"
       id="guide6812"
       inkscape:locked="false" />
    <sodipodi:guide
       position="391.14505,312.75383"
       orientation="0,1"
       id="guide6814"
       inkscape:locked="false" />
  </sodipodi:namedview>
  <metadata
     id="metadata5">
    <rdf:RDF>
      <cc:Work
         rdf:about="">
        <dc:format>image/svg+xml</dc:format>
        <dc:type
           rdf:resource="http://purl.org/dc/dcmitype/StillImage" />
        <dc:title />
      </cc:Work>
    </rdf:RDF>
  </metadata>
  <g
     inkscape:label="Livello 1"
     inkscape:groupmode="layer"
     id="layer1"
     transform="translate(0,-26.06663)">
    <text
       xml:space="preserve"
       style="font-style:normal;font-weight:normal;font-size:10.58333302px;line-height:1.25;font-family:sans-serif;letter-spacing:0px;word-spacing:0px;fill:#000000;fill-opacity:1;stroke:none;stroke-width:0.26458332"
       x="94.038704"
       y="16.326693"
       id="text5812"><tspan
         sodipodi:role="line"
         id="tspan5810"
         x="94.038704"
         y="25.982187"
         style="stroke-width:0.26458332" /></text>
    <path
       style="color:#000000;font-style:normal;font-variant:normal;font-weight:normal;font-stretch:normal;font-size:medium;line-height:normal;font-family:sans-serif;font-variant-ligatures:normal;font-variant-position:normal;font-variant-caps:normal;font-variant-numeric:normal;font-variant-alternates:normal;font-feature-settings:normal;text-indent:0;text-align:start;text-decoration:none;text-decoration-line:none;text-decoration-style:solid;text-decoration-color:#000000;letter-spacing:normal;word-spacing:normal;text-transform:none;writing-mode:lr-tb;direction:ltr;text-orientation:mixed;dominant-baseline:auto;baseline-shift:baseline;text-anchor:start;white-space:normal;shape-padding:0;clip-rule:nonzero;display:inline;overflow:visible;visibility:visible;opacity:1;isolation:auto;mix-blend-mode:normal;color-interpolation:sRGB;color-interpolation-filters:linearRGB;solid-color:#000000;solid-opacity:1;vector-effect:none;fill:#333333;fill-opacity:1;fill-rule:nonzero;stroke:none;stroke-width:10.01873779;stroke-linecap:round;stroke-linejoin:miter;stroke-miterlimit:4;stroke-dasharray:none;stroke-dashoffset:0;stroke-opacity:1;paint-order:normal;color-rendering:auto;image-rendering:auto;shape-rendering:auto;text-rendering:auto;enable-background:accumulate"
       d="m 107.5188,45.980795 v 5.02036 49.583555 h 12.10313 c -0.35971,0.2486 -0.72015,0.49334 -1.07797,0.75189 -0.31089,0.22752 -0.61899,0.46183 -0.9276,0.70176 -4.27826,3.27795 -8.37348,7.63352 -12.23439,13.06845 -1.16448,-1.00303 -2.36903,-2.00461 -3.61683,-3.0086 -9.717691,-7.81809 -22.422325,-11.93025 -34.916745,-12.0592 -12.49439,-0.129075 -24.9982,3.77338 -33.73281,12.72376 -10.83922,11.10686 -12.37052,25.49747 -10.20972,37.49899 2.16069,12.00166 7.46202,21.86054 12.10262,26.98234 6.48679,7.15971 18.91044,17.40594 25.13955,22.4198 -0.24022,1.0247 -0.40153,2.0716 -0.40153,3.1585 v 0.1069 l 0.0103,0.1127 c 0.011,0.2503 0.0488,0.4963 0.0718,0.7457 -0.036,0.2454 -0.0853,0.1698 -0.0853,0.5018 v 42.4067 0.1008 0.01 0.095 0.3069 0.043 0.1251 l 0.10956,0.3638 v 0.012 c 0.024,0.5584 0.061,1.1123 0.15037,1.6547 0.29961,1.8714 0.96652,3.6485 1.91772,5.3025 0.63432,1.1038 1.39341,2.1531 2.25618,3.146 0.43302,0.4975 0.89263,0.9743 1.37253,1.4418 0.47792,0.4654 0.97893,0.9197 1.4981,1.3539 4.25042,3.5529 9.89967,6.4158 16.67859,8.8124 8.473784,2.9959 18.739995,5.2246 30.140785,6.4745 4.5603,0.4996 9.30264,0.8414 14.18415,1.015 2.44004,0.091 4.91419,0.1312 7.41868,0.1312 h -0.24548 c 0.0782,1e-4 0.15584,0.001 0.2341,0.001 2.4375,0 4.84362,-0.043 7.22024,-0.125 0.025,-8e-4 0.0504,0 0.0754,0 2.35381,-0.082 4.67238,-0.2036 6.95669,-0.3633 1.61099,-0.1128 3.17851,-0.2641 4.75112,-0.4139 4.41661,-0.3823 8.67928,-0.9874 17.1478,-2.6991 8.46839,-1.7117 17.86409,-3.8975 26.87019,-9.1467 3.63569,-2.2209 7.67172,-5.445 9.83403,-8.5365 1.15319,-1.8448 2.2688,-3.918 2.60501,-6.1148 0.14719,-1.046 0.26355,-1.9995 0.26355,-2.5053 0,-2.6142 0.01,-42.8853 0.01,-42.8853 0,-0.2131 -0.0823,-0.3121 -0.10078,-0.5079 0.023,-0.1739 0.0604,-0.3459 0.0755,-0.5204 l 0.0186,-0.2191 v -0.2196 c 0,-1.0869 -0.16052,-2.1338 -0.401,-3.1585 6.22909,-5.01399 18.65265,-15.26008 25.13955,-22.41981 4.6405,-5.12181 9.94243,-14.98079 12.10312,-26.98235 2.16072,-12.00155 0.62878,-26.39208 -10.21022,-37.49899 -8.7345,-8.95028 -21.23781,-12.852725 -33.73231,-12.72379 -12.49439,0.12898 -25.19965,4.24106 -34.91724,12.05923 -1.24791,1.00402 -2.45224,2.00554 -3.61683,3.00861 -3.86091,-5.435 -7.95621,-9.79051 -12.23441,-13.06846 -0.30848,-0.23985 -0.61677,-0.47424 -0.92758,-0.70178 -0.3579,-0.25855 -0.71848,-0.50327 -1.07797,-0.7519 h 11.93364 V 45.985715 h -27.77453 v 0.005 z m 27.95127,10.02162 h 10.7487 l -10.7487,10.47533 z m -11.88715,2.96468 9.52088,9.52085 2.36627,-0.98288 v 11.24842 l -2.37247,-0.9834 -9.51468,9.52706 -2.27531,-2.27531 9.52707,-9.51415 -0.98391,-2.37557 0.98391,-2.38797 -9.52707,-9.52656 z m 29.67416,3.62924 v 21.37904 l -10.96833,-10.68667 z m -17.78701,17.49763 10.74248,10.46861 h -10.74248 z m -0.004,24.871875 h 0.004 c 2.48028,0.026 4.79158,0.68008 6.96338,1.66709 6.78781,3.04154 12.34652,10.14637 15.83833,15.38096 -12.7754,12.91916 -19.28746,25.3374 -22.32527,35.2366 -0.1905,0.62085 -0.31184,1.18994 -0.47644,1.79266 -0.1647,-0.60269 -0.27988,-1.17186 -0.47027,-1.79266 -3.03779,-9.8992 -9.54984,-22.31749 -22.32525,-35.2366 3.5116,-5.31455 7.02657,-9.31425 10.46086,-12.05301 0.18351,-0.14343 0.36218,-0.3012 0.5452,-0.43823 0.69638,-0.53078 1.38599,-0.97062 2.07481,-1.40404 0.3883,-0.24164 0.7743,-0.50874 1.15908,-0.72088 0.53491,-0.2971 1.06307,-0.52454 1.59216,-0.7648 0.4554,-0.20635 0.91652,-0.43609 1.36633,-0.60154 0.58899,-0.21619 1.16862,-0.36044 1.74872,-0.50797 0.3584,-0.0922 0.72379,-0.22257 1.07799,-0.28834 0.93525,-0.17272 1.85981,-0.269 2.76675,-0.26924 z m -69.687745,4.71289 c 0.32444,-0.003 0.6495,-0.003 0.97513,0 10.4204,0.10798 21.204004,3.6558 28.969304,9.90327 19.006301,15.29104 26.802851,29.86995 30.059661,40.48279 1.7838,5.81281 2.19128,10.13801 2.22517,13.00541 -17.06729,0.60999 -32.427991,3.29938 -44.281015,7.48998 -6.77899,2.3966 -12.42806,5.25918 -16.67856,8.81187 -0.69128,0.57761 -1.33575,1.19298 -1.95543,1.82417 -5.69431,-4.62219 -17.2158,-14.08875 -22.9521,-20.41993 -2.65319,-2.9286 -7.95436,-12.19851 -9.75858,-22.21932 -1.80409,-10.0208 -0.67585,-20.56116 7.62744,-29.06903 6.27189,-6.42675 15.71159,-9.70822 25.76898,-9.80921 z m 139.385285,0 c 10.05748,0.10067 19.49709,3.38249 25.76899,9.80921 8.30278,8.50789 9.43205,19.04865 7.62794,29.06954 -1.80409,10.02085 -7.10568,19.29026 -9.75908,22.21881 -5.7363,6.33121 -17.25779,15.79771 -22.9521,20.41993 -0.61971,-0.63132 -1.26434,-1.24603 -1.95543,-1.82364 -4.2504,-3.55277 -9.89904,-6.41573 -16.67806,-8.8124 -11.85299,-4.19058 -27.21412,-6.87996 -44.28152,-7.48998 0.034,-2.86732 0.44138,-7.19265 2.22518,-13.00541 3.2568,-10.61286 11.05336,-25.19172 30.05965,-40.48279 7.76531,-6.24742 18.54901,-9.79524 28.96931,-9.90277 0.32562,-0.003 0.65069,-0.004 0.97512,-5e-4 z m -70.01743,2.47478 c -2.91486,0.0641 -5.80001,1.63758 -8.72453,4.73305 -4.5481,4.81388 -4.40846,4.08977 -1.42266,7.60934 1.43693,1.69368 3.47721,4.34536 4.53152,5.89783 1.96429,2.89258 5.52214,10.04808 5.52214,11.1063 0,0.50885 0.0848,0.56761 0.41704,-0.0925 v -29.2499 c -0.10784,-0.002 -0.21577,-0.007 -0.32351,-0.004 z m -68.643345,5.81721 v 5.3e-4 c -6.2439,0.0154 -9.23329,0.66307 -14.13973,3.05199 -2.78556,1.35636 -3.71983,2.01674 -5.92934,4.21217 -2.8721,2.85398 -4.85002,5.91092 -5.8725,9.07539 -2.3663,7.32198 -1.24423,16.27735 3.18378,25.40932 2.7518,5.67488 5.77522,8.92698 17.12971,18.42677 l 4.87619,4.08038 1.19113,-1.07178 c 7.60378,-6.86969 24.545844,-11.75409 45.641155,-13.15577 l 3.03959,-0.20103 -0.23821,-2.46909 c -0.46881,-4.84992 -1.72765,-9.02068 -4.39353,-14.57277 -3.86102,-8.04074 -9.80819,-15.56343 -17.655781,-22.31904 -5.66881,-4.87987 -9.1454,-6.96193 -14.509704,-8.69921 -4.46482,-1.44589 -6.78688,-1.78117 -12.32276,-1.76786 z m 68.966855,64.59503 c 19.12218,1.6e-4 36.42998,2.78945 48.53707,7.06985 6.05361,2.14019 10.78709,4.67405 13.71338,7.11999 2.87541,2.40341 3.78555,4.36671 3.81733,5.97321 0,0.019 -3.2e-4,0.038 -0.0103,0.057 l -0.25064,1.3416 0.29456,0.7643 v 0.6397 l -8.21655,4.5062 c -2.5014,1.3713 -1.8074,2.8697 0,5.0767 l 8.21655,10.0283 v 6.9071 c -3.92081,-2.768 -8.71974,-5.1137 -14.35933,-7.1076 -13.55717,-4.7931 -31.70161,-7.6207 -51.74205,-7.6212 v -6.209 c 1.68426,0 3.36865,-0.3366 4.61936,-1.0226 l 14.20895,-7.7908 c 2.50139,-1.3713 2.50139,-3.7053 0,-5.07665 l -14.20895,-7.79074 c -1.25071,-0.68564 -2.93378,-1.02457 -4.61936,-1.02166 z m -0.0915,6.042 c 0.0303,-5.3e-4 0.0611,0.002 0.0915,0.002 v 22.39295 c -1.25698,0 -2.5186,-0.1249 -3.18741,-0.3633 -1.60959,-0.5752 -15.91635,-8.4593 -16.62845,-9.1633 -0.91819,-0.9076 -0.85982,-2.3341 0.13798,-3.253 1.19451,-1.1002 15.52043,-8.79079 17.17363,-9.21957 0.8895,-0.2308 1.64528,-0.38151 2.41278,-0.39481 z M 70.438985,208.1187 h 5.3e-4 5.1e-4 c 0.32723,-0.01 0.64706,0.079 0.92088,0.2574 l 6.0606,3.7227 c 0.8854,0.5702 0.99094,1.8283 0.21344,2.5384 l -6.06063,7.0512 c -1.02968,0.9626 -2.71193,0.2252 -2.70113,-1.1844 v -10.7745 c 0,-0.8725 0.69318,-1.5884 1.5658,-1.6108 z m 65.030675,13.1398 v 5.6885 c 19.12218,2e-4 36.42998,2.7895 48.53707,7.0699 6.05361,2.1402 10.78709,4.674 13.71338,7.1199 2.80472,2.3444 3.72475,4.2637 3.59566,6.1211 -0.81571,4.1543 -4.075,6.5948 -7.13602,8.4321 -6.82847,3.9258 -13.84702,5.8836 -18.1968,7.3111 -8.41002,2.7577 -26.20595,4.394 -40.51176,4.4602 h -0.002 v -39.8802 c -21.22585,0.083 -41.963051,5.3812 -62.448395,14.9345 a 3.2123414,3.2123414 0 0 1 -2.70113,-5.8291 c 20.708204,-9.6569 41.954725,-15.1051 63.697915,-15.4182 0.48345,-0.01 0.96766,-0.01 1.45161,-0.01 z"
       id="rect4531-18"
       inkscape:connector-curvature="0" />
  </g>
</svg>
