<?xml version="1.0" encoding="UTF-8" standalone="no"?>
<!-- Created with Inkscape (http://www.inkscape.org/) -->

<svg
   xmlns:dc="http://purl.org/dc/elements/1.1/"
   xmlns:cc="http://creativecommons.org/ns#"
   xmlns:rdf="http://www.w3.org/1999/02/22-rdf-syntax-ns#"
   xmlns:svg="http://www.w3.org/2000/svg"
   xmlns="http://www.w3.org/2000/svg"
   xmlns:sodipodi="http://sodipodi.sourceforge.net/DTD/sodipodi-0.dtd"
   xmlns:inkscape="http://www.inkscape.org/namespaces/inkscape"
   width="1024"
   height="1024"
   viewBox="0 0 270.93332 270.93334"
   version="1.1"
   id="svg8"
   inkscape:version="0.92.4 (5da689c313, 2019-01-14)"
   sodipodi:docname="0034.NB.svg">
  <defs
     id="defs2" />
  <sodipodi:namedview
     id="base"
     pagecolor="#ffffff"
     bordercolor="#666666"
     borderopacity="1.0"
     inkscape:pageopacity="0.0"
     inkscape:pageshadow="2"
     inkscape:zoom="0.088388348"
     inkscape:cx="2138.9886"
     inkscape:cy="3370.5355"
     inkscape:document-units="mm"
     inkscape:current-layer="layer1"
     showgrid="false"
     inkscape:window-width="1920"
     inkscape:window-height="1027"
     inkscape:window-x="-8"
     inkscape:window-y="-8"
     inkscape:window-maximized="1"
     units="px"
     showguides="true"
     inkscape:guide-bbox="true">
    <sodipodi:guide
       position="-118.77941,312.75383"
       orientation="0,1"
       id="guide6804"
       inkscape:locked="false" />
    <sodipodi:guide
       position="-307.27932,312.75383"
       orientation="1,0"
       id="guide6806"
       inkscape:locked="false" />
    <sodipodi:guide
       position="-304.28597,1328.1532"
       orientation="0,1"
       id="guide6808"
       inkscape:locked="false" />
    <sodipodi:guide
       position="391.14502,989.68683"
       orientation="0,1"
       id="guide6810"
       inkscape:locked="false" />
    <sodipodi:guide
       position="391.14766,651.22028"
       orientation="0,1"
       id="guide6812"
       inkscape:locked="false" />
    <sodipodi:guide
       position="391.14505,312.75383"
       orientation="0,1"
       id="guide6814"
       inkscape:locked="false" />
  </sodipodi:namedview>
  <metadata
     id="metadata5">
    <rdf:RDF>
      <cc:Work
         rdf:about="">
        <dc:format>image/svg+xml</dc:format>
        <dc:type
           rdf:resource="http://purl.org/dc/dcmitype/StillImage" />
        <dc:title />
      </cc:Work>
    </rdf:RDF>
  </metadata>
  <g
     inkscape:label="Livello 1"
     inkscape:groupmode="layer"
     id="layer1"
     transform="translate(0,-26.06663)">
    <text
       xml:space="preserve"
       style="font-style:normal;font-weight:normal;font-size:10.58333302px;line-height:1.25;font-family:sans-serif;letter-spacing:0px;word-spacing:0px;fill:#000000;fill-opacity:1;stroke:none;stroke-width:0.26458332"
       x="94.038704"
       y="16.326693"
       id="text5812"><tspan
         sodipodi:role="line"
         id="tspan5810"
         x="94.038704"
         y="25.982187"
         style="stroke-width:0.26458332" /></text>
    <path
       style="color:#000000;font-style:normal;font-variant:normal;font-weight:normal;font-stretch:normal;font-size:medium;line-height:normal;font-family:sans-serif;font-variant-ligatures:normal;font-variant-position:normal;font-variant-caps:normal;font-variant-numeric:normal;font-variant-alternates:normal;font-feature-settings:normal;text-indent:0;text-align:start;text-decoration:none;text-decoration-line:none;text-decoration-style:solid;text-decoration-color:#000000;letter-spacing:normal;word-spacing:normal;text-transform:none;writing-mode:lr-tb;direction:ltr;text-orientation:mixed;dominant-baseline:auto;baseline-shift:baseline;text-anchor:start;white-space:normal;shape-padding:0;clip-rule:nonzero;display:inline;overflow:visible;visibility:visible;opacity:1;isolation:auto;mix-blend-mode:normal;color-interpolation:sRGB;color-interpolation-filters:linearRGB;solid-color:#000000;solid-opacity:1;vector-effect:none;fill:#333333;fill-opacity:1;fill-rule:nonzero;stroke:none;stroke-width:9.62713242;stroke-linecap:butt;stroke-linejoin:miter;stroke-miterlimit:4;stroke-dasharray:none;stroke-dashoffset:0;stroke-opacity:1;color-rendering:auto;image-rendering:auto;shape-rendering:auto;text-rendering:auto;enable-background:accumulate"
       d="m 135.5695,50.404286 c -0.0345,0 -0.0684,0.002 -0.10284,0.003 -10.24295,0.0561 -18.6314,8.48249 -18.6314,18.73787 0,7.10393 4.02955,13.32849 9.90896,16.50288 -21.3637,16.732304 -35.469673,29.003394 -43.974073,39.993944 -9.2946,12.01198 -11.99449,23.33472 -10.35388,35.86345 1.99218,15.21468 13.64202,23.75019 18.92802,26.90739 v 31.31899 l 1.02166,1.3038 c 4.72189,6.0165 11.801963,8.3215 18.759043,9.571 -0.80729,2.4606 -1.15006,5.3678 -3.36568,6.6813 -3.43318,2.0354 -9.086803,3.0886 -15.631593,3.1961 -13.08941,0.2152 -28.77134,-3.1132 -39.04104,-2.7951 -9.5644,0.2963 -16.26944,2.5382 -21.00905,5.9231 -4.7398,3.3849 -7.24861,7.7152 -9.02581,11.0185 -1.87029,3.4763 -3.32174,7.5814 -3.32174,12.9801 v 4.8074 h 4.83846 c 9.6483,0 18.95279,0.2382 24.49409,0.2382 h 0.99066 l 0.92757,-0.401 c 2.71682,-1.181 4.24704,-3.3637 4.59404,-3.9362 0.31851,-0.097 1.19769,-0.2889 2.79519,-0.3767 15.74009,-0.5393 30.39026,6.3738 50.197973,2.2252 l 0.0951,-0.027 0.0718,-0.027 c 6.8558,-1.6749 14.60574,-3.9909 20.53931,-10.5172 2.56212,-2.8179 4.62989,-6.3613 6.19239,-10.6799 v 0.01 c 2.1e-4,-6e-4 3.4e-4,-0.001 5.3e-4,0 1.56271,4.3191 3.63648,7.8623 6.19858,10.6804 5.93381,6.5264 13.683,8.8424 20.53881,10.5172 l 0.0951,0.025 0.0718,0.025 c 19.76842,4.1405 34.42454,-2.7338 50.12925,-2.2251 1.78951,0.09 2.75431,0.3122 3.0086,0.401 0.091,0.1953 1.46987,2.6052 4.47466,3.9114 l 0.92139,0.401 h 0.99684 c 5.5413,0 14.8458,-0.2383 24.49412,-0.2383 h 4.80692 v -4.8074 c 0,-5.3987 -1.44533,-9.5039 -3.31554,-12.9801 -1.77739,-3.3034 -4.28548,-7.6341 -9.02528,-11.019 -4.73972,-3.3849 -11.44448,-5.6263 -21.00906,-5.9226 -10.26972,-0.3181 -25.92673,3.0103 -39.01622,2.7952 -6.54481,-0.108 -12.20462,-1.1609 -15.6378,-3.1962 -2.21681,-1.3142 -2.57802,-4.219 -3.38482,-6.6818 6.95709,-1.2495 14.03715,-3.5539 18.75907,-9.5704 l 1.02163,-1.3039 v -31.31948 c 5.28579,-3.15751 16.93585,-11.69289 18.92806,-26.90688 1.64049,-12.52871 -1.03484,-23.8515 -10.3296,-35.86345 -8.49302,-10.97587 -22.59264,-23.23407 -43.91102,-39.931424 5.94638,-3.15354 10.03451,-9.41186 10.03451,-16.5654 0,-10.2897 -8.45074,-18.74044 -18.74044,-18.74044 z m 0,9.64592 c 5.0867,0 9.10074,4.00772 9.10074,9.09452 0,5.08683 -4.01404,9.11934 -9.10074,9.11934 -0.0345,0 -0.0684,-0.002 -0.10284,-0.003 -5.03814,-0.054 -9.017,-4.06429 -9.017,-9.11677 0,-5.05246 3.97886,-9.0383 9.017,-9.09193 0.0344,-3.7e-4 0.0683,-0.003 0.10284,-0.003 z m -0.10025,30.99294 v 0.001 c 22.86111,17.801354 37.26834,30.387714 45.08923,40.495194 8.18052,10.57177 9.80758,18.02725 8.40518,28.73727 -1.71691,13.11148 -14.15505,19.72828 -15.48741,20.41993 -9.74034,-4.172 -22.39685,-6.73777 -38.00959,-7.08639 V 161.7747 h -3.20032 v -16.30857 h -16.30855 v -6.3867 h 16.30855 v -16.30854 h 3.20032 V 91.045176 c 9e-4,-6.9e-4 0.002,-0.001 0.003,-0.002 z m -0.003,31.727784 v 39.00381 h 3.18638 v -16.30857 h 16.30857 v -6.3867 h -16.30857 v -16.30854 z m 0,52.77146 v 6.38617 c -10.95732,0.0624 -21.42099,1.8569 -31.66213,4.71599 -4.092103,1.09691 -5.797213,-5.00129 -1.72961,-6.1862 10.20799,-2.8497 20.77482,-4.69141 31.8585,-4.90151 v 5.3e-4 c 0.50964,-0.01 1.0214,-0.0123 1.53324,-0.015 z m 0,7.70856 c 14.48554,0.29874 26.70368,2.35942 34.49971,5.48081 v 6.51846 l -4.20595,4.20539 4.20595,4.206 v 9.8025 c -11.50332,-2.5082 -23.0187,-4.0485 -34.49971,-4.1956 v 6.1102 c -10.95732,0.062 -21.42099,1.8574 -31.66213,4.7165 -4.129623,1.1633 -5.863833,-5.0386 -1.72961,-6.1862 10.2081,-2.8498 20.77482,-4.6915 31.8585,-4.9015 0.50964,-0.01 1.0214,-0.012 1.53324,-0.015 v -8.6155 h -1.2764 v -2.5507 h -5.74744 v -4.96405 h 5.74744 v -2.55746 h 1.2764 z m 0,7.05384 v 10.07222 h 1.27487 v -2.5507 h 5.74124 v -4.96406 h -5.74124 v -2.55746 z m -35.585403,6.12362 3.810613,3.7104 -3.810613,4.8137 z m 35.585403,19.2397 c 9.92137,0.1294 19.91217,1.3396 29.962,3.3615 -2.34141,1.2824 -5.07855,2.2199 -8.37364,2.7203 -5.69489,0.8647 -12.23026,0.7554 -18.37666,0.7333 -0.53219,0 -1.09236,0 -1.61748,0 h -1.59422 z m 15.33914,15.9096 c 1.4129,5.6215 3.03845,11.3566 7.45844,13.9769 5.88651,3.4897 13.02954,4.4291 20.39514,4.5501 14.7311,0.2422 31.33945,-3.0286 38.87825,-2.7952 8.24389,0.2554 12.80147,2.0292 15.72564,4.1176 2.92441,2.0884 4.48527,4.7037 6.13609,7.7722 0.64619,1.2013 0.59467,2.5763 0.94617,3.6478 -6.46432,0.061 -12.88171,0.1492 -16.86459,0.169 -0.01,-0.027 -0.13351,-0.2048 -0.89763,-1.1157 -0.82629,-0.9844 -2.30118,-2.0701 -3.91139,-2.6324 -1.60999,-0.5623 -3.3656,-0.8302 -5.68441,-0.9462 h -0.046 -0.045 c -18.39031,-0.6298 -31.88433,5.8411 -48.44304,2.4195 -6.4199,-1.5714 -11.79493,-3.3733 -15.66312,-7.628 -3.19251,-3.5114 -4.8351,-11.4542 -5.65962,-21.2534 2.49243,0.01 5.02973,-0.1623 7.67501,-0.2822 z"
       id="path5613-8-3"
       inkscape:connector-curvature="0" />
  </g>
</svg>
