<?xml version="1.0" encoding="UTF-8" standalone="no"?>
<!-- Created with Inkscape (http://www.inkscape.org/) -->

<svg
   xmlns:dc="http://purl.org/dc/elements/1.1/"
   xmlns:cc="http://creativecommons.org/ns#"
   xmlns:rdf="http://www.w3.org/1999/02/22-rdf-syntax-ns#"
   xmlns:svg="http://www.w3.org/2000/svg"
   xmlns="http://www.w3.org/2000/svg"
   xmlns:sodipodi="http://sodipodi.sourceforge.net/DTD/sodipodi-0.dtd"
   xmlns:inkscape="http://www.inkscape.org/namespaces/inkscape"
   width="1024"
   height="1024"
   viewBox="0 0 270.93332 270.93334"
   version="1.1"
   id="svg8"
   inkscape:version="0.92.4 (5da689c313, 2019-01-14)"
   sodipodi:docname="0035.NN.svg">
  <defs
     id="defs2" />
  <sodipodi:namedview
     id="base"
     pagecolor="#ffffff"
     bordercolor="#666666"
     borderopacity="1.0"
     inkscape:pageopacity="0.0"
     inkscape:pageshadow="2"
     inkscape:zoom="0.088388348"
     inkscape:cx="3999.1057"
     inkscape:cy="3291.3395"
     inkscape:document-units="mm"
     inkscape:current-layer="layer1"
     showgrid="false"
     inkscape:window-width="1920"
     inkscape:window-height="1027"
     inkscape:window-x="-8"
     inkscape:window-y="-8"
     inkscape:window-maximized="1"
     units="px"
     showguides="true"
     inkscape:guide-bbox="true">
    <sodipodi:guide
       position="-118.77941,312.75383"
       orientation="0,1"
       id="guide6804"
       inkscape:locked="false" />
    <sodipodi:guide
       position="-307.27932,312.75383"
       orientation="1,0"
       id="guide6806"
       inkscape:locked="false" />
    <sodipodi:guide
       position="-304.28597,1328.1532"
       orientation="0,1"
       id="guide6808"
       inkscape:locked="false" />
    <sodipodi:guide
       position="391.14502,989.68683"
       orientation="0,1"
       id="guide6810"
       inkscape:locked="false" />
    <sodipodi:guide
       position="391.14766,651.22028"
       orientation="0,1"
       id="guide6812"
       inkscape:locked="false" />
    <sodipodi:guide
       position="391.14505,312.75383"
       orientation="0,1"
       id="guide6814"
       inkscape:locked="false" />
  </sodipodi:namedview>
  <metadata
     id="metadata5">
    <rdf:RDF>
      <cc:Work
         rdf:about="">
        <dc:format>image/svg+xml</dc:format>
        <dc:type
           rdf:resource="http://purl.org/dc/dcmitype/StillImage" />
        <dc:title />
      </cc:Work>
    </rdf:RDF>
  </metadata>
  <g
     inkscape:label="Livello 1"
     inkscape:groupmode="layer"
     id="layer1"
     transform="translate(0,-26.06663)">
    <text
       xml:space="preserve"
       style="font-style:normal;font-weight:normal;font-size:10.58333302px;line-height:1.25;font-family:sans-serif;letter-spacing:0px;word-spacing:0px;fill:#000000;fill-opacity:1;stroke:none;stroke-width:0.26458332"
       x="94.038704"
       y="16.326693"
       id="text5812"><tspan
         sodipodi:role="line"
         id="tspan5810"
         x="94.038704"
         y="25.982187"
         style="stroke-width:0.26458332" /></text>
    <path
       style="color:#000000;font-style:normal;font-variant:normal;font-weight:normal;font-stretch:normal;font-size:medium;line-height:normal;font-family:sans-serif;font-variant-ligatures:normal;font-variant-position:normal;font-variant-caps:normal;font-variant-numeric:normal;font-variant-alternates:normal;font-feature-settings:normal;text-indent:0;text-align:start;text-decoration:none;text-decoration-line:none;text-decoration-style:solid;text-decoration-color:#000000;letter-spacing:normal;word-spacing:normal;text-transform:none;writing-mode:lr-tb;direction:ltr;text-orientation:mixed;dominant-baseline:auto;baseline-shift:baseline;text-anchor:start;white-space:normal;shape-padding:0;clip-rule:nonzero;display:inline;overflow:visible;visibility:visible;opacity:1;isolation:auto;mix-blend-mode:normal;color-interpolation:sRGB;color-interpolation-filters:linearRGB;solid-color:#000000;solid-opacity:1;vector-effect:none;fill:#333333;fill-opacity:1;fill-rule:nonzero;stroke:none;stroke-width:9.62713242;stroke-linecap:round;stroke-linejoin:round;stroke-miterlimit:4;stroke-dasharray:none;stroke-dashoffset:0;stroke-opacity:1;color-rendering:auto;image-rendering:auto;shape-rendering:auto;text-rendering:auto;enable-background:accumulate"
       d="m 117.05245,49.499776 c -2.2307,0.0824 -4.1119,1.68926 -4.5439,3.87985 l -4.2871,21.6545 -8.642799,0.45165 -16.9168,-21.03438 c -3.1034,-3.87776 -9.333,-1.08648 -8.5048,3.81061 l 3.4596,20.53931 -19.405,28.405014 c -0.4524,0.67069 -0.7283,1.44452 -0.8025,2.24999 l -1.586,16.86615 c -0.7838,1.02598 -8.0139,10.47629 -16.0636,22.55108 -4.2372,6.35563 -8.4797,13.13296 -11.7455,19.30476 -3.2657,6.17181 -5.8038,11.28282 -5.8038,16.60261 0,14.35898 6.1929,24.72188 14.472,30.56148 1.7732,1.2508 6.2748,4.4905 12.0587,3.1776 0.4678,-0.1068 0.8607,-1.2228 1.3224,-1.3788 0,0.04 -0.045,0.1295 -0.045,0.169 0.063,1.1993 0.3565,2.6085 1.2283,3.8612 0.8724,1.2529 2.243,2.0805 3.297,2.4382 2.1081,0.7153 3.2568,0.4609 4.0742,0.495 4.0227,0.1684 8.9882,0.8289 13.9764,-0.4449 2.4941,-0.6368 5.1208,-1.9189 7.0827,-4.2184 1.962,-2.2996 3.0395,-5.4021 3.2215,-8.8625 0.3248,-6.1815 -0.8806,-10.6735 -0.9281,-12.71703 -0.028,-1.02169 0.063,-1.23606 0.2889,-1.61076 0.2307,-0.37468 0.8843,-1.12353 2.7203,-2.15593 3.5133,-1.9763 9.9604,-3.62559 16.847499,-5.2586 6.8871,-1.63301 14.2369,-3.30989 20.4639,-6.5872 6.9604,-3.6634 8.1733,-6.80109 12.0338,-11.2758 l -1.4417,22.45705 c -0.037,0.1334 -0.4391,2.05478 -3.6293,6.34947 -3.2966,4.438 -9.3265,10.6854 -20.1817,17.1984 -25.817399,15.4905 -23.309099,52.02169 -23.309099,52.02169 0.1311,2.56 2.2442,4.5688 4.8074,4.5692 h 52.039699 v -5e-4 h 101.1108 a 4.8140474,4.8140474 0 0 0 4.8322,-4.763 c 0.4706,-42.29949 0.9304,-86.89015 -12.8612,-122.99046 -13.3397,-34.9146 -41.2711,-61.245694 -93.0818,-67.678564 -0.939,-0.11658 -1.8838,-0.22881 -2.8386,-0.33226 -6.9206,-14.02842 -19.2107,-26.95702 -19.2107,-26.95702 -0.9362,-0.9034 -2.197,-1.38938 -3.4969,-1.34771 z m 25.5576,38.0664 c 48.4775,6.179 71.7657,29.485034 84.0772,61.708904 12.3239,32.25601 12.5438,73.89782 12.1346,114.65401 h -96.2118 v -71.6618 l 2.1157,-32.68846 a 4.8140474,4.8140474 0 0 0 -2.1157,-4.29948 V 94.163686 c -0.5484,-0.4804 -0.5977,-0.90675 0,-1.26193 z M 91.558451,118.42165 c 0.11,-0.002 0.2156,-9.6e-4 0.3168,0.004 h 5e-4 c 0.4632,0.0208 0.8332,0.11419 1.0779,0.28215 1.9594,1.34514 -1.384,2.0052 -2.0618,4.13671 -1.2081,3.80061 0.5227,4.91868 -1.6237,7.11377 -2.0671,2.11434 -6.1795,0.1724 -8.323,1.50429 -2.1436,1.33194 -2.4919,3.48594 -3.8613,3.25924 -1.3693,-0.22669 -1.203,-2.40707 -1.203,-2.40707 0,0 0.1423,-4.79973 1.31,-6.28645 3.3945,-4.31898 10.9509,-7.54292 14.3676,-7.60626 z m -46.5615,62.77758 c 0.1115,-0.006 0.2128,0.0106 0.3028,0.0532 v 0 c 2.5454,0.93562 -2.1738,5.8615 -1.2351,7.4838 0.9388,1.62218 2.9372,0.51601 3.6856,1.3472 0.7485,0.8312 0.8081,3.1213 0.4072,4.1305 -0.4879,1.23402 -2.545,2.55839 -3.9109,2.78897 -1.3471,0.2272 -3.1446,-0.66095 -4.0555,-1.60453 -0.9107,-0.94361 -1.8576,-2.84996 -1.185,-6.51175 0.4175,-2.27299 4.3169,-7.59278 5.9898,-7.68739 z"
       id="path5806-3"
       inkscape:connector-curvature="0" />
  </g>
</svg>
