<?xml version="1.0" encoding="UTF-8" standalone="no"?>
<!-- Created with Inkscape (http://www.inkscape.org/) -->

<svg
   xmlns:dc="http://purl.org/dc/elements/1.1/"
   xmlns:cc="http://creativecommons.org/ns#"
   xmlns:rdf="http://www.w3.org/1999/02/22-rdf-syntax-ns#"
   xmlns:svg="http://www.w3.org/2000/svg"
   xmlns="http://www.w3.org/2000/svg"
   xmlns:sodipodi="http://sodipodi.sourceforge.net/DTD/sodipodi-0.dtd"
   xmlns:inkscape="http://www.inkscape.org/namespaces/inkscape"
   width="1024"
   height="1024"
   viewBox="0 0 270.93332 270.93334"
   version="1.1"
   id="svg8"
   inkscape:version="0.92.4 (5da689c313, 2019-01-14)"
   sodipodi:docname="0037.NE.svg">
  <defs
     id="defs2" />
  <sodipodi:namedview
     id="base"
     pagecolor="#ffffff"
     bordercolor="#666666"
     borderopacity="1.0"
     inkscape:pageopacity="0.0"
     inkscape:pageshadow="2"
     inkscape:zoom="0.088388348"
     inkscape:cx="3885.9686"
     inkscape:cy="3178.2025"
     inkscape:document-units="mm"
     inkscape:current-layer="layer1"
     showgrid="false"
     inkscape:window-width="1920"
     inkscape:window-height="1027"
     inkscape:window-x="-8"
     inkscape:window-y="-8"
     inkscape:window-maximized="1"
     units="px"
     showguides="true"
     inkscape:guide-bbox="true">
    <sodipodi:guide
       position="-118.77941,312.75383"
       orientation="0,1"
       id="guide6804"
       inkscape:locked="false" />
    <sodipodi:guide
       position="-307.27932,312.75383"
       orientation="1,0"
       id="guide6806"
       inkscape:locked="false" />
    <sodipodi:guide
       position="-304.28597,1328.1532"
       orientation="0,1"
       id="guide6808"
       inkscape:locked="false" />
    <sodipodi:guide
       position="391.14502,989.68683"
       orientation="0,1"
       id="guide6810"
       inkscape:locked="false" />
    <sodipodi:guide
       position="391.14766,651.22028"
       orientation="0,1"
       id="guide6812"
       inkscape:locked="false" />
    <sodipodi:guide
       position="391.14505,312.75383"
       orientation="0,1"
       id="guide6814"
       inkscape:locked="false" />
  </sodipodi:namedview>
  <metadata
     id="metadata5">
    <rdf:RDF>
      <cc:Work
         rdf:about="">
        <dc:format>image/svg+xml</dc:format>
        <dc:type
           rdf:resource="http://purl.org/dc/dcmitype/StillImage" />
        <dc:title />
      </cc:Work>
    </rdf:RDF>
  </metadata>
  <g
     inkscape:label="Livello 1"
     inkscape:groupmode="layer"
     id="layer1"
     transform="translate(0,-26.06663)">
    <text
       xml:space="preserve"
       style="font-style:normal;font-weight:normal;font-size:10.58333302px;line-height:1.25;font-family:sans-serif;letter-spacing:0px;word-spacing:0px;fill:#000000;fill-opacity:1;stroke:none;stroke-width:0.26458332"
       x="94.038704"
       y="16.326693"
       id="text5812"><tspan
         sodipodi:role="line"
         id="tspan5810"
         x="94.038704"
         y="25.982187"
         style="stroke-width:0.26458332" /></text>
    <path
       style="color:#000000;font-style:normal;font-variant:normal;font-weight:normal;font-stretch:normal;font-size:medium;line-height:normal;font-family:sans-serif;font-variant-ligatures:normal;font-variant-position:normal;font-variant-caps:normal;font-variant-numeric:normal;font-variant-alternates:normal;font-feature-settings:normal;text-indent:0;text-align:start;text-decoration:none;text-decoration-line:none;text-decoration-style:solid;text-decoration-color:#000000;letter-spacing:normal;word-spacing:normal;text-transform:none;writing-mode:lr-tb;direction:ltr;text-orientation:mixed;dominant-baseline:auto;baseline-shift:baseline;text-anchor:start;white-space:normal;shape-padding:0;clip-rule:nonzero;display:inline;overflow:visible;visibility:visible;opacity:1;isolation:auto;mix-blend-mode:normal;color-interpolation:sRGB;color-interpolation-filters:linearRGB;solid-color:#000000;solid-opacity:1;vector-effect:none;fill:#333333;fill-opacity:1;fill-rule:nonzero;stroke:none;stroke-width:10.01873779;stroke-linecap:round;stroke-linejoin:miter;stroke-miterlimit:4;stroke-dasharray:none;stroke-dashoffset:0;stroke-opacity:1;paint-order:normal;color-rendering:auto;image-rendering:auto;shape-rendering:auto;text-rendering:auto;enable-background:accumulate"
       d="m 130.33902,47.244396 v 0.0145 h -0.013 v 8.53953 c 0.083,1e-5 0.1655,2e-4 0.2475,0.01 0.01,0 0.015,1e-4 0.023,0 0,1e-4 0,0 0.01,0 2.8675,0.1441 5.0652,2.4353 5.0653,5.34541 -1e-4,2.88539 -2.1612,5.16144 -4.993,5.34024 -0.1166,0.01 -0.2341,0.0122 -0.3529,0.0124 v 5.85494 c -6.6194,-10.0911 -14.9056,-19.26034 -14.9056,-19.26034 -0.9362,-0.9034 -2.197,-1.38942 -3.4969,-1.34772 l -0.011,-5.3e-4 c -2.2307,0.082 -4.1119,1.68927 -4.544,3.87987 l -4.287,21.65449 -8.642903,0.45167 -16.9168,-21.03439 c -3.1034,-3.8777 -9.3331,-1.08647 -8.5049,3.81063 l 3.4597,20.53931 -19.405,28.405004 c -0.4524,0.67056 -0.7283,1.44458 -0.8025,2.24999 l -1.586,16.86616 c -0.7838,1.02595 -8.0139,10.47626 -16.0636,22.55107 -4.2372,6.35558 -8.4797,13.13297 -11.7455,19.30477 -3.2657,6.1718 -5.8038,11.28289 -5.8038,16.6026 0,14.35898 6.1929,24.72178 14.472,30.56138 1.7732,1.2508 6.2748,4.4905 12.0587,3.1776 0.4678,-0.1068 0.8607,-1.2227 1.3224,-1.3787 0,0.04 -0.045,0.1295 -0.045,0.169 0.063,1.1993 0.3566,2.6085 1.2284,3.8612 0.8724,1.2529 2.2429,2.0804 3.2969,2.4381 2.1081,0.7153 3.2568,0.461 4.0742,0.4951 4.0227,0.1684 8.9883,0.8289 13.9764,-0.4449 2.4942,-0.6368 5.1209,-1.9189 7.0828,-4.2184 1.962,-2.2996 3.0395,-5.4021 3.2215,-8.8625 0.3248,-6.1815 -0.8806,-10.6735 -0.9281,-12.71705 -0.028,-1.02168 0.063,-1.23605 0.2888,-1.61075 0.2307,-0.3746 0.8843,-1.12353 2.7203,-2.15593 3.5133,-1.97631 9.9605,-3.62559 16.8475,-5.2586 6.887103,-1.633 14.236903,-3.3099 20.463903,-6.58719 6.9604,-3.66339 8.1734,-6.80108 12.0339,-11.2758 l -1.4418,22.45703 c -0.037,0.1334 -0.439,2.05478 -3.6292,6.34947 -3.2966,4.43802 -9.3265,10.68542 -20.1817,17.19842 -25.817403,15.4905 -23.309203,52.0217 -23.309203,52.0217 0.1311,2.56 2.2443,4.5688 4.8075,4.5692 h 59.991303 c 15.0954,0 45.9788,-1.5802 57.6397,-16.7969 0.3518,-0.5215 0.673,-1.0576 0.9653,-1.6045 0.8952,-1.6753 1.3642,-3.4912 1.6413,-4.483 0.2941,-1.0529 0.2682,-2.6961 0.2697,-9.9214 v -35.497 c 0.024,-0.3529 -0.01,-0.8472 -0.01,-1.247 v -0.2196 c 0.061,-1.0942 -0.2097,-2.4556 -0.2946,-3.2468 -0.3104,-1.28363 -0.7313,-2.534 -1.3601,-3.71039 -0.2923,-0.54681 -0.6141,-1.08297 -0.9659,-1.60456 -0.3565,-0.52959 -0.7543,-1.04331 -1.1715,-1.54152 l 36.5596,-90.83732 c 0.4282,0.04 0.8408,0.13126 1.279,0.13126 7.6201,-2.1e-4 13.8887,-6.268804 13.8891,-13.889094 0,-7.6236 -6.2656,-13.89489 -13.8891,-13.89528 -7.6236,2.1e-4 -13.8941,6.27168 -13.8896,13.89528 2e-4,3.37352 1.2788,6.43922 3.3093,8.856324 l -44.3699,48.13556 4.005,-65.866804 c 6.625,-1.0368 11.7762,-6.77894 11.7765,-13.67615 0,-7.62022 -6.2689,-13.88869 -13.8891,-13.88909 -7.6201,0 -13.8886,6.26887 -13.889,13.88909 0,4.4722 2.1977,8.43404 5.5221,10.98124 l -29.1512,59.580334 -14.1273,-64.820334 0.109,-0.50125 c 5.1484,-2.03981 8.843,-7.05985 8.8434,-12.89897 0,-7.50439 -6.0816,-13.69339 -13.5444,-13.88029 v -0.01 c -0.1133,0 -0.2257,-0.01 -0.3395,-0.01 z m 56.5646,16.21245 c 3.0066,1.9e-4 5.3525,2.34614 5.3526,5.35263 -1e-4,3.00651 -2.346,5.35255 -5.3526,5.35265 -3.0063,-1e-4 -5.3527,-2.34614 -5.3527,-5.35265 0,-3.00649 2.3464,-5.35244 5.3527,-5.35263 z m 53.0556,22.54176 c 3.008,2.2e-4 5.3545,2.35085 5.3527,5.35885 -10e-5,3.00651 -2.3462,5.35254 -5.3527,5.35265 -3.0065,-1.1e-4 -5.3525,-2.34614 -5.3526,-5.35265 0,-3.008 2.3447,-5.35863 5.3526,-5.35885 z m -61.7931,16.440344 -4.4059,72.32221 47.07,-51.07493 -26.5121,65.88541 c -3.5337,-2.19653 -7.6646,-4.10967 -12.3848,-5.77849 -15.6341,-5.10106 -34.7424,-7.29459 -49.6326,-7.56645 l -0.6077,-72.7997 14.1634,65.01 z m -91.748903,18.23199 v 0 0.004 h 0.3168 c 0.4632,0.0209 0.8332,0.11417 1.0779,0.28215 1.9594,1.34512 -1.3841,2.0052 -2.0619,4.13671 -1.2081,3.80061 0.5228,4.91868 -1.6236,7.11377 -2.0671,2.1143 -6.1796,0.1724 -8.323,1.50432 -2.1436,1.33188 -2.4919,3.4859 -3.8613,3.25921 -1.3693,-0.22669 -1.2031,-2.40707 -1.2031,-2.40707 0,0 0.1423,-4.79975 1.31,-6.28646 3.3945,-4.31899 10.9509,-7.54286 14.3676,-7.60624 z m -46.5631,62.78012 v 0 c 0.1115,-0.0101 0.2128,0.0106 0.3028,0.0527 2.5454,0.93559 -2.1737,5.86161 -1.235,7.48378 0.9388,1.62222 2.9372,0.51602 3.6856,1.34721 0.7484,0.83111 0.808,3.12129 0.4072,4.13049 -0.4879,1.2341 -2.545,2.55836 -3.9109,2.78897 -1.3471,0.2272 -3.1447,-0.66093 -4.0556,-1.60454 -0.9107,-0.94358 -1.8575,-2.84996 -1.1849,-6.51176 0.4175,-2.2729 4.3169,-7.59269 5.9898,-7.68738 z m 92.526703,2.36214 c 18.249,0.20458 34.7009,2.93939 46.3429,7.05537 6.0535,2.14019 10.7872,4.67397 13.7134,7.11999 2.8754,2.40342 3.7857,4.36672 3.8173,5.97322 0,0.019 0,0.043 -0.01,0.063 0.049,0.9147 0.024,1.8306 0.049,2.7456 l -8.2166,4.5062 c -2.5014,1.3713 -1.8074,2.8697 0,5.0767 l 8.2166,10.0283 v 6.9071 c -3.9212,-2.7682 -8.7199,-5.1138 -14.3593,-7.1076 -12.9957,-4.5945 -30.2078,-7.3817 -49.2632,-7.6052 l -0.05,-5.9537 c 0.8017,-0.1686 1.5506,-0.4225 2.1854,-0.771 l 14.2084,-7.7907 c 2.5014,-1.3713 2.5014,-3.7059 0,-5.07721 l -14.2084,-7.79074 c -0.684,-0.37499 -1.4984,-0.64227 -2.3709,-0.80872 z m 0.3705,44.38588 c 18.101,0.2372 34.4092,2.9626 45.9724,7.0507 6.0535,2.1403 10.7872,4.6741 13.7134,7.12 2.8048,2.3444 3.725,4.2638 3.5987,6.1212 -0.1264,1.8574 -0.8251,3.2823 -2.4071,4.8854 -4.0334,3.2848 -8.1971,5.6061 -12.3605,7.258 -15.8092,5.7142 -32.3728,4.5725 -48.1789,4.8467 z"
       id="rect4531-09-6-3-8"
       inkscape:connector-curvature="0"
       sodipodi:nodetypes="cccccccccccccccccccccccccscccccccccccccscccccccccccccsccsccccccccccccccccccccccccsccccccccccccccccccccccccccccccccccccccccccccccccccccccccccccccccccc" />
  </g>
</svg>
