<?xml version="1.0" encoding="UTF-8" standalone="no"?>
<!-- Created with Inkscape (http://www.inkscape.org/) -->

<svg
   xmlns:dc="http://purl.org/dc/elements/1.1/"
   xmlns:cc="http://creativecommons.org/ns#"
   xmlns:rdf="http://www.w3.org/1999/02/22-rdf-syntax-ns#"
   xmlns:svg="http://www.w3.org/2000/svg"
   xmlns="http://www.w3.org/2000/svg"
   xmlns:sodipodi="http://sodipodi.sourceforge.net/DTD/sodipodi-0.dtd"
   xmlns:inkscape="http://www.inkscape.org/namespaces/inkscape"
   width="1024"
   height="1024"
   viewBox="0 0 270.93332 270.93334"
   version="1.1"
   id="svg8"
   inkscape:version="0.92.4 (5da689c313, 2019-01-14)"
   sodipodi:docname="0038.NT.svg">
  <defs
     id="defs2" />
  <sodipodi:namedview
     id="base"
     pagecolor="#ffffff"
     bordercolor="#666666"
     borderopacity="1.0"
     inkscape:pageopacity="0.0"
     inkscape:pageshadow="2"
     inkscape:zoom="0.088388348"
     inkscape:cx="4118.806"
     inkscape:cy="3370.5355"
     inkscape:document-units="mm"
     inkscape:current-layer="layer1"
     showgrid="false"
     inkscape:window-width="1920"
     inkscape:window-height="1027"
     inkscape:window-x="-8"
     inkscape:window-y="-8"
     inkscape:window-maximized="1"
     units="px"
     showguides="true"
     inkscape:guide-bbox="true">
    <sodipodi:guide
       position="-118.77941,312.75383"
       orientation="0,1"
       id="guide6804"
       inkscape:locked="false" />
    <sodipodi:guide
       position="-307.27932,312.75383"
       orientation="1,0"
       id="guide6806"
       inkscape:locked="false" />
    <sodipodi:guide
       position="-304.28597,1328.1532"
       orientation="0,1"
       id="guide6808"
       inkscape:locked="false" />
    <sodipodi:guide
       position="391.14502,989.68683"
       orientation="0,1"
       id="guide6810"
       inkscape:locked="false" />
    <sodipodi:guide
       position="391.14766,651.22028"
       orientation="0,1"
       id="guide6812"
       inkscape:locked="false" />
    <sodipodi:guide
       position="391.14505,312.75383"
       orientation="0,1"
       id="guide6814"
       inkscape:locked="false" />
  </sodipodi:namedview>
  <metadata
     id="metadata5">
    <rdf:RDF>
      <cc:Work
         rdf:about="">
        <dc:format>image/svg+xml</dc:format>
        <dc:type
           rdf:resource="http://purl.org/dc/dcmitype/StillImage" />
        <dc:title />
      </cc:Work>
    </rdf:RDF>
  </metadata>
  <g
     inkscape:label="Livello 1"
     inkscape:groupmode="layer"
     id="layer1"
     transform="translate(0,-26.06663)">
    <text
       xml:space="preserve"
       style="font-style:normal;font-weight:normal;font-size:10.58333302px;line-height:1.25;font-family:sans-serif;letter-spacing:0px;word-spacing:0px;fill:#000000;fill-opacity:1;stroke:none;stroke-width:0.26458332"
       x="94.038704"
       y="16.326693"
       id="text5812"><tspan
         sodipodi:role="line"
         id="tspan5810"
         x="94.038704"
         y="25.982187"
         style="stroke-width:0.26458332" /></text>
    <path
       style="color:#000000;font-style:normal;font-variant:normal;font-weight:normal;font-stretch:normal;font-size:medium;line-height:normal;font-family:sans-serif;font-variant-ligatures:normal;font-variant-position:normal;font-variant-caps:normal;font-variant-numeric:normal;font-variant-alternates:normal;font-feature-settings:normal;text-indent:0;text-align:start;text-decoration:none;text-decoration-line:none;text-decoration-style:solid;text-decoration-color:#000000;letter-spacing:normal;word-spacing:normal;text-transform:none;writing-mode:lr-tb;direction:ltr;text-orientation:mixed;dominant-baseline:auto;baseline-shift:baseline;text-anchor:start;white-space:normal;shape-padding:0;clip-rule:nonzero;display:inline;overflow:visible;visibility:visible;opacity:1;isolation:auto;mix-blend-mode:normal;color-interpolation:sRGB;color-interpolation-filters:linearRGB;solid-color:#000000;solid-opacity:1;vector-effect:none;fill:#333333;fill-opacity:1;fill-rule:nonzero;stroke:none;stroke-width:9.62713242;stroke-linecap:round;stroke-linejoin:round;stroke-miterlimit:4;stroke-dasharray:none;stroke-dashoffset:0;stroke-opacity:1;color-rendering:auto;image-rendering:auto;shape-rendering:auto;text-rendering:auto;enable-background:accumulate"
       d="m 144.44222,48.928796 v 9.64591 9.17414 c -6.5273,-9.5899 -14.3769,-16.90129 -14.3769,-16.90129 -0.9362,-0.90342 -2.197,-1.38944 -3.4969,-1.34774 l -0.011,-5e-4 c -2.2307,0.082 -4.1119,1.68926 -4.5439,3.87985 l -4.2871,21.65451 -8.6429,0.45164 -16.916803,-21.03438 c -3.1034,-3.8777 -9.3331,-1.08648 -8.5049,3.81061 l 3.4598,20.53932 -19.4051,28.405004 c -0.4524,0.67069 -0.7283,1.44457 -0.8025,2.24999 l -1.586,16.86616 c -0.7838,1.026 -8.0139,10.47678 -16.0636,22.55157 -4.2372,6.35561 -8.4797,13.13246 -11.7455,19.30427 -3.2657,6.1718 -5.8038,11.28281 -5.8038,16.6026 0,14.35892 6.1929,24.72186 14.472,30.56145 1.7732,1.25079 6.2748,4.49048 12.0587,3.17759 0.4678,-0.10681 0.8607,-1.22274 1.3224,-1.37874 0,0.04 -0.045,0.12948 -0.045,0.16899 0.063,1.1993 0.3566,2.60855 1.2284,3.86125 0.8724,1.2529 2.243,2.08041 3.2969,2.43811 2.108,0.7153 3.2568,0.46095 4.0742,0.49506 4.0228,0.1684 8.9883,0.82886 13.9764,-0.44495 2.4942,-0.6368 5.1209,-1.91884 7.0828,-4.21833 1.962,-2.2996 3.0395,-5.40211 3.2215,-8.86251 0.3248,-6.18152 -0.8806,-10.67356 -0.9281,-12.71707 -0.028,-1.02169 0.063,-1.23605 0.2889,-1.61076 0.2307,-0.37467 0.8842,-1.12352 2.7202,-2.15593 3.5133,-1.9763 9.960503,-3.62558 16.847603,-5.2586 6.8871,-1.63301 14.2368,-3.30989 20.4638,-6.5872 6.9604,-3.66339 8.1734,-6.80109 12.0339,-11.2758 l -1.4418,22.45705 c -0.037,0.1334 -0.439,2.05481 -3.6292,6.34947 -3.2966,4.43801 -9.3265,10.68544 -20.1817,17.19845 -25.817403,15.4905 -23.309203,52.02163 -23.309203,52.02163 0.1311,2.56 2.2443,4.56882 4.807503,4.56922 h 44.3673 v 0.56896 h 21.1429 73.6327 v -37.44939 l -19.2856,-19.28513 v -13.45086 l -22.67,-25.37057 0.5261,-58.13287 25.5597,-17.03565 V 48.953616 h -37.4303 v 22.67042 h -23.2844 v -22.69524 h -4.9831 -2.5802 z m 51.0961,9.64591 h 18.1638 v 37.71244 h -50.5551 -17.1173 v -15.04249 h 9.0403 40.4683 z m -49.5086,47.326844 h 17.1173 39.0788 l -13.9956,9.33276 h -3.0773 -39.1232 z m -44.9673,12.51604 h 5e-4 v 0.004 h 0.3168 c 0.4632,0.0209 0.8333,0.11417 1.078,0.28215 1.9594,1.34511 -1.3841,2.0052 -2.0619,4.13671 -1.208103,3.8006 0.5227,4.91868 -1.623703,7.11377 -2.0671,2.11431 -6.1795,0.1724 -8.323,1.50431 -2.1436,1.33189 -2.4919,3.48594 -3.8613,3.25922 -1.3693,-0.22669 -1.203,-2.40707 -1.203,-2.40707 0,0 0.1423,-4.79976 1.31,-6.28645 3.3945,-4.319 10.9509,-7.54285 14.367603,-7.60624 z m 44.9673,6.43784 h 39.1232 2.9518 l -0.4512,50.71785 h -2.5947 -39.0291 z m -91.529303,56.34334 v 0 c 0.1115,-0.0101 0.2129,0.0111 0.3029,0.0532 2.5454,0.9357 -2.1738,5.86155 -1.2351,7.48379 0.9388,1.6222 2.9372,0.51602 3.6856,1.34721 0.7485,0.83119 0.8081,3.12129 0.4072,4.13049 -0.4879,1.23402 -2.545,2.55839 -3.9109,2.78898 -1.3471,0.22719 -3.1447,-0.66106 -4.0556,-1.60454 -0.9107,-0.94372 -1.8575,-2.84996 -1.1849,-6.51175 0.4175,-2.27296 4.3169,-7.5928 5.9898,-7.68739 z m 91.529303,4.0142 h 39.0291 5.2271 l 16.9416,18.97149 h -42.9209 -18.2769 z m 0,28.59261 h 18.2769 45.9859 v 7.57729 l 18.126,18.10123 h -64.7263 -17.6625 z m 0,35.29292 h 17.6625 65.9107 v 15.39957 h -64.0178 -19.5554 z"
       id="path5806-3-7"
       inkscape:connector-curvature="0" />
  </g>
</svg>
