<?xml version="1.0" encoding="UTF-8" standalone="no"?>
<!-- Created with Inkscape (http://www.inkscape.org/) -->

<svg
   xmlns:dc="http://purl.org/dc/elements/1.1/"
   xmlns:cc="http://creativecommons.org/ns#"
   xmlns:rdf="http://www.w3.org/1999/02/22-rdf-syntax-ns#"
   xmlns:svg="http://www.w3.org/2000/svg"
   xmlns="http://www.w3.org/2000/svg"
   xmlns:sodipodi="http://sodipodi.sourceforge.net/DTD/sodipodi-0.dtd"
   xmlns:inkscape="http://www.inkscape.org/namespaces/inkscape"
   width="1024"
   height="1024"
   viewBox="0 0 270.93332 270.93334"
   version="1.1"
   id="svg8"
   inkscape:version="0.92.4 (5da689c313, 2019-01-14)"
   sodipodi:docname="0001._Q.svg">
  <defs
     id="defs2" />
  <sodipodi:namedview
     id="base"
     pagecolor="#ffffff"
     bordercolor="#666666"
     borderopacity="1.0"
     inkscape:pageopacity="0.0"
     inkscape:pageshadow="2"
     inkscape:zoom="0.088388348"
     inkscape:cx="824.80161"
     inkscape:cy="2103.4002"
     inkscape:document-units="mm"
     inkscape:current-layer="layer1"
     showgrid="false"
     inkscape:window-width="1920"
     inkscape:window-height="1027"
     inkscape:window-x="-8"
     inkscape:window-y="-8"
     inkscape:window-maximized="1"
     units="px"
     showguides="true"
     inkscape:guide-bbox="true">
    <sodipodi:guide
       position="-118.77941,312.75383"
       orientation="0,1"
       id="guide6804"
       inkscape:locked="false" />
    <sodipodi:guide
       position="-307.27932,312.75383"
       orientation="1,0"
       id="guide6806"
       inkscape:locked="false" />
    <sodipodi:guide
       position="-304.28597,1328.1532"
       orientation="0,1"
       id="guide6808"
       inkscape:locked="false" />
    <sodipodi:guide
       position="391.14502,989.68683"
       orientation="0,1"
       id="guide6810"
       inkscape:locked="false" />
    <sodipodi:guide
       position="391.14766,651.22028"
       orientation="0,1"
       id="guide6812"
       inkscape:locked="false" />
    <sodipodi:guide
       position="391.14505,312.75383"
       orientation="0,1"
       id="guide6814"
       inkscape:locked="false" />
  </sodipodi:namedview>
  <metadata
     id="metadata5">
    <rdf:RDF>
      <cc:Work
         rdf:about="">
        <dc:format>image/svg+xml</dc:format>
        <dc:type
           rdf:resource="http://purl.org/dc/dcmitype/StillImage" />
        <dc:title />
      </cc:Work>
    </rdf:RDF>
  </metadata>
  <g
     inkscape:label="Livello 1"
     inkscape:groupmode="layer"
     id="layer1"
     transform="translate(0,-26.06663)">
    <path
       style="color:#000000;font-style:normal;font-variant:normal;font-weight:normal;font-stretch:normal;font-size:medium;line-height:normal;font-family:sans-serif;font-variant-ligatures:normal;font-variant-position:normal;font-variant-caps:normal;font-variant-numeric:normal;font-variant-alternates:normal;font-feature-settings:normal;text-indent:0;text-align:start;text-decoration:none;text-decoration-line:none;text-decoration-style:solid;text-decoration-color:#000000;letter-spacing:normal;word-spacing:normal;text-transform:none;writing-mode:lr-tb;direction:ltr;text-orientation:mixed;dominant-baseline:auto;baseline-shift:baseline;text-anchor:start;white-space:normal;shape-padding:0;clip-rule:nonzero;display:inline;overflow:visible;visibility:visible;opacity:1;isolation:auto;mix-blend-mode:normal;color-interpolation:sRGB;color-interpolation-filters:linearRGB;solid-color:#000000;solid-opacity:1;vector-effect:none;fill:#333333;fill-opacity:1;fill-rule:nonzero;stroke:none;stroke-width:10.01873779;stroke-linecap:round;stroke-linejoin:miter;stroke-miterlimit:4;stroke-dasharray:none;stroke-dashoffset:0;stroke-opacity:1;paint-order:normal;color-rendering:auto;image-rendering:auto;shape-rendering:auto;text-rendering:auto;enable-background:accumulate"
       d="m 135.4563,45.009247 c -7.62008,4e-4 -13.88864,6.269 -13.88902,13.8892 2.4e-4,5.846 3.70373,10.8701 8.86242,12.9051 l 0.10915,0.4889 -14.15234,64.826403 -29.144723,-59.574103 c 3.32616,-2.5471 5.5217,-6.5136 5.52182,-10.9872 -2.5e-4,-7.6202 -6.26895,-13.8888 -13.88916,-13.8892 -7.62019,4e-4 -13.88877,6.269 -13.88914,13.8892 2.7e-4,6.8951 5.14862,12.6366 11.77075,13.676 l 4.00501,65.866903 -44.36256,-48.129503 c 2.03241,-2.4176 3.30919,-5.4872 3.30932,-8.8624 0.005,-7.6236 -6.26544,-13.895 -13.88915,-13.8954 -7.6236,4e-4 -13.89364,6.2718 -13.88914,13.8954 4.8e-4,7.6201 6.26894,13.888703 13.88914,13.889103 0.43539,0 0.84654,-0.091 1.27242,-0.1316 l 36.62822,91.0191 c -0.62463,0.7829 -1.20437,1.59 -1.69232,2.4381 -0.95088,1.654 -1.6182,3.4309 -1.91789,5.3024 v 0 c -0.0851,0.5424 -0.12734,1.0962 -0.15042,1.6547 v 0.012 l -0.097,0.3634 0.006,0.1255 c 0,0.015 -0.0117,0.022 -0.0117,0.038 v 0.3071 l 0.0117,0.1005 v 0 c -0.006,0.1128 -0.0117,-0.093 -0.0117,0.1067 v 42.4071 c -0.002,1.3475 -0.0219,3.3362 0.31582,4.764 0.33775,1.4277 0.85569,2.8528 1.61954,4.1806 0.63432,1.1038 1.39335,2.1535 2.2563,3.1464 0.43178,0.4974 0.8927,0.974 1.3726,1.4415 0.47785,0.4654 0.97879,0.9196 1.498,1.3538 4.25039,3.5528 9.89919,6.4157 16.67826,8.8124 8.4737,2.9958 18.740383,5.2246 30.141213,6.4745 7.67328,0.7784 14.51158,1.1421 21.60468,1.147 2.4375,0 4.8437,-0.043 7.22032,-0.1255 0.0243,-8e-4 0.0489,0 0.0725,0 7.01132,-0.2704 13.68863,-0.8291 20.43255,-1.805 4.19813,-0.6431 8.31694,-1.3912 12.31594,-2.319 6.51056,-1.5393 12.82206,-3.4845 18.80286,-6.3054 0.46818,-0.2212 0.95212,-0.436 1.4039,-0.6643 4.80123,-2.4799 9.55434,-5.5965 12.60439,-10.0659 0.35178,-0.5215 0.67314,-1.0576 0.96544,-1.6045 0.89505,-1.6753 1.3641,-3.4915 1.64117,-4.4832 0.29416,-1.053 0.26841,-2.6962 0.26994,-9.9214 0.002,-7.2252 0.002,-35.4968 0.002,-35.4968 0.0243,-0.3528 -0.005,-0.8474 -0.005,-1.2472 v -0.2194 c 0.0606,-1.0943 -0.20986,-2.4555 -0.29476,-3.2466 -0.31051,-1.2837 -0.73134,-2.5341 -1.36011,-3.7105 -0.29232,-0.5469 -0.61369,-1.083 -0.96544,-1.6045 -0.35658,-0.5296 -0.75442,-1.0437 -1.17163,-1.5419 l 36.55956,-90.8373 c 0.42817,0.04 0.84049,0.1316 1.27862,0.1316 7.62019,-2e-4 13.88878,-6.268903 13.88915,-13.889003 0.005,-7.6237 -6.26555,-13.8951 -13.88915,-13.8955 -7.6236,3e-4 -13.89364,6.2718 -13.88916,13.8955 2.4e-4,3.3734 1.27885,6.439 3.30932,8.8561 l -44.36887,48.135703 4.00502,-65.866903 c 6.62504,-1.0367 11.77656,-6.7787 11.77693,-13.676 -2.7e-4,-7.6202 -6.26894,-13.8888 -13.88915,-13.8891 -7.62007,4e-4 -13.88878,6.2689 -13.88914,13.8891 2.4e-4,4.4722 2.19748,8.4337 5.52182,10.9809 l -29.15089,59.580403 -14.12724,-64.820103 0.10915,-0.5014 c 5.14841,-2.0398 8.84256,-7.0598 8.84292,-12.8989 -3.6e-4,-7.6202 -6.26895,-13.8888 -13.88914,-13.8891 z"
       id="rect4531-09-6-95"
       inkscape:connector-curvature="0"
       sodipodi:nodetypes="cccccccccccccccccccccccccscccscccccccccccccccccsccsccccccccccccccccccccccc" />
    <text
       xml:space="preserve"
       style="font-style:normal;font-weight:normal;font-size:10.58333302px;line-height:1.25;font-family:sans-serif;letter-spacing:0px;word-spacing:0px;fill:#000000;fill-opacity:1;stroke:none;stroke-width:0.26458332"
       x="94.038704"
       y="16.326693"
       id="text5812"><tspan
         sodipodi:role="line"
         id="tspan5810"
         x="94.038704"
         y="25.982187"
         style="stroke-width:0.26458332" /></text>
  </g>
</svg>
