<?xml version="1.0" encoding="UTF-8" standalone="no"?>
<!-- Created with Inkscape (http://www.inkscape.org/) -->

<svg
   xmlns:dc="http://purl.org/dc/elements/1.1/"
   xmlns:cc="http://creativecommons.org/ns#"
   xmlns:rdf="http://www.w3.org/1999/02/22-rdf-syntax-ns#"
   xmlns:svg="http://www.w3.org/2000/svg"
   xmlns="http://www.w3.org/2000/svg"
   xmlns:sodipodi="http://sodipodi.sourceforge.net/DTD/sodipodi-0.dtd"
   xmlns:inkscape="http://www.inkscape.org/namespaces/inkscape"
   width="1024"
   height="1024"
   viewBox="0 0 270.93332 270.93334"
   version="1.1"
   id="svg8"
   inkscape:version="0.92.4 (5da689c313, 2019-01-14)"
   sodipodi:docname="0002._K.svg">
  <defs
     id="defs2" />
  <sodipodi:namedview
     id="base"
     pagecolor="#ffffff"
     bordercolor="#666666"
     borderopacity="1.0"
     inkscape:pageopacity="0.0"
     inkscape:pageshadow="2"
     inkscape:zoom="0.0625"
     inkscape:cx="1487.2732"
     inkscape:cy="2592.2178"
     inkscape:document-units="mm"
     inkscape:current-layer="layer1"
     showgrid="false"
     inkscape:window-width="1920"
     inkscape:window-height="1027"
     inkscape:window-x="-8"
     inkscape:window-y="-8"
     inkscape:window-maximized="1"
     units="px"
     showguides="true"
     inkscape:guide-bbox="true">
    <sodipodi:guide
       position="-118.77941,312.75383"
       orientation="0,1"
       id="guide6804"
       inkscape:locked="false" />
    <sodipodi:guide
       position="-307.27932,312.75383"
       orientation="1,0"
       id="guide6806"
       inkscape:locked="false" />
    <sodipodi:guide
       position="-304.28597,1328.1532"
       orientation="0,1"
       id="guide6808"
       inkscape:locked="false" />
    <sodipodi:guide
       position="391.14502,989.68683"
       orientation="0,1"
       id="guide6810"
       inkscape:locked="false" />
    <sodipodi:guide
       position="391.14766,651.22028"
       orientation="0,1"
       id="guide6812"
       inkscape:locked="false" />
    <sodipodi:guide
       position="391.14505,312.75383"
       orientation="0,1"
       id="guide6814"
       inkscape:locked="false" />
  </sodipodi:namedview>
  <metadata
     id="metadata5">
    <rdf:RDF>
      <cc:Work
         rdf:about="">
        <dc:format>image/svg+xml</dc:format>
        <dc:type
           rdf:resource="http://purl.org/dc/dcmitype/StillImage" />
        <dc:title />
      </cc:Work>
    </rdf:RDF>
  </metadata>
  <g
     inkscape:label="Livello 1"
     inkscape:groupmode="layer"
     id="layer1"
     transform="translate(0,-26.06663)">
    <path
       style="color:#000000;font-style:normal;font-variant:normal;font-weight:normal;font-stretch:normal;font-size:medium;line-height:normal;font-family:sans-serif;font-variant-ligatures:normal;font-variant-position:normal;font-variant-caps:normal;font-variant-numeric:normal;font-variant-alternates:normal;font-feature-settings:normal;text-indent:0;text-align:start;text-decoration:none;text-decoration-line:none;text-decoration-style:solid;text-decoration-color:#000000;letter-spacing:normal;word-spacing:normal;text-transform:none;writing-mode:lr-tb;direction:ltr;text-orientation:mixed;dominant-baseline:auto;baseline-shift:baseline;text-anchor:start;white-space:normal;shape-padding:0;clip-rule:nonzero;display:inline;overflow:visible;visibility:visible;opacity:1;isolation:auto;mix-blend-mode:normal;color-interpolation:sRGB;color-interpolation-filters:linearRGB;solid-color:#000000;solid-opacity:1;vector-effect:none;fill:#333333;fill-opacity:1;fill-rule:nonzero;stroke:none;stroke-width:10.01873779;stroke-linecap:round;stroke-linejoin:miter;stroke-miterlimit:4;stroke-dasharray:none;stroke-dashoffset:0;stroke-opacity:1;paint-order:normal;color-rendering:auto;image-rendering:auto;shape-rendering:auto;text-rendering:auto;enable-background:accumulate"
       d="m 107.51742,45.975847 v 54.603803 h 12.10286 c -0.35965,0.2486 -0.72021,0.4935 -1.078,0.7521 -0.31088,0.2275 -0.61903,0.4621 -0.92761,0.702 -4.27826,3.278 -8.37355,7.6331 -12.23447,13.0681 -1.16448,-1.0031 -2.36855,-2.0045 -3.61645,-3.0085 -9.717654,-7.8182 -22.422743,-11.93 -34.917103,-12.059 -12.49447,-0.129003 -24.99804,3.7731 -33.73262,12.7234 -10.83928,11.1069 -12.37076,25.4978 -10.21003,37.4994 2.16072,12.0016 7.4624,21.8605 12.10283,26.9823 6.48701,7.1598 18.91052,17.4055 25.13969,22.4195 -0.2401,1.0247 -0.40145,2.072 -0.40145,3.1589 v 0.1067 l 0.005,0.1127 c 0.0117,0.2505 0.0489,0.4964 0.0725,0.746 -0.0362,0.2456 -0.0851,0.1696 -0.0851,0.5013 v 42.407 c 0,0.2003 0.007,-0.012 0.0117,0.1006 v 0.01 l -0.0117,0.095 v 0.3071 c 0,0.015 0.0117,0.028 0.0117,0.043 l -0.005,0.1252 0.097,0.3636 v 0.012 c 0.0244,0.5585 0.0606,1.1123 0.15041,1.6547 v 0.01 c 0.29956,1.8715 0.96665,3.6484 1.91792,5.3024 0.63431,1.1038 1.39334,2.1535 2.25629,3.1464 0.43177,0.4975 0.8927,0.974 1.37259,1.4415 0.47786,0.4654 0.97879,0.9196 1.49802,1.3538 4.2504,3.5528 9.89923,6.4157 16.67823,8.8124 8.473759,2.9958 18.740333,5.2246 30.141203,6.4745 4.56033,0.4999 9.30225,0.8419 14.18371,1.0154 2.44073,0.086 4.91568,0.1316 7.42091,0.1316 2.43753,0 4.84377,-0.043 7.22035,-0.1255 0.0254,-7e-4 0.0498,-0.01 0.0751,-0.01 2.35376,-0.082 4.67273,-0.2037 6.95711,-0.3634 1.61099,-0.1128 3.17838,-0.2638 4.75089,-0.4137 4.41664,-0.3822 8.67923,-0.9873 17.14772,-2.699 8.4685,-1.7117 17.86391,-3.8977 26.87002,-9.1469 3.63578,-2.2209 7.67174,-5.4449 9.83404,-8.5364 1.15321,-1.8448 2.26919,-3.9177 2.60538,-6.1146 0.14723,-1.046 0.26325,-1.9996 0.26325,-2.5054 0,-2.6142 0.0102,-42.8855 0.0102,-42.8855 0,-0.2132 -0.0815,-0.3119 -0.10059,-0.5077 0.0226,-0.1739 0.0598,-0.3458 0.0751,-0.5202 l 0.019,-0.2194 v -0.2194 c 0,-1.0868 -0.16056,-2.1342 -0.40111,-3.1589 6.22914,-5.014 18.65276,-15.2597 25.1396,-22.4194 4.64053,-5.1218 9.94217,-14.9808 12.10287,-26.9823 2.16072,-12.0016 0.629,-26.3926 -10.21004,-37.4995 -8.73453,-8.9503 -21.23814,-12.852303 -33.73256,-12.7233 -12.49441,0.1289 -25.19948,4.2408 -34.91716,12.0589 -1.24788,1.0041 -2.45191,2.0055 -3.61643,3.0085 -3.8609,-5.435 -7.95622,-9.7901 -12.23448,-13.0681 -0.30852,-0.2398 -0.61677,-0.4745 -0.92761,-0.702 -0.35792,-0.2585 -0.71849,-0.5034 -1.07799,-0.752 h 11.93362 V 45.980147 Z"
       id="rect4531-1"
       inkscape:connector-curvature="0"
       sodipodi:nodetypes="cccccccccsccscccsscccsccccccccccccccccccscccsscccsccccccccccccc" />
    <text
       xml:space="preserve"
       style="font-style:normal;font-weight:normal;font-size:10.58333302px;line-height:1.25;font-family:sans-serif;letter-spacing:0px;word-spacing:0px;fill:#000000;fill-opacity:1;stroke:none;stroke-width:0.26458332"
       x="94.038704"
       y="16.326693"
       id="text5812"><tspan
         sodipodi:role="line"
         id="tspan5810"
         x="94.038704"
         y="25.982187"
         style="stroke-width:0.26458332" /></text>
  </g>
</svg>
