<?xml version="1.0" encoding="UTF-8" standalone="no"?>
<!-- Created with Inkscape (http://www.inkscape.org/) -->

<svg
   xmlns:dc="http://purl.org/dc/elements/1.1/"
   xmlns:cc="http://creativecommons.org/ns#"
   xmlns:rdf="http://www.w3.org/1999/02/22-rdf-syntax-ns#"
   xmlns:svg="http://www.w3.org/2000/svg"
   xmlns="http://www.w3.org/2000/svg"
   xmlns:sodipodi="http://sodipodi.sourceforge.net/DTD/sodipodi-0.dtd"
   xmlns:inkscape="http://www.inkscape.org/namespaces/inkscape"
   width="1024"
   height="1024"
   viewBox="0 0 270.93332 270.93334"
   version="1.1"
   id="svg8"
   inkscape:version="0.92.4 (5da689c313, 2019-01-14)"
   sodipodi:docname="0004._N.svg">
  <defs
     id="defs2" />
  <sodipodi:namedview
     id="base"
     pagecolor="#ffffff"
     bordercolor="#666666"
     borderopacity="1.0"
     inkscape:pageopacity="0.0"
     inkscape:pageshadow="2"
     inkscape:zoom="0.088388348"
     inkscape:cx="3833.8271"
     inkscape:cy="3370.5355"
     inkscape:document-units="mm"
     inkscape:current-layer="layer1"
     showgrid="false"
     inkscape:window-width="1920"
     inkscape:window-height="1027"
     inkscape:window-x="-8"
     inkscape:window-y="-8"
     inkscape:window-maximized="1"
     units="px"
     showguides="true"
     inkscape:guide-bbox="true">
    <sodipodi:guide
       position="-118.77941,312.75383"
       orientation="0,1"
       id="guide6804"
       inkscape:locked="false" />
    <sodipodi:guide
       position="-307.27932,312.75383"
       orientation="1,0"
       id="guide6806"
       inkscape:locked="false" />
    <sodipodi:guide
       position="-304.28597,1328.1532"
       orientation="0,1"
       id="guide6808"
       inkscape:locked="false" />
    <sodipodi:guide
       position="391.14502,989.68683"
       orientation="0,1"
       id="guide6810"
       inkscape:locked="false" />
    <sodipodi:guide
       position="391.14766,651.22028"
       orientation="0,1"
       id="guide6812"
       inkscape:locked="false" />
    <sodipodi:guide
       position="391.14505,312.75383"
       orientation="0,1"
       id="guide6814"
       inkscape:locked="false" />
  </sodipodi:namedview>
  <metadata
     id="metadata5">
    <rdf:RDF>
      <cc:Work
         rdf:about="">
        <dc:format>image/svg+xml</dc:format>
        <dc:type
           rdf:resource="http://purl.org/dc/dcmitype/StillImage" />
        <dc:title />
      </cc:Work>
    </rdf:RDF>
  </metadata>
  <g
     inkscape:label="Livello 1"
     inkscape:groupmode="layer"
     id="layer1"
     transform="translate(0,-26.06663)">
    <path
       inkscape:connector-curvature="0"
       style="color:#000000;font-style:normal;font-variant:normal;font-weight:normal;font-stretch:normal;font-size:medium;line-height:normal;font-family:sans-serif;font-variant-ligatures:normal;font-variant-position:normal;font-variant-caps:normal;font-variant-numeric:normal;font-variant-alternates:normal;font-feature-settings:normal;text-indent:0;text-align:start;text-decoration:none;text-decoration-line:none;text-decoration-style:solid;text-decoration-color:#000000;letter-spacing:normal;word-spacing:normal;text-transform:none;writing-mode:lr-tb;direction:ltr;text-orientation:mixed;dominant-baseline:auto;baseline-shift:baseline;text-anchor:start;white-space:normal;shape-padding:0;clip-rule:nonzero;display:inline;overflow:visible;visibility:visible;opacity:1;isolation:auto;mix-blend-mode:normal;color-interpolation:sRGB;color-interpolation-filters:linearRGB;solid-color:#000000;solid-opacity:1;vector-effect:none;fill:#333333;fill-opacity:1;fill-rule:nonzero;stroke:none;stroke-width:9.62713242;stroke-linecap:butt;stroke-linejoin:miter;stroke-miterlimit:4;stroke-dasharray:none;stroke-dashoffset:0;stroke-opacity:1;color-rendering:auto;image-rendering:auto;shape-rendering:auto;text-rendering:auto;enable-background:accumulate"
       d="m 135.56896,50.407597 c -10.28969,0 -18.73406,8.4509 -18.73406,18.7404 0,7.1039 4.02966,13.3283 9.9092,16.5027 C 105.38032,102.3829 91.274507,114.654 82.770087,125.6446 c -9.29458,12.0119 -11.99469,23.3349 -10.35412,35.8636 1.99231,15.2147 13.6423,23.7499 18.92829,26.9071 v 31.3195 l 1.02164,1.3037 c 4.72189,6.0165 11.802123,8.3212 18.759153,9.5707 -0.80729,2.4605 -1.15016,5.3678 -3.3658,6.6813 -3.43316,2.0354 -9.086823,3.089 -15.631503,3.1965 -13.08948,0.2152 -28.77169,-3.1134 -39.04133,-2.7953 -9.56442,0.2963 -16.26947,2.538 -21.0092,5.9229 -4.73974,3.3849 -7.24818,7.7152 -9.02549,11.0185 -1.87022,3.4763 -3.32187,7.5817 -3.32187,12.9804 v 4.8073 h 4.83868 c 9.64826,0 18.95273,0.2382 24.49399,0.2382 h 0.99034 l 0.92765,-0.4011 c 2.71667,-1.181 4.24713,-3.3636 4.5942,-3.9361 0.31862,-0.097 1.19784,-0.2887 2.7953,-0.3761 15.74033,-0.5392 30.3901,6.3737 50.197803,2.225 l 0.095,-0.025 0.0723,-0.025 c 6.8558,-1.6749 14.60547,-3.9909 20.53911,-10.5172 2.56199,-2.8178 4.6299,-6.3614 6.19249,-10.6801 1.56267,4.3192 3.63653,7.862 6.19871,10.6801 5.93373,6.5263 13.68331,8.8423 20.5391,10.5172 l 0.0951,0.025 0.0723,0.025 c 19.76834,4.1405 34.42415,-2.7337 50.12888,-2.225 1.78948,0.09 2.75419,0.3123 3.00846,0.4011 0.0906,0.1953 1.47032,2.6048 4.47513,3.911 l 0.92124,0.4011 h 0.99657 c 5.54125,0 14.84582,-0.2382 24.49407,-0.2382 h 4.8072 v -4.8073 c 0,-5.3987 -1.44525,-9.5041 -3.31546,-12.9804 -1.7774,-3.3033 -4.28575,-7.6336 -9.02549,-11.0185 -4.73974,-3.3849 -11.44469,-5.6267 -21.0092,-5.923 -10.26974,-0.3181 -25.92678,3.0106 -39.01625,2.7954 -6.54478,-0.1079 -12.20457,-1.1612 -15.63782,-3.1965 -2.21674,-1.3141 -2.57773,-4.2185 -3.38456,-6.6813 6.95703,-1.2495 14.03725,-3.5542 18.75914,-9.5707 l 1.02156,-1.3037 v -31.3194 c 5.2858,-3.1575 16.93561,-11.6931 18.92783,-26.9071 1.64047,-12.5287 -1.03437,-23.8516 -10.32914,-35.8635 -8.49298,-10.9759 -22.59293,-23.234 -43.91131,-39.931203 5.94645,-3.1537 10.0346,-9.412 10.0346,-16.5654 0,-10.2896 -8.4506,-18.7403 -18.74029,-18.7403 z"
       id="path5613-8-4"
       sodipodi:nodetypes="csccccccccccscscsscccccccccccccccccsscsccccccccccccscc" />
    <text
       xml:space="preserve"
       style="font-style:normal;font-weight:normal;font-size:10.58333302px;line-height:1.25;font-family:sans-serif;letter-spacing:0px;word-spacing:0px;fill:#000000;fill-opacity:1;stroke:none;stroke-width:0.26458332"
       x="94.038704"
       y="16.326693"
       id="text5812"><tspan
         sodipodi:role="line"
         id="tspan5810"
         x="94.038704"
         y="25.982187"
         style="stroke-width:0.26458332" /></text>
  </g>
</svg>
