<?xml version="1.0" encoding="UTF-8" standalone="no"?>
<!-- Created with Inkscape (http://www.inkscape.org/) -->

<svg
   xmlns:dc="http://purl.org/dc/elements/1.1/"
   xmlns:cc="http://creativecommons.org/ns#"
   xmlns:rdf="http://www.w3.org/1999/02/22-rdf-syntax-ns#"
   xmlns:svg="http://www.w3.org/2000/svg"
   xmlns="http://www.w3.org/2000/svg"
   xmlns:sodipodi="http://sodipodi.sourceforge.net/DTD/sodipodi-0.dtd"
   xmlns:inkscape="http://www.inkscape.org/namespaces/inkscape"
   width="1024"
   height="1024"
   viewBox="0 0 270.93332 270.93334"
   version="1.1"
   id="svg8"
   inkscape:version="0.92.4 (5da689c313, 2019-01-14)"
   sodipodi:docname="0007._E.svg">
  <defs
     id="defs2" />
  <sodipodi:namedview
     id="base"
     pagecolor="#ffffff"
     bordercolor="#666666"
     borderopacity="1.0"
     inkscape:pageopacity="0.0"
     inkscape:pageshadow="2"
     inkscape:zoom="0.088388348"
     inkscape:cx="4123.5565"
     inkscape:cy="3517.6137"
     inkscape:document-units="mm"
     inkscape:current-layer="layer1"
     showgrid="false"
     inkscape:window-width="1920"
     inkscape:window-height="1027"
     inkscape:window-x="-8"
     inkscape:window-y="-8"
     inkscape:window-maximized="1"
     units="px"
     showguides="true"
     inkscape:guide-bbox="true">
    <sodipodi:guide
       position="-118.77941,312.75383"
       orientation="0,1"
       id="guide6804"
       inkscape:locked="false" />
    <sodipodi:guide
       position="-307.27932,312.75383"
       orientation="1,0"
       id="guide6806"
       inkscape:locked="false" />
    <sodipodi:guide
       position="-304.28597,1328.1532"
       orientation="0,1"
       id="guide6808"
       inkscape:locked="false" />
    <sodipodi:guide
       position="391.14502,989.68683"
       orientation="0,1"
       id="guide6810"
       inkscape:locked="false" />
    <sodipodi:guide
       position="391.14766,651.22028"
       orientation="0,1"
       id="guide6812"
       inkscape:locked="false" />
    <sodipodi:guide
       position="391.14505,312.75383"
       orientation="0,1"
       id="guide6814"
       inkscape:locked="false" />
  </sodipodi:namedview>
  <metadata
     id="metadata5">
    <rdf:RDF>
      <cc:Work
         rdf:about="">
        <dc:format>image/svg+xml</dc:format>
        <dc:type
           rdf:resource="http://purl.org/dc/dcmitype/StillImage" />
        <dc:title />
      </cc:Work>
    </rdf:RDF>
  </metadata>
  <g
     inkscape:label="Livello 1"
     inkscape:groupmode="layer"
     id="layer1"
     transform="translate(0,-26.06663)">
    <text
       xml:space="preserve"
       style="font-style:normal;font-weight:normal;font-size:10.58333302px;line-height:1.25;font-family:sans-serif;letter-spacing:0px;word-spacing:0px;fill:#000000;fill-opacity:1;stroke:none;stroke-width:0.26458332"
       x="94.038704"
       y="16.326693"
       id="text5812"><tspan
         sodipodi:role="line"
         id="tspan5810"
         x="94.038704"
         y="25.982187"
         style="stroke-width:0.26458332" /></text>
    <path
       style="color:#000000;font-style:normal;font-variant:normal;font-weight:normal;font-stretch:normal;font-size:medium;line-height:normal;font-family:sans-serif;font-variant-ligatures:normal;font-variant-position:normal;font-variant-caps:normal;font-variant-numeric:normal;font-variant-alternates:normal;font-feature-settings:normal;text-indent:0;text-align:start;text-decoration:none;text-decoration-line:none;text-decoration-style:solid;text-decoration-color:#000000;letter-spacing:normal;word-spacing:normal;text-transform:none;writing-mode:lr-tb;direction:ltr;text-orientation:mixed;dominant-baseline:auto;baseline-shift:baseline;text-anchor:start;white-space:normal;shape-padding:0;clip-rule:nonzero;display:inline;overflow:visible;visibility:visible;opacity:1;isolation:auto;mix-blend-mode:normal;color-interpolation:sRGB;color-interpolation-filters:linearRGB;solid-color:#000000;solid-opacity:1;vector-effect:none;fill:#333333;fill-opacity:1;fill-rule:nonzero;stroke:none;stroke-width:10.01873779;stroke-linecap:round;stroke-linejoin:miter;stroke-miterlimit:4;stroke-dasharray:none;stroke-dashoffset:0;stroke-opacity:1;paint-order:normal;color-rendering:auto;image-rendering:auto;shape-rendering:auto;text-rendering:auto;enable-background:accumulate"
       d="m 129.53332,69.826031 c -0.8872,-1.1835 -14.1119,-19.1229 -14.1119,-19.1229 -0.9368,-0.9043 -2.2001,-1.3905 -3.5015,-1.3477 -2.2335,0.08 -4.1179,1.6872 -4.5501,3.8799 l -4.2871,21.655 -8.642903,0.4511 -16.9168,-21.0344 c -1.3706,-1.712 -3.7254,-2.2811 -5.7268,-1.3844 -2.0014,0.8968 -3.1435,3.0326 -2.7781,5.195 l 3.4597,20.5394 -19.405,28.404899 c -0.4523,0.6706 -0.7283,1.4444 -0.8025,2.25 l -1.586,16.8667 c -0.7837,1.0259 -8.0137,10.4763 -16.0636,22.551 -4.237,6.3557 -8.4802,13.1325 -11.7461,19.3043 -3.2658,6.1718 -5.8037,11.2833 -5.8037,16.6031 0,14.359 6.1931,24.7214 14.4719,30.5609 1.7733,1.2507 6.2754,4.4906 12.0593,3.1776 0.4678,-0.1067 0.8607,-1.2226 1.3224,-1.3787 0,0.04 -0.046,0.1299 -0.046,0.1695 0.063,1.1993 0.3564,2.6079 1.2283,3.8607 0.8724,1.2528 2.2431,2.0804 3.297,2.4381 2.1078,0.7153 3.2568,0.4609 4.0741,0.4951 4.023,0.1683 8.9883,0.8288 13.9765,-0.445 2.4943,-0.6368 5.1208,-1.9187 7.0827,-4.2183 1.9621,-2.2996 3.0393,-5.4021 3.2215,-8.8625 0.3249,-6.1815 -0.8811,-10.6736 -0.9276,-12.7171 -0.027,-1.0217 0.063,-1.236 0.2884,-1.6107 0.2309,-0.3747 0.8841,-1.1235 2.7202,-2.1559 3.5132,-1.9763 9.9604,-3.6256 16.8476,-5.2586 6.887203,-1.6331 14.236903,-3.3099 20.463903,-6.5872 6.9603,-3.6634 8.1737,-6.8011 12.0339,-11.2758 l -1.4413,22.457 c -0.037,0.1334 -0.4392,2.0548 -3.6292,6.3495 -3.2966,4.4379 -9.3266,10.6854 -20.1818,17.1984 -25.817303,15.4905 -23.309603,52.0216 -23.309603,52.0216 0.1306,2.56 2.2442,4.5686 4.8074,4.5688 h 44.896503 c 2.3969,-10e-4 4.764,-0.044 13.8798,0.2521 8.9661,0.072 15.9225,0.132 25.5746,-0.7591 6.6618,-0.615 13.2899,-2.7364 19.2707,-5.5573 0.4682,-0.2213 0.9522,-0.4362 1.404,-0.6645 4.8013,-2.4799 9.5544,-5.5962 12.6045,-10.0656 0.3517,-0.5216 0.673,-1.0576 0.9653,-1.6045 0.8951,-1.6753 1.3641,-3.4917 1.6412,-4.4835 0.2942,-1.053 0.2683,-2.6961 0.2698,-9.9213 v -35.4966 c 0.024,-0.3528 -0.01,-0.8477 -0.01,-1.2474 v -0.2191 c 0.061,-1.0943 -0.2097,-2.4557 -0.2946,-3.2469 -0.3105,-1.2836 -0.7314,-2.5339 -1.3601,-3.7103 -0.2924,-0.5469 -0.6141,-1.0831 -0.9658,-1.6046 -0.3566,-0.5296 -0.7543,-1.0438 -1.1715,-1.542 l 36.5595,-90.8374 c 0.4281,0.04 0.8402,0.1318 1.2784,0.1318 7.6203,0 13.8893,-6.268899 13.8896,-13.889099 0,-7.6237 -6.266,-13.8948 -13.8896,-13.8952 -7.6236,3e-4 -13.8935,6.2715 -13.889,13.8952 0,3.3734 1.2789,6.4392 3.3093,8.8563 l -44.3688,48.135599 4.0049,-65.866799 c 6.625,-1.0367 11.7767,-6.7789 11.7771,-13.6761 0,-7.6202 -6.2689,-13.8887 -13.8891,-13.8891 -7.6201,0 -13.8887,6.2689 -13.8891,13.8891 0,4.4722 2.1973,8.4335 5.5216,10.9807 l -29.1507,59.580799 c 0,0 -17.178,-62.546699 -17.8789,-63.765899 -0.701,-1.2192 -1.0997,-2.1942 -1.9868,-3.3777 z"
       id="rect4531-09-6-5-6"
       inkscape:connector-curvature="0"
       sodipodi:nodetypes="zcccccccccccccsscccccccccccccscccccccccccccccccsccccccsccccccccccczz" />
  </g>
</svg>
