<?xml version="1.0" encoding="UTF-8" standalone="no"?>
<!-- Created with Inkscape (http://www.inkscape.org/) -->

<svg
   xmlns:dc="http://purl.org/dc/elements/1.1/"
   xmlns:cc="http://creativecommons.org/ns#"
   xmlns:rdf="http://www.w3.org/1999/02/22-rdf-syntax-ns#"
   xmlns:svg="http://www.w3.org/2000/svg"
   xmlns="http://www.w3.org/2000/svg"
   xmlns:sodipodi="http://sodipodi.sourceforge.net/DTD/sodipodi-0.dtd"
   xmlns:inkscape="http://www.inkscape.org/namespaces/inkscape"
   width="1024"
   height="1024"
   viewBox="0 0 270.93332 270.93334"
   version="1.1"
   id="svg8"
   inkscape:version="0.92.4 (5da689c313, 2019-01-14)"
   sodipodi:docname="0008._T.svg">
  <defs
     id="defs2" />
  <sodipodi:namedview
     id="base"
     pagecolor="#ffffff"
     bordercolor="#666666"
     borderopacity="1.0"
     inkscape:pageopacity="0.0"
     inkscape:pageshadow="2"
     inkscape:zoom="0.088388348"
     inkscape:cx="3942.5372"
     inkscape:cy="2635.1445"
     inkscape:document-units="mm"
     inkscape:current-layer="layer1"
     showgrid="false"
     inkscape:window-width="1920"
     inkscape:window-height="1027"
     inkscape:window-x="-8"
     inkscape:window-y="-8"
     inkscape:window-maximized="1"
     units="px"
     showguides="true"
     inkscape:guide-bbox="true">
    <sodipodi:guide
       position="-118.77941,312.75383"
       orientation="0,1"
       id="guide6804"
       inkscape:locked="false" />
    <sodipodi:guide
       position="-307.27932,312.75383"
       orientation="1,0"
       id="guide6806"
       inkscape:locked="false" />
    <sodipodi:guide
       position="-304.28597,1328.1532"
       orientation="0,1"
       id="guide6808"
       inkscape:locked="false" />
    <sodipodi:guide
       position="391.14502,989.68683"
       orientation="0,1"
       id="guide6810"
       inkscape:locked="false" />
    <sodipodi:guide
       position="391.14766,651.22028"
       orientation="0,1"
       id="guide6812"
       inkscape:locked="false" />
    <sodipodi:guide
       position="391.14505,312.75383"
       orientation="0,1"
       id="guide6814"
       inkscape:locked="false" />
  </sodipodi:namedview>
  <metadata
     id="metadata5">
    <rdf:RDF>
      <cc:Work
         rdf:about="">
        <dc:format>image/svg+xml</dc:format>
        <dc:type
           rdf:resource="http://purl.org/dc/dcmitype/StillImage" />
        <dc:title />
      </cc:Work>
    </rdf:RDF>
  </metadata>
  <g
     inkscape:label="Livello 1"
     inkscape:groupmode="layer"
     id="layer1"
     transform="translate(0,-26.06663)">
    <text
       xml:space="preserve"
       style="font-style:normal;font-weight:normal;font-size:10.58333302px;line-height:1.25;font-family:sans-serif;letter-spacing:0px;word-spacing:0px;fill:#000000;fill-opacity:1;stroke:none;stroke-width:0.26458332"
       x="94.038704"
       y="16.326693"
       id="text5812"><tspan
         sodipodi:role="line"
         id="tspan5810"
         x="94.038704"
         y="25.982187"
         style="stroke-width:0.26458332" /></text>
    <path
       style="color:#000000;font-style:normal;font-variant:normal;font-weight:normal;font-stretch:normal;font-size:medium;line-height:normal;font-family:sans-serif;font-variant-ligatures:normal;font-variant-position:normal;font-variant-caps:normal;font-variant-numeric:normal;font-variant-alternates:normal;font-feature-settings:normal;text-indent:0;text-align:start;text-decoration:none;text-decoration-line:none;text-decoration-style:solid;text-decoration-color:#000000;letter-spacing:normal;word-spacing:normal;text-transform:none;writing-mode:lr-tb;direction:ltr;text-orientation:mixed;dominant-baseline:auto;baseline-shift:baseline;text-anchor:start;white-space:normal;shape-padding:0;clip-rule:nonzero;display:inline;overflow:visible;visibility:visible;opacity:1;isolation:auto;mix-blend-mode:normal;color-interpolation:sRGB;color-interpolation-filters:linearRGB;solid-color:#000000;solid-opacity:1;vector-effect:none;fill:#333333;fill-opacity:1;fill-rule:nonzero;stroke:none;stroke-width:9.62713242;stroke-linecap:round;stroke-linejoin:round;stroke-miterlimit:4;stroke-dasharray:none;stroke-dashoffset:0;stroke-opacity:1;color-rendering:auto;image-rendering:auto;shape-rendering:auto;text-rendering:auto;enable-background:accumulate"
       d="m 144.44047,48.928247 v 9.6459 11.343 c -6.6508,-10.362 -14.3763,-18.5002 -14.3763,-18.5002 -0.9368,-0.9042 -2.1999,-1.3904 -3.5011,-1.3477 -2.2336,0.08 -4.1184,1.687 -4.5506,3.8799 l -4.2871,21.655 -8.6429,0.4511 -16.916803,-21.0343 c -1.3706,-1.7121 -3.7251,-2.2814 -5.7265,-1.3847 -2.0014,0.8967 -3.1438,3.0328 -2.7784,5.1953 l 3.4597,20.5393 -19.405,28.404903 c -0.4523,0.6706 -0.7283,1.4445 -0.8025,2.25 l -1.586,16.8666 c -0.7836,1.026 -8.0137,10.4764 -16.0636,22.5512 -4.2369,6.3556 -8.4798,13.1324 -11.7455,19.3042 -3.2659,6.1718 -5.8043,11.2833 -5.8043,16.6031 0,14.359 6.1931,24.7214 14.472,30.561 1.7732,1.2507 6.2753,4.4905 12.0592,3.1775 0.4678,-0.1067 0.8606,-1.2226 1.3224,-1.3787 0,0.04 -0.046,0.13 -0.046,0.1695 0.063,1.1993 0.3564,2.608 1.2283,3.8608 0.8724,1.2527 2.243,2.0803 3.297,2.438 2.1077,0.7154 3.2568,0.4609 4.0742,0.4951 4.0228,0.1683 8.9887,0.8288 13.9769,-0.4449 2.4943,-0.6369 5.1205,-1.9188 7.0822,-4.2184 1.9621,-2.2995 3.0395,-5.4021 3.2215,-8.8625 0.3251,-6.1815 -0.8812,-10.6736 -0.9275,-12.717 -0.027,-1.0218 0.063,-1.2361 0.2888,-1.6108 0.2309,-0.3747 0.8842,-1.1235 2.7203,-2.1559 3.5131,-1.9762 9.959803,-3.6256 16.847003,-5.2586 6.8872,-1.6331 14.2369,-3.3099 20.4639,-6.5872 6.9603,-3.6634 8.1737,-6.801 12.0339,-11.2758 l -1.4413,22.457 c -0.037,0.1334 -0.4392,2.0548 -3.6292,6.3495 -3.2966,4.4381 -9.3266,10.6855 -20.1817,17.1984 -25.817403,15.4906 -23.309203,52.0217 -23.309203,52.0217 0.1306,2.5597 2.2439,4.5682 4.806903,4.5688 h 44.3673 0.5292 20.6179 73.6322 v -37.4494 l -19.2857,-19.2857 v -13.4503 l -22.6699,-25.3716 0.5266,-58.1324 25.5591,-17.0356 V 48.953647 h -37.4302 v 22.67 h -23.2844 v -22.6953 h -4.9826 -3.8897 z"
       id="path5806-38-2"
       inkscape:connector-curvature="0"
       sodipodi:nodetypes="cccccccccscccccccsccccccccccccccccccccccccccccccccccccccc" />
  </g>
</svg>
