<?xml version="1.0" encoding="UTF-8" standalone="no"?>
<!-- Created with Inkscape (http://www.inkscape.org/) -->

<svg
   xmlns:dc="http://purl.org/dc/elements/1.1/"
   xmlns:cc="http://creativecommons.org/ns#"
   xmlns:rdf="http://www.w3.org/1999/02/22-rdf-syntax-ns#"
   xmlns:svg="http://www.w3.org/2000/svg"
   xmlns="http://www.w3.org/2000/svg"
   xmlns:sodipodi="http://sodipodi.sourceforge.net/DTD/sodipodi-0.dtd"
   xmlns:inkscape="http://www.inkscape.org/namespaces/inkscape"
   width="1024"
   height="1024"
   viewBox="0 0 270.93332 270.93334"
   version="1.1"
   id="svg8"
   inkscape:version="0.92.4 (5da689c313, 2019-01-14)"
   sodipodi:docname="0009._A.svg">
  <defs
     id="defs2" />
  <sodipodi:namedview
     id="base"
     pagecolor="#ffffff"
     bordercolor="#666666"
     borderopacity="1.0"
     inkscape:pageopacity="0.0"
     inkscape:pageshadow="2"
     inkscape:zoom="0.088388348"
     inkscape:cx="3885.9686"
     inkscape:cy="3483.6726"
     inkscape:document-units="mm"
     inkscape:current-layer="layer1"
     showgrid="false"
     inkscape:window-width="1920"
     inkscape:window-height="1027"
     inkscape:window-x="-8"
     inkscape:window-y="-8"
     inkscape:window-maximized="1"
     units="px"
     showguides="true"
     inkscape:guide-bbox="true">
    <sodipodi:guide
       position="-118.77941,312.75383"
       orientation="0,1"
       id="guide6804"
       inkscape:locked="false" />
    <sodipodi:guide
       position="-307.27932,312.75383"
       orientation="1,0"
       id="guide6806"
       inkscape:locked="false" />
    <sodipodi:guide
       position="-304.28597,1328.1532"
       orientation="0,1"
       id="guide6808"
       inkscape:locked="false" />
    <sodipodi:guide
       position="391.14502,989.68683"
       orientation="0,1"
       id="guide6810"
       inkscape:locked="false" />
    <sodipodi:guide
       position="391.14766,651.22028"
       orientation="0,1"
       id="guide6812"
       inkscape:locked="false" />
    <sodipodi:guide
       position="391.14505,312.75383"
       orientation="0,1"
       id="guide6814"
       inkscape:locked="false" />
  </sodipodi:namedview>
  <metadata
     id="metadata5">
    <rdf:RDF>
      <cc:Work
         rdf:about="">
        <dc:format>image/svg+xml</dc:format>
        <dc:type
           rdf:resource="http://purl.org/dc/dcmitype/StillImage" />
        <dc:title />
      </cc:Work>
    </rdf:RDF>
  </metadata>
  <g
     inkscape:label="Livello 1"
     inkscape:groupmode="layer"
     id="layer1"
     transform="translate(0,-26.06663)">
    <path
       inkscape:connector-curvature="0"
       style="color:#000000;font-style:normal;font-variant:normal;font-weight:normal;font-stretch:normal;font-size:medium;line-height:normal;font-family:sans-serif;font-variant-ligatures:normal;font-variant-position:normal;font-variant-caps:normal;font-variant-numeric:normal;font-variant-alternates:normal;font-feature-settings:normal;text-indent:0;text-align:start;text-decoration:none;text-decoration-line:none;text-decoration-style:solid;text-decoration-color:#000000;letter-spacing:normal;word-spacing:normal;text-transform:none;writing-mode:lr-tb;direction:ltr;text-orientation:mixed;dominant-baseline:auto;baseline-shift:baseline;text-anchor:start;white-space:normal;shape-padding:0;clip-rule:nonzero;display:inline;overflow:visible;visibility:visible;opacity:1;isolation:auto;mix-blend-mode:normal;color-interpolation:sRGB;color-interpolation-filters:linearRGB;solid-color:#000000;solid-opacity:1;vector-effect:none;fill:#333333;fill-opacity:1;fill-rule:nonzero;stroke:none;stroke-width:9.62713242;stroke-linecap:round;stroke-linejoin:round;stroke-miterlimit:4;stroke-dasharray:none;stroke-dashoffset:0;stroke-opacity:1;color-rendering:auto;image-rendering:auto;shape-rendering:auto;text-rendering:auto;enable-background:accumulate"
       d="m 115.81332,49.500136 c -2.2307,0.082 -4.1124,1.6893 -4.5444,3.8799 l -4.2866,21.6545 -8.643403,0.4517 -16.9163,-21.0344 c -3.1034,-3.8778 -9.3336,-1.0865 -8.5054,3.8106 l 3.4598,20.5393 -19.4046,28.404904 c -0.4523,0.6707 -0.7287,1.4445 -0.803,2.25 l -1.5854,16.8661 c -0.7838,1.026 -8.0145,10.4763 -16.0642,22.5512 -4.2371,6.3556 -8.4798,13.133 -11.7455,19.3047 -3.2658,6.1718 -5.8038,11.2828 -5.8038,16.6026 0,14.359 6.193,24.7219 14.472,30.5615 1.7732,1.2507 6.2754,4.4905 12.0592,3.1775 0.4679,-0.1067 0.8606,-1.2227 1.3224,-1.3787 0,0.04 -0.045,0.1295 -0.045,0.169 0.063,1.1993 0.3566,2.608 1.2284,3.8608 0.8725,1.2528 2.2425,2.0804 3.2964,2.438 2.1081,0.7154 3.2569,0.4615 4.0742,0.4956 4.0228,0.1683 8.9888,0.8288 13.9769,-0.4449 2.4942,-0.6369 5.1203,-1.9188 7.0823,-4.2184 1.9619,-2.2994 3.0394,-5.4021 3.2215,-8.8625 0.3248,-6.1814 -0.8802,-10.6735 -0.9276,-12.717 -0.028,-1.0217 0.063,-1.2361 0.2884,-1.6108 0.2308,-0.3747 0.8843,-1.1235 2.7202,-2.1559 3.5134,-1.9763 9.9605,-3.6256 16.847603,-5.2586 6.8871,-1.633 14.2368,-3.3099 20.4638,-6.5872 6.9604,-3.6633 8.1733,-6.8011 12.0339,-11.2758 l -1.4412,22.457 c -0.037,0.1334 -0.4392,2.0543 -3.6293,6.349 -3.2966,4.4379 -9.3266,10.6854 -20.1817,17.1984 -25.817403,15.4905 -23.309203,52.0222 -23.309203,52.0222 0.1311,2.56 2.2437,4.5683 4.807,4.5687 h 45.954303 v -22.023 c 1.4026,3.152 3.1193,5.8293 5.1413,8.0533 5.9336,6.5263 13.6834,8.8423 20.5393,10.5172 l 0.094,0.027 0.072,0.027 c 19.7683,4.1404 34.4241,-2.7339 50.1287,-2.2252 1.7896,0.091 2.7543,0.3124 3.0086,0.401 0.091,0.1955 1.4703,2.6047 4.4752,3.9109 l 0.9214,0.401 h 0.9963 c 5.5412,0 14.8455,-0.2383 24.4936,-0.2383 h 4.8074 v -4.8069 c 0,-5.3986 -1.4453,-9.5042 -3.3155,-12.9806 -1.7773,-3.3032 -4.2856,-7.6336 -9.0253,-11.0184 -4.7397,-3.3849 -11.4445,-5.6269 -21.009,-5.9232 -10.2699,-0.318 -25.9269,3.0108 -39.0163,2.7957 -6.5448,-0.108 -12.2045,-1.1614 -15.6378,-3.1967 -2.2168,-1.3142 -2.5779,-4.2184 -3.3848,-6.6813 6.9571,-1.2493 14.0372,-3.5539 18.7591,-9.5704 l 1.0216,-1.3038 v -31.319 c 5.2864,-3.1576 16.9365,-11.6928 18.9286,-26.9069 1.6406,-12.5286 -1.0343,-23.852 -10.3291,-35.864 -8.493,-10.9758 -22.5933,-23.234 -43.9115,-39.931304 5.9465,-3.1535 10.0345,-9.4119 10.0345,-16.5654 0,-10.2897 -8.9794,-18.74 -19.2691,-18.74 h -0.01 c -0.035,0 -0.068,0 -0.1028,0 v 9.646 c 0.034,0 0.068,0 0.1028,0 5.0868,0 9.6299,4.0077 9.6299,9.0945 0,4.5854 -3.6921,8.3125 -8.1458,9.0031 v -7.9835 c -6.7621,-10.7531 -15.9635,-19.3203 -15.9635,-19.3203 -0.9362,-0.9034 -2.1975,-1.3894 -3.4974,-1.3477 z"
       id="path5806-1-7-1"
       sodipodi:nodetypes="ccccccccccccsccccccccccccccsccccccccccccccccsscsccccccccccccsssccssccccc" />
    <text
       xml:space="preserve"
       style="font-style:normal;font-weight:normal;font-size:10.58333302px;line-height:1.25;font-family:sans-serif;letter-spacing:0px;word-spacing:0px;fill:#000000;fill-opacity:1;stroke:none;stroke-width:0.26458332"
       x="94.038704"
       y="16.326693"
       id="text5812"><tspan
         sodipodi:role="line"
         id="tspan5810"
         x="94.038704"
         y="25.982187"
         style="stroke-width:0.26458332" /></text>
  </g>
</svg>
