<svg width="2e3" height="1e3" version="1.1" viewBox="-1 5 24 22" xmlns="http://www.w3.org/2000/svg">
 <g transform="translate(.02 -.3)">
  <path d="m7 11v-1e-3l7 4 4-2a6 6 0 0 1 3-0.5c0.1 0 0.3 7e-3 0.4 0.02a10 10 0 0 0-18-3l0.1-3e-3a8 8 0 0 1 4 1z" fill="#0364b8"/>
  <path d="m7 11a8 8 0 0 0-4-1l-0.1 3e-3a8 8 0 0 0-6 13l17-7z" fill="#0078d4"/>
  <path d="m21 13a7 7 0 0 0-0.4-0.02 6 6 0 0 0-3 0.5l-4 2 12 7a6 6 0 0 0-5-10z" fill="#1490df"/>
  <path d="m21 19-7-4-17 7a8 8 0 0 0 7 3h17a6 6 0 0 0 6-3z" fill="#28a8ea"/>
 </g>
</svg>
