<svg width="1e3" height="1e3" version="1.1" viewBox="0 0 271 271" xmlns="http://www.w3.org/2000/svg">
 <path d="m102 39-98 187c-2 5 1 10 6 10h98c4 0 7-3 7-7v-187c0.04-4-4-8-8-7-3 0.4-4 2-5 4zm-6 53-1 123h-62z"/>
 <path d="m169 39 98 187c2 5-1 10-6 10h-98c-4 0-7-3-7-7v-187c-0.04-4 4-8 8-7 3 0.4 4 2 5 4z"/>
 <path d="m136 0.4c-4 0-9 4-9 8v16c0 4 5 8 9 8s9-4 9-8v-16c0-4-5-8-9-8zm0 48c-4 0-9 4-9 8v16c0 4 5 8 9 8s9-4 9-8v-16c0-4-5-8-9-8zm0 48c-4 0-9 4-9 8v16c0 4 5 8 9 8s9-4 9-8v-16c0-4-5-8-9-8zm0 48c-4 0-9 4-9 8v16c0 4 5 8 9 8s9-4 9-8v-16c0-4-5-8-9-8zm0 48c-4 0-9 4-9 8v16c0 4 5 8 9 8s9-4 9-8v-16c0-4-5-8-9-8zm0 48c-4 0-9 4-9 8v16c0 4 5 8 9 8s9-4 9-8v-16c0-4-5-8-9-8z"/>
</svg>
