<svg width="1e3" height="1e3" version="1.1" viewBox="0 0 271 271" xmlns="http://www.w3.org/2000/svg">
 <path d="m232 101-187-98c-5-2-10 1-10 6v98c0 4 3 7 7 7h187c4 0.04 8-4 7-8-0.4-3-2-4-4-5zm-53-6-123-1v-62z"/>
 <path d="m232 169-187 98c-5 2-10-1-10-6v-98c0-4 3-7 7-7h187c4-0.04 8 4 7 8-0.4 3-2 4-4 5z"/>
 <path d="m270 136c0-4-4-9-8-9h-16c-4 0-8 5-8 9s4 9 8 9h16c4 0 8-5 8-9zm-48 0c0-4-4-9-8-9h-16c-4 0-8 5-8 9s4 9 8 9h16c4 0 8-5 8-9zm-48 0c0-4-4-9-8-9h-16c-4 0-8 5-8 9s4 9 8 9h16c4 0 8-5 8-9zm-48 0c0-4-4-9-8-9h-16c-4 0-8 5-8 9s4 9 8 9h16c4 0 8-5 8-9zm-48 0c0-4-4-9-8-9h-16c-4 0-8 5-8 9s4 9 8 9h16c4 0 8-5 8-9zm-48 0c0-4-4-9-8-9h-16c-4 0-8 5-8 9s4 9 8 9h16c4 0 8-5 8-9z"/>
</svg>
