<svg width="1e3" height="1e3" version="1.1" viewBox="0 0 271 271" xmlns="http://www.w3.org/2000/svg">
 <g transform="translate(0 -26)">
  <path transform="translate(-287 -11)" d="m382 40c-2 2-1-2-2 2l-4 22a2 2 0 0 1-2 2l-9 0.5a2 2 0 0 1-2-0.9l-17-21a2 2 0 0 1-4e-3 -4e-3c-0.9-1-2-1-3-0.7-1 0.4-2 1-1 3a2 2 0 0 1 0 2e-3l3 21a2 2 0 0 1-0.4 2l-19 28c-0.2 0.3-0.4 0.7-0.4 1a2 2 0 0 1 0 4e-3l-2 17a2 2 0 0 1-0.5 1c-0.8 1-8 10-16 22-4 6-8 13-12 19-3 6-6 11-6 15 0 14 6 23 13 29 2 1 5 4 10 3 0.2-0.4 0.4-0.9 2-1a2 2 0 0 1 3 2c0 0.1-0.02 0.03-0.02 0.1 0.06 0.9 0.3 2 0.8 3 0.5 0.7 2 1 2 2 2 0.6 2 0.3 3 0.4 4 0.2 9 0.8 13-0.4 2-0.5 4-2 6-3a2 2 0 0 1 2e-3 0c2-2 2-4 3-7 0.2-3-0.05-5-0.3-7-0.3-2-0.6-4-0.6-5-2e-5 -1e-3 3e-5 -3e-3 0-4e-3 -0.02-0.6-0.01-1 0.1-2 0.1-0.5 0.4-1 0.5-1a2 2 0 0 1 0.01-0.02c0.5-0.9 2-2 4-3 4-2 11-4 17-6 7-2 14-3 20-6 7-3 7-6 11-11a2 2 0 0 1 4 2l-1 22a2 2 0 0 1-0.08 0.5c0.09-0.3-0.06 0.2-0.2 0.6-0.1 0.4-0.3 0.8-0.6 1-0.6 1-2 3-3 5-3 5-10 11-21 18-24 15-22 50-22 50a2 2 0 0 1 4e-3 0.04c0.07 1 1 2 2 2h153a2 2 0 0 1 0.01 0c1 5e-3 2-1 2-2a2 2 0 0 1 0-2e-3c0.5-42 0.8-87-13-122-13-35-41-61-94-66a2 2 0 0 1-2-1c-7-13-19-26-19-26-0.5-0.4-1-0.7-2-0.7z" fill="#fff"/>
  <path d="m95 26a5 5 0 0 0-5 4l-4 22-9 0.5-17-21a5 5 0 0 0-9 4l3 21-19 28a5 5 0 0 0-0.8 2l-2 17c-0.8 1-8 10-16 23-4 6-8 13-12 19-3 6-6 11-6 17 0 14 6 25 14 31 2 1 6 4 12 3 0.5-0.1 0.9-1 1-1 0 0.04-0.05 0.1-0.05 0.2 0.06 1 0.4 3 1 4 0.9 1 2 2 3 2 2 0.7 3 0.5 4 0.5 4 0.2 9 0.8 14-0.4 2-0.6 5-2 7-4 2-2 3-5 3-9 0.3-6-0.9-11-0.9-13-0.03-1 0.06-1 0.3-2 0.2-0.4 0.9-1 3-2 4-2 10-4 17-5 7-2 14-3 20-7 7-4 8-7 12-11l-1 22c-0.04 0.1-0.4 2-4 6-3 4-9 11-20 17-26 15-23 52-23 52a5 5 0 0 0 5 5h153a5 5 0 0 0 5-5c0.5-42 0.9-87-13-123-14-36-42-62-96-68-7-14-19-27-19-27a5 5 0 0 0-4-1zm3 17c4 5 9 9 13 18a5 5 0 0 0 4 3c53 5 77 29 90 62 12 32 13 74 12 115h-143c0.1-6 1-29 18-39 12-7 19-14 23-20s5-10 5-10a5 5 0 0 0 0.1-0.9l2-35a5 5 0 0 0-9-3s-9 12-18 17c-5 2-11 4-18 6-7 2-14 3-19 6-3 2-5 3-6 5s-2 5-2 7c0.1 4 1 7 0.9 12-0.1 2-0.5 3-0.9 3-0.4 0.4-0.9 0.8-2 1-2 0.5-6 0.3-10 0.1 0.3-1 0.9-4 5-13a5 5 0 0 0-9-4c-5 9-9 12-10 12-2 0.3-3-0.4-4-2-6-4-10-11-10-23 0-1 2-6 5-12 3-6 7-12 11-18 8-12 17-23 17-23a5 5 0 0 0 1-2l2-17 20-29a5 5 0 0 0 0.8-4l-0.7-4 7 9a5 5 0 0 0 4 2l15-0.8a5 5 0 0 0 4-4zm-28 52c-3-0.1-11 3-15 8-1 1-1 6-1 6s-0.2 2 1 2c1 0.2 2-2 4-3 2-1 6 0.6 8-2 2-2 0.4-3 2-7 0.7-2 4-3 2-4-0.2-0.2-0.6-0.3-1-0.3zm-47 63c-1-0.7-6 5-6 8-0.7 4 0.3 6 1 7 0.9 0.9 3 2 4 2 1-0.2 3-2 4-3 0.4-1 0.3-3-0.4-4-0.7-0.8-3 0.3-4-1-0.9-2 4-7 1-7z" color="#000000"/>
  <path d="m148 102 119 114-47 6 24 55-33 14-24-55-38 30z" fill="#fff" stroke="#000" stroke-linecap="round" stroke-linejoin="round" stroke-width="9"/>
 </g>
</svg>
