<?xml version="1.0" encoding="UTF-8"?>
<svg width="24" height="24" viewBox="0 0 24 24">
  <path d="M 9.1584228,8.5738454 V 8.573033 l 5.0370352,3.019514 3.005973,-1.25926 a 4.8610106,4.8610106 0 0 1 1.93628,-0.3926716 c 0.108323,0 0.216647,0.00542 0.32497,0.012186 A 7.5013924,7.5013924 0 0 0 5.9358029,7.6915517 l 0.081243,-0.00271 a 5.971325,5.971325 0 0 1 3.1549173,0.8936696 z" fill="#0364b8" id="path185" style="stroke-width:0.0135404" />
  <path d="M 9.1584228,8.5738454 A 5.971325,5.971325 0 0 0 6.003505,7.6801777 l -0.081243,0.00271 A 5.9984059,5.9984059 0 0 0 1.0747923,17.107017 l 13.1071257,-5.51095 z" fill="#0078d4" id="path187" style="stroke-width:0.0135404" />
  <path d="m 19.462681,9.9528018 a 4.9287127,4.9287127 0 0 0 -0.32497,-0.012186 4.8610106,4.8610106 0 0 0 -1.93628,0.3926722 l -3.005973,1.259259 9.221026,5.52449 A 4.874551,4.874551 0 0 0 19.449141,9.9406154 Z" fill="#1490df" id="path189" style="stroke-width:0.0135404" />
  <path d="m 19.151252,14.574959 -4.969334,-2.978892 -13.1071257,5.51095 a 5.9848654,5.9848654 0 0 0 4.9287127,2.572679 h 13.120666 a 4.874551,4.874551 0 0 0 4.292313,-2.559138 z" fill="#28a8ea" id="path191" style="stroke-width:0.0135404" />
</svg>
