<svg width="1772.471" height="1134.338" version="1.1">
  <path d="m 676.37665,314.13735 v -0.06 l 371.99995,223 222,-93 a 359,359 0 0 1 143,-29 c 8,0 16,0.4 24,0.9 a 554,554 0 0 0 -998.99995,-167 l 6,-0.2 a 441,441 0 0 1 233,66 z" fill="#0364b8" id="path185" />
  <path d="m 676.37665,314.13735 a 441,441 0 0 0 -233,-66 l -6,0.2 a 443,443 0 0 0 -357.999998,696 l 967.999948,-407 z" fill="#0078d4" id="path187" />
  <path d="m 1437.3766,415.97735 a 364,364 0 0 0 -24,-0.9 359,359 0 0 0 -143,29 l -222,93 681,408 a 360,360 0 0 0 -293,-530 z" fill="#1490df" id="path189" />
  <path d="m 1414.3766,757.33735 -367,-220 -967.999948,407 A 442,442 0 0 0 443.37665,1134.3373 h 968.99995 a 360,360 0 0 0 317,-188.99995 z" fill="#28a8ea" id="path191" />
</svg>
