<?xml version="1.0" encoding="UTF-8" standalone="no"?>
<!-- Generator: Adobe Illustrator 16.0.0, SVG Export Plug-In . SVG Version: 6.00 Build 0)  -->

<svg
   xmlns:dc="http://purl.org/dc/elements/1.1/"
   xmlns:cc="http://creativecommons.org/ns#"
   xmlns:rdf="http://www.w3.org/1999/02/22-rdf-syntax-ns#"
   xmlns:svg="http://www.w3.org/2000/svg"
   xmlns="http://www.w3.org/2000/svg"
   xmlns:xlink="http://www.w3.org/1999/xlink"
   xmlns:sodipodi="http://sodipodi.sourceforge.net/DTD/sodipodi-0.dtd"
   xmlns:inkscape="http://www.inkscape.org/namespaces/inkscape"
   version="1.1"
   id="Capa_1"
   x="0px"
   y="0px"
   width="196.285px"
   height="196.285px"
   viewBox="0 0 196.285 196.285"
   style="enable-background:new 0 0 196.285 196.285;"
   xml:space="preserve"
   sodipodi:docname="horse2.svg"
   inkscape:version="0.92.2 (5c3e80d, 2017-08-06)"
   inkscape:export-filename="C:\Users\gabriele.brunori\Pictures\svg\horse2.png"
   inkscape:export-xdpi="195.6339"
   inkscape:export-ydpi="195.6339"><metadata
     id="metadata3779"><rdf:RDF><cc:Work
         rdf:about=""><dc:format>image/svg+xml</dc:format><dc:type
           rdf:resource="http://purl.org/dc/dcmitype/StillImage" /><dc:title /></cc:Work></rdf:RDF></metadata><defs
     id="defs3777"><linearGradient
       inkscape:collect="always"
       id="linearGradient4779"><stop
         style="stop-color:#000000;stop-opacity:1"
         offset="0"
         id="stop4775" /><stop
         style="stop-color:#000080;stop-opacity:0.47906977"
         offset="1"
         id="stop4777" /></linearGradient><linearGradient
       inkscape:collect="always"
       xlink:href="#linearGradient4779"
       id="linearGradient4781"
       x1="180.95451"
       y1="192.62305"
       x2="16.795729"
       y2="4.0283012"
       gradientUnits="userSpaceOnUse" /><linearGradient
       inkscape:collect="always"
       xlink:href="#linearGradient4779"
       id="linearGradient4812"
       gradientUnits="userSpaceOnUse"
       x1="180.95451"
       y1="192.62305"
       x2="16.795729"
       y2="4.0283012" /><filter
       inkscape:collect="always"
       style="color-interpolation-filters:sRGB"
       id="filter5545"
       x="-0.025693049"
       width="1.0513861"
       y="-0.022516285"
       height="1.0450326"><feGaussianBlur
         inkscape:collect="always"
         stdDeviation="1.566654"
         id="feGaussianBlur5547" /></filter></defs><sodipodi:namedview
     pagecolor="#ffffff"
     bordercolor="#666666"
     borderopacity="1"
     objecttolerance="10"
     gridtolerance="10"
     guidetolerance="10"
     inkscape:pageopacity="0"
     inkscape:pageshadow="2"
     inkscape:window-width="1366"
     inkscape:window-height="705"
     id="namedview3775"
     showgrid="false"
     inkscape:zoom="2.7307231"
     inkscape:cx="99.806681"
     inkscape:cy="96.928682"
     inkscape:window-x="-8"
     inkscape:window-y="-8"
     inkscape:window-maximized="1"
     inkscape:current-layer="g4810" /><g
     id="g5179"
     transform="matrix(1.0641124,0,0,1.0641124,-6.2921492,-6.2921494)"
     style="stroke:none"><path
       inkscape:connector-curvature="0"
       d="m 138.62761,14.648055 c 0,0 -18.1488,11.100685 -19.25478,17.398761 0,0 -36.652844,-10.729918 -66.635704,18.126547 0,10e-7 11.4778,-2.957673 15.54606,-1.468867 0,0 -36.64858,20.744548 -43.31163,45.162671 0,0 11.8469,-7.763009 15.55105,-6.666396 0,0 -15.9426,26.037069 6.64812,59.376119 22.30657,32.94771 73.292124,35.06006 73.292124,35.06006 0,0 1.14612,-3.31324 2.04046,-8.2416 l -45.785764,-40.53508 6.29253,-6.05493 39.906974,44.0145 c 1.22423,-8.61554 1.22386,-20.65099 -5.64284,-29.54184 -9.26803,-12.02785 -21.221744,-43.351324 0.2426,-54.454415 0,0 11.84721,17.775745 27.76723,19.626985 0,0 1.86193,18.89678 21.10582,8.50747 5.1351,-2.76493 7.04047,-14.42103 1.85602,-21.835277 l -4.08425,-5.921992 c 0,0 -10.73112,-33.320573 -20.35477,-42.952723 0,0 -3.32897,-16.655169 0,-24.41908 0,0 -5.93343,3.329768 -7.78466,6.666395 0,0 0.74908,-10.008845 2.60541,-11.847308 z m -2.47746,37.386316 a 4.6731925,4.6731925 0 0 1 4.67412,4.672459 4.6731925,4.6731925 0 0 1 -4.67412,4.672459 4.6731925,4.6731925 0 0 1 -4.67246,-4.672459 4.6731925,4.6731925 0 0 1 4.67246,-4.672459 z M 55.568516,90.942726 c 0,0 -0.62849,5.177253 5.03137,5.965194 0,0 18.61323,5.58221 12.67978,17.07807 l -9.0209,7.78965 c 0,0 -20.85995,-1.34333 -8.69025,-30.832914 z m 21.488,24.053524 3.48772,9.8916 -5.66444,5.3238 -9.16546,-4.55447 z"
       id="path3740-0"
       style="fill:#53676c;fill-opacity:1;stroke:none;stroke-width:3;stroke-miterlimit:4;stroke-dasharray:none;stroke-opacity:0;opacity:1;filter:url(#filter5545)" /><g
       transform="matrix(0.85074639,0,0,0.85074639,14.647943,14.648056)"
       id="g4810"
       style="stroke:none"><path
         inkscape:connector-curvature="0"
         d="m 145.73047,0 c 0,0 -21.33281,13.048172 -22.63281,20.451172 0,0 -43.083176,-12.6123582 -78.326176,21.30664 0,10e-7 13.491438,-3.476562 18.273438,-1.726562 0,0 -43.078156,24.383938 -50.910156,53.085938 0,0 13.925297,-9.124938 18.279296,-7.835938 0,0 -18.739546,30.60497 7.814454,69.79297 26.22,38.728 86.150394,41.21094 86.150394,41.21094 0,0 1.34719,-3.89451 2.39843,-9.6875 l -53.818356,-47.64649 7.396485,-7.11719 46.908201,51.73633 c 1.439,-10.12704 1.43857,-24.27397 -6.63281,-34.72461 -10.894,-14.138 -24.944861,-50.956809 0.28516,-64.007809 0,0 13.92567,20.894299 32.63867,23.070309 0,0 2.18859,22.212 24.80859,10 6.036,-3.25 8.27564,-16.95102 2.18164,-25.666012 l -4.80078,-6.960938 c 0,0 -12.61378,-39.166281 -23.92578,-50.488281 0,0 -3.913,-19.577125 0,-28.7031252 0,0 -6.97439,3.9139372 -9.15039,7.8359372 0,0 0.8805,-11.764781 3.0625,-13.925781 z m -2.91211,43.945312 a 5.4930501,5.4930501 0 0 1 5.49414,5.492188 5.4930501,5.4930501 0 0 1 -5.49414,5.492188 5.4930501,5.4930501 0 0 1 -5.49219,-5.492188 5.4930501,5.4930501 0 0 1 5.49219,-5.492188 z M 48.099609,89.679688 c 0,0 -0.738754,6.085542 5.914063,7.011718 0,0 21.878702,6.561544 14.904297,20.074214 l -10.603516,9.15626 c 0,0 -24.519584,-1.57901 -10.214844,-36.242192 z m 25.257813,28.273432 4.099609,11.62696 -6.658203,6.25781 -10.773437,-5.35351 z"
         id="path3740"
         style="fill:url(#linearGradient4812);fill-opacity:1;stroke:none" /><g
         id="g3744"
         style="stroke:none" /><g
         id="g3746"
         style="stroke:none" /><g
         id="g3748"
         style="stroke:none" /><g
         id="g3750"
         style="stroke:none" /><g
         id="g3752"
         style="stroke:none" /><g
         id="g3754"
         style="stroke:none" /><g
         id="g3756"
         style="stroke:none" /><g
         id="g3758"
         style="stroke:none" /><g
         id="g3760"
         style="stroke:none" /><g
         id="g3762"
         style="stroke:none" /><g
         id="g3764"
         style="stroke:none" /><g
         id="g3766"
         style="stroke:none" /><g
         id="g3768"
         style="stroke:none" /><g
         id="g3770"
         style="stroke:none" /><g
         id="g3772"
         style="stroke:none" /><circle
         style="fill:#ff5555;stroke:#ffffff;stroke-opacity:0.1573604;stroke-width:2.20923735;stroke-miterlimit:4;stroke-dasharray:none"
         id="path3783"
         cx="60.423553"
         cy="69.21244"
         r="12.817118" /><circle
         style="fill:#55d400;stroke-width:2.20923735;stroke:#ffffff;stroke-opacity:0.1573604;stroke-miterlimit:4;stroke-dasharray:none"
         id="path3783-9"
         cx="86.423988"
         cy="43.944408"
         r="9.8874912" /><circle
         style="fill:#afc6e9;stroke-width:2.20923735;stroke:#ffffff;stroke-opacity:0.1573604;stroke-miterlimit:4;stroke-dasharray:none"
         id="path3783-2"
         cx="117.00197"
         cy="37.902046"
         r="8.2395754" /></g></g></svg>