<?xml version="1.0" encoding="UTF-8" standalone="no"?>
<!-- Generator: Adobe Illustrator 16.0.0, SVG Export Plug-In . SVG Version: 6.00 Build 0)  -->

<svg
   xmlns:dc="http://purl.org/dc/elements/1.1/"
   xmlns:cc="http://creativecommons.org/ns#"
   xmlns:rdf="http://www.w3.org/1999/02/22-rdf-syntax-ns#"
   xmlns:svg="http://www.w3.org/2000/svg"
   xmlns="http://www.w3.org/2000/svg"
   xmlns:sodipodi="http://sodipodi.sourceforge.net/DTD/sodipodi-0.dtd"
   xmlns:inkscape="http://www.inkscape.org/namespaces/inkscape"
   version="1.1"
   id="Capa_1"
   x="0px"
   y="0px"
   width="196.285px"
   height="196.285px"
   viewBox="0 0 196.285 196.285"
   style="enable-background:new 0 0 196.285 196.285;"
   xml:space="preserve"
   sodipodi:docname="horse.svg"
   inkscape:version="0.92.2 (5c3e80d, 2017-08-06)"><metadata
     id="metadata3779"><rdf:RDF><cc:Work
         rdf:about=""><dc:format>image/svg+xml</dc:format><dc:type
           rdf:resource="http://purl.org/dc/dcmitype/StillImage" /></cc:Work></rdf:RDF></metadata><defs
     id="defs3777" /><sodipodi:namedview
     pagecolor="#ffffff"
     bordercolor="#666666"
     borderopacity="1"
     objecttolerance="10"
     gridtolerance="10"
     guidetolerance="10"
     inkscape:pageopacity="0"
     inkscape:pageshadow="2"
     inkscape:window-width="1366"
     inkscape:window-height="705"
     id="namedview3775"
     showgrid="false"
     inkscape:zoom="2.7307231"
     inkscape:cx="98.142502"
     inkscape:cy="98.142502"
     inkscape:window-x="-8"
     inkscape:window-y="-8"
     inkscape:window-maximized="1"
     inkscape:current-layer="Capa_1" /><g
     id="g3742"><path
       d="M38.228,155.075c-26.554-39.188-7.814-69.794-7.814-69.794c-4.354-1.289-18.279,7.837-18.279,7.837   c7.832-28.702,50.91-53.087,50.91-53.087c-4.782-1.75-18.273,1.726-18.273,1.726c35.243-33.919,78.326-21.306,78.326-21.306   C124.398,13.048,145.73,0,145.73,0c-2.182,2.161-3.062,13.926-3.062,13.926c2.176-3.922,9.15-7.837,9.15-7.837   c-3.913,9.126,0,28.703,0,28.703c11.312,11.322,23.927,50.49,23.927,50.49l4.8,6.96c6.094,8.715,3.854,22.417-2.182,25.667   c-22.62,12.212-24.808-10.001-24.808-10.001c-18.713-2.176-32.639-23.07-32.639-23.07c-25.23,13.051-11.178,49.869-0.284,64.007   c13.997,18.123,3.748,47.44,3.748,47.44S64.448,193.803,38.228,155.075z"
       id="path3740" /></g><g
     id="g3744" /><g
     id="g3746" /><g
     id="g3748" /><g
     id="g3750" /><g
     id="g3752" /><g
     id="g3754" /><g
     id="g3756" /><g
     id="g3758" /><g
     id="g3760" /><g
     id="g3762" /><g
     id="g3764" /><g
     id="g3766" /><g
     id="g3768" /><g
     id="g3770" /><g
     id="g3772" /><circle
     style="fill:#ff0000"
     id="path3783"
     cx="60.423553"
     cy="69.21244"
     r="12.817118" /><circle
     style="fill:#00ff00;stroke-width:0.77142859"
     id="path3783-9"
     cx="86.423988"
     cy="43.944408"
     r="9.8874912" /><circle
     style="fill:#0000ff;stroke-width:0.64285713"
     id="path3783-2"
     cx="117.00197"
     cy="37.902046"
     r="8.2395754" /><circle
     style="fill:#ffffff;stroke-width:0.42857143"
     id="path3783-5"
     cx="142.81931"
     cy="49.437454"
     r="5.4930501" /><g
     id="g3848"
     transform="matrix(-0.03319514,0.22955693,-0.22955693,-0.03319514,159.97332,94.725803)"
     style="fill:#ffffff"><g
       id="g3828"
       style="fill:#ffffff" /><path
       id="path3830"
       d="M 242.544,352.215 464.363,14.398 207.615,325.049 Z"
       inkscape:connector-curvature="0"
       style="fill:#ffffff" /><path
       id="path3832"
       d="m 214.395,412.631 16.2,-49.275 -30.812,-24.546 -47.083,24.668 z"
       inkscape:connector-curvature="0"
       style="fill:#ffffff" /><path
       id="path3834"
       d="m 195.983,422.748 c 0,0 8.397,105.595 -148.337,65.945 0,0 26.419,-0.604 26.266,-29.563 0,0 14.5,-97.403 76.462,-75.981 l 45.609,39.598 z"
       inkscape:connector-curvature="0"
       style="fill:#ffffff" /></g></svg>