<?xml version="1.0" encoding="UTF-8" standalone="no"?>
<!-- Created with Inkscape (http://www.inkscape.org/) -->

<svg
   xmlns:dc="http://purl.org/dc/elements/1.1/"
   xmlns:cc="http://creativecommons.org/ns#"
   xmlns:rdf="http://www.w3.org/1999/02/22-rdf-syntax-ns#"
   xmlns:svg="http://www.w3.org/2000/svg"
   xmlns="http://www.w3.org/2000/svg"
   xmlns:sodipodi="http://sodipodi.sourceforge.net/DTD/sodipodi-0.dtd"
   xmlns:inkscape="http://www.inkscape.org/namespaces/inkscape"
   width="1000"
   height="1000"
   viewBox="0 0 1000 1000"
   version="1.1"
   id="svg1796"
   inkscape:version="0.92.4 (unknown)"
   sodipodi:docname="w_king.svg">
  <defs
     id="defs1790" />
  <sodipodi:namedview
     id="base"
     pagecolor="#ffffff"
     bordercolor="#666666"
     borderopacity="1.0"
     inkscape:pageopacity="0.0"
     inkscape:pageshadow="2"
     inkscape:zoom="0.16"
     inkscape:cx="1393.6082"
     inkscape:cy="-268.36051"
     inkscape:document-units="mm"
     inkscape:current-layer="g2400"
     showgrid="false"
     units="px"
     inkscape:window-width="1920"
     inkscape:window-height="1016"
     inkscape:window-x="1920"
     inkscape:window-y="27"
     inkscape:window-maximized="1" />
  <metadata
     id="metadata1793">
    <rdf:RDF>
      <cc:Work
         rdf:about="">
        <dc:format>image/svg+xml</dc:format>
        <dc:type
           rdf:resource="http://purl.org/dc/dcmitype/StillImage" />
        <dc:title></dc:title>
      </cc:Work>
    </rdf:RDF>
  </metadata>
  <g
     id="g2400"
     transform="matrix(9.3752566,0,0,9.3752566,32.955101,30.077348)">
    <path
       id="path1033-3"
       style="fill:none;fill-opacity:1;fill-rule:evenodd;stroke:#000000;stroke-width:4.07979631;stroke-linecap:round;stroke-linejoin:miter;stroke-miterlimit:4;stroke-dasharray:none;stroke-opacity:1"
       d="M 49.902182,19.723356 V 4.4105198"
       inkscape:connector-curvature="0" />
    <path
       id="path1035-6"
       style="fill:none;fill-opacity:1;fill-rule:evenodd;stroke:#000000;stroke-width:4.07979631;stroke-linecap:round;stroke-linejoin:miter;stroke-miterlimit:4;stroke-dasharray:none;stroke-opacity:1"
       d="M 43.102521,9.8502484 H 56.701842"
       inkscape:connector-curvature="0" />
    <path
       id="path1037-7"
       style="fill:#ffffff;fill-opacity:1;fill-rule:evenodd;stroke:#000000;stroke-width:4.07979631;stroke-linecap:butt;stroke-linejoin:miter;stroke-miterlimit:4;stroke-dasharray:none;stroke-opacity:1"
       d="m 49.902182,56.087941 c 0,0 12.239389,-20.398982 8.159593,-28.558575 0,0 -2.719865,-6.79966 -8.159593,-6.79966 -5.439729,0 -8.159593,6.79966 -8.159593,6.79966 -4.079797,8.159593 8.159593,28.558575 8.159593,28.558575"
       inkscape:connector-curvature="0" />
    <path
       id="path1039-5"
       style="fill:#ffffff;fill-opacity:1;fill-rule:evenodd;stroke:#000000;stroke-width:4.07979631;stroke-linecap:round;stroke-linejoin:round;stroke-miterlimit:4;stroke-dasharray:none;stroke-opacity:1"
       d="m 19.983674,88.726313 c 14.959254,9.519525 42.157897,9.519525 57.117151,0 v -19.03905 c 0,0 24.478775,-12.239389 16.319186,-28.558575 C 82.540553,23.44957 56.701842,31.609163 49.902182,52.008145 V 61.52767 52.008145 C 40.382657,31.609163 14.543946,23.44957 6.3843529,41.128688 -1.77524,57.447874 19.983674,68.327331 19.983674,68.327331 Z"
       inkscape:connector-curvature="0" />
    <path
       id="path1041-3"
       style="fill:none;fill-opacity:1;fill-rule:evenodd;stroke:#000000;stroke-width:4.07979631;stroke-linecap:round;stroke-linejoin:round;stroke-miterlimit:4;stroke-dasharray:none;stroke-opacity:1"
       d="m 19.983674,69.687263 c 14.959254,-8.159593 42.157897,-8.159593 57.117151,0"
       inkscape:connector-curvature="0" />
    <path
       id="path1043-5"
       style="fill:none;fill-opacity:1;fill-rule:evenodd;stroke:#000000;stroke-width:4.07979631;stroke-linecap:round;stroke-linejoin:round;stroke-miterlimit:4;stroke-dasharray:none;stroke-opacity:1"
       d="m 19.983674,79.206788 c 14.959254,-8.159593 42.157897,-8.159593 57.117151,0"
       inkscape:connector-curvature="0" />
    <path
       id="path1045-6"
       style="fill:none;fill-opacity:1;fill-rule:evenodd;stroke:#000000;stroke-width:4.07979631;stroke-linecap:round;stroke-linejoin:round;stroke-miterlimit:4;stroke-dasharray:none;stroke-opacity:1"
       d="m 19.983674,88.726313 c 14.959254,-8.159593 42.157897,-8.159593 57.117151,0"
       inkscape:connector-curvature="0" />
    <path
       style="fill:#ffffff;fill-opacity:1;fill-rule:evenodd;stroke:#000000;stroke-width:4.07979631;stroke-linecap:round;stroke-linejoin:round;stroke-miterlimit:4;stroke-dasharray:none;stroke-opacity:1"
       id="path1049"
       d="m 132.85848,20.591934 a 5.43973,5.43973 0 1 1 -10.87946,0 5.43973,5.43973 0 1 1 10.87946,0 z"
       inkscape:connector-curvature="0" />
    <path
       style="fill:#ffffff;fill-opacity:1;fill-rule:evenodd;stroke:#000000;stroke-width:4.07979631;stroke-linecap:round;stroke-linejoin:round;stroke-miterlimit:4;stroke-dasharray:none;stroke-opacity:1"
       id="path1051"
       d="m 177.73624,8.3525439 a 5.43973,5.43973 0 1 1 -10.87946,0 5.43973,5.43973 0 1 1 10.87946,0 z"
       inkscape:connector-curvature="0" />
    <path
       style="fill:#ffffff;fill-opacity:1;fill-rule:evenodd;stroke:#000000;stroke-width:4.07979631;stroke-linecap:round;stroke-linejoin:round;stroke-miterlimit:4;stroke-dasharray:none;stroke-opacity:1"
       id="path1053"
       d="m 222.614,20.591934 a 5.43973,5.43973 0 1 1 -10.87946,0 5.43973,5.43973 0 1 1 10.87946,0 z"
       inkscape:connector-curvature="0" />
    <path
       style="fill:#ffffff;fill-opacity:1;fill-rule:evenodd;stroke:#000000;stroke-width:4.07979631;stroke-linecap:round;stroke-linejoin:round;stroke-miterlimit:4;stroke-dasharray:none;stroke-opacity:1"
       id="path1055"
       d="m 154.61739,11.072409 a 5.43973,5.43973 0 1 1 -10.87946,0 5.43973,5.43973 0 1 1 10.87946,0 z"
       inkscape:connector-curvature="0" />
    <path
       style="fill:#ffffff;fill-opacity:1;fill-rule:evenodd;stroke:#000000;stroke-width:4.07979631;stroke-linecap:round;stroke-linejoin:round;stroke-miterlimit:4;stroke-dasharray:none;stroke-opacity:1"
       id="path1057"
       d="m 200.85508,12.432341 a 5.43973,5.43973 0 1 1 -10.87946,0 5.43973,5.43973 0 1 1 10.87946,0 z"
       inkscape:connector-curvature="0" />
    <path
       id="path1059"
       style="fill:#ffffff;fill-opacity:1;fill-rule:evenodd;stroke:#000000;stroke-width:4.07979631;stroke-linecap:butt;stroke-linejoin:round;stroke-miterlimit:4;stroke-dasharray:none;stroke-opacity:1"
       d="m 135.57834,58.670034 c 23.11885,-4.079797 57.11715,-4.079797 73.43633,0 l 5.43973,-32.638372 -19.03905,29.918507 v -38.0781 l -14.95925,36.718168 -8.15959,-40.797964 -8.1596,40.797964 -14.95925,-38.0781 V 55.950169 L 130.13861,26.031662 Z"
       inkscape:connector-curvature="0" />
    <path
       id="path1061"
       style="fill:#ffffff;fill-opacity:1;fill-rule:evenodd;stroke:#000000;stroke-width:4.07979631;stroke-linecap:butt;stroke-linejoin:round;stroke-miterlimit:4;stroke-dasharray:none;stroke-opacity:1"
       d="m 135.57834,58.670034 c 0,5.439728 4.0798,5.439728 6.79966,10.879457 2.71986,4.079796 2.71986,2.719864 1.35993,9.519525 -4.07979,2.719864 -4.07979,6.799661 -4.07979,6.799661 -4.0798,4.079796 1.35993,6.799661 1.35993,6.799661 17.67912,2.719864 44.87776,2.719864 62.55688,0 0,0 4.07979,-2.719865 0,-6.799661 0,0 1.35993,-4.079797 -2.71987,-6.799661 -1.35993,-6.799661 -1.35993,-5.439729 1.35993,-9.519525 2.71987,-5.439729 6.79966,-5.439729 6.79966,-10.879457 -23.11884,-4.079797 -50.31748,-4.079797 -73.43633,0 z"
       inkscape:connector-curvature="0" />
    <path
       id="path1063"
       style="fill:none;fill-opacity:1;fill-rule:evenodd;stroke:#000000;stroke-width:4.07979631;stroke-linecap:round;stroke-linejoin:round;stroke-miterlimit:4;stroke-dasharray:none;stroke-opacity:1"
       d="m 142.378,69.549491 c 9.51952,-2.719864 50.31749,-2.719864 59.83701,0"
       inkscape:connector-curvature="0" />
    <path
       id="path1065"
       style="fill:none;fill-opacity:1;fill-rule:evenodd;stroke:#000000;stroke-width:4.07979631;stroke-linecap:round;stroke-linejoin:round;stroke-miterlimit:4;stroke-dasharray:none;stroke-opacity:1"
       d="m 143.73793,79.069016 c 16.31919,-2.719864 40.79797,-2.719864 57.11715,0"
       inkscape:connector-curvature="0" />
    <path
       style="fill:#ffffff;fill-opacity:1;fill-rule:evenodd;stroke:#000000;stroke-width:4.07979631;stroke-linecap:butt;stroke-linejoin:round;stroke-miterlimit:4;stroke-dasharray:none;stroke-opacity:1"
       inkscape:connector-curvature="0"
       d="m 257.97219,85.868677 c 9.22034,-2.638269 27.49783,1.169541 36.71817,-5.439729 9.22034,6.60927 27.49782,2.80146 36.71816,5.439729 0,0 4.48778,1.468727 8.1596,5.439728 -1.84951,2.638269 -4.48778,2.692666 -8.1596,1.359933 -9.22034,-2.638269 -27.49782,1.251137 -36.71816,-2.719865 -9.22034,3.971002 -27.49783,0.0816 -36.71817,2.719865 -3.6827,1.332733 -6.31825,1.278336 -8.15959,-1.359933 3.68269,-5.276536 8.15959,-5.439728 8.15959,-5.439728 z"
       id="path1069" />
    <path
       style="fill:#ffffff;fill-opacity:1;fill-rule:evenodd;stroke:#000000;stroke-width:4.07979631;stroke-linecap:butt;stroke-linejoin:round;stroke-miterlimit:4;stroke-dasharray:none;stroke-opacity:1"
       inkscape:connector-curvature="0"
       d="m 274.29137,74.98922 c 6.79967,6.79966 33.99831,6.79966 40.79797,0 1.35993,-4.079797 0,-5.439729 0,-5.439729 0,-6.799661 -6.79966,-10.879457 -6.79966,-10.879457 14.95925,-4.079797 16.31918,-31.27844 -13.59932,-42.157897 -29.91851,10.879457 -28.55858,38.0781 -13.59932,42.157897 0,0 -6.79967,4.079796 -6.79967,10.879457 0,0 -1.35993,1.359932 0,5.439729 z"
       id="path1071" />
    <path
       style="fill:#ffffff;fill-opacity:1;fill-rule:evenodd;stroke:#000000;stroke-width:4.07979631;stroke-linecap:butt;stroke-linejoin:round;stroke-miterlimit:4;stroke-dasharray:none;stroke-opacity:1"
       inkscape:connector-curvature="0"
       d="m 301.49002,9.7124764 a 6.7996607,6.7996607 0 1 1 -13.59932,0 6.7996607,6.7996607 0 1 1 13.59932,0 z"
       id="path1073" />
    <path
       id="path1077"
       style="fill:none;fill-opacity:1;fill-rule:evenodd;stroke:#000000;stroke-width:4.07979631;stroke-linecap:round;stroke-linejoin:miter;stroke-miterlimit:4;stroke-dasharray:none;stroke-opacity:1"
       d="m 281.09104,58.670034 h 27.19864 m -33.99831,10.879457 h 40.79797 M 294.69036,30.111459 V 43.71078 m -6.79966,-6.799661 h 13.59932"
       inkscape:connector-curvature="0" />
    <path
       id="path1081"
       style="fill:#ffffff;fill-opacity:1;fill-rule:evenodd;stroke:#000000;stroke-width:4.07979631;stroke-linecap:round;stroke-linejoin:round;stroke-miterlimit:4;stroke-dasharray:none;stroke-opacity:1"
       d="m 415.72408,15.152205 c 28.55858,2.719864 44.87777,21.758914 43.51783,78.876065 h -62.55688 c 0,-24.478779 27.19865,-17.679118 21.75892,-57.117151"
       inkscape:connector-curvature="0" />
    <path
       id="path1083"
       style="fill:#ffffff;fill-opacity:1;fill-rule:evenodd;stroke:#000000;stroke-width:4.07979631;stroke-linecap:round;stroke-linejoin:round;stroke-miterlimit:4;stroke-dasharray:none;stroke-opacity:1"
       d="m 421.16381,36.911119 c 1.03355,7.914806 -15.09524,20.0454 -21.75891,24.478779 -8.15959,5.439729 -7.67002,11.804211 -13.59932,10.879457 -2.8341,-2.556672 3.83501,-8.268387 0,-8.159593 -2.71987,0 0.51677,3.345433 -2.71987,5.439729 -2.71986,0 -10.88761,2.719864 -10.87945,-10.879457 0,-5.439729 16.31918,-32.638372 16.31918,-32.638372 0,0 5.14055,-5.167742 5.43973,-9.519525 -1.9855,-2.703545 -1.35993,-5.439728 -1.35993,-8.1595928 2.71986,-2.7198643 8.15959,6.7996608 8.15959,6.7996608 h 5.43973 c 0,0 2.12149,-5.4179697 6.79966,-8.1595929 2.71986,0 2.71986,8.1595929 2.71986,8.1595929"
       inkscape:connector-curvature="0" />
    <path
       id="path1085"
       style="fill:#000000;fill-opacity:1;fill-rule:evenodd;stroke:#000000;stroke-width:4.07979631;stroke-linecap:round;stroke-linejoin:round;stroke-miterlimit:4;stroke-dasharray:none;stroke-opacity:1"
       d="m 381.72578,57.310102 a 1.3599321,1.3599321 0 1 1 -2.71986,0 1.3599321,1.3599321 0 1 1 2.71986,0 z"
       inkscape:connector-curvature="0" />
    <path
       id="path1087"
       style="fill:#000000;fill-opacity:1;fill-rule:evenodd;stroke:#000000;stroke-width:4.07970667;stroke-linecap:round;stroke-linejoin:round;stroke-miterlimit:4;stroke-dasharray:none;stroke-opacity:1"
       d="m 396.5028,30.791424 a 1.3599022,4.0797067 30.000727 1 1 -2.3554,-1.359932 1.3599022,4.0797067 30.000727 1 1 2.3554,1.359932 z"
       inkscape:connector-curvature="0" />
    <path
       id="path1091"
       style="fill:#ffffff;fill-opacity:1;fill-rule:evenodd;stroke:#000000;stroke-width:4.07979631;stroke-linecap:butt;stroke-linejoin:round;stroke-miterlimit:4;stroke-dasharray:none;stroke-opacity:1"
       d="M 502.75977,94.02827 H 576.1961 V 85.868677 H 502.75977 Z"
       inkscape:connector-curvature="0" />
    <path
       id="path1093"
       style="fill:#ffffff;fill-opacity:1;fill-rule:evenodd;stroke:#000000;stroke-width:4.07979631;stroke-linecap:butt;stroke-linejoin:round;stroke-miterlimit:4;stroke-dasharray:none;stroke-opacity:1"
       d="M 510.91936,85.868677 V 74.98922 h 57.11715 v 10.879457 z"
       inkscape:connector-curvature="0" />
    <path
       id="path1095"
       style="fill:#ffffff;fill-opacity:1;fill-rule:evenodd;stroke:#000000;stroke-width:4.07979631;stroke-linecap:butt;stroke-linejoin:round;stroke-miterlimit:4;stroke-dasharray:none;stroke-opacity:1"
       d="M 508.1995,26.031662 V 12.432341 h 10.87945 v 5.439728 h 13.59933 v -5.439728 h 13.59932 v 5.439728 h 13.59932 v -5.439728 h 10.87946 v 13.599321"
       inkscape:connector-curvature="0" />
    <path
       style="fill:#ffffff;fill-opacity:1;fill-rule:evenodd;stroke:#000000;stroke-width:4.07979631;stroke-linecap:round;stroke-linejoin:round;stroke-miterlimit:4;stroke-dasharray:none;stroke-opacity:1"
       id="path1097"
       d="m 570.75638,26.031662 -8.1596,8.159593 h -46.23769 l -8.15959,-8.159593"
       inkscape:connector-curvature="0" />
    <path
       id="path1099"
       style="fill:#ffffff;fill-opacity:1;fill-rule:evenodd;stroke:#000000;stroke-width:4.07979631;stroke-linecap:butt;stroke-linejoin:miter;stroke-miterlimit:4;stroke-dasharray:none;stroke-opacity:1"
       d="M 562.59678,34.191255 V 68.189559 H 516.35909 V 34.191255"
       inkscape:connector-curvature="0" />
    <path
       style="fill:#ffffff;fill-opacity:1;fill-rule:evenodd;stroke:#000000;stroke-width:4.07979631;stroke-linecap:round;stroke-linejoin:round;stroke-miterlimit:4;stroke-dasharray:none;stroke-opacity:1"
       id="path1101"
       d="m 562.59678,68.189559 4.0798,6.799661 h -54.39729 l 4.0798,-6.799661"
       inkscape:connector-curvature="0" />
    <path
       id="path1103"
       style="fill:none;fill-opacity:1;fill-rule:evenodd;stroke:#000000;stroke-width:4.07979631;stroke-linecap:round;stroke-linejoin:miter;stroke-miterlimit:4;stroke-dasharray:none;stroke-opacity:1"
       d="m 508.1995,26.031662 h 62.55688"
       inkscape:connector-curvature="0" />
    <path
       id="path1107"
       style="opacity:1;fill:#ffffff;fill-opacity:1;fill-rule:nonzero;stroke:#000000;stroke-width:4.07979631;stroke-linecap:round;stroke-linejoin:miter;stroke-miterlimit:4;stroke-dasharray:none;stroke-opacity:1"
       d="m 660.51193,12.432341 c -6.0109,0 -10.87945,4.868557 -10.87945,10.879457 0,2.420679 0.78876,4.650968 2.12149,6.473277 -5.30373,3.046248 -8.92115,8.730764 -8.92115,15.285637 0,5.521325 2.55667,10.444279 6.55487,13.680918 -8.15959,2.883056 -20.15419,15.095247 -20.15419,36.636572 h 62.55687 c 0,-21.541325 -11.9946,-33.753516 -20.15419,-36.636572 3.9982,-3.236639 6.55487,-8.159593 6.55487,-13.680918 0,-6.554873 -3.61742,-12.239389 -8.92115,-15.285637 1.33273,-1.822309 2.12149,-4.052598 2.12149,-6.473277 0,-6.0109 -4.86856,-10.879457 -10.87946,-10.879457 z"
       inkscape:connector-curvature="0" />
    <path
       id="path1111"
       style="fill:none;fill-opacity:1;fill-rule:evenodd;stroke:#000000;stroke-width:4.07979631;stroke-linecap:round;stroke-linejoin:miter;stroke-miterlimit:4;stroke-dasharray:none;stroke-opacity:1"
       d="M 49.902568,141.97925 V 126.66642"
       inkscape:connector-curvature="0" />
    <path
       id="path1113"
       style="fill:#000000;fill-opacity:1;fill-rule:evenodd;stroke:#000000;stroke-width:4.07979631;stroke-linecap:butt;stroke-linejoin:miter;stroke-miterlimit:4;stroke-dasharray:none;stroke-opacity:1"
       d="m 49.902568,178.34384 c 0,0 12.239389,-20.39898 8.159593,-28.55858 0,0 -2.719865,-6.79966 -8.159593,-6.79966 -5.439729,0 -8.159593,6.79966 -8.159593,6.79966 -4.079797,8.1596 8.159593,28.55858 8.159593,28.55858"
       inkscape:connector-curvature="0" />
    <path
       id="path1115"
       style="fill:#000000;fill-opacity:1;fill-rule:evenodd;stroke:#000000;stroke-width:4.07979631;stroke-linecap:round;stroke-linejoin:round;stroke-miterlimit:4;stroke-dasharray:none;stroke-opacity:1"
       d="m 19.98406,210.98221 c 14.959254,9.51952 42.157897,9.51952 57.117151,0 v -19.03905 c 0,0 24.478779,-12.23939 16.319186,-28.55858 -10.879458,-17.67911 -36.718169,-9.51952 -43.517829,10.87946 v 9.51953 -9.51953 C 40.383043,153.86506 14.544332,145.70547 6.3847389,163.38458 -1.774854,179.70377 19.98406,190.58323 19.98406,190.58323 Z"
       inkscape:connector-curvature="0" />
    <path
       id="path1117"
       style="fill:none;fill-opacity:1;fill-rule:evenodd;stroke:#000000;stroke-width:4.07979631;stroke-linecap:round;stroke-linejoin:miter;stroke-miterlimit:4;stroke-dasharray:none;stroke-opacity:1"
       d="M 43.102907,132.10614 H 56.702228"
       inkscape:connector-curvature="0" />
    <path
       id="path1119"
       style="fill:none;fill-opacity:1;fill-rule:evenodd;stroke:#ffffff;stroke-width:4.07979631;stroke-linecap:round;stroke-linejoin:round;stroke-miterlimit:4;stroke-dasharray:none;stroke-opacity:1"
       d="m 75.741279,190.58323 c 0,0 23.118846,-10.87946 16.400781,-26.24669 -10.553073,-15.91121 -35.439832,-5.03175 -42.239492,12.64737 l 0.0272,5.71171 -0.0272,-5.71171 C 43.102907,159.30479 15.648597,148.42533 7.7365115,164.33654 0.94501035,179.70377 20.936013,188.81532 20.936013,188.81532"
       inkscape:connector-curvature="0" />
    <path
       id="path1121"
       style="fill:none;fill-opacity:1;fill-rule:evenodd;stroke:#ffffff;stroke-width:4.07979631;stroke-linecap:round;stroke-linejoin:round;stroke-miterlimit:4;stroke-dasharray:none;stroke-opacity:1"
       d="m 19.98406,191.94316 c 14.959254,-8.15959 42.157897,-8.15959 57.117151,0 m -57.117151,9.51952 c 14.959254,-8.15959 42.157897,-8.15959 57.117151,0 m -57.117151,9.51953 c 14.959254,-8.15959 42.157897,-8.15959 57.117151,0"
       inkscape:connector-curvature="0" />
    <circle
       style="fill:#000000;fill-opacity:1;fill-rule:evenodd;stroke:none;stroke-width:4.07979631;stroke-linecap:round;stroke-linejoin:round;stroke-miterlimit:4;stroke-dasharray:none;stroke-opacity:1"
       cx="127.41875"
       cy="142.9856"
       r="7.4796267"
       id="circle1125" />
    <circle
       style="fill:#000000;fill-opacity:1;fill-rule:evenodd;stroke:none;stroke-width:4.07979631;stroke-linecap:round;stroke-linejoin:round;stroke-miterlimit:4;stroke-dasharray:none;stroke-opacity:1"
       cx="149.17766"
       cy="134.826"
       r="7.4796267"
       id="circle1127" />
    <circle
       style="fill:#000000;fill-opacity:1;fill-rule:evenodd;stroke:none;stroke-width:4.07979631;stroke-linecap:round;stroke-linejoin:round;stroke-miterlimit:4;stroke-dasharray:none;stroke-opacity:1"
       cx="172.29651"
       cy="132.10614"
       r="7.4796267"
       id="circle1129" />
    <circle
       style="fill:#000000;fill-opacity:1;fill-rule:evenodd;stroke:none;stroke-width:4.07979631;stroke-linecap:round;stroke-linejoin:round;stroke-miterlimit:4;stroke-dasharray:none;stroke-opacity:1"
       cx="195.41536"
       cy="134.826"
       r="7.4796267"
       id="circle1131" />
    <circle
       style="fill:#000000;fill-opacity:1;fill-rule:evenodd;stroke:none;stroke-width:4.07979631;stroke-linecap:round;stroke-linejoin:round;stroke-miterlimit:4;stroke-dasharray:none;stroke-opacity:1"
       cx="217.17427"
       cy="142.9856"
       r="7.4796267"
       id="circle1133" />
    <path
       id="path1137"
       style="fill-opacity:1;fill-rule:evenodd;stroke:#000000;stroke-width:4.07979631;stroke-linecap:butt;stroke-linejoin:round;stroke-miterlimit:4;stroke-dasharray:none;stroke-opacity:1"
       d="m 135.57834,181.0637 c 23.11885,-4.07979 57.11715,-4.07979 73.43633,0 l 6.79967,-33.9983 -20.39899,31.27844 -0.81596,-38.35009 -14.14329,36.99016 -8.15959,-39.43804 -8.1596,39.43804 -14.14329,-36.99016 -0.81596,38.35009 -20.39898,-31.27844 z"
       inkscape:connector-curvature="0" />
    <path
       id="path1139"
       style="fill-opacity:1;fill-rule:evenodd;stroke:#000000;stroke-width:4.07979631;stroke-linecap:butt;stroke-linejoin:round;stroke-miterlimit:4;stroke-dasharray:none;stroke-opacity:1"
       d="m 135.57834,181.0637 c 0,5.43973 4.0798,5.43973 6.79966,10.87946 2.71986,4.0798 2.71986,2.71986 1.35993,9.51952 -4.07979,2.71987 -4.07979,6.79966 -4.07979,6.79966 -4.0798,4.0798 1.35993,6.79967 1.35993,6.79967 17.67912,2.71986 44.87776,2.71986 62.55688,0 0,0 4.07979,-2.71987 0,-6.79967 0,0 1.35993,-4.07979 -2.71987,-6.79966 -1.35993,-6.79966 -1.35993,-5.43972 1.35993,-9.51952 2.71987,-5.43973 6.79966,-5.43973 6.79966,-10.87946 -23.11884,-4.07979 -50.31748,-4.07979 -73.43633,0 z"
       inkscape:connector-curvature="0" />
    <path
       id="path1141"
       style="fill:none;fill-opacity:1;fill-rule:evenodd;stroke:#000000;stroke-width:4.07979631;stroke-linecap:butt;stroke-linejoin:round;stroke-miterlimit:4;stroke-dasharray:none;stroke-opacity:1"
       d="m 141.01807,215.06201 a 95.19525,95.19525 0 0 0 62.55688,0"
       inkscape:connector-curvature="0" />
    <path
       id="path1143"
       style="fill:none;fill-opacity:1;fill-rule:evenodd;stroke:#ffffff;stroke-width:4.07979631;stroke-linecap:round;stroke-linejoin:round;stroke-miterlimit:4;stroke-dasharray:none;stroke-opacity:1"
       d="m 141.01807,189.22329 a 95.19525,95.19525 0 0 1 62.55688,0"
       inkscape:connector-curvature="0" />
    <path
       id="path1145"
       style="fill:none;fill-opacity:1;fill-rule:evenodd;stroke:#ffffff;stroke-width:4.07979631;stroke-linecap:round;stroke-linejoin:round;stroke-miterlimit:4;stroke-dasharray:none;stroke-opacity:1"
       d="m 145.09786,196.02296 h 54.39729"
       inkscape:connector-curvature="0" />
    <path
       id="path1147"
       style="fill:none;fill-opacity:1;fill-rule:evenodd;stroke:#ffffff;stroke-width:4.07979631;stroke-linecap:round;stroke-linejoin:round;stroke-miterlimit:4;stroke-dasharray:none;stroke-opacity:1"
       d="m 142.378,204.18255 a 95.19525,95.19525 0 0 0 59.83701,0"
       inkscape:connector-curvature="0" />
    <path
       id="path1149"
       style="fill:none;fill-opacity:1;fill-rule:evenodd;stroke:#ffffff;stroke-width:4.07979631;stroke-linecap:round;stroke-linejoin:round;stroke-miterlimit:4;stroke-dasharray:none;stroke-opacity:1"
       d="m 139.65814,212.34214 a 95.19525,95.19525 0 0 0 65.27674,0"
       inkscape:connector-curvature="0" />
    <path
       style="fill:#000000;fill-opacity:1;fill-rule:evenodd;stroke:#000000;stroke-width:4.07979631;stroke-linecap:butt;stroke-linejoin:round;stroke-miterlimit:4;stroke-dasharray:none;stroke-opacity:1"
       inkscape:connector-curvature="0"
       d="m 257.97219,208.26234 c 9.22034,-2.63826 27.49783,1.16955 36.71817,-5.43972 9.22034,6.60927 27.49782,2.80146 36.71816,5.43972 0,0 4.48778,1.46873 8.1596,5.43973 -1.84951,2.63827 -4.48778,2.69267 -8.1596,1.35994 -9.22034,-2.63827 -27.49782,1.25113 -36.71816,-2.71987 -9.22034,3.971 -27.49783,0.0816 -36.71817,2.71987 -3.6827,1.33273 -6.31825,1.27833 -8.15959,-1.35994 3.68269,-5.27653 8.15959,-5.43973 8.15959,-5.43973 z"
       id="path1153" />
    <path
       style="fill:#000000;fill-opacity:1;fill-rule:evenodd;stroke:#000000;stroke-width:4.07979631;stroke-linecap:butt;stroke-linejoin:round;stroke-miterlimit:4;stroke-dasharray:none;stroke-opacity:1"
       inkscape:connector-curvature="0"
       d="m 274.29137,197.38289 c 6.79967,6.79966 33.99831,6.79966 40.79797,0 1.35993,-4.0798 0,-5.43973 0,-5.43973 0,-6.79966 -6.79966,-10.87946 -6.79966,-10.87946 14.95925,-4.07979 16.31918,-31.27844 -13.59932,-42.15789 -29.91851,10.87945 -28.55858,38.0781 -13.59932,42.15789 0,0 -6.79967,4.0798 -6.79967,10.87946 0,0 -1.35993,1.35993 0,5.43973 z"
       id="path1155" />
    <path
       style="fill:#000000;fill-opacity:1;fill-rule:evenodd;stroke:#000000;stroke-width:4.07979631;stroke-linecap:butt;stroke-linejoin:round;stroke-miterlimit:4;stroke-dasharray:none;stroke-opacity:1"
       inkscape:connector-curvature="0"
       d="m 301.49002,132.10614 a 6.7996607,6.7996607 0 1 1 -13.59932,0 6.7996607,6.7996607 0 1 1 13.59932,0 z"
       id="path1157" />
    <path
       id="path1161"
       style="fill:none;fill-opacity:1;fill-rule:evenodd;stroke:#ffffff;stroke-width:4.07979631;stroke-linecap:round;stroke-linejoin:miter;stroke-miterlimit:4;stroke-dasharray:none;stroke-opacity:1"
       d="m 281.09104,181.0637 h 27.19864 m -33.99831,10.87946 h 40.79797 m -20.39898,-39.43803 v 13.59932 m -6.79966,-6.79966 h 13.59932"
       inkscape:connector-curvature="0" />
    <path
       id="path1165"
       style="fill:#000000;fill-opacity:1;fill-rule:evenodd;stroke:#000000;stroke-width:4.07979631;stroke-linecap:round;stroke-linejoin:round;stroke-miterlimit:4;stroke-dasharray:none;stroke-opacity:1"
       d="m 415.72408,137.54587 c 28.55858,2.71987 44.87777,21.75892 43.51783,78.87607 h -62.55688 c 0,-24.47878 27.19865,-17.67912 21.75892,-57.11715"
       inkscape:connector-curvature="0" />
    <path
       id="path1167"
       style="fill:#000000;fill-opacity:1;fill-rule:evenodd;stroke:#000000;stroke-width:4.07979631;stroke-linecap:round;stroke-linejoin:round;stroke-miterlimit:4;stroke-dasharray:none;stroke-opacity:1"
       d="m 421.16381,159.30479 c 1.03355,7.9148 -15.09524,20.0454 -21.75891,24.47878 -8.15959,5.43972 -7.67002,11.80421 -13.59932,10.87945 -2.8341,-2.55667 3.83501,-8.26838 0,-8.15959 -2.71987,0 0.51677,3.34543 -2.71987,5.43973 -2.71986,0 -10.88761,2.71986 -10.87945,-10.87946 0,-5.43973 16.31918,-32.63837 16.31918,-32.63837 0,0 5.14055,-5.16774 5.43973,-9.51952 -1.9855,-2.70355 -1.35993,-5.43973 -1.35993,-8.1596 2.71986,-2.71986 8.15959,6.79966 8.15959,6.79966 h 5.43973 c 0,0 2.12149,-5.41797 6.79966,-8.15959 2.71986,0 2.71986,8.15959 2.71986,8.15959"
       inkscape:connector-curvature="0" />
    <path
       id="path1169"
       style="fill:#ffffff;fill-opacity:1;fill-rule:evenodd;stroke:#ffffff;stroke-width:4.07979631;stroke-linecap:round;stroke-linejoin:round;stroke-miterlimit:4;stroke-dasharray:none;stroke-opacity:1"
       d="m 381.72578,179.70377 a 1.3599321,1.3599321 0 1 1 -2.71986,0 1.3599321,1.3599321 0 1 1 2.71986,0 z"
       inkscape:connector-curvature="0" />
    <path
       id="path1171"
       style="fill:#ffffff;fill-opacity:1;fill-rule:evenodd;stroke:#ffffff;stroke-width:4.07970667;stroke-linecap:round;stroke-linejoin:round;stroke-miterlimit:4;stroke-dasharray:none;stroke-opacity:1"
       d="m 396.5028,153.18509 a 1.3599022,4.0797067 30.000727 1 1 -2.3554,-1.35993 1.3599022,4.0797067 30.000727 1 1 2.3554,1.35993 z"
       inkscape:connector-curvature="0" />
    <path
       id="path1173"
       style="fill:#ffffff;fill-opacity:1;fill-rule:evenodd;stroke:none;stroke-width:4.07979631;stroke-linecap:round;stroke-linejoin:round;stroke-miterlimit:4;stroke-dasharray:none;stroke-opacity:1"
       d="m 422.65974,138.63382 -1.22394,3.9438 1.35993,0.40798 c 8.56757,2.71987 15.36724,6.77246 21.48693,18.35909 6.11969,11.58662 8.83956,28.0418 7.47963,55.07725 l -0.136,1.35993 h 6.1197 l 0.13599,-1.35993 c 1.35993,-27.36184 -2.39348,-45.82972 -8.83956,-58.04191 -6.44608,-12.21219 -15.74801,-18.0599 -24.99555,-19.47422 z"
       inkscape:connector-curvature="0" />
    <path
       id="path1177"
       style="fill-opacity:1;fill-rule:evenodd;stroke:#000000;stroke-width:4.07979631;stroke-linecap:butt;stroke-linejoin:round;stroke-miterlimit:4;stroke-dasharray:none;stroke-opacity:1"
       d="m 502.75977,216.42194 h 73.43633 v -8.1596 h -73.43633 z"
       inkscape:connector-curvature="0" />
    <path
       id="path1179"
       style="fill-opacity:1;fill-rule:evenodd;stroke:#000000;stroke-width:4.07979631;stroke-linecap:butt;stroke-linejoin:round;stroke-miterlimit:4;stroke-dasharray:none;stroke-opacity:1"
       d="m 512.27929,197.38289 4.0798,-6.79966 h 46.23769 l 4.0798,6.79966 z"
       inkscape:connector-curvature="0" />
    <path
       id="path1181"
       style="fill-opacity:1;fill-rule:evenodd;stroke:#000000;stroke-width:4.07979631;stroke-linecap:butt;stroke-linejoin:round;stroke-miterlimit:4;stroke-dasharray:none;stroke-opacity:1"
       d="m 510.91936,208.26234 v -10.87945 h 57.11715 v 10.87945 z"
       inkscape:connector-curvature="0" />
    <path
       id="path1183"
       style="fill-opacity:1;fill-rule:evenodd;stroke:#000000;stroke-width:4.07979631;stroke-linecap:butt;stroke-linejoin:miter;stroke-miterlimit:4;stroke-dasharray:none;stroke-opacity:1"
       d="m 516.35909,190.58323 v -35.35824 h 46.23769 v 35.35824 z"
       inkscape:connector-curvature="0" />
    <path
       id="path1185"
       style="fill-opacity:1;fill-rule:evenodd;stroke:#000000;stroke-width:4.07979631;stroke-linecap:butt;stroke-linejoin:round;stroke-miterlimit:4;stroke-dasharray:none;stroke-opacity:1"
       d="m 516.35909,155.22499 -8.15959,-6.79966 h 62.55688 l -8.1596,6.79966 z"
       inkscape:connector-curvature="0" />
    <path
       id="path1187"
       style="fill-opacity:1;fill-rule:evenodd;stroke:#000000;stroke-width:4.07979631;stroke-linecap:butt;stroke-linejoin:round;stroke-miterlimit:4;stroke-dasharray:none;stroke-opacity:1"
       d="m 508.1995,148.42533 v -13.59932 h 10.87945 v 5.43973 h 13.59933 v -5.43973 h 13.59932 v 5.43973 h 13.59932 v -5.43973 h 10.87946 v 13.59932 z"
       inkscape:connector-curvature="0" />
    <path
       id="path1189"
       style="fill:none;fill-opacity:1;fill-rule:evenodd;stroke:#ffffff;stroke-width:2.71986437;stroke-linecap:round;stroke-linejoin:miter;stroke-miterlimit:4;stroke-dasharray:none;stroke-opacity:1"
       d="m 510.91936,206.90241 h 57.11715 v 0"
       inkscape:connector-curvature="0" />
    <path
       id="path1191"
       style="fill:none;fill-opacity:1;fill-rule:evenodd;stroke:#ffffff;stroke-width:2.71986437;stroke-linecap:round;stroke-linejoin:miter;stroke-miterlimit:4;stroke-dasharray:none;stroke-opacity:1"
       d="m 513.63923,196.02296 h 51.67742"
       inkscape:connector-curvature="0" />
    <path
       id="path1193"
       style="fill:none;fill-opacity:1;fill-rule:evenodd;stroke:#ffffff;stroke-width:2.71986437;stroke-linecap:round;stroke-linejoin:miter;stroke-miterlimit:4;stroke-dasharray:none;stroke-opacity:1"
       d="m 516.35909,190.58323 h 46.23769"
       inkscape:connector-curvature="0" />
    <path
       id="path1195"
       style="fill:none;fill-opacity:1;fill-rule:evenodd;stroke:#ffffff;stroke-width:2.71986437;stroke-linecap:round;stroke-linejoin:miter;stroke-miterlimit:4;stroke-dasharray:none;stroke-opacity:1"
       d="m 516.35909,155.22499 h 46.23769"
       inkscape:connector-curvature="0" />
    <path
       id="path1197"
       style="fill:none;fill-opacity:1;fill-rule:evenodd;stroke:#ffffff;stroke-width:2.71986437;stroke-linecap:round;stroke-linejoin:miter;stroke-miterlimit:4;stroke-dasharray:none;stroke-opacity:1"
       d="m 508.1995,148.42533 h 62.55688"
       inkscape:connector-curvature="0" />
    <path
       id="path1201"
       style="opacity:1;fill:#000000;fill-opacity:1;fill-rule:nonzero;stroke:#000000;stroke-width:4.07979631;stroke-linecap:round;stroke-linejoin:miter;stroke-miterlimit:4;stroke-dasharray:none;stroke-opacity:1"
       d="m 660.51193,134.82601 c -6.0109,0 -10.87945,4.86856 -10.87945,10.87946 0,2.42068 0.78876,4.65096 2.12149,6.47327 -5.30373,3.04625 -8.92115,8.73077 -8.92115,15.28564 0,5.52132 2.55667,10.44428 6.55487,13.68092 -8.15959,2.88305 -20.15419,15.09524 -20.15419,36.63657 h 62.55687 c 0,-21.54133 -11.9946,-33.75352 -20.15419,-36.63657 3.9982,-3.23664 6.55487,-8.1596 6.55487,-13.68092 0,-6.55487 -3.61742,-12.23939 -8.92115,-15.28564 1.33273,-1.82231 2.12149,-4.05259 2.12149,-6.47327 0,-6.0109 -4.86856,-10.87946 -10.87946,-10.87946 z"
       inkscape:connector-curvature="0" />
  </g>
</svg>
