<?xml version="1.0" encoding="UTF-8" standalone="no"?>
<!-- Created with Inkscape (http://www.inkscape.org/) -->

<svg
   xmlns:dc="http://purl.org/dc/elements/1.1/"
   xmlns:cc="http://creativecommons.org/ns#"
   xmlns:rdf="http://www.w3.org/1999/02/22-rdf-syntax-ns#"
   xmlns:svg="http://www.w3.org/2000/svg"
   xmlns="http://www.w3.org/2000/svg"
   xmlns:sodipodi="http://sodipodi.sourceforge.net/DTD/sodipodi-0.dtd"
   xmlns:inkscape="http://www.inkscape.org/namespaces/inkscape"
   width="1024"
   height="1024"
   viewBox="0 0 270.93332 270.93334"
   version="1.1"
   id="svg8"
   inkscape:version="0.92.4 (5da689c313, 2019-01-14)"
   sodipodi:docname="select_piece.svg">
  <defs
     id="defs2" />
  <sodipodi:namedview
     id="base"
     pagecolor="#ffffff"
     bordercolor="#666666"
     borderopacity="1.0"
     inkscape:pageopacity="0.0"
     inkscape:pageshadow="2"
     inkscape:zoom="0.35355339"
     inkscape:cx="-33.687759"
     inkscape:cy="377.67611"
     inkscape:document-units="mm"
     inkscape:current-layer="svg8"
     showgrid="false"
     inkscape:window-width="1920"
     inkscape:window-height="1027"
     inkscape:window-x="-8"
     inkscape:window-y="-8"
     inkscape:window-maximized="1"
     units="px"
     showguides="true"
     inkscape:guide-bbox="true" />
  <metadata
     id="metadata5">
    <rdf:RDF>
      <cc:Work
         rdf:about="">
        <dc:format>image/svg+xml</dc:format>
        <dc:type
           rdf:resource="http://purl.org/dc/dcmitype/StillImage" />
        <dc:title></dc:title>
      </cc:Work>
    </rdf:RDF>
  </metadata>
  <g
     inkscape:label="Livello 1"
     inkscape:groupmode="layer"
     id="layer1"
     transform="translate(0,-26.06663)">
    <path
       d="m 381.72461,39.738281 c -2.26333,1.615681 -1.08941,-2.173218 -2.27149,1.9375 l -4.2871,21.654297 a 2.4072558,2.4072558 0 0 1 -2.23633,1.9375 l -8.64258,0.451172 a 2.4072558,2.4072558 0 0 1 -2,-0.896484 L 345.37109,43.789062 a 2.4072558,2.4072558 0 0 1 -0.004,-0.0039 c -0.88464,-1.105359 -1.8952,-1.127916 -2.86524,-0.693359 -0.97003,0.434556 -1.62475,1.201748 -1.38867,2.597656 a 2.4072558,2.4072558 0 0 1 0,0.002 l 3.46094,20.539063 a 2.4072558,2.4072558 0 0 1 -0.38477,1.757812 l -19.39843,28.392578 c -0.22626,0.335439 -0.36521,0.722212 -0.40235,1.125 a 2.4072558,2.4072558 0 0 1 0,0.0039 l -1.58398,16.867184 a 2.4072558,2.4072558 0 0 1 -0.48438,1.23633 c -0.79123,1.03587 -7.97221,10.42225 -15.97461,22.42578 -4.21036,6.31566 -8.41784,13.03997 -11.62109,19.09375 -3.25011,6.14195 -5.52539,10.92452 -5.52539,15.47852 0,13.66682 5.8081,23.20125 13.45312,28.59375 1.71813,1.21184 5.13652,3.52201 9.5,2.83398 0.15407,-0.3642 0.36638,-0.88921 1.72266,-1.34765 a 2.4072558,2.4072558 0 0 1 3.17773,2.27929 c 0,0.1286 -0.0165,0.0302 -0.0215,0.12305 0.0567,0.88003 0.25896,1.7892 0.77539,2.53125 0.48159,0.69066 1.51044,1.3372 2.09375,1.53516 1.6904,0.57368 1.99036,0.30988 3.40234,0.36914 4.20287,0.17583 8.85526,0.7566 13.2793,-0.37305 2.13745,-0.54578 4.28578,-1.61883 5.8457,-3.44727 a 2.4072558,2.4072558 0 0 1 0.002,0 c 1.55063,-1.81728 2.48848,-4.38996 2.64843,-7.42773 0.15264,-2.90406 -0.0533,-5.41593 -0.31054,-7.48633 -0.25702,-2.06882 -0.58761,-3.59022 -0.6211,-5.04492 -2e-5,-0.001 3e-5,-0.003 0,-0.004 -0.0152,-0.58125 -0.0135,-1.04755 0.0996,-1.59179 0.11378,-0.54757 0.38871,-1.07653 0.53321,-1.31641 a 2.4072558,2.4072558 0 0 1 0.0137,-0.0215 c 0.54373,-0.88236 1.53297,-1.83359 3.58984,-2.99024 4.11136,-2.31273 10.55979,-3.86276 17.47266,-5.50195 6.90108,-1.6363 14.06062,-3.30549 19.89648,-6.37695 6.56122,-3.45335 7.27344,-6.00986 11.33399,-10.7168 a 2.4072558,2.4072558 0 0 1 4.22461,1.72656 l -1.44141,22.45703 a 2.4072558,2.4072558 0 0 1 -0.082,0.48828 c 0.0885,-0.31923 -0.0561,0.23366 -0.18164,0.59375 -0.12553,0.3601 -0.31686,0.83542 -0.60742,1.43164 -0.58112,1.19244 -1.55992,2.87074 -3.22852,5.11719 -3.48974,4.69789 -9.77497,11.16618 -20.875,17.82617 -24.32678,14.59616 -22.14844,49.79297 -22.14844,49.79297 a 2.4072558,2.4072558 0 0 1 0.004,0.041 c 0.0664,1.30348 1.09906,2.28696 2.4043,2.28711 h 153.14843 a 2.4072558,2.4072558 0 0 1 0.01,0 c 1.35105,0.005 2.4038,-1.03261 2.41797,-2.38281 a 2.4072558,2.4072558 0 0 1 0,-0.002 c 0.47048,-42.29803 0.84639,-86.63715 -12.70313,-122.10351 C 484.70637,99.638101 457.03586,73.763656 404.09375,68.027344 a 2.4072558,2.4072558 0 0 1 -1.89844,-1.328125 c -6.65177,-13.483472 -18.63454,-26.187075 -18.73633,-26.294922 -0.46751,-0.445458 -1.08895,-0.686624 -1.73437,-0.666016 z"
       transform="translate(-286.80538,-11.180484)"
       inkscape:original="M 381.64062 37.330078 C 379.40801 37.411142 377.524 39.016924 377.0918 41.208984 L 372.80469 62.863281 L 364.16211 63.314453 L 347.24609 42.28125 C 344.14267 38.403515 337.91202 41.194643 338.74023 46.091797 L 342.20117 66.630859 L 322.79492 95.035156 C 322.34256 95.705798 322.06646 96.47963 321.99219 97.285156 L 320.4082 114.15234 C 319.6245 115.17834 312.39365 124.62833 304.34375 136.70312 C 300.10675 143.05873 295.86336 149.83601 292.59766 156.00781 C 289.33176 162.17961 286.79297 167.29153 286.79297 172.61133 C 286.79297 186.97033 292.98672 197.33227 301.26562 203.17188 C 303.03882 204.42257 307.54032 207.66261 313.32422 206.34961 C 313.79202 206.24291 314.18467 205.1268 314.64648 204.9707 C 314.64648 205.0107 314.60156 205.09917 314.60156 205.13867 C 314.66456 206.33797 314.95818 207.7472 315.83008 209 C 316.70238 210.2528 318.07294 211.08175 319.12695 211.43945 C 321.23465 212.15475 322.38387 211.89929 323.20117 211.93359 C 327.22407 212.10189 332.18953 212.76198 337.17773 211.48828 C 339.67203 210.85138 342.29787 209.57108 344.25977 207.27148 C 346.22187 204.97198 347.30022 201.8685 347.48242 198.4082 C 347.80732 192.2267 346.59913 187.73481 346.55273 185.69141 C 346.52573 184.66961 346.6161 184.45478 346.8418 184.08008 C 347.0727 183.70538 347.7264 182.95633 349.5625 181.92383 C 353.0756 179.94763 359.52298 178.29912 366.41016 176.66602 C 373.29732 175.03302 380.64608 173.35542 386.87305 170.07812 C 393.83334 166.41473 395.048 163.27743 398.9082 158.80273 L 397.4668 181.25977 C 397.4298 181.39317 397.02788 183.31467 393.83789 187.60938 C 390.54129 192.04727 384.51129 198.29364 373.65625 204.80664 C 347.83891 220.29714 350.3457 256.82812 350.3457 256.82812 C 350.47608 259.38817 352.59094 261.39816 355.1543 261.39844 L 508.30273 261.39844 C 510.94907 261.40874 513.10895 259.28098 513.13672 256.63477 C 513.60722 214.33537 514.06709 169.74483 500.27539 133.64453 C 486.69399 98.097094 457.98772 71.446066 404.35352 65.634766 C 397.43292 51.606366 385.14453 38.677734 385.14453 38.677734 C 384.2075 37.773407 382.94406 37.287106 381.64258 37.330078 L 381.64062 37.330078 z "
       style="fill:#ffffff"
       sodipodi:type="inkscape:offset"
       inkscape:radius="-2.4070151" />
    <path
       style="color:#000000"
       d="m 94.848894,26.069117 a 4.8140473,4.8140473 0 0 0 -4.550373,3.8797 l -4.287076,21.6548 -8.642951,0.4513 -16.9165,-21.0343 a 4.8140473,4.8140473 0 0 0 -8.5052,3.8108 l 3.4598,20.5391 -19.4047,28.405059 a 4.8140473,4.8140473 0 0 0 -0.8027,2.249988 l -1.5858,16.866226 c -0.7837,1.026 -8.0141,10.4763 -16.064,22.5511 -4.237,6.3556 -8.4797992,13.1326 -11.7454974,19.3044 C 2.5379987,150.91909 0,156.03049 0,161.35029 c 0,14.359 6.1929966,24.7216 14.471894,30.5612 1.7732,1.2507 6.2753,4.4907 12.0592,3.1777 0.4678,-0.1067 0.8606,-1.2228 1.3224,-1.3789 0,0.04 -0.046,0.1297 -0.046,0.1692 0.063,1.1993 0.3566,2.6081 1.2285,3.8609 0.8723,1.2528 2.2429,2.0804 3.2969,2.4381 2.1077,0.7153 3.2565,0.4609 4.0738,0.4952 4.0229,0.1683 8.9886,0.8287 13.9768,-0.445 2.4943,-0.6369 5.1206,-1.9186 7.0825,-4.2182 1.9621,-2.2995 3.0395,-5.4021 3.2217,-8.8624 0.3249,-6.1815 -0.8815,-10.6737 -0.9279,-12.7171 -0.027,-1.0218 0.063,-1.2361 0.2887,-1.6108 0.2309,-0.3747 0.8842,-1.1236 2.7203,-2.1561 3.5131,-1.9762 9.9602,-3.6255 16.847387,-5.2586 6.887161,-1.633 14.236819,-3.31 20.463779,-6.5873 6.9603,-3.6634 8.1737,-6.8008 12.0339,-11.2755 l -1.4415,22.457 c -0.037,0.1334 -0.439,2.0545 -3.629,6.3492 -3.2966,4.4379 -9.326781,10.6854 -20.181821,17.1984 -25.817345,15.4905 -23.309345,52.0216 -23.309345,52.0216 a 4.8140473,4.8140473 0 0 0 4.8073,4.5692 H 221.50966 a 4.8140473,4.8140473 0 0 0 4.8326,-4.7635 c 0.4705,-42.2994 0.9303,-86.89 -12.8614,-122.9903 -13.5814,-35.547432 -42.2861,-62.199073 -95.9203,-68.010373 -6.9206,-14.0284 -19.210384,-26.9572 -19.210384,-26.9572 a 4.8140473,4.8140473 0 0 0 -3.503882,-1.3474 z m 2.745085,16.5529 c 4.390481,4.8585 9.372681,9.2255 12.817481,17.8378 a 4.8140473,4.8140473 0 0 0 4.0051,3.0085 c 52.5696,4.9771 77.2521,28.852511 90.06,62.375673 12.3239,32.256 12.5435,73.8982 12.1342,114.6544 H 73.695494 c 0.1214,-6.4773 1.1511,-28.5279 18.119818,-38.7091 11.836348,-7.1019 18.874148,-14.1973 22.952048,-19.6868 4.0779,-5.4895 5.3338,-9.8778 5.3338,-9.8778 a 4.8140473,4.8140473 0 0 0 0.1386,-0.9213 l 2.2752,-35.1553 a 4.8140473,4.8140473 0 0 0 -8.7624,-3.0524 c 0,0 -9.0726,12.4174 -18.144769,17.1922 -4.551276,2.3955 -11.350537,4.1311 -18.219797,5.76 -6.8696,1.6289 -13.7663,3.1007 -19.3294,6.23 -2.703,1.5204 -4.8224,3.2478 -6.2052,5.4968 -1.3828,2.249 -1.7524,4.7961 -1.7048,6.8944 0.097,4.1967 1.1633,7.3618 0.9218,11.9587 -0.097,1.9289 -0.5375,2.6777 -0.9218,3.1276 -0.3828,0.4499 -0.9364,0.8357 -2.1309,1.1407 -2.0708,0.5288 -5.9292,0.2997 -9.715,0.1379 0.343,-1.339 0.9473,-4.448 4.7886,-13.1433 a 4.8140473,4.8140473 0 0 0 -8.6745,-4.1492 c -4.801,9.3921 -8.5168,11.6233 -10.022,11.965 -1.5051,0.3416 -2.6103,-0.4119 -4.3811,-1.6609 -5.8965,-4.1592 -10.3728995,-10.9591 -10.3728995,-22.6952 0,-1.2039 1.6531995,-6.4149 4.6629995,-12.1029 3.0099,-5.688 7.1265,-12.2816 11.2568,-18.4771 8.2607,-12.391 16.5591,-23.2154 16.5591,-23.2154 a 4.8140473,4.8140473 0 0 0 0.9716,-2.4632 l 1.5857,-16.935138 19.7808,-28.950335 a 4.8140473,4.8140473 0 0 0 0.7774,-3.5287 l -0.7086,-4.262 6.8944,8.5742 a 4.8140473,4.8140473 0 0 0 4.005,1.7988 l 14.847927,-0.7835 a 4.8140473,4.8140473 0 0 0 4.481373,-3.8608 z M 69.665394,94.994513 c -3.2421,-0.1473 -11.1811,3.144382 -14.6851,7.602677 -1.1679,1.4867 -1.3098,6.2864 -1.3098,6.2864 0,0 -0.1665,2.1802 1.203,2.4068 1.3696,0.2267 1.7173,-1.9272 3.861,-3.2591 2.1435,-1.3319 6.2562,0.61 8.3235,-1.5043 2.1459,-2.195 0.4143,-3.3194 1.6232,-7.120004 0.6779,-2.131588 4.0214,-2.785282 2.0621,-4.130376 -0.2453,-0.1682 -0.6145,-0.260997 -1.0782,-0.282097 z m -46.5749,62.827077 c -1.4409,-0.6814 -5.847,5.2095 -6.2927,7.634 -0.6733,3.6618 0.2742,5.5622 1.185,6.5058 0.9109,0.9436 2.708,1.8319 4.0552,1.6046 1.3659,-0.2306 3.4232,-1.5489 3.9109,-2.7829 0.4,-1.0092 0.3413,-3.2991 -0.4072,-4.1304 -0.7484,-0.8311 -2.7469,0.2746 -3.6853,-1.3475 -0.9387,-1.6223 3.7801,-6.5481 1.2347,-7.4836 z"
       inkscape:connector-curvature="0" />
    <path
       style="fill:#ffffff;stroke:#000000;stroke-width:9.26041667;stroke-miterlimit:4;stroke-dasharray:none;stroke-linecap:round;stroke-linejoin:round"
       d="m 147.74967,102.29843 118.55401,114.24458 -47.31156,6.14316 23.56408,55.19685 -33.28312,14.48688 -23.83917,-55.28854 -37.86762,30.44078 z"
       inkscape:connector-curvature="0" />
  </g>
</svg>
