<!-- Generated by IcoMoon.io -->
<svg version="1.1" xmlns="http://www.w3.org/2000/svg" width="128" height="128" viewBox="0 0 128 128">
<title>uni41</title>
<path fill="#333" d="M56.8 10.799c0 3.029 1.919 5.631 4.591 6.686 0 0 0.057 0.253 0.057 0.253s-7.332 33.584-7.332 33.584c0 0-15.099-30.863-15.099-30.863 1.724-1.32 2.861-3.374 2.861-5.692 0-3.948-3.248-7.195-7.195-7.195s-7.195 3.248-7.195 7.195c0 3.572 2.668 6.547 6.098 7.085 0 0 2.075 34.123 2.075 34.123s-22.983-24.934-22.983-24.934c1.053-1.253 1.714-2.843 1.715-4.591 0.002-3.95-3.246-7.198-7.196-7.198s-7.197 3.249-7.195 7.198c0.001 3.948 3.248 7.195 7.195 7.195 0.226 0 0.439-0.047 0.66-0.068 0 0 18.976 47.154 18.976 47.154-0.324 0.406-0.624 0.824-0.877 1.263-0.493 0.857-0.838 1.778-0.994 2.747 0 0 0 0.002 0 0.002-0.044 0.281-0.066 0.568-0.078 0.858 0 0 0 0.006 0 0.006s-0.050 0.188-0.050 0.188c0 0 0.003 0.065 0.003 0.065 0 0.008-0.006 0.011-0.006 0.020 0 0 0 0.159 0 0.159s0.006 0.052 0.006 0.052c0 0 0 0.003 0 0.003-0.003 0.058-0.006-0.048-0.006 0.055 0 0 0 21.969 0 21.969-0.001 0.698-0.011 1.728 0.164 2.468s0.443 1.478 0.839 2.166c0.328 0.572 0.722 1.115 1.169 1.63 0.224 0.257 0.463 0.505 0.711 0.747 0.248 0.241 0.507 0.477 0.776 0.701 2.202 1.841 5.128 3.324 8.64 4.566 4.39 1.552 9.709 2.706 15.615 3.354 3.976 0.403 7.518 0.592 11.193 0.594 4.716 0.007 10.101-0.395 14.363-1.002 2.175-0.333 4.309-0.721 6.38-1.201 3.373-0.798 6.643-1.805 9.741-3.267 0.243-0.115 0.493-0.226 0.727-0.344 2.487-1.285 4.95-2.9 6.53-5.215 0.182-0.27 0.349-0.548 0.5-0.831 0.464-0.868 0.707-1.809 0.85-2.323 0.152-0.546 0.139-1.397 0.14-5.14s0.001-18.087 0.001-18.39c0.001-0.516 0.004-0.463 0.001-0.907-0.003-0.377-0.112-1.125-0.156-1.534-0.161-0.665-0.379-1.313-0.705-1.922-0.151-0.283-0.318-0.561-0.5-0.831-0.185-0.275-0.391-0.541-0.607-0.799 0 0 18.94-47.059 18.94-47.059 0.222 0.021 0.435 0.068 0.662 0.068 3.948 0 7.195-3.248 7.196-7.195 0.003-3.949-3.246-7.198-7.196-7.198s-7.198 3.249-7.195 7.198c0.001 1.748 0.663 3.336 1.715 4.588 0 0-22.986 24.938-22.986 24.938s2.075-34.123 2.075-34.123c3.432-0.537 6.101-3.511 6.101-7.085-0.001-3.948-3.248-7.195-7.195-7.195s-7.195 3.248-7.195 7.195c0 2.317 1.138 4.369 2.86 5.689 0 0-15.102 30.867-15.102 30.867s-7.319-33.581-7.319-33.581c0 0 0.056-0.259 0.056-0.259 2.668-1.057 4.581-3.658 4.581-6.683 0-3.948-3.248-7.195-7.2-7.195s-7.2 3.247-7.2 7.195c0 0 0 0 0 0M63.995 8.025c1.558 0.001 2.773 1.216 2.773 2.773s-1.215 2.773-2.773 2.773c-1.557-0.001-2.773-1.215-2.773-2.773s1.215-2.773 2.773-2.773c0 0 0 0 0 0M34.681 11.994c1.557 0 2.773 1.215 2.773 2.773s-1.215 2.773-2.773 2.773c-1.558 0-2.773-1.215-2.773-2.773s1.215-2.773 2.773-2.773c0 0 0 0 0 0M93.309 11.994c1.557 0 2.773 1.215 2.773 2.773s-1.215 2.773-2.773 2.773c-1.558 0-2.773-1.215-2.773-2.773s1.215-2.773 2.773-2.773c0 0 0 0 0 0M7.194 23.673c1.558 0 2.774 1.218 2.773 2.776 0 1.558-1.215 2.773-2.773 2.773s-2.773-1.215-2.773-2.773c-0.002-1.558 1.215-2.776 2.773-2.776 0 0 0 0 0 0M120.795 23.673c1.558 0 2.774 1.218 2.773 2.776s-1.215 2.773-2.773 2.773c-1.557 0-2.773-1.215-2.773-2.773-0.002-1.558 1.214-2.776 2.773-2.776 0 0 0 0 0 0M63.998 29.45c0 0 8.047 36.932 8.047 36.932s16.738-34.192 16.738-34.192c0 0-2.283 37.468-2.283 37.468s24.385-26.46 24.385-26.46c0 0-13.735 34.133-13.735 34.133-1.831-1.138-3.971-2.129-6.416-2.993-8.438-2.754-18.837-3.874-26.676-3.935-9.056 0.099-18.681 1.126-26.808 3.948-2.442 0.864-4.58 1.855-6.41 2.991 0 0-13.751-34.156-13.751-34.156s24.399 26.473 24.399 26.473c0 0-2.27-37.454-2.27-37.454s16.726 34.178 16.726 34.178c0 0 8.054-36.932 8.054-36.932M89.072 79.038c3.136 1.109 5.588 2.421 7.104 3.689 1.49 1.246 1.961 2.262 1.977 3.094-0.002 0.010-0.001 0.023-0.002 0.033 0.025 0.474 0.013 0.948 0.025 1.422 0 0-4.257 2.334-4.257 2.334-1.296 0.711-0.936 1.487 0 2.63 0 0 4.257 5.195 4.257 5.195s0 3.578 0 3.578c-2.031-1.434-4.517-2.649-7.439-3.682-7.024-2.484-16.425-3.949-26.808-3.949-10.28 0.002-19.606 1.44-26.61 3.883-3.004 1.048-5.557 2.287-7.634 3.754 0 0 0-3.588 0-3.588s4.25-5.192 4.25-5.192c0.937-1.143 1.296-1.92 0-2.63 0 0-4.25-2.331-4.25-2.331s0-0.361 0-0.361c0.003-0.356 0.004-0.712 0.006-1.068 0.006-0.837 0.483-1.864 1.987-3.12 1.516-1.267 3.968-2.58 7.104-3.689 6.272-2.218 15.239-3.663 25.144-3.664s18.871 1.443 25.144 3.661c0 0 0 0 0 0M61.533 78.665c0 0-7.361 4.036-7.361 4.036-1.296 0.71-1.296 1.907 0 2.617 0 0 7.361 4.036 7.361 4.036 1.296 0.71 3.49 0.717 4.786 0.006 0 0 7.361-4.036 7.361-4.036 1.296-0.711 1.296-1.92 0-2.63 0 0-7.361-4.036-7.361-4.036-1.515-0.668-3.378-0.741-4.786 0.007 0 0 0 0 0 0M63.926 98.368c9.906 0 18.873 1.445 25.145 3.663 3.136 1.109 5.588 2.421 7.104 3.689 1.453 1.214 1.93 2.209 1.865 3.171s-0.427 1.7-1.247 2.531c-2.090 1.702-4.246 2.904-6.404 3.76-8.692 3.142-17.825 4.139-26.459 4.176-8.178-0.011-17.657-1.073-25.145-3.663-3.136-1.109-5.588-2.421-7.104-3.689-1.481-1.238-1.953-2.248-1.919-3.19s0.547-1.971 2.052-3.194c1.551-1.261 4.018-2.557 7.15-3.65 6.265-2.186 15.162-3.603 24.97-3.604 0 0-0.007 0-0.007 0"></path>
</svg>
