<!-- Generated by IcoMoon.io -->
<svg version="1.1" xmlns="http://www.w3.org/2000/svg" width="128" height="128" viewBox="0 0 128 128">
<title>uni42</title>
<path fill="#333" d="M48.548-0.031c0 0 0 2.78 0 2.78s0 27.462 0 27.462c0 0 6.703 0 6.703 0-0.2 0.137-0.399 0.273-0.597 0.416-0.172 0.126-0.343 0.256-0.514 0.389-2.369 1.816-4.637 4.228-6.776 7.238-0.645-0.556-1.312-1.111-2.003-1.666-5.382-4.33-12.419-6.608-19.339-6.679s-13.845 2.090-18.683 7.047c-6.004 6.152-6.852 14.122-5.655 20.769s4.133 12.108 6.703 14.945c3.593 3.965 10.474 9.64 13.924 12.417-0.133 0.568-0.222 1.147-0.222 1.75 0 0 0 0.059 0 0.059s0.003 0.062 0.003 0.062c0.006 0.139 0.027 0.275 0.040 0.413-0.020 0.136-0.047 0.094-0.047 0.278 0 0 0 23.487 0 23.487 0 0.111 0.004-0.007 0.007 0.055 0 0 0 0.003 0 0.003s-0.007 0.053-0.007 0.053c0 0 0 0.17 0 0.17 0 0.008 0.007 0.016 0.007 0.024 0 0-0.003 0.070-0.003 0.070s0.054 0.201 0.054 0.201c0 0 0 0.007 0 0.007 0.013 0.309 0.033 0.616 0.083 0.917 0 0 0 0.003 0 0.003 0.166 1.036 0.536 2.020 1.062 2.937 0.351 0.611 0.771 1.192 1.25 1.742 0.239 0.276 0.495 0.54 0.76 0.799 0.265 0.258 0.542 0.509 0.83 0.75 2.354 1.967 5.483 3.553 9.237 4.881 4.693 1.659 10.38 2.894 16.694 3.586 2.526 0.276 5.153 0.466 7.856 0.562 1.352 0.048 2.723 0.073 4.11 0.073 1.35 0 2.683-0.024 3.999-0.070 0.014-0.001 0.028-0.003 0.041-0.003 1.304-0.045 2.588-0.113 3.854-0.201 0.892-0.063 1.76-0.146 2.631-0.229 2.446-0.212 4.807-0.547 9.497-1.495s9.894-2.159 14.882-5.066c2.014-1.23 4.249-3.016 5.447-4.728 0.639-1.022 1.257-2.17 1.443-3.387 0.081-0.579 0.146-1.108 0.146-1.387 0-1.448 0.005-23.753 0.005-23.753 0-0.118-0.045-0.173-0.055-0.281 0.012-0.096 0.033-0.191 0.041-0.288 0 0 0.010-0.121 0.010-0.121s0-0.122 0-0.122c0-0.602-0.089-1.182-0.222-1.749 3.45-2.777 10.331-8.452 13.923-12.418 2.57-2.837 5.507-8.297 6.703-14.944s0.348-14.618-5.655-20.77c-4.838-4.957-11.763-7.118-18.683-7.047s-13.957 2.349-19.339 6.679c-0.691 0.556-1.358 1.111-2.003 1.666-2.138-3.010-4.406-5.422-6.776-7.238-0.171-0.132-0.341-0.262-0.513-0.389-0.198-0.143-0.398-0.279-0.597-0.416 0 0 6.609 0 6.609 0s0-30.243 0-30.243c0 0-30.866 0-30.866 0M57.984 5.519c0 0 12.001 0 12.001 0s-5.999 5.846-5.999 5.846c0 0-6.002-5.846-6.002-5.846M73.882 9.171c0 0 0 11.841 0 11.841s-6.075-5.918-6.075-5.918c0 0 6.075-5.922 6.075-5.922M54.099 9.182c0 0 6.065 5.909 6.065 5.909s-6.065 5.912-6.065 5.912c0 0 0-11.82 0-11.82M63.985 18.819c0 0 5.995 5.842 5.995 5.842s-11.994 0-11.994 0c0 0 5.998-5.842 5.998-5.842M64.031 32.638c1.374 0.014 2.653 0.377 3.856 0.923 3.76 1.685 6.838 5.62 8.772 8.519-7.076 7.155-10.682 14.034-12.365 19.516-0.105 0.344-0.173 0.659-0.264 0.993-0.091-0.334-0.158-0.649-0.264-0.993-1.682-5.483-5.289-12.361-12.365-19.516 2.534-3.499 5-6.81 8.772-8.519 1.215-0.563 2.556-0.918 3.857-0.923 0 0 0 0 0 0M25.97 35.248c5.771 0.060 11.744 2.025 16.045 5.485 10.527 8.469 14.845 16.544 16.649 22.422 0.988 3.22 1.214 5.615 1.232 7.203-9.453 0.338-17.961 1.827-24.525 4.148-3.755 1.328-6.883 2.913-9.237 4.881-0.383 0.32-0.74 0.66-1.083 1.010-3.154-2.561-9.535-7.803-12.712-11.31-1.469-1.622-4.406-6.756-5.405-12.306s-0.374-11.388 4.225-16.101c3.586-3.674 9.041-5.492 14.812-5.433 0 0 0 0 0 0M102.091 35.248c5.772-0.060 11.227 1.758 14.813 5.433 4.598 4.712 5.224 10.55 4.224 16.101s-3.935 10.684-5.404 12.306c-3.177 3.507-9.558 8.749-12.713 11.31-0.343-0.35-0.7-0.691-1.083-1.010-2.355-1.968-5.483-3.553-9.237-4.881-6.565-2.321-15.073-3.81-24.525-4.148 0.019-1.588 0.244-3.984 1.232-7.203 1.803-5.878 6.122-13.953 16.648-22.422 4.301-3.46 10.273-5.425 16.045-5.485 0 0 0 0 0 0M64.031 75.618c10.591 0 20.177 1.545 26.883 3.916 3.353 1.185 5.974 2.589 7.595 3.944 1.593 1.332 2.096 2.419 2.114 3.308-0.002 0.011-0.002 0.021-0.003 0.031 0 0-0.138 0.743-0.138 0.743s0.163 0.424 0.163 0.424c0 0 0 0.354 0 0.354s-4.551 2.496-4.551 2.496c-1.385 0.759-1.001 1.59 0 2.812 0 0 4.551 5.554 4.551 5.554s0 3.826 0 3.826c-2.172-1.533-4.83-2.832-7.953-3.937-7.509-2.655-17.559-4.221-28.66-4.221-10.99 0.002-20.96 1.54-28.448 4.152-3.212 1.12-5.941 2.445-8.162 4.013 0 0 0-3.835 0-3.835s4.544-5.551 4.544-5.551c1.001-1.222 1.385-2.053 0-2.812 0 0-4.544-2.492-4.544-2.492s0-0.385 0-0.385c0 0 0.115-0.392 0.115-0.392s-0.090-0.59-0.090-0.59c-0.008-0.054-0.013-0.108-0.018-0.16 0.008-0.894 0.517-1.992 2.125-3.336 1.621-1.355 4.243-2.758 7.596-3.944 6.706-2.371 16.291-3.916 26.883-3.916 0 0 0-0.001 0-0.001M64.031 78.561c-0.934 0.002-1.866 0.193-2.558 0.573 0 0-7.87 4.315-7.87 4.315-1.386 0.759-1.386 2.038 0 2.798 0 0 7.87 4.315 7.87 4.315 1.385 0.76 3.731 0.766 5.117 0.007 0 0 7.87-4.315 7.87-4.315 1.385-0.759 1.385-2.052 0-2.811 0 0-7.87-4.315-7.87-4.315-0.693-0.38-1.625-0.568-2.558-0.566 0 0 0 0.001 0 0.001M64.031 100.198c10.591 0.001 20.177 1.545 26.883 3.916 3.353 1.186 5.974 2.589 7.595 3.944 1.553 1.299 2.063 2.362 1.992 3.39-0.452 2.301-2.257 3.653-3.952 4.67-3.782 2.174-7.669 3.259-10.079 4.050-4.658 1.527-14.514 2.434-22.438 2.47-1.323 0-2.631-0.023-3.919-0.070 0 0-0.003 0-0.003 0-1.288-0.047-2.556-0.117-3.801-0.208 0 0-0.003 0-0.003 0-7.478-0.546-14.126-1.86-19.155-3.638-3.353-1.185-5.974-2.589-7.596-3.944-1.584-1.324-2.087-2.404-2.054-3.41s0.585-2.107 2.194-3.415c1.658-1.348 4.295-2.734 7.644-3.902 6.698-2.337 16.21-3.852 26.695-3.853 0 0-0.003 0-0.003 0"></path>
</svg>
