<!-- Generated by IcoMoon.io -->
<svg version="1.1" xmlns="http://www.w3.org/2000/svg" width="128" height="128" viewBox="0 0 128 128">
<title>uni43</title>
<path fill="#333" d="M53.965 0c0 0 0 12.899 0 12.899s-13.234 0-13.234 0c0 0 0-12.885 0-12.885s-21.274 0-21.274 0c0 0 0 30.953 0 30.953s14.527 9.682 14.527 9.682c0 0 0.299 33.040 0.299 33.040s-12.885 14.42-12.885 14.42c0 0 0 7.645 0 7.645s-10.961 10.961-10.961 10.961c0 0 0 21.285 0 21.285s41.85 0 41.85 0c0 0 23.436 0 23.436 0s41.849 0 41.849 0c0 0 0-21.285 0-21.285s-10.961-10.961-10.961-10.961c0 0 0-7.645 0-7.645s-12.885-14.42-12.885-14.42c0 0 0.299-33.040 0.299-33.040s14.527-9.682 14.527-9.682c0 0 0-30.953 0-30.953s-21.274 0-21.274 0c0 0 0 12.885 0 12.885s-13.234 0-13.234 0c0 0 0-12.899 0-12.899s-2.832 0-2.832 0c0 0-14.416 0-14.416 0s-2.832 0-2.832 0M24.94 5.482c0 0 10.324 0 10.324 0s0 12.885 0 12.885c0 0 24.17 0 24.17 0s0-12.885 0-12.885c0 0 9.144 0 9.144 0s0 12.885 0 12.885c0 0 24.17 0 24.17 0s0-12.885 0-12.885c0 0 10.324 0 10.324 0s0 21.434 0 21.434c0 0-28.733 0-28.733 0s-20.665 0-20.665 0c0 0-28.733 0-28.733 0s0-21.434 0-21.434M31.462 32.381c0 0 22.211 0 22.211 0s20.665 0 20.665 0c0 0 22.211 0 22.211 0s-7.955 5.304-7.955 5.304c0 0-1.749 0-1.749 0s-45.679 0-45.679 0c0 0-1.749 0-1.749 0s-7.955-5.304-7.955-5.304M39.488 43.153c0 0 1.678 0 1.678 0s45.679 0 45.679 0c0 0 1.678 0 1.678 0s-0.257 28.826-0.257 28.826c0 0-1.474 0-1.474 0s-45.573 0-45.573 0c0 0-1.474 0-1.474 0s-0.257-28.826-0.257-28.826M38.248 77.458c0 0 2.971 0 2.971 0s45.572 0 45.572 0c0 0 2.971 0 2.971 0s9.629 10.783 9.629 10.783c0 0-24.395 0-24.395 0s-21.983 0-21.983 0c0 0-24.394 0-24.394 0s9.629-10.783 9.629-10.783M26.878 93.709c0 0 26.136 0 26.136 0s21.983 0 21.983 0c0 0 26.136 0 26.136 0s0 4.307 0 4.307c0 0 10.302 10.288 10.302 10.288s-36.787 0-36.787 0c0 0-21.285 0-21.285 0s-36.788 0-36.788 0c0 0 10.303-10.288 10.303-10.288s0-4.307 0-4.307M15.902 113.768c0 0 37.461 0 37.461 0s21.285 0 21.285 0c0 0 37.461 0 37.461 0s0 8.753 0 8.753c0 0-36.385 0-36.385 0s-23.436 0-23.436 0c0 0-36.385 0-36.385 0s0-8.753 0-8.753"></path>
</svg>
