<!-- Generated by IcoMoon.io -->
<svg version="1.1" xmlns="http://www.w3.org/2000/svg" width="128" height="128" viewBox="0 0 128 128">
<title>uni44</title>
<path fill="#333" d="M64.056 2.538c-5.69 0-10.359 4.673-10.359 10.363 0 3.928 2.228 7.371 5.48 9.126-11.814 9.252-19.614 16.038-24.317 22.116-5.139 6.642-6.633 12.904-5.726 19.832 1.102 8.413 7.544 13.133 10.467 14.879 0 0 0 17.319 0 17.319s0.565 0.721 0.565 0.721c2.611 3.327 6.526 4.601 10.373 5.293-0.446 1.36-0.636 2.968-1.861 3.695-1.898 1.125-5.025 1.708-8.644 1.767-7.239 0.119-15.91-1.722-21.589-1.546-5.289 0.164-8.996 1.403-11.617 3.275s-4.008 4.266-4.991 6.093c-1.034 1.922-1.837 4.192-1.837 7.178 0 0 0 2.658 0 2.658s2.676 0 2.676 0c5.335 0 10.48 0.132 13.545 0.132 0 0 0.547 0 0.547 0s0.513-0.222 0.513-0.222c1.502-0.653 2.349-1.86 2.54-2.177 0.176-0.054 0.662-0.159 1.546-0.208 8.704-0.298 16.805 3.525 27.758 1.23 0 0 0.053-0.014 0.053-0.014s0.040-0.014 0.040-0.014c3.791-0.926 8.077-2.207 11.358-5.816 1.417-1.558 2.56-3.517 3.425-5.906 0.864 2.388 2.011 4.347 3.427 5.906 3.281 3.609 7.567 4.889 11.358 5.816 0 0 0.053 0.014 0.053 0.014s0.040 0.014 0.040 0.014c10.931 2.29 19.036-1.512 27.72-1.23 0.989 0.050 1.523 0.172 1.663 0.222 0.050 0.108 0.814 1.441 2.475 2.163 0 0 0.51 0.222 0.51 0.222s0.551 0 0.551 0c3.065 0 8.21-0.132 13.545-0.132 0 0 2.659 0 2.659 0s0-2.658 0-2.658c0-2.986-0.8-5.255-1.834-7.178-0.983-1.826-2.37-4.221-4.991-6.093s-6.329-3.112-11.618-3.275c-5.678-0.176-14.337 1.665-21.575 1.546-3.619-0.060-6.749-0.642-8.647-1.767-1.225-0.727-1.425-2.333-1.871-3.695 3.847-0.691 7.762-1.966 10.373-5.293 0 0 0.565-0.721 0.565-0.721s0-17.319 0-17.319c2.923-1.746 9.365-6.466 10.467-14.879 0.907-6.928-0.572-13.19-5.712-19.832-4.697-6.069-12.493-12.848-24.282-22.081 3.288-1.744 5.549-5.205 5.549-9.161 0-5.69-4.673-10.363-10.363-10.363 0 0-0.004 0-0.004 0M64.056 7.872c2.813 0 5.033 2.216 5.033 5.029s-2.22 5.043-5.033 5.043-5.043-2.23-5.043-5.043c0-2.813 2.23-5.029 5.043-5.029 0 0 0 0 0 0M64.001 25.011c12.642 9.844 20.608 16.803 24.933 22.393 4.523 5.846 5.423 9.968 4.648 15.891-0.95 7.251-7.828 10.91-8.564 11.292-5.426-2.323-12.487-3.747-21.208-3.923 0 0 0-0.035 0-0.035-0.304 0-0.574 0.014-0.87 0.018-0.317 0-0.618-0.018-0.94-0.018 0 0 0 0.038 0 0.038-8.463 0.191-14.093 1.682-19.059 3.892-0.796-0.415-7.585-4.049-8.53-11.264-0.775-5.922 0.128-10.045 4.652-15.891 4.325-5.59 12.294-12.548 24.937-22.393 0 0 0 0.001 0 0.001M62.23 42.554c0 0 0 9.018 0 9.018s-9.019 0-9.019 0c0 0 0 3.532 0 3.532s9.019 0 9.019 0c0 0 0 9.018 0 9.018s3.531 0 3.531 0c0 0 0-9.018 0-9.018s9.019 0 9.019 0c0 0 0-3.532 0-3.532s-9.019 0-9.019 0c0 0 0-9.019 0-9.019s-3.531 0-3.531 0M62.867 75.98c8.506 0.076 15.696 1.243 20.21 3.050 0 0 0 3.605 0 3.605s-2.326 2.325-2.326 2.325c0 0 2.326 2.326 2.326 2.326s0 5.421 0 5.421c-6.394-1.395-12.795-2.248-19.177-2.323-6.346-0.073-12.677 0.595-18.979 2.177 0 0 0-5.362 0-5.362s2.322-2.322 2.322-2.322c0 0-2.322-2.322-2.322-2.322s0-3.563 0-3.563c4.299-1.87 9.633-2.934 17.946-3.012 0 0 0 0 0 0M63.294 79.9c0 0 0 1.414 0 1.414s-3.178 0-3.178 0c0 0 0 2.745 0 2.745s3.178 0 3.178 0c0 0 0 1.411 0 1.411s1.411 0 1.411 0c0 0 0-1.411 0-1.411s3.175 0 3.175 0c0 0 0-2.745 0-2.745s-3.175 0-3.175 0c0 0 0-1.414 0-1.414s-1.411 0-1.411 0M63.876 93.923c5.527 0.063 11.093 0.734 16.692 1.861-1.294 0.71-2.809 1.228-4.631 1.504-3.149 0.478-6.763 0.418-10.162 0.406-0.295 0-0.605 0-0.895 0 0 0-1.767 0-1.767 0-0.289 0-0.598 0-0.891 0-3.4 0.012-7.015 0.069-10.165-0.409-1.913-0.29-3.485-0.849-4.818-1.615 5.513-1.256 11.055-1.81 16.636-1.746 0 0 0 0 0 0M55.516 102.722c1.468 0.066 2.874 0.164 4.256 0.159-0.456 5.42-1.378 9.808-3.144 11.75-2.139 2.352-5.108 3.349-8.657 4.218-9.157 1.892-16.619-1.686-26.788-1.338 0 0-0.025 0-0.025 0s-0.010 0-0.010 0c-1.282 0.065-2.257 0.212-3.147 0.524s-1.716 0.911-2.173 1.456c-0.662 0.788-0.466 0.611-0.486 0.617-2.205-0.011-5.76-0.060-9.34-0.094 0.194-0.593 0.169-1.352 0.527-2.017 0.913-1.697 1.776-3.143 3.393-4.298s4.137-2.136 8.696-2.277c4.169-0.129 13.349 1.679 21.495 1.546 4.073-0.067 8.023-0.586 11.278-2.516 2.443-1.448 3.346-4.623 4.128-7.729 0 0-0.003 0-0.003 0M72.482 102.722c0.781 3.109 1.68 6.28 4.124 7.729 3.255 1.93 7.205 2.449 11.278 2.516 8.146 0.134 17.33-1.675 21.499-1.546 4.559 0.141 7.079 1.122 8.696 2.277s2.48 2.601 3.393 4.298c0.357 0.664 0.328 1.424 0.523 2.017-3.575 0.034-7.124 0.082-9.326 0.094-0.020-0.007 0.168 0.174-0.496-0.617-0.457-0.544-1.272-1.145-2.163-1.456s-1.861-0.46-3.144-0.524c0 0-0.025 0-0.025 0s-0.025 0-0.025 0c-10.169-0.348-17.631 3.23-26.788 1.338-3.55-0.869-6.522-1.865-8.661-4.218-1.766-1.942-2.674-6.334-3.13-11.753 1.379 0.005 2.782-0.090 4.246-0.156 0 0-0.002 0-0.002 0"></path>
</svg>
