<!-- Generated by IcoMoon.io -->
<svg version="1.1" xmlns="http://www.w3.org/2000/svg" width="128" height="128" viewBox="0 0 128 128">
<title>uni45</title>
<path fill="#333" d="M53.598 0.662c-1.262 0.045-2.327 0.953-2.571 2.193 0 0-2.422 12.236-2.422 12.236s-4.884 0.255-4.884 0.255c0 0-9.56-11.887-9.56-11.887-1.309-1.635-3.896-1.24-4.658 0.711-0.179 0.458-0.231 0.957-0.148 1.443 0 0 1.955 11.606 1.955 11.606s-10.966 16.051-10.966 16.051c-0.255 0.379-0.412 0.817-0.454 1.272 0 0-0.896 9.531-0.896 9.531-0.442 0.58-4.529 5.92-9.078 12.743-2.394 3.591-4.791 7.421-6.637 10.909s-3.28 6.376-3.28 9.382c0 8.114 3.5 13.97 8.178 17.27 1.002 0.707 3.546 2.538 6.814 1.796 0.264-0.061 0.486-0.691 0.748-0.779 0 0.023-0.026 0.073-0.026 0.096 0.036 0.678 0.201 1.474 0.694 2.182s1.267 1.176 1.863 1.378c1.191 0.404 1.84 0.26 2.302 0.28 2.273 0.095 5.079 0.468 7.898-0.251 1.409-0.36 2.893-1.085 4.002-2.384s1.718-3.053 1.821-5.008c0.184-3.493-0.498-6.032-0.524-7.186-0.015-0.578 0.036-0.698 0.163-0.91 0.13-0.212 0.5-0.635 1.537-1.218 1.985-1.117 5.628-2.048 9.52-2.972s8.045-1.87 11.564-3.722c3.933-2.070 4.619-3.843 6.8-6.371 0 0-0.814 12.69-0.814 12.69-0.021 0.075-0.248 1.161-2.051 3.588-1.863 2.508-5.27 6.038-11.405 9.718-14.59 8.754-13.172 29.397-13.172 29.397 0.074 1.447 1.268 2.582 2.717 2.582 0 0 86.544 0 86.544 0 1.495 0.006 2.715-1.196 2.731-2.692 0.266-23.903 0.526-49.101-7.268-69.501-7.674-20.087-23.895-35.148-54.204-38.432-3.911-7.928-10.856-15.233-10.856-15.233-0.529-0.511-1.244-0.786-1.98-0.762 0 0 0.002 0 0.002 0M55.15 10.016c2.481 2.745 5.297 5.213 7.243 10.080 0.377 0.945 1.25 1.601 2.263 1.7 29.706 2.813 43.654 16.305 50.892 35.248 6.964 18.228 7.088 41.759 6.857 64.79 0 0-80.76 0-80.76 0 0.068-3.66 0.651-16.121 10.239-21.874 6.689-4.013 10.666-8.023 12.97-11.125s3.014-5.581 3.014-5.581c0.043-0.171 0.070-0.345 0.079-0.521 0 0 1.286-19.866 1.286-19.866 0.136-2.090-2.041-3.543-3.919-2.616-0.414 0.205-0.77 0.511-1.032 0.891 0 0-5.127 7.017-10.254 9.715-2.572 1.353-6.414 2.335-10.296 3.255s-7.779 1.752-10.923 3.52c-1.527 0.859-2.725 1.835-3.507 3.106s-0.99 2.71-0.963 3.896c0.055 2.372 0.657 4.16 0.52 6.758-0.055 1.090-0.303 1.513-0.52 1.767s-0.529 0.472-1.204 0.645c-1.17 0.299-3.351 0.169-5.49 0.078 0.194-0.757 0.535-2.514 2.706-7.427 0.807-1.933-0.78-4.014-2.858-3.747-0.867 0.112-1.628 0.633-2.044 1.401-2.713 5.308-4.813 6.569-5.663 6.761s-1.475-0.232-2.476-0.938c-3.332-2.351-5.862-6.193-5.862-12.825 0-0.68 0.934-3.625 2.635-6.839s4.027-6.94 6.361-10.441c4.668-7.002 9.357-13.118 9.357-13.118 0.309-0.404 0.5-0.886 0.549-1.392 0 0 0.896-9.57 0.896-9.57s11.178-16.36 11.178-16.36c0.4-0.582 0.557-1.297 0.439-1.994 0 0-0.4-2.408-0.4-2.408s3.896 4.846 3.896 4.846c0.547 0.683 1.389 1.061 2.263 1.016 0 0 8.39-0.442 8.39-0.442 1.244-0.061 2.288-0.961 2.532-2.182 0 0 1.604-8.206 1.604-8.206M39.367 39.611c-1.832-0.083-6.318 1.777-8.298 4.296-0.66 0.84-0.74 3.553-0.74 3.553s-0.094 1.232 0.68 1.36c0.774 0.128 0.97-1.089 2.182-1.842s3.535 0.345 4.703-0.85c1.213-1.24 0.234-1.876 0.917-4.023 0.383-1.205 2.273-1.574 1.165-2.334-0.139-0.096-0.347-0.148-0.609-0.16 0 0 0 0 0 0M13.049 75.114c-0.814-0.385-3.304 2.944-3.556 4.314-0.38 2.069 0.155 3.143 0.67 3.676s1.53 1.035 2.292 0.907c0.772-0.13 1.934-0.875 2.21-1.573 0.226-0.57 0.193-1.864-0.23-2.334s-1.552 0.155-2.083-0.762c-0.53-0.916 2.137-3.7 0.698-4.228 0 0 0 0 0 0"></path>
</svg>
