<!-- Generated by IcoMoon.io -->
<svg version="1.1" xmlns="http://www.w3.org/2000/svg" width="128" height="128" viewBox="0 0 128 128">
<title>uni46</title>
<path fill="#333" d="M64.001 0c-11.139 0-20.209 9.277-20.215 20.631 0.007 4.429 2.352 8.235 4.894 11.755-8.047 3.622-14.386 9.594-16.689 17.307 0 0-1.046 3.471-1.046 3.471s21.337 0 21.337 0c-0.354 11.275-2.332 18.445-5.193 24.259-2.993 6.082-6.919 11.581-10.193 19.691-11.169 1.996-20.067 10.716-20.067 22.021 0 0 0 0.014 0 0.014 0.007 2.079 0 6.163 0 6.163s-0.016 2.688-0.016 2.688c0 0 38 0 38 0s18.385 0 18.385 0c0 0 38.004 0 38.004 0s-0.016-2.688-0.016-2.688c0 0-0.007-4.084 0-6.163 0 0 0-0.014 0-0.014 0-11.307-8.912-20.026-20.083-22.021-3.273-8.109-7.192-13.609-10.182-19.691-2.859-5.814-4.84-12.983-5.193-24.259 0 0 21.326 0 21.326 0s-1.046-3.471-1.046-3.471c-2.302-7.703-8.63-13.669-16.663-17.292 2.537-3.526 4.873-7.338 4.868-11.769-0.007-11.354-9.075-20.629-20.215-20.631 0 0 0.003 0 0.003 0M64.001 5.38c8.256 0 14.914 6.787 14.918 15.251 0.007 4.145-1.647 8.109-4.557 10.987 0 0-3.039 3.021-3.039 3.021s4.005 1.445 4.005 1.445c6.426 2.329 10.767 6.725 13.47 11.7 0 0-18.623 0-18.623 0s-12.333 0-12.333 0c0 0-18.634 0-18.634 0 2.706-4.983 7.053-9.387 13.492-11.714 0 0 4.019-1.445 4.019-1.445s-3.065-3.021-3.065-3.021c-2.915-2.871-4.564-6.828-4.569-10.972 0.007-8.463 6.659-15.25 14.915-15.251 0 0 0 0 0 0M57.776 53.163c0 0 12.465 0 12.465 0 0.326 12.312 2.766 20.213 5.936 26.659 3.399 6.913 7.364 12.090 10.442 20.101 0 0 0.585 1.55 0.585 1.55s1.632 0.147 1.632 0.147c9.686 0.92 17.051 8.473 17.058 17.504-0.007 1.195 0 2.139 0 3.496 0 0-32.689 0-32.689 0s-18.389 0-18.389 0c0 0-32.69 0-32.69 0 0-1.358 0.007-2.302 0-3.496 0.007-9.033 7.357-16.584 17.044-17.504 0 0 1.631-0.147 1.631-0.147s0.589-1.55 0.589-1.55c3.078-8.011 7.036-13.188 10.438-20.101 3.172-6.445 5.622-14.347 5.951-26.659 0 0-0.001 0-0.001 0"></path>
</svg>
