<!-- Generated by IcoMoon.io -->
<svg version="1.1" xmlns="http://www.w3.org/2000/svg" width="128" height="128" viewBox="0 0 128 128">
<title>uni47</title>
<path fill="#333" d="M61.222 2.134c0 0 0 4.614 0 4.614 1.623 0 2.889 1.27 2.889 2.894s-1.266 2.89-2.889 2.893c0 0 0 3.202 0 3.202-3.655-5.813-8.058-10.444-8.058-10.444-0.506-0.489-1.189-0.751-1.892-0.729-1.208 0.043-2.226 0.912-2.459 2.097 0 0-2.317 11.706-2.317 11.706s-4.672 0.244-4.672 0.244c0 0-9.145-11.37-9.145-11.37-0.741-0.925-2.014-1.233-3.096-0.748s-1.699 1.639-1.502 2.808c0 0 1.87 11.102 1.87 11.102s-10.49 15.355-10.49 15.355c-0.245 0.363-0.394 0.781-0.434 1.216 0 0-0.857 9.118-0.857 9.118-0.423 0.555-4.332 5.663-8.683 12.19-2.29 3.435-4.585 7.099-6.349 10.435s-3.137 6.099-3.137 8.975c0 7.762 3.348 13.364 7.823 16.52 0.958 0.676 3.392 2.428 6.519 1.718 0.253-0.058 0.466-0.661 0.715-0.745 0 0.022-0.025 0.070-0.025 0.091 0.034 0.649 0.193 1.41 0.664 2.087s1.212 1.125 1.782 1.318c1.139 0.387 1.761 0.249 2.202 0.268 2.175 0.091 4.859 0.448 7.555-0.241 1.349-0.344 2.768-1.037 3.829-2.28s1.643-2.92 1.742-4.79c0.175-3.342-0.477-5.77-0.502-6.875-0.015-0.552 0.034-0.668 0.156-0.87 0.125-0.203 0.478-0.608 1.471-1.165 1.899-1.068 5.384-1.96 9.107-2.843s7.696-1.789 11.062-3.561c3.762-1.98 4.419-3.676 6.505-6.095 0 0-0.779 12.139-0.779 12.139-0.020 0.072-0.237 1.111-1.962 3.433-1.782 2.399-5.042 5.776-10.91 9.296-13.956 8.374-12.6 28.121-12.6 28.121 0.071 1.384 1.213 2.469 2.599 2.469 0 0 24.27 0 24.27 0 1.296-0.001 2.575-0.024 7.503 0.137 4.847 0.039 8.607 0.071 13.824-0.41 3.601-0.332 7.184-1.48 10.417-3.005 0.253-0.119 0.515-0.236 0.759-0.359 2.595-1.341 5.165-3.025 6.814-5.441 0.19-0.282 0.364-0.571 0.522-0.867 0.484-0.906 0.737-1.888 0.887-2.424 0.159-0.569 0.145-1.457 0.146-5.363 0 0 0-19.188 0-19.188 0.013-0.191-0.005-0.458-0.005-0.674 0 0 0-0.118 0-0.118 0.033-0.592-0.114-1.328-0.159-1.755-0.168-0.694-0.395-1.37-0.735-2.006-0.158-0.295-0.332-0.585-0.522-0.867-0.192-0.287-0.407-0.564-0.633-0.834 0 0 19.762-49.103 19.762-49.103 0.232 0.022 0.455 0.071 0.691 0.071 4.119 0 7.508-3.389 7.508-7.508 0-4.121-3.387-7.511-7.508-7.511s-7.511 3.39-7.508 7.511c0 1.824 0.691 3.481 1.789 4.788 0 0-23.984 26.020-23.984 26.020s2.165-35.605 2.165-35.605c3.581-0.56 6.366-3.665 6.366-7.393 0-4.119-3.389-7.508-7.508-7.508s-7.507 3.389-7.508 7.508c0 2.417 1.188 4.559 2.985 5.936 0 0-15.758 32.207-15.758 32.207s-7.636-35.040-7.636-35.040c0 0 0.059-0.271 0.059-0.271 2.783-1.103 4.78-3.816 4.78-6.973 0-4.119-3.389-7.508-7.508-7.508 0 0-0.004-0.001-0.004-0.001M91.805 10.888c1.626 0 2.893 1.268 2.894 2.894-0.001 1.625-1.268 2.893-2.894 2.893s-2.893-1.268-2.893-2.893c0-1.625 1.268-2.894 2.893-2.894 0 0 0 0 0 0M52.755 13.512c2.374 2.627 5.067 4.987 6.929 9.643 0.909 2.12 1.11 3.707 1.537 5.953 0 0 8.394 38.531 8.394 38.531s17.466-35.676 17.466-35.676c0 0-2.382 39.094-2.382 39.094s25.444-27.609 25.444-27.609c0 0-14.331 35.615-14.331 35.615-1.91-1.188-4.143-2.222-6.695-3.124-8.805-2.873-23.088-4.042-27.209-4.074-0.020 0-0.116-9.662-0.116-9.662-1.076 1.407-5.876 7.28-10.112 9.51-2.46 1.295-6.136 2.233-9.849 3.114s-7.441 1.676-10.448 3.368c-1.461 0.822-2.607 1.756-3.354 2.972s-0.948 2.592-0.922 3.727c0.052 2.268 0.629 3.98 0.498 6.465-0.052 1.042-0.291 1.447-0.498 1.69s-0.507 0.452-1.152 0.617c-1.119 0.285-3.205 0.162-5.252 0.075 0.185-0.724 0.512-2.405 2.588-7.105 0.534-1.279-0.029-2.751-1.279-3.349s-2.749-0.111-3.41 1.106c-2.595 5.077-4.604 6.284-5.418 6.468s-1.411-0.223-2.368-0.898c-3.188-2.248-5.607-5.924-5.607-12.268 0-0.651 0.894-3.468 2.521-6.542s3.852-6.639 6.085-9.988c4.465-6.698 8.951-12.55 8.951-12.55 0.296-0.386 0.478-0.847 0.525-1.331 0 0 0.857-9.155 0.857-9.155s10.693-15.649 10.693-15.649c0.382-0.557 0.533-1.241 0.42-1.908 0 0-0.383-2.304-0.383-2.304s3.727 4.635 3.727 4.635c0.523 0.654 1.329 1.016 2.165 0.973 0 0 8.026-0.423 8.026-0.423 1.19-0.059 2.188-0.919 2.422-2.087 0 0 1.535-7.851 1.535-7.851M120.484 23.075c1.626 0 2.895 1.271 2.894 2.897 0 1.625-1.268 2.893-2.894 2.893s-2.893-1.268-2.894-2.893c0-1.626 1.268-2.897 2.894-2.897 0 0 0 0 0 0M37.487 41.821c-1.846 0.034-5.931 1.777-7.767 4.112-0.631 0.803-0.708 3.398-0.708 3.398s-0.090 1.178 0.65 1.301c0.741 0.123 0.929-1.042 2.088-1.762s3.382 0.33 4.499-0.813c1.16-1.187 0.224-1.795 0.877-3.849 0.367-1.152 2.174-1.506 1.115-2.233-0.133-0.091-0.332-0.141-0.583-0.152-0.055 0-0.112-0.005-0.171 0 0 0 0-0.002 0-0.002M12.318 75.756c-0.904 0.051-3.011 2.927-3.237 4.155-0.364 1.98 0.148 3.007 0.64 3.517s1.464 0.99 2.192 0.867c0.738-0.124 1.85-0.837 2.114-1.504 0.216-0.546 0.184-1.784-0.22-2.233s-1.485 0.149-1.992-0.728c-0.507-0.877 2.043-3.54 0.668-4.046-0.049-0.023-0.104-0.032-0.164-0.029 0 0-0.001 0-0.001 0M61.794 77.023c10.307 0.007 19.061 1.513 25.59 3.821 3.272 1.157 5.831 2.526 7.413 3.849 1.555 1.299 2.046 2.361 2.063 3.229 0 0 0 0.034 0 0.034 0.026 0.495 0.013 0.989 0.026 1.484 0 0-4.442 2.436-4.442 2.436-1.352 0.741-0.977 1.551 0 2.745 0 0 4.442 5.421 4.442 5.421s0 3.734 0 3.734c-2.12-1.496-4.714-2.764-7.763-3.842-7.313-2.585-17.095-4.113-27.901-4.12 0 0 0 5.201 0 5.201 10.307 0.008 19.633 1.513 26.161 3.821 3.272 1.157 5.832 2.526 7.413 3.849 1.516 1.267 2.013 2.305 1.945 3.309s-0.445 1.774-1.301 2.641c-2.181 1.775-4.431 3.030-6.682 3.923-9.045 3.269-18.548 1.876-27.537 1.919 0 0-21.385 0-21.385 0 0.066-3.502 0.623-15.421 9.795-20.925 5.672-3.403 9.303-6.802 11.59-9.598 0 0 0 2.212 0 2.212 0.885-0.008 1.764-0.191 2.421-0.551 0 0 7.681-4.212 7.681-4.212 1.352-0.741 1.352-2.003 0-2.745 0 0-7.681-4.212-7.681-4.212-0.657-0.36-0.963-0.542-1.849-0.55 0 0 0-2.874 0-2.874"></path>
</svg>
