<!-- Generated by IcoMoon.io -->
<svg version="1.1" xmlns="http://www.w3.org/2000/svg" width="128" height="128" viewBox="0 0 128 128">
<title>uni48</title>
<path fill="#333" d="M69.1-0.031c0 0 0 5.482 0 5.482s0 6.447 0 6.447c-3.78-5.889-8.171-10.515-8.171-10.515-0.533-0.514-1.25-0.791-1.99-0.766-1.27 0.045-2.341 0.959-2.587 2.205 0 0-2.437 12.308-2.437 12.308s-4.912 0.256-4.912 0.256c0 0-9.615-11.955-9.615-11.955-0.779-0.973-2.117-1.297-3.254-0.787s-1.787 1.724-1.58 2.953c0 0 1.967 11.674 1.967 11.674s-11.029 16.144-11.029 16.144c-0.257 0.381-0.414 0.821-0.456 1.279 0 0-0.901 9.586-0.901 9.586-0.445 0.583-4.554 5.955-9.13 12.817-2.408 3.612-4.82 7.464-6.676 10.972s-3.299 6.413-3.299 9.436c0 8.161 3.52 14.050 8.225 17.37 1.008 0.71 3.566 2.552 6.854 1.806 0.266-0.060 0.489-0.695 0.752-0.783 0 0.023-0.026 0.073-0.026 0.096 0.036 0.681 0.202 1.482 0.698 2.195s1.275 1.182 1.874 1.386c1.198 0.406 1.851 0.262 2.316 0.281 2.287 0.095 5.109 0.471 7.944-0.253 1.417-0.362 2.91-1.091 4.025-2.397s1.728-3.071 1.831-5.037c0.185-3.513-0.501-6.066-0.527-7.228-0.015-0.581 0.036-0.703 0.164-0.916 0.131-0.213 0.502-0.638 1.546-1.225 1.997-1.123 5.661-2.060 9.575-2.988s8.092-1.881 11.631-3.744c3.956-2.082 4.646-3.865 6.84-6.409 0 0-0.819 12.764-0.819 12.764-0.021 0.076-0.249 1.168-2.063 3.609-1.874 2.522-5.301 6.073-11.471 9.775-14.674 8.804-13.248 29.567-13.248 29.567 0.074 1.455 1.275 2.597 2.732 2.597 0 0 25.216 0 25.216 0s0.301 0 0.301 0c0 0 11.718 0 11.718 0s41.849 0 41.849 0c0 0 0-21.284 0-21.284s-10.961-10.961-10.961-10.961c0 0 0-7.644 0-7.644s-12.885-14.42-12.885-14.42c0 0 0.299-33.040 0.299-33.040s14.527-9.683 14.527-9.683c0 0 0-30.953 0-30.953s-21.274 0-21.274 0c0 0 0 12.885 0 12.885s-13.234 0-13.234 0c0 0 0-12.899 0-12.899s-2.832 0-2.832 0c0 0-2.21 0-2.21 0s-5.299 0-5.299 0M98.144 5.451c0 0 10.324 0 10.324 0s0 21.434 0 21.434c0 0-28.733 0-28.733 0s-10.633 0-10.633 0c0 0 0 5.464 0 5.464s10.633 0 10.633 0c0 0 22.211 0 22.211 0s-7.955 5.304-7.955 5.304c0 0-1.749 0-1.749 0s-23.141 0-23.141 0c0 0 0 5.468 0 5.468s23.141 0 23.141 0c0 0 1.678 0 1.678 0s-0.256 28.826-0.256 28.826c0 0-1.475 0-1.475 0s-22.787 0-22.787 0c0 0 0-10.127 0-10.127-1.132 1.48-5.577 7.054-10.030 9.397-2.587 1.362-6.451 2.348-10.355 3.274s-7.824 1.763-10.986 3.541c-1.536 0.865-2.741 1.846-3.527 3.124s-0.996 2.726-0.969 3.918c0.055 2.385 0.661 4.184 0.524 6.797-0.055 1.096-0.306 1.522-0.524 1.778s-0.533 0.475-1.211 0.648c-1.177 0.301-3.37 0.171-5.522 0.078 0.195-0.761 0.538-2.528 2.721-7.47 0.562-1.345-0.030-2.894-1.344-3.522s-2.891-0.117-3.586 1.164c-2.729 5.338-4.841 6.606-5.696 6.8s-1.484-0.234-2.49-0.944c-3.352-2.364-5.896-6.229-5.896-12.899 0-0.684 0.94-3.646 2.65-6.879s4.051-6.98 6.398-10.502c4.695-7.042 9.412-13.195 9.412-13.195 0.311-0.406 0.502-0.891 0.552-1.4 0 0 0.901-9.625 0.901-9.625s11.243-16.455 11.243-16.455c0.402-0.585 0.56-1.305 0.442-2.005 0 0-0.402-2.422-0.402-2.422s3.919 4.873 3.919 4.873c0.55 0.687 1.397 1.067 2.276 1.022 0 0 8.438-0.445 8.438-0.445 1.252-0.062 2.301-0.966 2.547-2.195 0 0 1.614-8.254 1.614-8.254 2.495 2.762 5.327 5.243 7.285 10.138 0.249 0.62 0.673 1.242 1.451 1.262s2.326-0.678 4.738-3.090c0 0 24.17 0 24.17 0s0-12.885 0-12.885M44.446 39.789c0 0 0 0.001 0 0.001-1.941 0.036-6.236 1.868-8.166 4.323-0.664 0.845-0.745 3.573-0.745 3.573s-0.095 1.239 0.684 1.368c0.778 0.128 0.976-1.096 2.194-1.852s3.556 0.347 4.73-0.855c1.22-1.248 0.236-1.886 0.923-4.047 0.385-1.211 2.285-1.583 1.172-2.347-0.14-0.096-0.349-0.148-0.613-0.16-0.058 0-0.118-0.006-0.181 0 0 0 0-0.003 0-0.003M17.982 75.47c-0.951 0.054-3.166 3.077-3.404 4.369-0.383 2.081 0.156 3.161 0.674 3.697s1.539 1.041 2.305 0.912c0.776-0.131 1.946-0.88 2.223-1.582 0.227-0.573 0.194-1.875-0.231-2.347s-1.561 0.156-2.094-0.766c-0.534-0.922 2.148-3.722 0.702-4.254 0 0 0 0 0 0-0.051-0.025-0.109-0.034-0.173-0.030 0 0-0.001 0-0.001 0M69.401 77.427c0 0 22.787 0 22.787 0s2.971 0 2.971 0c0 0 9.629 10.783 9.629 10.783s-24.395 0-24.395 0c0 0-10.992 0-10.992 0s0-10.783 0-10.783M69.1 90.758c0 0 0 2.92 0 2.92s11.293 0 11.293 0c0 0 26.136 0 26.136 0s0 4.307 0 4.307c0 0 10.302 10.288 10.302 10.288s-36.787 0-36.787 0c0 0-10.943 0-10.943 0s0 5.465 0 5.465c0 0 10.943 0 10.943 0s37.461 0 37.461 0c0 0 0 8.752 0 8.752s-36.385 0-36.385 0c0 0-11.718 0-11.718 0s-0.301 0-0.301 0c0 0-22.183 0-22.183 0 0.069-3.681 0.654-16.214 10.299-22 5.723-3.434 9.467-6.863 11.885-9.732 0 0 0 0 0 0"></path>
</svg>
