<!-- Generated by IcoMoon.io -->
<svg version="1.1" xmlns="http://www.w3.org/2000/svg" width="128" height="128" viewBox="0 0 128 128">
<title>uni49</title>
<path fill="#333" d="M53.016 1.346c-1.248 0.045-2.301 0.944-2.542 2.168 0 0-2.396 12.105-2.396 12.105s-4.831 0.253-4.831 0.253c0 0-9.456-11.758-9.456-11.758-0.766-0.957-2.082-1.275-3.201-0.774s-1.757 1.696-1.553 2.904c0 0 1.934 11.481 1.934 11.481s-10.846 15.878-10.846 15.878c-0.253 0.375-0.407 0.808-0.449 1.258 0 0-0.886 9.428-0.886 9.428-0.438 0.574-4.48 5.856-8.979 12.605-2.368 3.552-4.74 7.34-6.566 10.79s-3.244 6.307-3.244 9.281c0 8.026 3.461 13.819 8.089 17.083 0.991 0.699 3.508 2.51 6.741 1.776 0.262-0.059 0.481-0.684 0.739-0.771 0 0.022-0.026 0.073-0.026 0.094 0.035 0.671 0.2 1.458 0.687 2.158s1.253 1.163 1.842 1.363c1.178 0.4 1.82 0.258 2.277 0.277 2.249 0.094 5.025 0.463 7.813-0.249 1.394-0.356 2.862-1.072 3.959-2.358s1.699-3.020 1.801-4.954c0.182-3.455-0.492-5.966-0.519-7.108-0.015-0.571 0.035-0.692 0.162-0.9 0.129-0.21 0.494-0.628 1.52-1.205 1.964-1.105 5.567-2.027 9.417-2.94s7.958-1.85 11.439-3.682c3.891-2.047 3.681-2.915 5.84-5.415 0 0-0.51 11.665-0.51 11.665-0.021 0.075 0.346 1.149-1.437 3.549-1.843 2.481-5.214 5.973-11.281 9.613-14.431 8.659-13.029 29.079-13.029 29.079 0.073 1.431 1.254 2.554 2.687 2.554 0 0 25.688 0 25.688 0 1.144-2.906 1.634-6.927 5.575-5.45 2.785 1.925 5.922 2.823 8.78 3.522 0 0 0.053 0.014 0.053 0.014s0.040 0.014 0.040 0.014c11.050 2.314 19.242-1.528 28.021-1.244 1 0.050 1.539 0.174 1.682 0.224 0.051 0.109 0.822 1.456 2.501 2.186 0 0 0.515 0.224 0.515 0.224s0.557 0 0.557 0c3.098 0 8.299-0.133 13.692-0.133 0 0 2.686 0 2.686 0s0-2.687 0-2.687c0-3.018-0.807-5.313-1.853-7.256-0.993-1.846-2.396-4.267-5.045-6.159s-6.397-3.145-11.743-3.311c-5.741-0.178-14.493 1.683-21.809 1.563-3.658-0.060-6.822-0.649-8.741-1.787-1.239-0.734-1.441-2.358-1.892-3.734 3.889-0.698 7.846-1.987 10.486-5.349 0 0 0.571-0.729 0.571-0.729s0-17.507 0-17.507c2.955-1.765 9.467-6.535 10.58-15.040 0.917-7.003-0.578-13.333-5.774-20.047-4.747-6.135-12.629-12.987-24.545-22.32 3.324-1.763 5.609-5.261 5.609-9.26 0-5.751-5.019-10.475-10.771-10.475 0 0-0.006 0-0.006 0-0.019 0-0.038 0-0.057 0 0 0 0 5.392 0 5.392 0.019 0 0.038 0 0.057 0 2.843 0 5.383 2.24 5.383 5.083 0 2.764-2.399 4.97-5.144 5.092 0 0 0-4.521 0-4.521-3.78-6.011-8.332-10.8-8.332-10.8-0.524-0.505-1.23-0.777-1.957-0.753 0 0-0.001 0-0.001 0M54.552 10.598c2.454 2.716 5.239 5.157 7.164 9.971 0.245 0.61 0.706 1.109 1.294 1.403 0 0 0 2.598 0 2.598s0 0 0 0 0 0 0 0c12.779 9.951 21.128 16.986 25.499 22.636 4.573 5.909 5.483 10.077 4.698 16.063-0.96 7.329-7.912 11.028-8.657 11.414-5.383-2.305-12.649-3.733-21.246-3.953 0 0 0-6.624 0-6.624s1.781 0 1.781 0c0 0 0-9.116 0-9.116s9.116 0 9.116 0c0 0 0-3.569 0-3.569s-9.116 0-9.116 0c0 0 0-9.116 0-9.116s-2.077 0-2.077 0c0 0 0 19.613 0 19.613-1.426 1.824-5.477 6.71-9.569 8.864-2.544 1.339-6.345 2.309-10.184 3.22s-7.695 1.733-10.805 3.482c-1.511 0.85-2.695 1.816-3.468 3.073s-0.979 2.681-0.953 3.853c0.054 2.346 0.651 4.115 0.515 6.685-0.054 1.078-0.3 1.497-0.515 1.749-0.213 0.251-0.523 0.467-1.191 0.637-1.158 0.296-3.315 0.168-5.431 0.077 0.192-0.749 0.53-2.486 2.677-7.347 0.552-1.323-0.030-2.845-1.323-3.464s-2.843-0.115-3.527 1.145c-2.683 5.25-4.76 6.497-5.602 6.688s-1.459-0.23-2.449-0.928c-3.296-2.325-5.798-6.126-5.798-12.686 0-0.673 0.925-3.586 2.607-6.765s3.983-6.865 6.292-10.328c4.618-6.926 9.256-12.977 9.256-12.977 0.306-0.4 0.495-0.877 0.543-1.377 0 0 0.887-9.466 0.887-9.466s11.057-16.182 11.057-16.182c0.395-0.576 0.551-1.283 0.434-1.973 0 0-0.396-2.382-0.396-2.382s3.854 4.793 3.854 4.793c0.541 0.676 1.374 1.050 2.239 1.006 0 0 8.299-0.438 8.299-0.438 1.231-0.061 2.263-0.95 2.505-2.158 0 0 1.589-8.118 1.589-8.118M38.763 39.87c-1.909 0.035-6.134 1.838-8.031 4.252-0.653 0.831-0.732 3.514-0.732 3.514s-0.093 1.218 0.672 1.345c0.765 0.127 0.96-1.077 2.158-1.822s3.497 0.341 4.653-0.841c1.199-1.227 0.231-1.856 0.907-3.98 0.379-1.192 2.248-1.557 1.153-2.309-0.138-0.094-0.344-0.146-0.602-0.158 0 0 0 0.001 0 0.001-0.057 0-0.116-0.006-0.178 0 0 0 0-0.003 0-0.003M12.737 74.962c-0.935 0.053-3.115 3.026-3.348 4.297-0.376 2.047 0.153 3.109 0.662 3.637s1.514 1.024 2.267 0.897c0.763-0.129 1.913-0.866 2.186-1.556 0.223-0.564 0.191-1.844-0.227-2.308s-1.536 0.153-2.060-0.754c-0.525-0.907 2.113-3.66 0.69-4.183 0 0 0 0 0 0-0.050-0.024-0.107-0.034-0.169-0.030 0 0-0.001 0-0.001 0M63.306 76.119c7.974 0.189 14.98 1.332 19.285 3.055 0 0 0 3.643 0 3.643s-2.35 2.351-2.35 2.351c0 0 2.35 2.35 2.35 2.35s0 5.48 0 5.48c-6.43-1.402-13.162-2.263-19.58-2.346 0 0 0 3.578 0 3.578 5.545 0.072 11.426 0.749 17.044 1.879-1.309 0.717-2.839 1.24-4.681 1.52-3.183 0.483-6.836 0.423-10.272 0.41-0.297 0-0.61 0-0.904 0 0 0-1.187 0-1.187 0-0.006 6.453 0.006 15.676 0.006 19.353 0 0-2.083 3.813-2.083 3.813s-19.737 0-19.737 0c0.068-3.621 0.643-15.946 10.128-21.637 5.865-3.519 9.619-7.034 11.985-9.924 0 0 0-3.961 0-3.961s0.713 0 0.713 0c0 0 0-1.426 0-1.426s3.209 0 3.209 0c0 0 0-2.775 0-2.775s-3.209 0-3.209 0c0 0 0-1.429 0-1.429s-0.713 0-0.713 0c0 0-0.003-3.935-0.003-3.935M71.881 103.123c0.79 3.142 1.698 6.348 4.169 7.813 3.291 1.951 7.283 2.476 11.4 2.544 8.235 0.135 17.518-1.693 21.732-1.563 4.608 0.143 7.155 1.135 8.79 2.302s2.507 2.629 3.43 4.344c0.361 0.671 0.333 1.44 0.529 2.039-3.613 0.034-7.201 0.083-9.427 0.094-0.005-0.015-0.074-0.114-0.501-0.623-0.462-0.551-1.286-1.158-2.186-1.472s-1.882-0.465-3.178-0.529c0 0-0.026 0-0.026 0s-0.025 0-0.025 0c-10.279-0.352-17.822 3.266-27.078 1.353-3.589-0.878-6.593-1.885-8.755-4.264-1.784-1.963-2.703-6.403-3.163-11.88 1.393 0.005 2.811-0.091 4.29-0.158 0 0 0 0 0 0"></path>
</svg>
