<!-- Generated by IcoMoon.io -->
<svg version="1.1" xmlns="http://www.w3.org/2000/svg" width="128" height="128" viewBox="0 0 128 128">
<title>uni4A</title>
<path fill="#333" d="M64.028 3.605c-3.948 0-7.196 3.248-7.196 7.196 0 3.029 1.919 5.632 4.591 6.686 0 0 0.056 0.253 0.056 0.253s-7.332 33.586-7.332 33.586c0 0-15.099-30.865-15.099-30.865 1.724-1.32 2.861-3.374 2.861-5.692 0-3.948-3.248-7.196-7.196-7.196s-7.196 3.248-7.196 7.196c0 3.572 2.668 6.547 6.098 7.085 0 0 2.075 34.124 2.075 34.124s-22.984-24.935-22.984-24.935c1.053-1.253 1.714-2.843 1.714-4.592 0.002-3.949-3.246-7.199-7.196-7.199s-7.198 3.249-7.196 7.199c0 3.948 3.248 7.196 7.196 7.196 0.226 0 0.439-0.047 0.659-0.068 0 0 18.976 47.155 18.976 47.155-0.324 0.406-0.624 0.824-0.877 1.263-0.493 0.857-0.839 1.778-0.994 2.747 0 0 0 0 0 0-0.044 0.281-0.066 0.568-0.078 0.858 0 0 0 0.006 0 0.006s-0.050 0.189-0.050 0.189c0 0 0.003 0.065 0.003 0.065 0 0.008-0.006 0.012-0.006 0.020 0 0 0 0.159 0 0.159s0.006 0.052 0.006 0.052c0 0 0 0 0 0-0.004 0.058-0.006-0.048-0.006 0.055 0 0 0 21.97 0 21.97 0 0.171 0.025 0.132 0.044 0.26-0.013 0.129-0.032 0.257-0.038 0.386 0 0-0.003 0.059-0.003 0.059s0 0.055 0 0.055c0 0.563 0.080 1.106 0.205 1.637-0.019 0.013-0.044 0.035-0.056 0.048 0.183 0.763 0.455 1.501 0.851 2.189 0.329 0.572 0.719 1.115 1.166 1.63 0.224 0.257 0.465 0.505 0.714 0.747 0.248 0.241 0.507 0.476 0.776 0.701 7.138 5.18 16.436 7.034 24.256 7.92 2.362 0.259 4.816 0.436 7.345 0.526 1.265 0.047 2.547 0.068 3.845 0.068 1.263 0 2.51-0.023 3.741-0.065 0.013-0.001 0.025 0 0.038 0 1.219-0.043 2.421-0.106 3.604-0.189 0.835-0.058 1.647-0.137 2.462-0.214 0.387-0.037 0.783-0.066 1.166-0.108 0.852-0.092 1.68-0.203 2.507-0.315 0.28-0.037 0.57-0.070 0.847-0.11 0.736-0.108 1.446-0.234 2.159-0.357 0.394-0.068 0.796-0.129 1.182-0.201 0.731-0.138 1.433-0.294 2.137-0.448 0.299-0.066 0.608-0.126 0.903-0.195 0.733-0.171 1.435-0.356 2.133-0.546 0.266-0.072 0.541-0.14 0.802-0.214 0.618-0.177 1.207-0.365 1.796-0.555 2.518-0.758 4.927-1.829 7.173-3.088 0.204-0.119 0.417-0.234 0.614-0.357 0.44-0.276 0.852-0.567 1.253-0.861 0.136-0.1 0.293-0.191 0.425-0.292 0.050-0.037 0.088-0.082 0.136-0.12 0.12-0.094 0.258-0.179 0.374-0.276 0.898-0.75 1.675-1.596 2.296-2.516 0.182-0.27 0.349-0.548 0.5-0.832 0.464-0.868 0.777-1.794 0.893-2.773 0.006-0.027 0.025-0.050 0.031-0.078 0 0 0.056-0.536 0.056-0.536s-0.003-0.006-0.003-0.006c0 0 0 0 0 0s0.012-0.11 0.012-0.11c0 0 0-0.114 0-0.114s0-0.101 0-0.101c0 0-0.006-0.075-0.006-0.075 0.006-0.114 0.006 0.096 0.006-0.088 0 0 0-21.97 0-21.97 0.013-0.183-0.002-0.439-0.002-0.646 0 0 0-0.114 0-0.114 0.032-0.567-0.109-1.272-0.153-1.682-0.161-0.665-0.379-1.313-0.705-1.922-0.151-0.283-0.317-0.561-0.5-0.831-0.185-0.275-0.391-0.541-0.607-0.799 0 0 18.937-47.061 18.937-47.061 0.222 0.020 0.436 0.068 0.663 0.068 3.948 0 7.196-3.248 7.196-7.196 0.002-3.95-3.246-7.199-7.196-7.199s-7.198 3.249-7.196 7.199c0 1.747 0.662 3.336 1.714 4.588 0 0-22.987 24.938-22.987 24.938s2.075-34.124 2.075-34.124c3.432-0.537 6.102-3.512 6.102-7.085 0-3.948-3.248-7.196-7.196-7.196s-7.196 3.248-7.196 7.196c0 2.317 1.138 4.369 2.861 5.689 0 0-15.103 30.867-15.103 30.867s-7.319-33.582-7.319-33.582c0 0 0.056-0.26 0.056-0.26 2.668-1.057 4.582-3.658 4.582-6.683 0-3.948-3.247-7.196-7.196-7.196 0 0-0.006 0.001-0.006 0.001M64.028 8.028c1.557 0 2.773 1.215 2.773 2.773s-1.216 2.773-2.773 2.773-2.773-1.215-2.773-2.773c0.001-1.557 1.216-2.773 2.773-2.773 0 0 0 0 0 0M34.713 11.996c1.557 0 2.773 1.216 2.773 2.773s-1.215 2.773-2.773 2.773c-1.558 0-2.773-1.215-2.773-2.773s1.216-2.773 2.773-2.773c0 0 0 0 0 0M93.343 11.996c1.558 0 2.773 1.216 2.773 2.773s-1.216 2.773-2.773 2.773c-1.557 0-2.773-1.215-2.773-2.773s1.215-2.773 2.773-2.773c0 0 0 0 0 0M7.226 23.676c1.558 0.001 2.774 1.218 2.773 2.776s-1.216 2.773-2.773 2.773c-1.558 0-2.773-1.215-2.773-2.773s1.215-2.776 2.773-2.776c0 0 0 0 0 0M120.831 23.676c1.558 0.001 2.774 1.218 2.773 2.776s-1.216 2.773-2.773 2.773c-1.557 0-2.773-1.215-2.773-2.773-0.002-1.558 1.214-2.776 2.773-2.776 0 0 0 0 0 0M62.606 68.178c9.005-0.214 17.935 1.289 26.822 4.51 4.461 1.617 8.292 3.362 8.835 4.023 0.24 0.292 0.328 0.781 0.218 1.221-0.332 1.323-1.293 1.232-5.378-0.516-6.763-2.895-13.919-4.882-20.957-5.819-4.373-0.582-12.905-0.446-17.778 0.285-6.661 1.001-13.329 2.929-20.019 5.787-3.219 1.375-3.895 1.518-4.465 0.948-0.601-0.601-0.421-1.941 0.328-2.432 0.375-0.246 2.683-1.24 5.128-2.211 9.184-3.65 18.261-5.582 27.267-5.796 0 0 0 0 0 0M64.369 79.231c1.028 0.057 2.043 0.347 3.075 0.861 3.027 1.515 6.299 3.438 6.728 3.955 0.603 0.726 0.087 1.26-2.692 2.783-7.598 4.163-7.279 4.127-12.547 1.344-4.463-2.358-5.29-2.925-5.29-3.633 0-0.712 0.84-1.287 5.316-3.641 1.943-1.218 3.696-1.765 5.41-1.669 0 0 0 0 0 0M97.302 88.95c0.575 0 0.721 0.734 0.721 3.637 0 2.497-0.243 3.416-0.903 3.416-0.108 0-0.975-0.932-1.926-2.071s-1.769-2.195-1.822-2.345c-0.108-0.306 3.365-2.636 3.929-2.636 0 0 0 0 0 0M29.975 89.061c0.413-0.159 3.777 1.682 4.137 2.263 0.163 0.264-3.32 4.679-3.692 4.679-0.094 0-0.329-0.16-0.523-0.354-0.551-0.551-0.482-6.373 0.078-6.588 0 0 0 0 0 0M62.619 95.792c9.005-0.214 17.935 1.289 26.822 4.511 4.461 1.617 8.292 3.362 8.835 4.023 0.24 0.292 0.325 0.781 0.215 1.221-0.332 1.323-1.29 1.229-5.374-0.52-6.763-2.895-13.919-4.882-20.957-5.819-4.373-0.582-12.909-0.443-17.782 0.288-6.661 1.001-13.329 2.926-20.019 5.783-3.219 1.375-3.892 1.521-4.462 0.952-0.601-0.602-0.421-1.942 0.328-2.432 0.374-0.246 2.679-1.243 5.124-2.214 9.184-3.65 18.264-5.579 27.27-5.793 0 0 0 0 0 0"></path>
</svg>
