<!-- Generated by IcoMoon.io -->
<svg version="1.1" xmlns="http://www.w3.org/2000/svg" width="128" height="128" viewBox="0 0 128 128">
<title>uni4B</title>
<path fill="#333" d="M48.546-0.025c0 0 0 2.78 0 2.78s0 27.461 0 27.461c0 0 6.703 0 6.703 0-0.199 0.137-0.399 0.273-0.597 0.416-0.172 0.126-0.343 0.256-0.514 0.389-2.369 1.815-4.637 4.228-6.776 7.238-0.645-0.556-1.312-1.11-2.003-1.666-5.382-4.33-12.418-6.608-19.338-6.679s-13.845 2.090-18.682 7.047c-6.004 6.151-6.852 14.122-5.655 20.768s4.133 12.108 6.703 14.944c3.592 3.965 10.473 9.639 13.923 12.416-0.133 0.568-0.222 1.147-0.222 1.75 0 0 0 0.059 0 0.059s0.003 0.062 0.003 0.062c0.006 0.139 0.027 0.275 0.040 0.413-0.020 0.136-0.047 0.094-0.047 0.278 0 0 0 23.487 0 23.487 0 0.111 0.002-0.008 0.003 0.055 0 0 0 0 0 0s-0.003 0.053-0.003 0.053c0 0 0 0.17 0 0.17 0 0.008 0.003 0.016 0.003 0.024 0 0-0.003 0.070-0.003 0.070s0.060 0.201 0.060 0.201c0 0 0 0.007 0 0.007 0.014 0.31 0.034 0.617 0.084 0.917 0 0 0 0.005 0 0.005 0.166 1.036 0.535 2.020 1.062 2.936 0.352 0.611 0.772 1.193 1.25 1.743 0.24 0.275 0.494 0.539 0.76 0.798 0.265 0.258 0.542 0.51 0.83 0.75 2.354 1.968 5.483 3.553 9.237 4.88 4.693 1.659 10.379 2.894 16.693 3.586 2.526 0.277 5.152 0.466 7.856 0.562 1.351 0.050 2.722 0.073 4.109 0.073 1.35 0 2.683-0.025 3.999-0.069 0.014-0.001 0.028-0.005 0.041-0.005 1.304-0.046 2.588-0.113 3.853-0.202 0.892-0.063 1.761-0.146 2.631-0.229 0.414-0.040 0.838-0.070 1.246-0.114 0.911-0.098 1.796-0.217 2.68-0.337 0.3-0.040 0.609-0.075 0.906-0.118 0.787-0.115 1.545-0.249 2.308-0.382 0.42-0.073 0.851-0.137 1.263-0.216 0.781-0.147 1.532-0.314 2.284-0.479 0.32-0.070 0.651-0.135 0.965-0.208 0.782-0.183 1.533-0.381 2.28-0.583 0.285-0.077 0.579-0.15 0.858-0.229 0.66-0.188 1.29-0.391 1.919-0.594 0.275-0.089 0.57-0.168 0.84-0.26 0.070-0.025 0.132-0.050 0.202-0.073 0.124-0.045 0.259-0.081 0.382-0.125 0.456-0.161 0.874-0.337 1.312-0.507 0.325-0.125 0.659-0.248 0.972-0.378 0.573-0.237 1.112-0.49 1.649-0.743 0.259-0.122 0.527-0.241 0.778-0.368 0.537-0.271 1.038-0.558 1.535-0.847 0.218-0.128 0.446-0.25 0.656-0.382 0.471-0.294 0.907-0.606 1.337-0.92 0.146-0.107 0.314-0.203 0.455-0.312 0.052-0.040 0.094-0.088 0.146-0.128 0.127-0.101 0.276-0.192 0.399-0.295 0.959-0.802 1.791-1.707 2.454-2.691 0.194-0.288 0.373-0.585 0.534-0.888 0.496-0.928 0.83-1.918 0.955-2.965 0.006-0.029 0.023-0.053 0.027-0.083 0 0 0.063-0.573 0.063-0.573s-0.003-0.007-0.003-0.007c0 0 0-0.005 0-0.005s0.018-0.118 0.018-0.118c0 0 0-0.121 0-0.121s0-0.108 0-0.108c0 0-0.007-0.080-0.007-0.080 0.008-0.122 0.007 0.103 0.007-0.094 0 0 0-23.487 0-23.487 0-0.118-0.048-0.173-0.059-0.281 0.013-0.096 0.033-0.192 0.041-0.288 0 0 0.018-0.122 0.018-0.122s0-0.121 0-0.121c0-0.602-0.089-1.182-0.222-1.749 3.449-2.777 10.33-8.452 13.923-12.417 2.57-2.837 5.506-8.297 6.703-14.944s0.348-14.617-5.655-20.768c-4.838-4.957-11.762-7.118-18.683-7.046s-13.956 2.349-19.338 6.679c-0.691 0.556-1.358 1.111-2.003 1.666-2.138-3.010-4.406-5.422-6.776-7.238-0.171-0.133-0.341-0.263-0.513-0.389-0.198-0.143-0.398-0.279-0.597-0.416 0 0 6.609 0 6.609 0s0-30.242 0-30.242c0 0-30.871 0.006-30.871 0.006M57.443 7.168c0 0 5.273 5.273 5.273 5.273s1.312-0.545 1.312-0.545c0 0 1.319 0.545 1.319 0.545s5.28-5.272 5.28-5.272c0 0 1.246 1.246 1.246 1.246s-5.276 5.28-5.276 5.28c0 0 0.545 1.319 0.545 1.319s-0.542 1.312-0.542 1.312c0 0 5.273 5.273 5.273 5.273s-1.246 1.26-1.246 1.26c0 0-5.28-5.28-5.28-5.28s-1.319 0.549-1.319 0.549c0 0-1.316-0.545-1.316-0.545s-5.269 5.276-5.269 5.276c0 0-1.26-1.26-1.26-1.26s5.276-5.269 5.276-5.269c0 0-0.545-1.315-0.545-1.315s0.545-1.323 0.545-1.323c0 0-5.276-5.277-5.276-5.277s1.26-1.246 1.26-1.246M64.025 32.643c0 0 0.003 0 0.003 0 0.502 0 1.015 0.054 1.534 0.149 0.196 0.037 0.398 0.109 0.597 0.16 0.321 0.081 0.642 0.161 0.968 0.281 0.249 0.091 0.505 0.219 0.757 0.333 0.293 0.133 0.585 0.259 0.882 0.424 0.213 0.117 0.427 0.265 0.642 0.399 0.382 0.24 0.763 0.483 1.149 0.778 0.101 0.076 0.201 0.163 0.302 0.243 1.902 1.517 3.849 3.732 5.794 6.675-7.076 7.155-10.682 14.033-12.365 19.516-0.105 0.344-0.172 0.659-0.264 0.993-0.091-0.334-0.155-0.649-0.26-0.993-1.683-5.483-5.289-12.361-12.364-19.516 1.944-2.943 3.891-5.158 5.793-6.675 0.102-0.079 0.201-0.167 0.302-0.243 0.386-0.294 0.767-0.538 1.149-0.778 0.215-0.134 0.429-0.282 0.642-0.399 0.296-0.164 0.589-0.29 0.882-0.424 0.252-0.114 0.507-0.242 0.757-0.333 0.326-0.12 0.648-0.2 0.969-0.281 0.198-0.051 0.401-0.123 0.597-0.16 0.518-0.095 1.031-0.149 1.534-0.149 0 0 0.001 0 0.001 0M25.969 35.253c5.771 0.060 11.744 2.025 16.044 5.485 10.527 8.469 14.844 16.543 16.648 22.421 0.988 3.219 1.213 5.615 1.232 7.203-9.452 0.338-17.96 1.828-24.524 4.148-3.754 1.328-6.883 2.913-9.237 4.881-0.383 0.32-0.74 0.66-1.083 1.010-3.154-2.56-9.535-7.802-12.712-11.309-1.469-1.622-4.406-6.756-5.405-12.305s-0.374-11.388 4.225-16.1c3.585-3.674 9.041-5.492 14.812-5.433 0 0 0 0 0 0M102.087 35.253c5.772-0.060 11.226 1.758 14.812 5.433 4.598 4.712 5.223 10.55 4.224 16.1s-3.935 10.684-5.404 12.305c-3.177 3.507-9.558 8.749-12.712 11.309-0.343-0.349-0.7-0.69-1.083-1.010-2.354-1.968-5.482-3.553-9.237-4.881-6.565-2.32-15.072-3.81-24.524-4.148 0.019-1.588 0.244-3.983 1.232-7.203 1.803-5.878 6.121-13.952 16.648-22.421 4.301-3.46 10.273-5.425 16.044-5.485 0 0 0 0 0 0M64.171 36.628c-1.725-0.081-3.427 0.789-5.155 2.617-2.519 2.666-2.441 2.265-0.788 4.214 0.795 0.938 1.926 2.407 2.51 3.267 1.088 1.602 3.058 5.565 3.058 6.151 0 0.501 0.132 0.263 0.958-1.718 0.912-2.187 3.104-5.588 4.933-7.654 0.728-0.823 1.323-1.578 1.323-1.676-0.001-0.513-2.418-3.145-3.697-4.026-1.062-0.731-2.107-1.125-3.141-1.174 0 0 0 0 0 0M25.83 39.846c-3.458 0.009-5.114 0.368-7.831 1.691-1.543 0.751-2.060 1.117-3.284 2.333-1.591 1.581-2.686 3.274-3.252 5.026-1.311 4.055-0.69 9.015 1.764 14.072 1.524 3.143 3.198 4.944 9.487 10.206 0 0 2.701 2.26 2.701 2.26s0.66-0.593 0.66-0.593c4.211-3.805 13.594-6.51 25.278-7.286 0 0 1.684-0.111 1.684-0.111s-0.132-1.367-0.132-1.367c-0.26-2.686-0.957-4.996-2.434-8.071-2.138-4.453-5.432-8.619-9.779-12.361-3.139-2.703-5.065-3.856-8.036-4.818-2.473-0.801-3.759-0.986-6.824-0.979 0 0-0.001 0-0.001 0M102.226 39.846c-3.066-0.007-4.352 0.178-6.824 0.979-2.971 0.962-4.893 2.115-8.032 4.818-4.347 3.742-7.644 7.908-9.782 12.362-1.477 3.075-2.17 5.385-2.43 8.070 0 0-0.135 1.367-0.135 1.367s1.687 0.111 1.687 0.111c11.683 0.776 21.066 3.481 25.278 7.286 0 0 0.656 0.594 0.656 0.594s2.701-2.26 2.701-2.26c6.288-5.261 7.963-7.063 9.487-10.206 2.453-5.058 3.074-10.017 1.763-14.072-0.567-1.752-1.658-3.446-3.249-5.026-1.224-1.216-1.741-1.582-3.284-2.333-2.717-1.323-4.376-1.683-7.835-1.691 0 0 0 0 0 0M63.976 78.967c1.275-0.022 2.625 0.618 6.318 2.638 2.29 1.253 4.326 2.43 4.53 2.614 0.827 0.746 0.698 1.642-0.326 2.267-1.682 1.026-8.366 4.591-8.869 4.731-0.817 0.227-2.672 0.199-3.367-0.048-0.891-0.319-8.815-4.685-9.209-5.075-0.508-0.502-0.476-1.293 0.077-1.802 0.662-0.609 8.596-4.869 9.511-5.106 0.492-0.128 0.911-0.212 1.337-0.219 0 0 0-0.001 0-0.001M28.010 89.773c0.182-0.005 0.359 0.043 0.511 0.142 0 0 3.357 2.062 3.357 2.062 0.49 0.316 0.549 1.012 0.119 1.406 0 0-3.357 3.905-3.357 3.905-0.57 0.533-1.502 0.125-1.497-0.656 0 0 0-5.967 0-5.967-0.002-0.484 0.384-0.88 0.868-0.892 0 0-0 0-0 0M99.584 89.773c0.484 0.012 0.87 0.409 0.868 0.892 0 0 0 5.967 0 5.967 0.006 0.781-0.925 1.189-1.496 0.656 0 0-3.357-3.905-3.357-3.905-0.431-0.394-0.373-1.091 0.118-1.406 0 0 3.357-2.062 3.357-2.062 0.152-0.099 0.329-0.147 0.511-0.142 0 0-0.001 0-0.001 0M63.223 97.056c12.042-0.173 24.356 2.502 36.92 8.553 1.243 0.573 1.399 2.277 0.281 3.067-0.538 0.38-1.242 0.432-1.83 0.134-24.241-11.675-46.964-10.335-69.154 0.014-1.245 0.571-2.641-0.42-2.513-1.784 0.059-0.627 0.446-1.177 1.016-1.444 11.469-5.349 23.236-8.366 35.279-8.539 0 0 0 0 0 0"></path>
</svg>
