<!-- Generated by IcoMoon.io -->
<svg version="1.1" xmlns="http://www.w3.org/2000/svg" width="128" height="128" viewBox="0 0 128 128">
<title>uni4C</title>
<path fill="#333" d="M53.965-0.031c0 0 0 12.899 0 12.899s-13.238 0-13.238 0c0 0 0-12.885 0-12.885s-21.27 0-21.27 0c0 0 0 30.953 0 30.953s14.523 9.682 14.523 9.682c0 0 0.303 33.040 0.303 33.040s-12.889 14.42-12.889 14.42c0 0 0 7.645 0 7.645s-10.957 10.961-10.957 10.961c0 0 0 21.285 0 21.285s41.85 0 41.85 0c0 0 23.436 0 23.436 0s41.846 0 41.846 0c0 0 0-21.285 0-21.285s-10.957-10.961-10.957-10.961c0 0 0-7.645 0-7.645s-12.889-14.42-12.889-14.42c0 0 0.306-33.040 0.306-33.040s14.527-9.682 14.527-9.682c0 0 0-30.953 0-30.953s-21.274 0-21.274 0c0 0 0 12.885 0 12.885s-13.234 0-13.234 0c0 0 0-12.899 0-12.899s-2.832 0-2.832 0c0 0-14.417 0-14.417 0s-2.835 0-2.835 0M24.562 20.826c0 0 78.883 0 78.883 0s0 9.576 0 9.576c0 0-78.883 0-78.883 0s0-9.576 0-9.576M36.838 78.385c0 0 19.817 0 19.817 0s14.705 0 14.705 0c0 0 19.817 0 19.817 0s9.804 9.454 9.804 9.454c0 0-29.621 0-29.621 0s-14.705 0-14.705 0c0 0-29.621 0-29.621 0s9.804-9.454 9.804-9.454M26.055 98.302c0 0 19.817 0 19.817 0s36.268 0 36.268 0c0 0 19.817 0 19.817 0s9.804 9.454 9.804 9.454c0 0-29.62 0-29.62 0s-36.267 0-36.267 0c0 0-29.62 0-29.62 0s9.804-9.454 9.804-9.454"></path>
</svg>
