<!-- Generated by IcoMoon.io -->
<svg version="1.1" xmlns="http://www.w3.org/2000/svg" width="128" height="128" viewBox="0 0 128 128">
<title>uni4E</title>
<path fill="#333" d="M53.595 0.663c-1.261 0.046-2.324 0.954-2.568 2.192 0 0-2.422 12.236-2.422 12.236s-4.884 0.255-4.884 0.255c0 0-9.56-11.887-9.56-11.887-1.754-2.191-5.274-0.614-4.806 2.154 0 0 1.955 11.606 1.955 11.606s-10.965 16.051-10.965 16.051c-0.255 0.379-0.411 0.817-0.454 1.272 0 0-0.896 9.531-0.896 9.531-0.443 0.58-4.529 5.92-9.078 12.743-2.394 3.591-4.792 7.421-6.638 10.908s-3.28 6.376-3.28 9.382c0 8.114 3.5 13.97 8.178 17.27 1.002 0.707 3.546 2.538 6.814 1.796 0.264-0.060 0.486-0.691 0.748-0.779 0 0.023-0.025 0.073-0.025 0.096 0.036 0.678 0.201 1.474 0.694 2.182s1.267 1.176 1.863 1.378c1.191 0.404 1.84 0.261 2.302 0.28 2.273 0.095 5.080 0.468 7.898-0.251 1.409-0.36 2.893-1.084 4.002-2.383s1.718-3.053 1.821-5.008c0.184-3.493-0.498-6.032-0.524-7.186-0.016-0.578 0.036-0.698 0.163-0.91 0.13-0.211 0.499-0.635 1.537-1.218 1.985-1.117 5.628-2.049 9.52-2.971s8.045-1.871 11.564-3.723c3.933-2.070 4.618-3.843 6.8-6.371 0 0-0.815 12.69-0.815 12.69-0.021 0.075-0.248 1.161-2.051 3.588-1.863 2.508-5.27 6.038-11.404 9.718-14.589 8.754-13.172 29.397-13.172 29.397 0.075 1.447 1.268 2.582 2.717 2.582 0 0 86.543 0 86.543 0 1.495 0.006 2.715-1.196 2.731-2.692 0.266-23.903 0.526-49.1-7.268-69.501-7.674-20.087-23.895-35.148-54.203-38.432-3.911-7.928-10.856-15.233-10.856-15.233-0.529-0.511-1.242-0.785-1.976-0.762 0 0-0.006 0-0.006 0M72.444 24.587c10.264-0.334 23.729 8.819 29.468 15.017 7.732 8.352 11.778 17.127 13.43 22.894s2.89 11.22 3.627 16.66c0.736 5.44 1.53 16.66 1.643 21.421s0.113 20.627 0.113 20.627-10.88 0.057-10.88 0.057c0 0 0.521-19.748 0.23-28.866s-0.706-16.249-3.11-25.225c-2.404-8.976-2.566-11.538-6.092-17.309s-3.428-7.469-8.327-11.741c-5.211-4.544-8.759-7.018-15.233-8.893-7.301-2.114-14.515-4.329-4.87-4.643 0 0 0 0 0 0M39.367 39.612c0.262 0.011 0.471 0.064 0.609 0.159 1.108 0.76-0.782 1.133-1.165 2.337-0.683 2.148 0.296 2.78-0.917 4.020-1.169 1.195-3.492 0.097-4.704 0.85s-1.408 1.97-2.182 1.842c-0.774-0.128-0.68-1.359-0.68-1.359s0.080-2.712 0.74-3.553c1.98-2.519 6.466-4.379 8.298-4.296 0 0 0 0 0 0M13.049 75.115c1.438 0.528-1.229 3.312-0.698 4.229s1.66 0.292 2.083 0.762c0.423 0.469 0.457 1.764 0.23 2.334-0.276 0.697-1.438 1.446-2.21 1.576-0.761 0.128-1.777-0.374-2.292-0.906s-1.049-1.611-0.669-3.68c0.252-1.37 2.741-4.699 3.556-4.314 0 0 0.001 0 0.001 0"></path>
</svg>
