<!-- Generated by IcoMoon.io -->
<svg version="1.1" xmlns="http://www.w3.org/2000/svg" width="128" height="128" viewBox="0 0 128 128">
<title>uni50</title>
<path fill="#333" d="M61.259 2.198c0 0-0.005 0.001-0.005 0.001s0 4.615 0 4.615c1.623 0.002 2.89 1.27 2.89 2.894s-1.267 2.891-2.89 2.894c0 0 0 3.234 0 3.234s0-0.036 0-0.036c-3.655-5.813-8.058-10.444-8.058-10.444-0.506-0.488-1.188-0.751-1.89-0.728 0 0-0.006 0-0.006 0-1.206 0.044-2.223 0.912-2.456 2.097 0 0-2.317 11.706-2.317 11.706s-4.672 0.244-4.672 0.244c0 0-9.145-11.37-9.145-11.37-1.678-2.096-5.045-0.588-4.598 2.059 0 0 1.87 11.103 1.87 11.103s-10.49 15.355-10.49 15.355c-0.245 0.362-0.394 0.781-0.434 1.216 0 0-0.857 9.117-0.857 9.117-0.424 0.555-4.333 5.663-8.684 12.191-2.29 3.435-4.583 7.099-6.349 10.435s-3.137 6.099-3.137 8.975c0 7.762 3.348 13.363 7.823 16.52 0.958 0.676 3.392 2.428 6.519 1.718 0.253-0.058 0.465-0.661 0.715-0.746 0 0.022-0.024 0.070-0.024 0.091 0.034 0.648 0.193 1.41 0.664 2.087s1.212 1.124 1.782 1.318c1.14 0.386 1.76 0.249 2.202 0.268 2.175 0.091 4.859 0.448 7.555-0.241 1.348-0.344 2.768-1.037 3.829-2.28s1.643-2.92 1.741-4.79c0.176-3.342-0.476-5.77-0.502-6.874-0.015-0.552 0.034-0.669 0.156-0.871 0.125-0.202 0.478-0.607 1.47-1.165 1.9-1.069 5.385-1.96 9.108-2.843s7.696-1.789 11.062-3.561c3.762-1.981 4.418-3.676 6.505-6.095 0 0-0.779 12.14-0.779 12.14-0.020 0.072-0.237 1.11-1.962 3.431-1.782 2.399-5.042 5.776-10.91 9.297-13.956 8.374-12.6 28.121-12.6 28.121 0.071 1.384 1.213 2.469 2.599 2.47 0 0 30.283-0.347 30.283-0.347 6.101-0.070 17.63 1.636 27.983-4.118 0.213-0.124 0.435-0.244 0.641-0.373 0.459-0.287 0.889-0.591 1.308-0.898 0.142-0.104 0.306-0.198 0.444-0.305 0.052-0.039 0.092-0.085 0.142-0.125 0.125-0.098 0.27-0.188 0.39-0.289 0.937-0.783 1.748-1.665 2.395-2.626 0.19-0.282 0.364-0.572 0.522-0.868 0.484-0.905 0.81-1.872 0.932-2.893 0.007-0.029 0.026-0.052 0.033-0.082 0 0 0.059-0.559 0.059-0.559s-0.005-0.007-0.005-0.007c0 0 0.013-0.115 0.013-0.115s0-0.118 0-0.118c0 0 0-0.105 0-0.105s-0.007-0.078-0.007-0.078c0.007-0.119 0.007 0.101 0.007-0.091 0 0 0-22.924 0-22.924 0.013-0.191 0-0.459 0-0.674 0 0 0-0.119 0-0.119 0.033-0.591-0.114-1.327-0.159-1.755-0.168-0.694-0.396-1.37-0.735-2.006-0.158-0.296-0.332-0.585-0.522-0.867-0.193-0.287-0.408-0.564-0.633-0.834 0 0 19.76-49.103 19.76-49.103 0.231 0.022 0.454 0.071 0.691 0.071 4.119 0 7.508-3.389 7.508-7.508 0-4.121-3.387-7.511-7.508-7.511s-7.511 3.39-7.508 7.511c0 1.824 0.691 3.481 1.789 4.787 0 0-23.984 26.020-23.984 26.020s2.165-35.605 2.165-35.605c3.581-0.561 6.366-3.665 6.366-7.393 0-4.119-3.388-7.508-7.508-7.508s-7.507 3.389-7.508 7.508c0 2.417 1.188 4.559 2.985 5.936 0 0-15.758 32.207-15.758 32.207s-7.637-35.040-7.637-35.040c0 0 0.059-0.271 0.059-0.271 2.783-1.103 4.78-3.816 4.781-6.973 0-4.119-3.389-7.508-7.508-7.508 0 0 0.002 0 0.002 0M91.84 10.954c1.625 0 2.893 1.268 2.893 2.894s-1.268 2.893-2.893 2.893c-1.626 0-2.894-1.268-2.894-2.893s1.268-2.894 2.894-2.894c0 0 0 0 0 0M120.519 23.14c1.626 0.001 2.895 1.271 2.894 2.897 0 1.625-1.268 2.894-2.894 2.894s-2.893-1.268-2.893-2.894c0-1.626 1.267-2.897 2.893-2.897 0 0 0 0 0 0M37.52 41.883c0.060-0.001 0.117 0 0.172 0.002 0.25 0.011 0.45 0.062 0.583 0.153 1.059 0.727-0.748 1.084-1.115 2.236-0.653 2.055 0.282 2.659-0.878 3.846-1.117 1.143-3.34 0.093-4.499 0.814s-1.347 1.884-2.087 1.762c-0.741-0.123-0.65-1.301-0.65-1.301s0.077-2.595 0.708-3.398c1.835-2.335 5.92-4.078 7.766-4.112 0 0 0 0 0 0M61.675 69.556c8.749 0.018 17.434 1.591 26.078 4.725 4.654 1.687 8.652 3.508 9.219 4.198 0.25 0.305 0.342 0.815 0.227 1.274-0.346 1.38-1.349 1.285-5.611-0.539-7.057-3.021-14.523-5.094-21.867-6.071-2.046-0.272-4.967-0.391-8.022-0.373 0 0-0.025-3.213-0.025-3.213M12.35 75.818c0 0 0 0 0 0 0.060-0.003 0.115 0.005 0.164 0.029 1.376 0.505-1.175 3.168-0.668 4.046s1.588 0.279 1.992 0.728c0.405 0.45 0.437 1.687 0.22 2.233-0.264 0.667-1.376 1.383-2.114 1.508-0.728 0.123-1.7-0.357-2.192-0.868s-1.004-1.541-0.64-3.52c0.225-1.229 2.334-4.105 3.238-4.155 0 0 0.001 0 0.001 0M61.765 81.12c1.020 0.079 2.027 0.375 3.051 0.885 3.158 1.581 6.572 3.587 7.020 4.127 0.629 0.758 0.091 1.315-2.809 2.903-3.733 2.046-5.633 3.118-7.174 3.379 0 0-0.089-11.293-0.089-11.293M95.969 91.248c0.6 0 0.752 0.766 0.752 3.795 0 2.605-0.254 3.564-0.942 3.564-0.113 0-1.017-0.973-2.009-2.161s-1.846-2.29-1.901-2.446c-0.112-0.32 3.511-2.751 4.1-2.751 0 0 0 0 0 0M61.9 98.369c8.678 0.043 17.293 1.615 25.867 4.724 4.655 1.687 8.652 3.508 9.219 4.198 0.25 0.305 0.339 0.815 0.224 1.274-0.347 1.38-1.346 1.282-5.607-0.542-7.057-3.021-14.523-5.093-21.867-6.071-1.818-0.242-4.94-0.362-7.81-0.373 0 0-0.025-3.209-0.025-3.209"></path>
</svg>
