<!-- Generated by IcoMoon.io -->
<svg version="1.1" xmlns="http://www.w3.org/2000/svg" width="128" height="128" viewBox="0 0 128 128">
<title>uni51</title>
<path fill="#333" d="M69.075 0c0 0 0 11.377 0 11.377-3.725-5.625-8.114-9.963-8.114-9.963-0.532-0.514-1.249-0.79-1.988-0.766 0 0-0.006 0-0.006 0-1.267 0.047-2.337 0.96-2.582 2.205 0 0-2.437 12.307-2.437 12.307s-4.912 0.257-4.912 0.257c0 0-9.614-11.955-9.614-11.955-1.764-2.204-5.305-0.618-4.834 2.165 0 0 1.967 11.674 1.967 11.674s-11.029 16.144-11.029 16.144c-0.258 0.381-0.414 0.821-0.456 1.279 0 0-0.901 9.586-0.901 9.586-0.446 0.583-4.555 5.954-9.13 12.817-2.408 3.612-4.82 7.464-6.676 10.972s-3.298 6.413-3.298 9.436c0 8.161 3.519 14.050 8.225 17.37 1.008 0.71 3.566 2.552 6.854 1.806 0.266-0.060 0.489-0.695 0.751-0.783 0 0.023-0.026 0.073-0.026 0.096 0.036 0.682 0.203 1.482 0.698 2.194 0.496 0.712 1.275 1.183 1.874 1.386 1.198 0.407 1.851 0.263 2.316 0.282 2.287 0.095 5.109 0.471 7.944-0.253 1.417-0.362 2.91-1.091 4.025-2.397s1.728-3.071 1.831-5.037c0.185-3.513-0.5-6.066-0.527-7.228-0.016-0.581 0.036-0.703 0.164-0.916 0.131-0.213 0.502-0.638 1.546-1.225 1.997-1.123 5.661-2.060 9.575-2.988s8.092-1.881 11.631-3.744c3.95-2.079 4.944-3.86 7.131-6.397 0 0 0 0.139 0 0.139s-0.81 12.613-0.81 12.613c-0.021 0.076-0.55 1.168-2.363 3.609-1.874 2.522-5.301 6.073-11.471 9.775-14.674 8.804-13.248 29.567-13.248 29.567 0.075 1.455 1.275 2.597 2.732 2.597 0 0 25.16 0 25.16 0s0.658 0 0.658 0c0 0 11.363 0 11.363 0s41.846 0 41.846 0c0 0 0-21.284 0-21.284s-10.957-10.961-10.957-10.961c0 0 0-7.644 0-7.644s-12.889-14.42-12.889-14.42c0 0 0.306-33.040 0.306-33.040s14.527-9.683 14.527-9.683c0 0 0-30.953 0-30.953s-21.274 0-21.274 0c0 0 0 12.885 0 12.885s-13.234 0-13.234 0c0 0 0-12.899 0-12.899s-2.832 0-2.832 0c0 0-7.514 0-7.514 0M69.734 20.857c0 0 39.084 0 39.084 0s0 9.576 0 9.576c0 0-39.084 0-39.084 0s0-9.576 0-9.576M44.477 39.821c0 0 0 0 0 0 0.063-0.002 0.123 0 0.18 0.002 0.264 0.012 0.474 0.065 0.613 0.16 1.114 0.764-0.787 1.14-1.172 2.351-0.687 2.16 0.297 2.795-0.922 4.043-1.175 1.202-3.513 0.098-4.731 0.855s-1.416 1.981-2.194 1.852c-0.778-0.129-0.684-1.368-0.684-1.368s0.081-2.728 0.745-3.573c1.929-2.455 6.224-4.287 8.166-4.324 0 0 0 0 0 0M18.013 75.501c0 0 0 0 0 0 0.064-0.004 0.122 0.006 0.173 0.031 1.447 0.531-1.236 3.331-0.702 4.253s1.669 0.293 2.094 0.766c0.426 0.472 0.459 1.774 0.231 2.347-0.277 0.701-1.446 1.454-2.222 1.585-0.766 0.129-1.787-0.376-2.305-0.912s-1.056-1.62-0.674-3.701c0.237-1.292 2.453-4.316 3.404-4.37 0 0 0 0 0 0M69.734 78.416c0 0 6.999 0 6.999 0s19.817 0 19.817 0c0 0 9.803 9.455 9.803 9.455s-29.62 0-29.62 0c0 0-6.999 0-6.999 0s0-9.455 0-9.455M69.734 98.333c0 0 17.778 0 17.778 0s19.817 0 19.817 0c0 0 9.804 9.454 9.804 9.454s-29.621 0-29.621 0c0 0-17.778 0-17.778 0s0-9.454 0-9.454"></path>
</svg>
