<!-- Generated by IcoMoon.io -->
<svg version="1.1" xmlns="http://www.w3.org/2000/svg" width="128" height="128" viewBox="0 0 128 128">
<title>uni52</title>
<path fill="#333" d="M53.014 1.346c-1.247 0.046-2.298 0.944-2.54 2.169 0 0-2.396 12.104-2.396 12.104s-4.831 0.253-4.831 0.253c0 0-9.456-11.757-9.456-11.757-1.734-2.168-5.217-0.608-4.754 2.13 0 0 1.934 11.481 1.934 11.481s-10.847 15.878-10.847 15.878c-0.253 0.374-0.407 0.807-0.449 1.258 0 0-0.886 9.428-0.886 9.428-0.438 0.574-4.48 5.856-8.979 12.605-2.369 3.552-4.74 7.341-6.566 10.791s-3.244 6.306-3.244 9.28c0 8.026 3.462 13.819 8.089 17.083 0.991 0.699 3.508 2.51 6.741 1.776 0.262-0.060 0.481-0.684 0.739-0.771 0 0.022-0.025 0.073-0.025 0.094 0.035 0.671 0.199 1.458 0.686 2.158s1.254 1.163 1.843 1.363c1.178 0.4 1.82 0.258 2.277 0.277 2.248 0.094 5.024 0.463 7.813-0.249 1.394-0.356 2.862-1.073 3.959-2.358s1.699-3.020 1.8-4.954c0.182-3.455-0.492-5.966-0.518-7.108-0.016-0.571 0.035-0.691 0.161-0.9 0.129-0.209 0.495-0.628 1.52-1.205 1.964-1.105 5.568-2.026 9.418-2.939s7.958-1.85 11.439-3.682c3.89-2.048 4.568-3.802 6.727-6.303 0 0-0.806 12.553-0.806 12.553-0.021 0.074-0.246 1.148-2.029 3.549-1.842 2.481-5.213 5.972-11.281 9.613-14.431 8.659-13.030 29.079-13.030 29.079 0.073 1.431 1.254 2.554 2.687 2.554 0 0 25.687 0 25.687 0s0-12.31 0-12.31c0.784 1.762 1.743 3.258 2.874 4.501 3.317 3.648 7.648 4.943 11.481 5.879 0 0 0.052 0.015 0.052 0.015s0.040 0.015 0.040 0.015c11.050 2.314 19.242-1.528 28.020-1.244 1.001 0.051 1.539 0.174 1.682 0.224 0.051 0.109 0.822 1.456 2.501 2.186 0 0 0.515 0.224 0.515 0.224s0.557 0 0.557 0c3.098 0 8.299-0.133 13.692-0.133 0 0 2.688 0 2.688 0s0-2.687 0-2.687c0-3.017-0.808-5.313-1.853-7.255-0.993-1.846-2.396-4.267-5.045-6.159s-6.397-3.145-11.743-3.311c-5.741-0.178-14.492 1.683-21.809 1.563-3.658-0.060-6.822-0.65-8.741-1.787-1.239-0.734-1.441-2.358-1.892-3.734 3.889-0.698 7.846-1.987 10.486-5.35 0 0 0.571-0.728 0.571-0.728s0-17.506 0-17.506c2.955-1.765 9.467-6.536 10.581-15.040 0.917-7.003-0.578-13.332-5.773-20.047-4.747-6.135-12.629-12.987-24.546-22.321 3.324-1.762 5.609-5.261 5.609-9.259 0-5.752-5.019-10.475-10.771-10.475 0 0-0.006 0-0.006 0-0.019 0-0.038 0.002-0.057 0.002 0 0 0 5.392 0 5.392 0.019 0 0.038-0.002 0.057-0.002 2.844 0 5.383 2.24 5.383 5.083 0 2.563-2.064 4.647-4.553 5.033 0 0 0-4.463 0-4.463-3.78-6.011-8.923-10.799-8.923-10.799-0.524-0.505-1.229-0.777-1.955-0.753 0 0-0.004 0-0.004 0M38.763 39.871c0 0 0 0 0 0 0.062-0.002 0.121 0 0.178 0.002 0.259 0.012 0.466 0.064 0.602 0.158 1.095 0.752-0.774 1.121-1.153 2.313-0.675 2.124 0.293 2.749-0.907 3.977-1.155 1.182-3.455 0.096-4.652 0.841s-1.393 1.949-2.158 1.822-0.672-1.346-0.672-1.346c0 0 0.079-2.683 0.732-3.514 1.898-2.414 6.121-4.216 8.031-4.252 0 0 0 0 0 0M63.898 42.305c0 0 1.189 0 1.189 0s0 9.116 0 9.116c0 0 9.116 0 9.116 0s0 3.57 0 3.57c0 0-9.116 0-9.116 0s0 9.116 0 9.116c0 0-1.19 0-1.19 0s0-21.802 0-21.802M63.898 71.805c5.694 0.051 11.871 0.878 18.059 2.759 2.378 0.648 1.287 4.221-1.047 3.43-5.852-1.779-11.656-2.569-17.011-2.619 0 0 0-3.57 0-3.57M12.737 74.962c0 0 0.001 0 0.001 0 0.062-0.003 0.119 0.006 0.169 0.030 1.423 0.523-1.215 3.276-0.69 4.183s1.641 0.288 2.060 0.754c0.418 0.465 0.452 1.745 0.227 2.308-0.273 0.69-1.422 1.43-2.186 1.559-0.753 0.127-1.757-0.37-2.267-0.897s-1.038-1.593-0.662-3.64c0.234-1.27 2.412-4.244 3.348-4.297 0 0 0 0 0 0M63.898 80.053c0 0 0.121 0 0.121 0s0 1.429 0 1.429c0 0 3.209 0 3.209 0s0 2.775 0 2.775c0 0-3.209 0-3.209 0s0 1.427 0 1.427c0 0-0.121 0-0.121 0s0-5.63 0-5.63M83.331 83.477c0 0 0 4.765 0 4.765s-2.13-2.691-2.13-2.691c0 0 2.13-2.074 2.13-2.074M63.898 90.502c5.757 0.024 11.765 0.847 18.059 2.76 2.378 0.649 1.287 4.22-1.047 3.43-5.96-1.812-11.594-2.596-17.011-2.621 0 0 0-3.57 0-3.57"></path>
</svg>
