<!-- Generated by IcoMoon.io -->
<svg version="1.1" xmlns="http://www.w3.org/2000/svg" width="128" height="128" viewBox="0 0 128 128">
<title>uni53</title>
<path fill="#333" d="M64.038 3.629c0 0-0.012 0.002-0.012 0.002-3.948 0-7.195 3.248-7.195 7.195 0 3.029 1.918 5.631 4.591 6.686 0 0 0.056 0.253 0.056 0.253s-7.332 33.584-7.332 33.584c0 0-15.099-30.864-15.099-30.864 1.723-1.319 2.861-3.374 2.861-5.692 0-3.948-3.248-7.195-7.195-7.195s-7.195 3.248-7.195 7.195c0 3.572 2.667 6.547 6.098 7.085 0 0 2.075 34.123 2.075 34.123s-22.982-24.934-22.982-24.934c1.053-1.253 1.714-2.843 1.714-4.591 0-3.95-3.246-7.198-7.195-7.198s-7.198 3.249-7.195 7.198c0 3.948 3.248 7.195 7.195 7.195 0.225 0 0.439-0.047 0.659-0.068 0 0 18.975 47.154 18.975 47.154-0.323 0.406-0.623 0.824-0.876 1.263-0.493 0.857-0.839 1.778-0.994 2.747 0 0 0 0.005 0 0.005-0.044 0.281-0.066 0.568-0.078 0.857 0 0 0 0.006 0 0.006s-0.050 0.188-0.050 0.188c0 0 0.005 0.065 0.005 0.065 0 0.008-0.006 0.012-0.006 0.020 0 0 0 0.159 0 0.159s0.006 0.052 0.006 0.052c0 0 0 0.005 0 0.005-0.005 0.058-0.006-0.048-0.006 0.055 0 0 0 21.969 0 21.969 0 0.172 0.026 0.133 0.044 0.26-0.012 0.13-0.032 0.257-0.037 0.386 0 0-0.005 0.058-0.005 0.058s0 0.055 0 0.055c0 0.563 0.080 1.106 0.205 1.636-0.019 0.013-0.044 0.035-0.057 0.048 0.183 0.762 0.455 1.501 0.851 2.188 0.328 0.572 0.718 1.115 1.166 1.63 0.224 0.258 0.465 0.505 0.714 0.747 0.248 0.241 0.507 0.477 0.776 0.701 7.138 5.18 16.435 7.033 24.256 7.92 2.362 0.259 4.816 0.436 7.345 0.526 1.265 0.047 2.547 0.068 3.845 0.068 0.083 0 0.166 0 0.25 0 0 0 0-0.005 0-0.005 1.179 0 2.345-0.024 3.497-0.064 0.013-0.001 0.025-0.005 0.037-0.005 3.632-0.141 7.092-0.43 10.586-0.935 2.175-0.333 4.308-0.721 6.38-1.201 3.373-0.797 6.643-1.805 9.741-3.267 0.243-0.115 0.494-0.225 0.727-0.344 2.488-1.285 4.95-2.899 6.53-5.215 0.182-0.27 0.349-0.548 0.5-0.831 0.464-0.868 0.707-1.809 0.85-2.323 0.152-0.546 0.139-1.397 0.14-5.14 0 0 0-18.39 0-18.39 0.013-0.183-0.005-0.439-0.005-0.646 0 0 0-0.114 0-0.114 0.032-0.567-0.109-1.272-0.152-1.682-0.161-0.665-0.379-1.313-0.705-1.922-0.151-0.283-0.318-0.561-0.5-0.832-0.185-0.275-0.391-0.54-0.607-0.798 0 0 18.94-47.060 18.94-47.060 0.222 0.021 0.435 0.068 0.663 0.068 3.948 0 7.195-3.247 7.195-7.195 0-3.949-3.246-7.198-7.195-7.198s-7.198 3.249-7.196 7.198c0 1.748 0.663 3.336 1.714 4.588 0 0-22.987 24.937-22.987 24.937s2.075-34.123 2.075-34.123c3.432-0.537 6.101-3.511 6.101-7.085 0-3.948-3.248-7.195-7.195-7.195-3.948 0-7.195 3.248-7.195 7.195 0 2.317 1.139 4.369 2.861 5.689 0 0-15.102 30.866-15.102 30.866s-7.319-33.581-7.319-33.581c0 0 0.056-0.26 0.056-0.26 2.668-1.056 4.581-3.658 4.582-6.683 0-3.888-3.151-7.094-7.017-7.191 0 0 0-0.004 0-0.004-0.058-0.002-0.117-0.005-0.176-0.005 0 0 0 0.004 0 0.004M64.026 8.053c0 0 0 0.002 0 0.002s0.002 0 0.002 0c0.044 0 0.089 0.001 0.133 0.003 0.004 0 0.008 0 0.012 0.001 0.001 0 0.003 0 0.004 0 1.485 0.075 2.624 1.261 2.624 2.769 0 1.495-1.12 2.674-2.587 2.767 0 0 0-0.002 0-0.002-0.062 0.004-0.125 0.007-0.188 0.007-1.557-0.001-2.773-1.216-2.773-2.773s1.215-2.773 2.773-2.773c0 0 0.001 0.001 0.001 0.001M34.712 12.021c1.557 0 2.772 1.215 2.773 2.773s-1.215 2.773-2.773 2.773c-1.558 0-2.773-1.215-2.773-2.773s1.215-2.773 2.773-2.773c0 0 0 0 0 0M93.342 12.022c1.558 0 2.773 1.215 2.773 2.773s-1.215 2.773-2.773 2.773c-1.557 0-2.773-1.215-2.773-2.773s1.215-2.773 2.773-2.773c0 0 0 0 0 0M7.225 23.7c1.558 0 2.774 1.218 2.773 2.776 0 1.557-1.215 2.773-2.773 2.773s-2.773-1.215-2.773-2.773c0-1.558 1.214-2.776 2.773-2.776 0 0 0 0 0 0M120.828 23.702c1.558 0 2.774 1.218 2.773 2.776 0 1.557-1.215 2.773-2.773 2.773s-2.773-1.215-2.773-2.773c0-1.558 1.215-2.776 2.773-2.776 0 0 0 0 0 0M64.214 30.319c0 0 7.863 36.091 7.863 36.091s16.739-34.191 16.739-34.191c0 0-2.282 37.467-2.282 37.467s24.385-26.46 24.385-26.46c0 0-13.735 34.133-13.735 34.133-1.831-1.138-3.971-2.129-6.416-2.994-8.438-2.753-18.838-3.875-26.676-3.935-0.022 0.001-0.043 0.001-0.065 0.001 0 0 0 0.834 0 0.834-3.473 0.035-7.079 0.253-9.66 0.64-6.661 1-13.328 2.929-20.018 5.787-3.219 1.374-3.895 1.517-4.465 0.948-0.601-0.601-0.421-1.941 0.328-2.432 0.375-0.246 2.683-1.24 5.127-2.211 9.184-3.65 18.261-5.582 27.266-5.796 0.537-0.013 1.074-0.019 1.61-0.019 0 0 0-37.863 0-37.863M64.214 75.406c9.805 0.025 18.673 1.463 24.891 3.662 3.136 1.109 5.588 2.421 7.104 3.689 1.49 1.245 1.961 2.262 1.978 3.094 0 0.010 0 0.022-0.005 0.033 0.025 0.474 0.013 0.948 0.025 1.423 0 0-4.256 2.334-4.256 2.334-1.296 0.71-0.937 1.486 0 2.63 0 0 4.256 5.196 4.256 5.196s0 3.578 0 3.578c-2.031-1.434-4.517-2.649-7.439-3.682-6.966-2.463-16.272-3.923-26.553-3.947 0 0 0-2.954 0-2.954 0.785-0.030 1.554-0.202 2.138-0.523 0 0 7.361-4.036 7.361-4.036 1.296-0.711 1.296-1.92 0-2.631 0 0-7.361-4.036-7.361-4.036-0.585-0.321-1.352-0.492-2.138-0.521 0 0-0.001-3.308-0.001-3.308M63.901 79.246c0.041-0.001 0.083 0.001 0.125 0.001 0 0 0 10.899 0 10.899-1.396 0.044-2.639-0.652-5.095-1.95-4.463-2.358-5.289-2.925-5.289-3.634 0-0.712 0.84-1.287 5.315-3.64 1.767-1.108 3.377-1.659 4.944-1.677 0 0 0 0 0 0M30.021 89.074c0.573-0.036 3.741 1.709 4.089 2.272 0.163 0.264-3.32 4.679-3.692 4.679-0.094 0-0.329-0.16-0.523-0.354-0.551-0.551-0.482-6.373 0.078-6.588 0.013-0.005 0.029-0.008 0.047-0.009 0 0 0 0.001 0 0.001M64.026 95.796c0 0 0 2.602 0 2.602 9.88 0.007 18.82 1.45 25.079 3.662 3.136 1.109 5.588 2.421 7.104 3.689 1.453 1.214 1.93 2.209 1.865 3.171s-0.427 1.7-1.247 2.531c-2.090 1.701-4.247 2.904-6.404 3.76-8.607 3.112-17.647 4.119-26.209 4.173 0 0 0-20.509 0-20.509-3.527 0.030-7.213 0.251-9.838 0.645-6.661 1-13.328 2.925-20.018 5.783-3.219 1.374-3.892 1.52-4.461 0.951-0.602-0.601-0.421-1.942 0.328-2.432 0.374-0.245 2.679-1.243 5.124-2.214 9.184-3.65 18.264-5.579 27.268-5.793 0.47-0.011 0.94-0.016 1.41-0.018 0 0 0 0 0 0"></path>
</svg>
