<!-- Generated by IcoMoon.io -->
<svg version="1.1" xmlns="http://www.w3.org/2000/svg" width="128" height="128" viewBox="0 0 128 128">
<title>uni54</title>
<path fill="#333" d="M48.548 0c0 0 0 2.78 0 2.78s0 27.463 0 27.463c0 0 6.703 0 6.703 0-0.199 0.138-0.399 0.273-0.597 0.416-0.172 0.126-0.343 0.256-0.513 0.389-2.37 1.815-4.638 4.228-6.776 7.238-0.645-0.556-1.312-1.111-2.003-1.666-5.382-4.33-12.419-6.608-19.338-6.679s-13.846 2.090-18.683 7.047c-6.003 6.152-6.852 14.122-5.655 20.769s4.133 12.108 6.703 14.944c3.592 3.966 10.474 9.641 13.924 12.418-0.133 0.568-0.222 1.147-0.222 1.75 0 0 0 0.059 0 0.059s0.006 0.062 0.006 0.062c0.006 0.139 0.027 0.275 0.040 0.413-0.020 0.136-0.047 0.094-0.047 0.278 0 0 0 23.487 0 23.487s0 0.056 0 0.056c0 0 0 0.005 0 0.005s0 0.053 0 0.053c0 0 0 0.17 0 0.17s0 0.024 0 0.024c0 0 0 0.069 0 0.069s0.060 0.201 0.060 0.201c0 0 0 0.007 0 0.007 0.013 0.309 0.034 0.616 0.083 0.917 0.166 1.036 0.535 2.020 1.062 2.937 0.351 0.611 0.772 1.192 1.25 1.742 0.24 0.276 0.495 0.54 0.76 0.799 0.265 0.258 0.542 0.51 0.83 0.75 2.354 1.968 5.483 3.553 9.238 4.881 4.693 1.659 10.379 2.894 16.693 3.586 2.526 0.276 5.153 0.466 7.856 0.562 1.352 0.050 2.722 0.073 4.109 0.073 0 0-0.136 0-0.136 0 0.043 0 0.086 0.001 0.13 0.001 1.35 0 2.682-0.024 3.999-0.069 0.014-0.001 0.028 0 0.041 0 1.304-0.045 2.588-0.113 3.853-0.201 0.892-0.063 1.761-0.146 2.631-0.229 2.447-0.212 4.808-0.547 9.498-1.495s9.894-2.159 14.882-5.066c2.014-1.23 4.249-3.016 5.447-4.728 0.639-1.022 1.257-2.17 1.443-3.387 0.082-0.579 0.146-1.108 0.146-1.388 0-1.448 0.005-23.752 0.005-23.752 0-0.118-0.045-0.173-0.056-0.281 0.013-0.096 0.033-0.192 0.042-0.288 0 0 0.010-0.121 0.010-0.121s0-0.122 0-0.122c0-0.602-0.088-1.182-0.222-1.749 3.45-2.777 10.331-8.452 13.924-12.418 2.57-2.837 5.507-8.297 6.703-14.945s0.348-14.617-5.655-20.769c-4.838-4.957-11.763-7.118-18.683-7.047s-13.957 2.349-19.339 6.679c-0.691 0.556-1.358 1.111-2.003 1.666-2.138-3.010-4.406-5.423-6.776-7.239-0.171-0.133-0.342-0.262-0.514-0.389-0.198-0.143-0.398-0.279-0.597-0.416 0 0 6.61 0 6.61 0s0-30.244 0-30.244c0 0-15.383 0-15.383 0s0 0.003 0 0.003c0 0-15.481-0.005-15.481-0.005M64.029 5.551c0 0 5.954 0 5.954 0s-5.954 5.802-5.954 5.802c0 0 0-5.802 0-5.802M57.446 7.192c0 0 5.273 5.273 5.273 5.273s1.31-0.544 1.31-0.544c0 0 0 6.23 0 6.23s-1.314-0.545-1.314-0.545c0 0-5.27 5.277-5.27 5.277s-1.26-1.26-1.26-1.26c0 0 5.277-5.269 5.277-5.269s-0.545-1.316-0.545-1.316c0 0 0.545-1.323 0.545-1.323s-5.277-5.276-5.277-5.276c0 0 1.26-1.247 1.26-1.247M73.881 9.203c0 0 0 11.841 0 11.841s-6.075-5.919-6.075-5.919c0 0 6.075-5.922 6.075-5.922M64.029 18.894c0 0 5.95 5.798 5.95 5.798s-5.95 0-5.95 0c0 0 0-5.798 0-5.798M64.027 32.669c0 0 0.002 0 0.002 0 1.374 0.014 2.654 0.377 3.857 0.923 3.759 1.685 6.838 5.62 8.772 8.519-7.076 7.155-10.682 14.033-12.365 19.516-0.106 0.344-0.173 0.659-0.264 0.993-0.091-0.334-0.155-0.649-0.26-0.993-1.683-5.483-5.289-12.361-12.365-19.516 1.945-2.943 3.892-5.159 5.794-6.676 0.101-0.079 0.2-0.167 0.302-0.243 0.386-0.294 0.768-0.538 1.149-0.778 0.215-0.134 0.429-0.282 0.642-0.399 0.296-0.164 0.589-0.291 0.882-0.424 0.252-0.114 0.507-0.241 0.757-0.333 0.326-0.12 0.648-0.2 0.969-0.281 0.198-0.051 0.401-0.123 0.597-0.16 0.518-0.095 1.030-0.149 1.533-0.149 0 0-0.001 0-0.001 0M25.43 35.28c0.179-0.002 0.359-0.002 0.54 0 5.771 0.060 11.744 2.025 16.045 5.485 10.527 8.469 14.845 16.544 16.649 22.422 0.987 3.22 1.214 5.615 1.232 7.203-9.453 0.338-17.961 1.828-24.526 4.148-3.755 1.328-6.883 2.913-9.238 4.88-0.383 0.32-0.74 0.661-1.083 1.010-3.154-2.56-9.535-7.803-12.712-11.31-1.47-1.622-4.406-6.756-5.405-12.306s-0.374-11.388 4.225-16.1c3.473-3.56 8.702-5.377 14.273-5.433 0 0 0 0 0 0M102.63 35.28c5.57 0.056 10.799 1.873 14.273 5.433 4.599 4.712 5.224 10.55 4.225 16.101s-3.936 10.684-5.405 12.306c-3.177 3.507-9.558 8.75-12.712 11.31-0.343-0.35-0.701-0.69-1.083-1.010-2.354-1.968-5.483-3.553-9.237-4.881-6.565-2.321-15.073-3.811-24.526-4.148 0.019-1.588 0.244-3.983 1.232-7.203 1.804-5.878 6.122-13.953 16.648-22.422 4.301-3.46 10.273-5.425 16.045-5.485 0.18-0.002 0.36-0.002 0.54 0 0 0 0 0 0 0M63.85 36.651c-1.614 0.035-3.212 0.907-4.832 2.621-2.519 2.666-2.442 2.265-0.788 4.214 0.796 0.938 1.926 2.407 2.51 3.267 1.088 1.602 3.059 5.565 3.059 6.151 0 0.282 0.047 0.315 0.231-0.051 0 0 0-16.2 0-16.2-0.060-0.001-0.12-0.004-0.179-0.002 0 0 0 0 0 0M25.831 39.873c0 0 0 0 0 0-3.458 0.009-5.114 0.368-7.832 1.69-1.543 0.752-2.060 1.117-3.284 2.333-1.591 1.581-2.686 3.274-3.253 5.026-1.31 4.055-0.689 9.015 1.764 14.073 1.524 3.143 3.199 4.944 9.488 10.206 0 0 2.701 2.26 2.701 2.26s0.66-0.593 0.66-0.593c4.212-3.805 13.595-6.51 25.279-7.287 0 0 1.684-0.111 1.684-0.111s-0.132-1.368-0.132-1.368c-0.26-2.686-0.957-4.996-2.434-8.072-2.138-4.454-5.432-8.62-9.779-12.362-3.139-2.703-5.065-3.856-8.036-4.818-2.473-0.801-3.759-0.986-6.825-0.979 0 0 0 0 0 0M64.029 75.649c10.591 0 20.177 1.545 26.883 3.916 3.353 1.185 5.975 2.589 7.595 3.944 1.593 1.331 2.097 2.419 2.115 3.308 0 0.010-0.001 0.021-0.006 0.032 0 0-0.138 0.743-0.138 0.743s0.163 0.423 0.163 0.423c0 0 0 0.355 0 0.355s-4.55 2.496-4.55 2.496c-1.386 0.759-1.001 1.59 0 2.812 0 0 4.55 5.554 4.55 5.554s0 3.826 0 3.826c-2.172-1.533-4.829-2.832-7.953-3.937-7.509-2.655-17.558-4.221-28.658-4.221 0 0 0-3.439 0-3.439 0.933 0 1.866-0.186 2.558-0.566 0 0 7.87-4.315 7.87-4.315 1.386-0.76 1.386-2.053 0-2.812 0 0-7.87-4.315-7.87-4.315-0.692-0.379-1.625-0.567-2.558-0.566 0 0 0-3.237 0-3.237M63.978 78.996c0.017-0.001 0.034 0.001 0.051 0.001 0 0 0 12.403 0 12.403-0.696 0-1.395-0.069-1.766-0.201-0.891-0.319-8.815-4.686-9.209-5.076-0.508-0.502-0.476-1.293 0.076-1.802 0.662-0.609 8.596-4.868 9.512-5.106 0.492-0.128 0.911-0.212 1.336-0.219 0 0 0-0.001 0-0.001M28.011 89.802c0 0 0 0 0 0s0 0 0 0c0.181-0.005 0.358 0.044 0.51 0.142 0 0 3.357 2.062 3.357 2.062 0.49 0.316 0.549 1.013 0.118 1.406 0 0-3.356 3.906-3.356 3.906-0.57 0.533-1.502 0.125-1.497-0.656 0 0 0-5.967 0-5.967 0-0.484 0.384-0.88 0.867-0.892 0 0 0 0 0 0M64.029 97.080c0 0 0 3.15 0 3.15 10.591 0 20.177 1.545 26.883 3.916 3.353 1.185 5.975 2.589 7.595 3.944 1.553 1.298 2.063 2.362 1.992 3.39-0.452 2.301-2.257 3.653-3.952 4.67-3.782 2.174-7.669 3.259-10.079 4.049-4.658 1.528-14.514 2.434-22.438 2.471 0 0-0.001 0-0.001 0s0-22.088 0-22.088c-11.756 0.046-23.242 2.981-34.587 8.272-1.247 0.567-2.64-0.428-2.507-1.791 0.060-0.624 0.445-1.17 1.011-1.437 11.469-5.349 23.237-8.366 35.28-8.539 0.267-0.005 0.536-0.005 0.804-0.005 0 0 0.001 0 0.001 0"></path>
</svg>
