<!-- Generated by IcoMoon.io -->
<svg version="1.1" xmlns="http://www.w3.org/2000/svg" width="128" height="128" viewBox="0 0 128 128">
<title>uni55</title>
<path fill="#333" d="M53.965-0.031c0 0 0 12.899 0 12.899s-13.234 0-13.234 0c0 0 0-12.885 0-12.885s-0.002 0-0.002 0c0 0-21.27 0-21.27 0s-0.002 0-0.002 0c0 0 0 30.953 0 30.953s8.474 5.648 8.474 5.648c0 0 6.052 4.034 6.052 4.034s0.137 15.018 0.137 15.018c0 0 0.164 18.022 0.164 18.022s-6.442 7.21-6.442 7.21c0 0-6.445 7.21-6.445 7.21s0 7.644 0 7.644c0 0-5.9 5.902-5.9 5.902s-5.059 5.059-5.059 5.059c0 0 0 21.285 0 21.285s0.002 0 0.002 0c0 0 41.848 0 41.848 0s0.002 0 0.002 0c0 0 11.267 0 11.267 0s12.167 0 12.167 0c0 0 41.85 0 41.85 0s0-21.285 0-21.285c0 0-10.961-10.961-10.961-10.961s0-7.645 0-7.645c0 0-12.885-14.42-12.885-14.42s0.299-33.040 0.299-33.040c0 0 14.527-9.682 14.527-9.682s0-30.953 0-30.953c0 0-21.274 0-21.274 0s0 12.885 0 12.885c0 0-13.234 0-13.234 0s0-12.899 0-12.899c0 0-2.832 0-2.832 0s-7.657 0-7.657 0c0 0-6.754 0-6.754 0s-0.005 0-0.005 0c0 0-2.831 0-2.831 0s-0.001 0-0.001 0M63.556 5.451c0 0 5.022 0 5.022 0s0 12.885 0 12.885c0 0 24.17 0 24.17 0s0-12.885 0-12.885c0 0 10.324 0 10.324 0s0 21.434 0 21.434c0 0-28.733 0-28.733 0s-20.665 0-20.665 0c0 0-28.733 0-28.733 0s0-6.059 0-6.059c0 0 38.616 0 38.616 0s0-15.375 0-15.375M63.556 32.35c0 0 10.782 0 10.782 0s22.211 0 22.211 0c0 0-7.955 5.304-7.955 5.304s-1.749 0-1.749 0c0 0-23.29 0-23.29 0s0-5.304 0-5.304M63.556 43.123c0 0 23.29 0 23.29 0s1.677 0 1.677 0c0 0-0.256 28.825-0.256 28.825s-1.474 0-1.474 0c0 0-23.236 0-23.236 0s0-28.825 0-28.825M63.556 77.427c0 0 23.236 0 23.236 0s2.971 0 2.971 0c0 0 9.629 10.783 9.629 10.783s-24.395 0-24.395 0c0 0-11.441 0-11.441 0s0-0.37 0-0.37c0 0-6.899 0-6.899 0s-27.707 0-27.707 0c0 0 8.443-9.455 8.443-9.455s19.264 0 19.264 0c0 0 6.899 0 6.899 0s0-0.958 0-0.958M63.556 93.678c0 0 11.441 0 11.441 0s26.136 0 26.136 0c0 0 0 4.307 0 4.307s10.302 10.288 10.302 10.288c0 0-36.787 0-36.787 0s-11.092 0-11.092 0c0 0 0-0.517 0-0.517s-17.682 0-17.682 0c0 0-28.781 0-28.781 0s9.468-9.454 9.468-9.454c0 0 19.313 0 19.313 0s17.682 0 17.682 0c0 0 0-4.624 0-4.624M63.556 113.737c0 0 11.092 0 11.092 0s37.461 0 37.461 0c0 0 0 8.753 0 8.753s-36.385 0-36.385 0c0 0-12.168 0-12.168 0s0-8.753 0-8.753"></path>
</svg>
