<!-- Generated by IcoMoon.io -->
<svg version="1.1" xmlns="http://www.w3.org/2000/svg" width="128" height="128" viewBox="0 0 128 128">
<title>uni56</title>
<path fill="#333" d="M64.057 2.533c-0.019 0-0.038 0.001-0.057 0.002-5.664 0.031-10.303 4.69-10.303 10.362 0 3.928 2.228 7.37 5.48 9.126-11.814 9.252-19.614 16.038-24.317 22.116-5.14 6.642-6.633 12.903-5.726 19.832 1.102 8.413 7.544 13.133 10.467 14.88 0 0 0 17.319 0 17.319s0.565 0.721 0.565 0.721c2.611 3.327 6.526 4.602 10.373 5.293-0.446 1.361-0.636 2.968-1.861 3.695-1.898 1.125-5.025 1.708-8.644 1.767-7.238 0.119-15.91-1.722-21.589-1.546-5.289 0.164-8.996 1.403-11.617 3.275s-4.008 4.266-4.991 6.093c-1.034 1.923-1.836 4.193-1.836 7.178 0 0 0 2.659 0 2.659s2.675 0 2.675 0c5.335 0 10.481 0.132 13.545 0.132 0 0 0.548 0 0.548 0s0.513-0.222 0.513-0.222c1.502-0.653 2.349-1.86 2.54-2.177 0.176-0.054 0.663-0.16 1.546-0.209 8.704-0.298 16.805 3.525 27.759 1.23 0 0 0.053-0.015 0.053-0.015s0.039-0.015 0.039-0.015c3.791-0.926 8.077-2.207 11.358-5.816 1.417-1.558 2.56-3.517 3.424-5.906 0 0 0 0.005 0 0.005s0-0.001 0 0c0.864 2.388 2.011 4.347 3.427 5.906 3.281 3.609 7.566 4.889 11.358 5.816 0 0 0.052 0.014 0.052 0.014s0.040 0.014 0.040 0.014c10.931 2.289 19.036-1.512 27.72-1.23 0.99 0.050 1.523 0.172 1.664 0.222 0.050 0.108 0.813 1.441 2.474 2.163 0 0 0.51 0.222 0.51 0.222s0.551 0 0.551 0c3.064 0 8.21-0.132 13.545-0.132 0 0 2.658 0 2.658 0s0-2.659 0-2.659c0-2.985-0.8-5.255-1.834-7.178-0.983-1.826-2.37-4.222-4.991-6.093s-6.329-3.111-11.618-3.275c-5.679-0.176-14.337 1.665-21.575 1.546-3.619-0.060-6.749-0.642-8.647-1.767-1.226-0.727-1.425-2.333-1.872-3.695 3.847-0.691 7.762-1.965 10.373-5.293 0 0 0.565-0.721 0.565-0.721s0-17.319 0-17.319c2.923-1.746 9.365-6.466 10.467-14.879 0.907-6.928-0.572-13.189-5.712-19.831-4.697-6.070-12.493-12.848-24.282-22.082 3.288-1.744 5.549-5.205 5.549-9.16 0-5.69-4.673-10.363-10.363-10.363 0 0-0.004-0.003-0.004-0.003M64.057 7.867c2.813 0 5.033 2.216 5.033 5.029s-2.22 5.043-5.033 5.043c-0.019 0-0.038-0.001-0.057-0.002-2.786-0.030-4.986-2.248-4.986-5.041s2.2-4.998 4.986-5.028c0.019 0 0.038-0.002 0.057-0.002 0 0 0 0.001 0 0.001M64.001 25.006c0 0 0 0.001 0 0.001 12.642 9.844 20.608 16.804 24.933 22.393 4.524 5.846 5.424 9.969 4.648 15.891-0.95 7.251-7.828 10.91-8.564 11.292-5.386-2.307-12.385-3.726-21.019-3.918 0 0 0-6.545 0-6.545s-1.77 0-1.77 0c0 0 0-9.018 0-9.018s-9.019 0-9.019 0c0 0 0-3.532 0-3.532s9.019 0 9.019 0c0 0 0-9.018 0-9.018s1.77 0 1.77 0c0 0 0-17.544 0-17.544s0.001-0 0.002-0.001c0 0 0 0 0 0M64 42.551c0 0 0 21.568 0 21.568s1.762 0 1.762 0c0 0 0-9.018 0-9.018s9.019 0 9.019 0c0 0 0-3.532 0-3.532s-9.019 0-9.019 0c0 0 0-9.018 0-9.018s-1.762 0-1.762 0M64 71.732c0 0 0 3.531 0 3.531-6.059 0.035-11.845 1.027-17.509 2.608-2.263 0.607-3.206-2.766-0.957-3.421 5.645-1.576 11.488-2.594 17.617-2.71 0 0 0 0 0 0 0.282-0.005 0.565-0.007 0.848-0.008 0 0 0 0 0 0M64 75.995c8.010 0.165 14.766 1.305 19.077 3.030 0 0 0 3.605 0 3.605s-2.325 2.325-2.325 2.325c0 0 2.325 2.326 2.325 2.326s0 5.421 0 5.421c-6.361-1.387-12.728-2.239-19.077-2.32 0 0 0 3.379 0 3.379-6.059 0.034-11.845 1.028-17.509 2.609-2.284 0.643-3.243-2.787-0.957-3.421 5.645-1.576 11.488-2.594 17.617-2.711 0.282-0.005 0.565-0.007 0.848-0.008 0 0 0-4.764 0-4.764s-0.706 0-0.706 0c0 0 0-1.411 0-1.411s-3.178 0-3.178 0c0 0 0-2.745 0-2.745s3.178 0 3.178 0c0 0 0-1.414 0-1.414s0.706 0 0.706 0c0 0 0-3.901 0-3.901M64 79.896c0 0 0 5.57 0 5.57s0.705 0 0.705 0c0 0 0-1.411 0-1.411s3.175 0 3.175 0c0 0 0-2.745 0-2.745s-3.175 0-3.175 0c0 0 0-1.414 0-1.414s-0.705 0-0.705 0M44.321 83.282c0 0 2.107 2.052 2.107 2.052s-2.107 2.662-2.107 2.662c0 0 0-4.714 0-4.714M64 93.921c5.486 0.071 11.011 0.74 16.568 1.859-1.295 0.71-2.808 1.228-4.631 1.505-3.149 0.478-6.763 0.418-10.162 0.405-0.294 0-0.604 0-0.894 0 0 0-0.881 0-0.881 0s0-3.769 0-3.769M72.482 102.718c0.781 3.109 1.68 6.28 4.124 7.729 3.255 1.93 7.205 2.449 11.278 2.516 8.147 0.134 17.33-1.674 21.499-1.546 4.559 0.142 7.079 1.122 8.696 2.277s2.481 2.601 3.393 4.298c0.358 0.664 0.329 1.424 0.524 2.017-3.575 0.034-7.123 0.082-9.326 0.093-0.005-0.015-0.073-0.113-0.497-0.617-0.457-0.544-1.272-1.145-2.163-1.456s-1.861-0.459-3.143-0.523c0 0-0.025 0-0.025 0s-0.025 0-0.025 0c-10.17-0.348-17.632 3.23-26.788 1.338-3.55-0.869-6.522-1.865-8.662-4.218-1.765-1.942-2.674-6.334-3.129-11.752 1.378 0.005 2.781-0.090 4.244-0.156 0 0 0 0 0 0"></path>
</svg>
