<!-- Generated by IcoMoon.io -->
<svg version="1.1" xmlns="http://www.w3.org/2000/svg" width="128" height="128" viewBox="0 0 128 128">
<title>uni57</title>
<path fill="#333" d="M53.594 0.662c-1.261 0.046-2.324 0.954-2.568 2.192 0 0-2.422 12.236-2.422 12.236s-4.884 0.255-4.884 0.255c0 0-9.56-11.886-9.56-11.886-1.754-2.191-5.274-0.614-4.806 2.153 0 0 1.955 11.607 1.955 11.607s-10.966 16.051-10.966 16.051c-0.255 0.379-0.411 0.816-0.453 1.272 0 0-0.896 9.531-0.896 9.531-0.443 0.58-4.529 5.92-9.078 12.743-2.394 3.591-4.792 7.421-6.637 10.909s-3.28 6.375-3.28 9.382c0 8.114 3.5 13.97 8.178 17.27 1.002 0.706 3.546 2.537 6.814 1.795 0.264-0.060 0.486-0.691 0.747-0.779 0 0.023-0.025 0.073-0.025 0.096 0.036 0.678 0.201 1.474 0.694 2.182s1.268 1.175 1.863 1.378c1.191 0.404 1.84 0.26 2.302 0.28 2.273 0.095 5.080 0.468 7.898-0.251 1.409-0.36 2.894-1.084 4.002-2.383s1.717-3.053 1.82-5.008c0.184-3.493-0.498-6.031-0.524-7.186-0.016-0.578 0.036-0.698 0.163-0.91 0.131-0.211 0.5-0.635 1.537-1.218 1.985-1.117 5.629-2.048 9.521-2.971s8.045-1.87 11.564-3.722c3.933-2.070 4.618-3.844 6.8-6.372 0 0-0.814 12.69-0.814 12.69-0.021 0.075-0.248 1.161-2.051 3.588-1.862 2.508-5.27 6.038-11.404 9.719-14.59 8.753-13.172 29.397-13.172 29.397 0.074 1.447 1.268 2.582 2.716 2.582 0 0 29.407 0 29.407 0s0-0.001 0-0.001 57.136 0 57.136 0c1.495 0.006 2.715-1.196 2.731-2.692 0.266-23.903 0.525-49.101-7.268-69.5-7.538-19.73-23.322-34.609-52.599-38.245-0.531-0.066-1.065-0.13-1.604-0.188-3.911-7.928-10.856-15.233-10.856-15.233-0.529-0.511-1.242-0.785-1.976-0.762 0 0-0.006 0-0.006 0M68.037 22.172c27.394 3.492 40.554 16.662 47.511 34.871 6.964 18.228 7.088 41.759 6.857 64.79 0 0-54.368 0-54.368 0s0-40.495 0-40.495c0 0 1.195-18.472 1.195-18.472 0.062-0.965-0.393-1.89-1.195-2.429 0 0 0-34.536 0-34.536-0.31-0.271-0.338-0.513 0-0.713 0 0 0-3.015 0-3.015M39.188 39.609c0.062-0.001 0.122-0.001 0.179 0.002 0 0 0 0 0 0 0.262 0.012 0.471 0.064 0.609 0.159 1.108 0.76-0.782 1.133-1.165 2.338-0.683 2.147 0.295 2.779-0.917 4.020-1.168 1.195-3.492 0.097-4.703 0.85s-1.408 1.97-2.182 1.842c-0.774-0.128-0.68-1.36-0.68-1.36s0.081-2.712 0.74-3.552c1.918-2.441 6.188-4.263 8.119-4.299 0 0 0 0 0 0M12.877 75.083c0.063-0.003 0.12 0.006 0.171 0.031 0 0 0 0 0 0 1.439 0.528-1.228 3.312-0.698 4.228s1.66 0.291 2.083 0.762c0.423 0.469 0.457 1.764 0.23 2.334-0.276 0.697-1.438 1.446-2.21 1.576-0.761 0.128-1.777-0.374-2.291-0.906s-1.050-1.611-0.67-3.68c0.236-1.284 2.439-4.291 3.384-4.344 0 0 0.001 0 0.001 0"></path>
</svg>
