<!-- Generated by IcoMoon.io -->
<svg version="1.1" xmlns="http://www.w3.org/2000/svg" width="128" height="128" viewBox="0 0 128 128">
<title>uni58</title>
<path fill="#333" d="M63.998 0c-11.138 0.004-20.206 9.277-20.212 20.631 0.007 4.43 2.352 8.235 4.894 11.755-8.047 3.622-14.385 9.594-16.688 17.307 0 0-1.046 3.471-1.046 3.471s21.337 0 21.337 0c-0.354 11.275-2.332 18.445-5.193 24.259-2.993 6.082-6.919 11.581-10.193 19.691-11.169 1.996-20.068 10.716-20.068 22.021 0 0 0 0.014 0 0.014 0.007 2.078 0 6.163 0 6.163s-0.016 2.688-0.016 2.688c0 0 38 0 38 0s18.386 0 18.386 0c0 0 38.003 0 38.003 0s-0.016-2.688-0.016-2.688c0 0-0.007-4.085 0-6.163 0 0 0-0.014 0-0.014 0-11.308-8.912-20.027-20.083-22.021-3.273-8.109-7.191-13.609-10.182-19.691-2.858-5.814-4.84-12.983-5.193-24.259 0 0 21.326 0 21.326 0s-1.046-3.471-1.046-3.471c-2.302-7.703-8.629-13.669-16.663-17.292 2.537-3.526 4.873-7.338 4.868-11.769-0.007-11.354-9.073-20.628-20.212-20.631 0 0-0.002 0-0.002 0M64.007 5.38c8.253 0.005 14.908 6.79 14.912 15.251 0.007 4.145-1.647 8.109-4.557 10.987 0 0-3.039 3.021-3.039 3.021s4.005 1.445 4.005 1.445c6.426 2.328 10.767 6.725 13.47 11.7 0 0-18.623 0-18.623 0s-6.167 0-6.167 0c0 0 0-42.403 0-42.403M64.007 53.163c0 0 6.233 0 6.233 0 0.326 12.311 2.766 20.213 5.936 26.659 3.399 6.912 7.364 12.090 10.442 20.101 0 0 0.585 1.55 0.585 1.55s1.632 0.147 1.632 0.147c9.686 0.92 17.051 8.473 17.058 17.504-0.007 1.195 0 2.139 0 3.496 0 0-32.689 0-32.689 0s-9.196 0-9.196 0c0 0 0-69.457 0-69.457"></path>
</svg>
