<!-- Generated by IcoMoon.io -->
<svg version="1.1" xmlns="http://www.w3.org/2000/svg" width="128" height="128" viewBox="0 0 128 128">
<title>uni59</title>
<path fill="#333" d="M61.228 2.191c0 0 0 0.008 0 0.008s-0.007 0-0.007 0c0 0 0 4.616 0 4.616 0.045 0 0.090 0 0.134 0.005 0.005 0 0.008 0 0.013 0 0 0 0 0 0.005 0 1.55 0.078 2.738 1.316 2.738 2.889 0 1.56-1.168 2.79-2.699 2.887-0.063 0.005-0.126 0.007-0.191 0.007 0 0 0 3.165 0 3.165-3.578-5.455-8.057-10.411-8.057-10.411-0.506-0.489-1.188-0.751-1.89-0.729 0 0-0.006-0.001-0.006-0.001-1.206 0.044-2.222 0.913-2.456 2.097 0 0-2.317 11.706-2.317 11.706s-4.672 0.244-4.672 0.244c0 0-9.144-11.37-9.144-11.37-1.678-2.096-5.045-0.587-4.598 2.060 0 0 1.87 11.102 1.87 11.102s-10.489 15.354-10.489 15.354c-0.244 0.363-0.393 0.781-0.433 1.216 0 0-0.857 9.117-0.857 9.117-0.424 0.555-4.332 5.663-8.684 12.19-2.29 3.436-4.583 7.099-6.349 10.435s-3.137 6.099-3.137 8.975c0 7.762 3.348 13.363 7.823 16.52 0.958 0.676 3.392 2.427 6.518 1.718 0.253-0.058 0.465-0.661 0.715-0.745 0 0.022-0.024 0.070-0.024 0.091 0.034 0.648 0.193 1.41 0.664 2.087s1.212 1.124 1.782 1.318c1.14 0.386 1.761 0.249 2.203 0.267 2.174 0.091 4.858 0.448 7.555-0.24 1.348-0.344 2.768-1.037 3.829-2.28s1.643-2.92 1.741-4.791c0.176-3.341-0.476-5.769-0.502-6.874-0.015-0.552 0.034-0.668 0.156-0.87 0.125-0.203 0.478-0.608 1.47-1.165 1.9-1.069 5.385-1.96 9.107-2.843s7.696-1.789 11.062-3.561c3.762-1.98 4.418-3.676 6.505-6.095 0 0-0.779 12.139-0.779 12.139-0.020 0.072-0.237 1.111-1.962 3.433-1.782 2.399-5.042 5.776-10.91 9.296-13.956 8.374-12.6 28.121-12.6 28.121 0.071 1.384 1.213 2.47 2.599 2.47 0 0 32.429 0 32.429 0 8.16 0 24.854-0.854 31.157-9.080 0.19-0.282 0.364-0.572 0.522-0.867 0.484-0.906 0.737-1.888 0.887-2.423 0.159-0.569 0.145-1.458 0.146-5.363 0 0 0-19.188 0-19.188 0.013-0.191-0.005-0.458-0.005-0.674 0 0 0-0.118 0-0.118 0.033-0.592-0.114-1.328-0.159-1.755-0.168-0.694-0.395-1.37-0.735-2.006-0.158-0.295-0.332-0.585-0.522-0.867-0.192-0.287-0.408-0.564-0.633-0.834 0 0 19.762-49.102 19.762-49.102 0.231 0.022 0.455 0.071 0.691 0.071 4.119 0 7.508-3.389 7.508-7.508 0-4.121-3.386-7.511-7.508-7.511s-7.51 3.39-7.508 7.511c0 1.824 0.691 3.481 1.789 4.787 0 0-23.984 26.020-23.984 26.020s2.165-35.605 2.165-35.605c3.581-0.561 6.365-3.665 6.365-7.393 0-4.119-3.388-7.508-7.508-7.508s-7.507 3.389-7.508 7.508c0 2.417 1.188 4.559 2.985 5.936 0 0-15.758 32.207-15.758 32.207s-7.636-35.039-7.636-35.039c0 0 0.059-0.271 0.059-0.271 2.783-1.103 4.78-3.816 4.78-6.973 0-4.056-3.287-7.402-7.321-7.503 0 0 0-0.005 0-0.005-0.061 0-0.122-0.005-0.184-0.005 0 0 0 0 0 0M91.805 10.954c1.625 0.001 2.893 1.269 2.893 2.894s-1.268 2.894-2.893 2.894c-1.625 0-2.894-1.268-2.894-2.894s1.268-2.893 2.894-2.894c0 0 0 0 0 0M120.484 23.139c1.626 0 2.895 1.271 2.894 2.897 0 1.625-1.268 2.894-2.894 2.894s-2.893-1.268-2.893-2.894c0-1.626 1.267-2.897 2.893-2.897 0 0 0 0 0 0M87.082 32.027c0 0-2.382 39.094-2.382 39.094s25.444-27.609 25.444-27.609c0 0-14.331 35.615-14.331 35.615-1.91-1.187-4.143-2.221-6.695-3.123-8.451-2.757-18.78-3.943-26.829-4.090 0 0-0.329-39.352-0.329-39.352s7.656 35.142 7.656 35.142c0 0 17.465-35.676 17.465-35.676M37.486 41.882c0 0 0 0 0 0s0 0.002 0 0.002c0 0 0.171 0 0.171 0 0.25 0.011 0.45 0.062 0.583 0.153 1.059 0.727-0.748 1.084-1.115 2.236-0.653 2.055 0.283 2.659-0.878 3.846-1.117 1.143-3.34 0.093-4.499 0.813s-1.347 1.884-2.087 1.762c-0.74-0.123-0.65-1.301-0.65-1.301s0.077-2.595 0.708-3.398c1.835-2.335 5.92-4.077 7.767-4.111 0 0 0 0 0 0M12.316 75.818c0 0 0 0 0 0 0.060-0.005 0.115 0.005 0.164 0.028 1.376 0.506-1.175 3.169-0.668 4.046s1.588 0.279 1.992 0.728c0.405 0.449 0.437 1.688 0.22 2.233-0.264 0.667-1.376 1.383-2.114 1.508-0.728 0.123-1.7-0.357-2.193-0.868s-1.004-1.541-0.64-3.52c0.226-1.229 2.334-4.105 3.238-4.156 0 0 0.001 0.001 0.001 0.001M62.332 77.095c9.865 0.11 18.758 1.589 25.051 3.814 3.272 1.157 5.831 2.526 7.413 3.849 1.555 1.299 2.047 2.361 2.063 3.229 0 0.010 0 0.023-0.005 0.034 0.026 0.495 0.013 0.99 0.026 1.484 0 0-4.441 2.436-4.441 2.436-1.352 0.741-0.977 1.551 0 2.744 0 0 4.441 5.421 4.441 5.421s0 3.734 0 3.734c-2.12-1.496-4.713-2.764-7.762-3.842-7.025-2.484-16.329-3.99-26.63-4.112 0 0-0.027-3.218-0.027-3.218 0.434-0.091 0.838-0.229 1.181-0.417 0 0 7.681-4.212 7.681-4.212 1.352-0.741 1.352-2.003 0-2.744 0 0-7.681-4.212-7.681-4.212-0.37-0.203-0.81-0.347-1.282-0.437 0 0-0.029-3.552-0.029-3.552M62.532 101.088c9.785 0.128 18.601 1.601 24.851 3.811 3.272 1.157 5.831 2.526 7.413 3.849 1.516 1.268 2.014 2.305 1.945 3.309s-0.446 1.774-1.301 2.641c-2.181 1.776-4.431 3.030-6.682 3.923-8.546 3.089-17.499 2.471-26.044 2.62 0 0-0.183-20.153-0.183-20.153"></path>
</svg>
