<!-- Generated by IcoMoon.io -->
<svg version="1.1" xmlns="http://www.w3.org/2000/svg" width="128" height="128" viewBox="0 0 128 128">
<title>uni5A</title>
<path fill="#333" d="M69.132-0.031c0 0 0 5.482 0 5.482s0 5.214 0 5.214c-3.71-5.451-8.171-9.606-8.171-9.606-0.532-0.514-1.249-0.79-1.988-0.766 0 0-0.006 0-0.006 0-1.267 0.047-2.337 0.96-2.583 2.205 0 0-2.437 12.308-2.437 12.308s-4.912 0.257-4.912 0.257c0 0-9.615-11.956-9.615-11.956-1.764-2.204-5.304-0.617-4.833 2.166 0 0 1.966 11.674 1.966 11.674s-11.029 16.144-11.029 16.144c-0.257 0.381-0.414 0.821-0.456 1.279 0 0-0.901 9.586-0.901 9.586-0.445 0.583-4.555 5.955-9.13 12.818-2.408 3.612-4.82 7.464-6.675 10.972s-3.299 6.413-3.299 9.436c0 8.161 3.52 14.051 8.225 17.37 1.008 0.711 3.567 2.552 6.854 1.806 0.265-0.061 0.489-0.695 0.751-0.784 0 0.023-0.026 0.073-0.026 0.096 0.036 0.681 0.203 1.483 0.698 2.194s1.275 1.183 1.874 1.386c1.198 0.407 1.851 0.262 2.316 0.281 2.287 0.096 5.109 0.471 7.944-0.253 1.417-0.361 2.91-1.090 4.026-2.397s1.727-3.070 1.831-5.037c0.185-3.514-0.5-6.067-0.528-7.228-0.016-0.581 0.036-0.703 0.164-0.916 0.131-0.213 0.502-0.639 1.546-1.225 1.997-1.123 5.661-2.061 9.576-2.989s8.092-1.881 11.631-3.744c3.956-2.082 4.645-3.865 6.84-6.409 0 0-0.82 12.764-0.82 12.764-0.021 0.076-0.249 1.168-2.063 3.609-1.874 2.522-5.301 6.073-11.471 9.775-14.674 8.804-13.248 29.567-13.248 29.567 0.075 1.455 1.275 2.597 2.732 2.597 0 0 25.217 0 25.217 0s0 0.323 0 0.323c0 0 12.017 0 12.017 0s41.85 0 41.85 0c0 0 0-21.284 0-21.284s-10.962-10.961-10.962-10.961c0 0 0-7.644 0-7.644s-12.885-14.42-12.885-14.42c0 0 0.3-33.041 0.3-33.041s14.527-9.682 14.527-9.682c0 0 0-30.953 0-30.953s-21.274 0-21.274 0c0 0 0 12.885 0 12.885s-13.234 0-13.234 0c0 0 0-12.899 0-12.899s-2.833 0-2.833 0c0 0-1.466 0-1.466 0s-6.040 0-6.040 0M98.173 5.451c0 0 10.324 0 10.324 0s0 21.434 0 21.434c0 0-28.734 0-28.734 0s-9.729 0-9.729 0c0 0 0-8.549 0-8.549s5.138 0 5.138 0c0 0 23.001 0 23.001 0s0-12.885 0-12.885M70.035 32.35c0 0 9.729 0 9.729 0s22.211 0 22.211 0c0 0-7.955 5.304-7.955 5.304s-1.749 0-1.749 0c0 0-22.236 0-22.236 0s0-5.304 0-5.304M44.477 39.464c0 0 0.001 0 0.001 0s0 0.002 0 0.002c0 0 0.18 0 0.18 0 0.263 0.012 0.473 0.065 0.613 0.16 1.113 0.764-0.787 1.139-1.172 2.351-0.687 2.16 0.297 2.795-0.923 4.043-1.175 1.202-3.513 0.098-4.73 0.855s-1.416 1.981-2.194 1.852c-0.779-0.129-0.684-1.368-0.684-1.368s0.081-2.728 0.745-3.573c1.929-2.455 6.224-4.287 8.166-4.323 0 0 0 0 0 0M70.035 43.123c0 0 22.236 0 22.236 0s1.678 0 1.678 0c0 0-0.257 28.826-0.257 28.826s-1.474 0-1.474 0c0 0-22.183 0-22.183 0s0-28.826 0-28.826M18.013 75.146c0 0 0 0 0 0 0.064-0.006 0.121 0.006 0.172 0.030 1.447 0.532-1.236 3.332-0.702 4.254s1.669 0.293 2.095 0.766c0.425 0.472 0.459 1.774 0.231 2.348-0.277 0.701-1.447 1.454-2.223 1.585-0.765 0.129-1.787-0.376-2.305-0.912s-1.056-1.62-0.674-3.701c0.238-1.292 2.454-4.315 3.404-4.369 0 0 0.001 0 0.001 0M70.035 77.427c0 0 22.183 0 22.183 0s2.971 0 2.971 0c0 0 9.629 10.783 9.629 10.783s-24.395 0-24.395 0c0 0-10.387 0-10.387 0s0-10.783 0-10.783M70.035 93.678c0 0 10.387 0 10.387 0s26.137 0 26.137 0c0 0 0 4.306 0 4.306s10.302 10.288 10.302 10.288c0 0-36.788 0-36.788 0s-10.038 0-10.038 0c0 0 0-14.594 0-14.594M70.035 113.738c0 0 10.038 0 10.038 0s37.461 0 37.461 0c0 0 0 8.752 0 8.752s-36.385 0-36.385 0c0 0-11.114 0-11.114 0s0-8.752 0-8.752"></path>
</svg>
