<!-- Generated by IcoMoon.io -->
<svg version="1.1" xmlns="http://www.w3.org/2000/svg" width="128" height="128" viewBox="0 0 128 128">
<title>uni61</title>
<path fill="#333" d="M53.014 1.346c-1.247 0.046-2.298 0.944-2.54 2.169 0 0-2.396 12.104-2.396 12.104s-4.831 0.253-4.831 0.253c0 0-9.456-11.757-9.456-11.757-1.734-2.168-5.217-0.608-4.754 2.13 0 0 1.934 11.481 1.934 11.481s-10.847 15.878-10.847 15.878c-0.253 0.374-0.407 0.807-0.448 1.258 0 0-0.887 9.428-0.887 9.428-0.438 0.574-4.48 5.856-8.979 12.605-2.368 3.552-4.74 7.341-6.566 10.791s-3.244 6.306-3.244 9.28c0 8.026 3.462 13.819 8.089 17.083 0.991 0.699 3.507 2.51 6.74 1.776 0.262-0.060 0.481-0.684 0.739-0.771 0 0.022-0.025 0.073-0.025 0.094 0.035 0.671 0.199 1.458 0.687 2.159s1.254 1.163 1.843 1.363c1.178 0.4 1.82 0.258 2.277 0.277 2.249 0.094 5.024 0.463 7.813-0.249 1.394-0.356 2.862-1.073 3.958-2.358s1.699-3.020 1.801-4.954c0.182-3.455-0.492-5.966-0.519-7.108-0.016-0.571 0.035-0.691 0.161-0.9 0.129-0.209 0.494-0.628 1.52-1.205 1.964-1.105 5.567-2.026 9.418-2.939s7.957-1.85 11.438-3.682c3.891-2.048 4.569-3.802 6.727-6.303 0 0-0.806 12.553-0.806 12.553-0.021 0.074-0.246 1.149-2.029 3.549-1.842 2.481-5.213 5.973-11.281 9.614-14.431 8.658-13.029 29.078-13.029 29.078 0.073 1.431 1.255 2.554 2.688 2.555 0 0 25.687 0 25.687 0s0-12.308 0-12.308c0.784 1.762 1.743 3.259 2.874 4.502 3.317 3.648 7.648 4.942 11.481 5.879 0 0 0.053 0.014 0.053 0.014s0.040 0.014 0.040 0.014c11.050 2.315 19.242-1.528 28.020-1.243 1.001 0.050 1.54 0.174 1.682 0.224 0.051 0.109 0.822 1.456 2.501 2.186 0 0 0.515 0.224 0.515 0.224s0.557 0 0.557 0c3.097 0 8.299-0.133 13.692-0.133 0 0 2.687 0 2.687 0s0-2.688 0-2.688c0-3.017-0.808-5.313-1.853-7.255-0.993-1.846-2.395-4.267-5.045-6.159s-6.397-3.145-11.743-3.31c-5.741-0.178-14.492 1.683-21.809 1.562-3.659-0.060-6.822-0.649-8.741-1.787-1.239-0.735-1.441-2.358-1.892-3.735 3.889-0.699 7.846-1.987 10.486-5.35 0 0 0.571-0.729 0.571-0.729s0-17.506 0-17.506c2.955-1.765 9.467-6.536 10.58-15.040 0.917-7.003-0.579-13.332-5.774-20.047-4.747-6.135-12.628-12.987-24.545-22.32 3.324-1.763 5.609-5.261 5.609-9.26 0-5.751-4.724-10.475-10.475-10.475 0 0-0.006-0.002-0.006-0.002s-0.057 0-0.057 0c0 0 0 5.394 0 5.394s0.057 0 0.057 0c0 0 0-0.003 0-0.003 2.843 0 5.087 2.24 5.087 5.084 0 2.662-1.968 4.808-4.553 5.070 0 0 0-4.498 0-4.498-3.78-6.011-8.923-10.8-8.923-10.8-0.523-0.505-1.228-0.776-1.955-0.753 0 0-0.005-0.001-0.005-0.001M63.898 25.030c12.431 9.704 20.311 16.613 24.614 22.174 4.572 5.91 5.482 10.077 4.698 16.064-0.959 7.329-7.912 11.027-8.657 11.414-5.321-2.279-12.2-3.7-20.655-3.945 0 0 0-6.631 0-6.631s1.191 0 1.191 0c0 0 0-9.116 0-9.116s9.116 0 9.116 0c0 0 0-3.57 0-3.57s-9.116 0-9.116 0c0 0 0-9.116 0-9.116s-1.191 0-1.191 0c0 0 0-17.273 0-17.273M38.763 39.871c0.062-0.002 0.12 0 0.177 0.002 0.259 0.012 0.466 0.064 0.603 0.158 1.095 0.752-0.774 1.121-1.153 2.313-0.675 2.124 0.292 2.749-0.908 3.977-1.155 1.182-3.454 0.096-4.652 0.841s-1.393 1.949-2.158 1.822-0.672-1.346-0.672-1.346c0 0 0.079-2.683 0.732-3.514 1.897-2.414 6.121-4.216 8.031-4.252 0 0 0.001 0 0.001 0M12.736 74.961c0 0 0 0 0 0 0.063-0.003 0.119 0.006 0.169 0.030 1.423 0.523-1.215 3.276-0.69 4.183s1.642 0.288 2.060 0.754c0.418 0.465 0.452 1.745 0.227 2.308-0.273 0.69-1.422 1.43-2.186 1.559-0.753 0.127-1.758-0.37-2.267-0.897s-1.038-1.593-0.662-3.64c0.233-1.27 2.412-4.244 3.348-4.297 0 0 0.001 0 0.001 0M63.898 76.126c7.837 0.21 14.444 1.345 18.695 3.047 0 0 0 3.643 0 3.643s-2.352 2.351-2.352 2.351c0 0 2.352 2.351 2.352 2.351s0 5.479 0 5.479c-6.233-1.359-12.472-2.207-18.695-2.333 0 0 0-4.982 0-4.982s0.122 0 0.122 0c0 0 0-1.426 0-1.426s3.21 0 3.21 0c0 0 0-2.775 0-2.775s-3.21 0-3.21 0c0 0 0-1.429 0-1.429s-0.122 0-0.122 0c0 0 0-3.926 0-3.926M63.898 94.241c5.352 0.111 10.739 0.778 16.158 1.868-1.308 0.717-2.839 1.241-4.681 1.52-3.183 0.484-6.836 0.422-10.272 0.41 0 0-0.904 0-0.904 0s-0.301 0-0.301 0c0 0 0-3.798 0-3.798M71.882 103.123c0.79 3.142 1.699 6.348 4.169 7.813 3.29 1.951 7.283 2.476 11.4 2.543 8.234 0.135 17.517-1.693 21.731-1.562 4.608 0.142 7.156 1.134 8.791 2.301s2.507 2.629 3.43 4.344c0.361 0.672 0.332 1.441 0.528 2.039-3.613 0.034-7.2 0.083-9.427 0.094-0.005-0.015-0.075-0.115-0.502-0.623-0.462-0.55-1.286-1.158-2.186-1.472s-1.882-0.464-3.178-0.529c0 0-0.026 0-0.026 0s-0.025 0-0.025 0c-10.279-0.352-17.822 3.265-27.078 1.352-3.589-0.878-6.593-1.885-8.755-4.263-1.784-1.963-2.703-6.403-3.163-11.88 1.393 0.006 2.812-0.091 4.29-0.158 0 0 0 0 0 0"></path>
</svg>
