<!-- Generated by IcoMoon.io -->
<svg version="1.1" xmlns="http://www.w3.org/2000/svg" width="128" height="128" viewBox="0 0 128 128">
<title>uni62</title>
<path fill="#333" d="M64.026 3.608c-3.948 0-7.195 3.248-7.195 7.195 0 3.029 1.919 5.631 4.591 6.686 0 0 0.057 0.253 0.057 0.253s-7.332 33.584-7.332 33.584c0 0-15.099-30.864-15.099-30.864 1.724-1.32 2.861-3.374 2.861-5.692 0-3.948-3.248-7.195-7.195-7.195s-7.195 3.248-7.195 7.195c0 3.572 2.668 6.547 6.098 7.085 0 0 2.075 34.123 2.075 34.123s-22.983-24.934-22.983-24.934c1.053-1.253 1.714-2.843 1.715-4.591 0.002-3.949-3.246-7.198-7.196-7.198s-7.197 3.249-7.195 7.198c0.001 3.948 3.248 7.195 7.195 7.195 0.226 0 0.439-0.047 0.66-0.068 0 0 18.976 47.154 18.976 47.154-0.324 0.406-0.624 0.824-0.877 1.263-0.493 0.857-0.839 1.778-0.994 2.747 0 0 0 0 0 0-0.044 0.281-0.066 0.568-0.078 0.857 0 0 0 0.006 0 0.006s-0.050 0.189-0.050 0.189c0 0 0.003 0.065 0.003 0.065 0 0.008-0.006 0.011-0.006 0.020 0 0 0 0.159 0 0.159s0.006 0.052 0.006 0.052c0 0 0 0 0 0-0.003 0.058-0.006-0.048-0.006 0.055 0 0 0 21.969 0 21.969-0.001 0.698-0.011 1.729 0.164 2.468s0.443 1.478 0.839 2.166c0.328 0.572 0.722 1.116 1.169 1.63 0.224 0.258 0.463 0.505 0.711 0.747 0.248 0.241 0.507 0.477 0.776 0.701 2.202 1.841 5.128 3.323 8.64 4.565 4.39 1.552 9.709 2.707 15.615 3.355 3.976 0.403 7.518 0.592 11.193 0.594 1.263 0 2.51-0.022 3.74-0.065 0.013-0.001 0.025 0 0.038 0 3.632-0.14 7.092-0.43 10.585-0.935 2.175-0.333 4.309-0.721 6.38-1.201 3.373-0.797 6.642-1.805 9.741-3.266 0.242-0.115 0.493-0.226 0.727-0.344 2.487-1.284 4.95-2.899 6.53-5.214 0.182-0.27 0.349-0.548 0.5-0.832 0.464-0.868 0.707-1.808 0.85-2.323 0.152-0.546 0.139-1.397 0.14-5.14s0.001-18.389 0.001-18.389c0.012-0.183-0.003-0.439-0.003-0.647 0 0 0-0.114 0-0.114 0.032-0.567-0.109-1.272-0.153-1.682-0.161-0.665-0.379-1.313-0.704-1.922-0.151-0.283-0.318-0.561-0.5-0.832-0.185-0.274-0.391-0.54-0.607-0.798 0 0 18.94-47.060 18.94-47.060 0.222 0.021 0.435 0.068 0.662 0.068 3.948 0 7.195-3.248 7.195-7.195 0.003-3.95-3.246-7.198-7.195-7.199s-7.198 3.249-7.195 7.199c0 1.747 0.662 3.336 1.715 4.588 0 0-22.986 24.938-22.986 24.938s2.075-34.123 2.075-34.123c3.432-0.537 6.101-3.512 6.101-7.085-0.001-3.948-3.248-7.195-7.196-7.195s-7.195 3.247-7.195 7.195c0.001 2.317 1.139 4.369 2.861 5.689 0 0-15.102 30.866-15.102 30.866s-7.319-33.581-7.319-33.581c0 0 0.056-0.26 0.056-0.26 2.668-1.056 4.581-3.657 4.581-6.682 0-3.948-3.248-7.195-7.195-7.196 0 0-0.010 0.002-0.010 0.002"></path>
</svg>
