<!-- Generated by IcoMoon.io -->
<svg version="1.1" xmlns="http://www.w3.org/2000/svg" width="128" height="128" viewBox="0 0 128 128">
<title>uni63</title>
<path fill="#333" d="M48.546 0c0 0 0 30.242 0 30.242s6.703 0 6.703 0c-0.199 0.137-0.399 0.273-0.597 0.416-0.172 0.126-0.343 0.256-0.514 0.389-2.369 1.816-4.637 4.227-6.776 7.237-0.645-0.556-1.312-1.11-2.003-1.666-5.382-4.331-12.418-6.607-19.338-6.679s-13.845 2.090-18.682 7.046c-6.004 6.151-6.852 14.122-5.655 20.768s4.133 12.107 6.703 14.944c3.593 3.965 10.474 9.639 13.924 12.416-0.133 0.568-0.222 1.148-0.222 1.749 0 0 0 0.059 0 0.059s0.003 0.062 0.003 0.062c0.006 0.139 0.027 0.275 0.040 0.413-0.020 0.136-0.047 0.094-0.047 0.278 0 0 0 23.487 0 23.487 0 0.111 0.004-0.007 0.007 0.055 0 0 0 0.005 0 0.005s-0.007 0.053-0.007 0.053c0 0 0 0.17 0 0.17 0 0.008 0.007 0.016 0.007 0.024 0 0-0.003 0.070-0.003 0.070s0.054 0.201 0.054 0.201c0 0 0 0.007 0 0.007 0.013 0.31 0.033 0.617 0.083 0.917 0 0 0 0.005 0 0.005 0.166 1.036 0.536 2.020 1.062 2.936 0.351 0.611 0.771 1.193 1.25 1.743 0.239 0.275 0.495 0.54 0.76 0.798 0.265 0.258 0.542 0.51 0.83 0.75 2.354 1.968 5.482 3.553 9.237 4.88 4.693 1.659 10.38 2.894 16.693 3.586 2.526 0.277 5.152 0.466 7.856 0.562 1.352 0.048 2.723 0.073 4.11 0.073 1.35 0 2.683-0.024 3.999-0.070 0.014 0 0.028-0.005 0.041-0.005 1.304-0.046 2.588-0.112 3.854-0.201 0.892-0.063 1.76-0.146 2.631-0.229 2.446-0.212 4.807-0.547 9.497-1.495s9.894-2.158 14.882-5.066c2.014-1.23 4.249-3.015 5.447-4.728 0.638-1.022 1.257-2.17 1.443-3.387 0.081-0.579 0.146-1.107 0.146-1.387 0-1.448 0.005-23.751 0.005-23.751 0-0.118-0.045-0.173-0.055-0.281 0.012-0.096 0.033-0.192 0.041-0.288 0 0 0.011-0.122 0.011-0.122s0-0.121 0-0.121c0-0.602-0.089-1.182-0.223-1.749 3.451-2.777 10.331-8.452 13.924-12.416 2.57-2.837 5.506-8.297 6.703-14.944s0.348-14.617-5.655-20.768c-4.838-4.957-11.762-7.118-18.683-7.047s-13.956 2.349-19.338 6.679c-0.691 0.556-1.358 1.111-2.003 1.666-2.138-3.010-4.406-5.422-6.776-7.238-0.171-0.133-0.341-0.263-0.513-0.389-0.198-0.143-0.398-0.279-0.597-0.416 0 0 6.609 0 6.609 0s0-30.243 0-30.243c0 0-30.865-0.002-30.865-0.002"></path>
</svg>
