<!-- Generated by IcoMoon.io -->
<svg version="1.1" xmlns="http://www.w3.org/2000/svg" width="128" height="128" viewBox="0 0 128 128">
<title>uni64</title>
<path fill="#333" d="M53.965-0.031c0 0 0 12.899 0 12.899s-13.234 0-13.234 0c0 0 0-12.885 0-12.885s-21.274 0-21.274 0c0 0 0 30.953 0 30.953s14.527 9.682 14.527 9.682c0 0 0.299 33.040 0.299 33.040s-12.885 14.42-12.885 14.42c0 0 0 7.645 0 7.645s-10.961 10.961-10.961 10.961c0 0 0 21.285 0 21.285s41.85 0 41.85 0c0 0 23.436 0 23.436 0s41.849 0 41.849 0c0 0 0-21.285 0-21.285s-10.961-10.961-10.961-10.961c0 0 0-7.645 0-7.645s-12.885-14.42-12.885-14.42c0 0 0.299-33.040 0.299-33.040s14.527-9.682 14.527-9.682c0 0 0-30.953 0-30.953s-21.274 0-21.274 0c0 0 0 12.885 0 12.885s-13.234 0-13.234 0c0 0 0-12.899 0-12.899s-2.832 0-2.832 0c0 0-14.416 0-14.416 0s-2.832 0-2.832 0"></path>
</svg>
