<!-- Generated by IcoMoon.io -->
<svg version="1.1" xmlns="http://www.w3.org/2000/svg" width="128" height="128" viewBox="0 0 128 128">
<title>uni66</title>
<path fill="#333" d="M53.598 0.662c-1.262 0.045-2.327 0.953-2.571 2.193 0 0-2.422 12.236-2.422 12.236s-4.884 0.255-4.884 0.255c0 0-9.56-11.887-9.56-11.887-1.754-2.191-5.274-0.614-4.806 2.154 0 0 1.955 11.606 1.955 11.606s-10.966 16.051-10.966 16.051c-0.255 0.379-0.411 0.817-0.454 1.272 0 0-0.896 9.531-0.896 9.531-0.442 0.58-4.529 5.92-9.078 12.743-2.394 3.592-4.791 7.421-6.637 10.909s-3.28 6.376-3.28 9.382c0 8.114 3.5 13.97 8.178 17.27 1.002 0.707 3.546 2.538 6.814 1.796 0.264-0.061 0.486-0.691 0.747-0.779 0 0.023-0.026 0.073-0.026 0.096 0.036 0.677 0.202 1.474 0.694 2.181s1.267 1.176 1.863 1.378c1.191 0.404 1.84 0.26 2.302 0.28 2.273 0.095 5.079 0.468 7.898-0.251 1.409-0.36 2.893-1.085 4.002-2.383s1.718-3.053 1.821-5.008c0.184-3.493-0.498-6.032-0.524-7.186-0.015-0.578 0.036-0.698 0.163-0.91 0.13-0.212 0.5-0.635 1.537-1.218 1.985-1.117 5.628-2.048 9.52-2.971s8.045-1.87 11.564-3.723c3.933-2.070 4.619-3.843 6.8-6.371 0 0-0.814 12.69-0.814 12.69-0.021 0.075-0.248 1.161-2.051 3.588-1.863 2.508-5.27 6.038-11.405 9.718-14.59 8.754-13.172 29.397-13.172 29.397 0.074 1.447 1.268 2.582 2.717 2.582 0 0 86.544 0 86.544 0 1.495 0.006 2.715-1.196 2.731-2.692 0.266-23.903 0.526-49.101-7.268-69.501-7.674-20.087-23.895-35.148-54.204-38.432-3.911-7.928-10.856-15.233-10.856-15.233-0.529-0.511-1.244-0.786-1.98-0.762 0 0 0.002 0 0.002 0"></path>
</svg>
