<!-- Generated by IcoMoon.io -->
<svg version="1.1" xmlns="http://www.w3.org/2000/svg" width="128" height="128" viewBox="0 0 128 128">
<title>uni67</title>
<path fill="#333" d="M64.014 0c-10.284 0-18.62 8.389-18.62 18.737 0.008 5.082 2.065 9.943 5.702 13.468-9.166 3.265-15.94 9.8-18.327 17.684 0 0 21.903 0 21.903 0-0.022 28.371-10.431 33.117-17.245 50.583-11.578 1.083-20.614 10.11-20.614 21.087 0.007 2.187 0.007 6.441 0.007 6.441s37.453 0 37.453 0c0 0 19.492 0 19.492 0s37.453 0 37.453 0c0 0-0.007-4.254 0.007-6.441 0-10.977-9.037-20.005-20.615-21.087-6.814-17.466-17.224-22.212-17.244-50.583 0 0 21.899 0 21.899 0-2.385-7.878-9.149-14.409-18.305-17.676 3.631-3.53 5.683-8.393 5.683-13.474 0-10.349-8.336-18.738-18.62-18.738 0 0-0.007 0-0.007 0"></path>
</svg>
