<!-- Generated by IcoMoon.io -->
<svg version="1.1" xmlns="http://www.w3.org/2000/svg" width="128" height="128" viewBox="0 0 128 128">
<title>uni68</title>
<path fill="#333" d="M60.793 14.412c-0.48-0.639-7.628-10.337-7.628-10.337-0.507-0.489-1.189-0.752-1.892-0.729-1.208 0.043-2.226 0.912-2.46 2.097 0 0-2.317 11.706-2.317 11.706s-4.672 0.244-4.672 0.244c0 0-9.144-11.37-9.144-11.37-0.741-0.925-2.014-1.233-3.096-0.748s-1.7 1.639-1.502 2.808c0 0 1.87 11.103 1.87 11.103s-10.489 15.355-10.489 15.355c-0.244 0.362-0.394 0.781-0.434 1.216 0 0-0.857 9.118-0.857 9.118-0.424 0.554-4.332 5.663-8.684 12.19-2.29 3.435-4.584 7.099-6.349 10.435s-3.137 6.099-3.137 8.975c0 7.762 3.348 13.363 7.822 16.52 0.959 0.676 3.393 2.427 6.519 1.717 0.253-0.057 0.465-0.66 0.715-0.745 0 0.022-0.025 0.070-0.025 0.091 0.034 0.649 0.193 1.41 0.664 2.087 0.472 0.677 1.213 1.124 1.782 1.318 1.139 0.386 1.761 0.249 2.203 0.267 2.175 0.091 4.859 0.448 7.555-0.24 1.348-0.344 2.768-1.037 3.829-2.28s1.643-2.92 1.741-4.791c0.176-3.341-0.476-5.769-0.501-6.874-0.015-0.552 0.034-0.668 0.156-0.87 0.125-0.203 0.478-0.608 1.47-1.165 1.899-1.069 5.385-1.96 9.107-2.843s7.696-1.789 11.062-3.561c3.762-1.981 4.419-3.676 6.505-6.095 0 0-0.779 12.139-0.779 12.139-0.020 0.072-0.237 1.111-1.962 3.433-1.782 2.398-5.041 5.776-10.91 9.296-13.956 8.373-12.6 28.121-12.6 28.121 0.070 1.384 1.213 2.469 2.599 2.469 0 0 24.27 0 24.27 0 1.296-0.001 2.575-0.024 7.503 0.136 4.847 0.039 8.607 0.071 13.824-0.41 3.601-0.332 7.184-1.479 10.417-3.004 0.253-0.119 0.515-0.236 0.759-0.359 2.595-1.341 5.165-3.025 6.813-5.441 0.19-0.282 0.364-0.572 0.522-0.868 0.484-0.906 0.737-1.887 0.887-2.423 0.159-0.569 0.145-1.457 0.146-5.363 0 0 0-19.188 0-19.188 0.013-0.191-0.005-0.458-0.005-0.674 0 0 0-0.118 0-0.118 0.033-0.592-0.114-1.328-0.159-1.755-0.168-0.694-0.395-1.37-0.735-2.006-0.158-0.296-0.332-0.585-0.522-0.867-0.192-0.287-0.407-0.564-0.633-0.834 0 0 19.762-49.103 19.762-49.103 0.231 0.022 0.454 0.071 0.691 0.071 4.119 0 7.508-3.389 7.508-7.508 0-4.121-3.387-7.511-7.508-7.511s-7.511 3.39-7.508 7.511c0 1.824 0.691 3.481 1.789 4.787 0 0-23.984 26.020-23.984 26.020s2.165-35.605 2.165-35.605c3.581-0.56 6.366-3.665 6.366-7.393 0-4.119-3.389-7.508-7.508-7.508s-7.508 3.389-7.508 7.508c0 2.417 1.188 4.559 2.984 5.936 0 0-15.757 32.207-15.757 32.207s-9.286-33.81-9.665-34.469c-0.379-0.659-0.595-1.186-1.074-1.826 0 0 0 0 0 0"></path>
</svg>
