<!-- Generated by IcoMoon.io -->
<svg version="1.1" xmlns="http://www.w3.org/2000/svg" width="128" height="128" viewBox="0 0 128 128">
<title>uni69</title>
<path fill="#333" d="M69.1 0c0 0 0 5.482 0 5.482s0 6.447 0 6.447c-3.78-5.889-8.171-10.515-8.171-10.515-0.533-0.514-1.25-0.791-1.99-0.766-1.27 0.045-2.341 0.959-2.587 2.205 0 0-2.437 12.308-2.437 12.308s-4.912 0.256-4.912 0.256c0 0-9.615-11.955-9.615-11.955-0.779-0.973-2.117-1.297-3.254-0.787s-1.787 1.724-1.58 2.953c0 0 1.967 11.674 1.967 11.674s-11.029 16.144-11.029 16.144c-0.257 0.381-0.414 0.821-0.456 1.279 0 0-0.901 9.586-0.901 9.586-0.445 0.583-4.554 5.955-9.13 12.817-2.408 3.612-4.82 7.464-6.676 10.972s-3.299 6.413-3.299 9.436c0 8.161 3.52 14.050 8.225 17.37 1.008 0.71 3.566 2.552 6.854 1.806 0.266-0.061 0.489-0.695 0.752-0.784 0 0.023-0.026 0.074-0.026 0.097 0.036 0.681 0.202 1.482 0.698 2.195s1.275 1.182 1.874 1.386c1.198 0.406 1.851 0.262 2.316 0.281 2.287 0.095 5.109 0.471 7.944-0.253 1.417-0.362 2.911-1.091 4.025-2.397s1.728-3.071 1.831-5.037c0.185-3.513-0.501-6.067-0.527-7.228-0.015-0.581 0.036-0.703 0.164-0.916 0.131-0.213 0.502-0.638 1.546-1.225 1.997-1.123 5.661-2.060 9.575-2.988s8.092-1.881 11.631-3.744c3.956-2.082 4.646-3.865 6.84-6.409 0 0-0.819 12.764-0.819 12.764-0.021 0.076-0.249 1.168-2.063 3.609-1.874 2.522-5.301 6.073-11.471 9.775-14.673 8.804-13.248 29.567-13.248 29.567 0.074 1.455 1.275 2.597 2.732 2.597 0 0 25.216 0 25.216 0s0.301 0 0.301 0c0 0 11.718 0 11.718 0s41.849 0 41.849 0c0 0 0-21.284 0-21.284s-10.961-10.961-10.961-10.961c0 0 0-7.644 0-7.644s-12.885-14.42-12.885-14.42c0 0 0.299-33.040 0.299-33.040s14.527-9.683 14.527-9.683c0 0 0-30.953 0-30.953s-21.274 0-21.274 0c0 0 0 12.885 0 12.885s-13.234 0-13.234 0c0 0 0-12.899 0-12.899s-2.832 0-2.832 0c0 0-2.21 0-2.21 0s-5.299 0-5.299 0"></path>
</svg>
