<!-- Generated by IcoMoon.io -->
<svg version="1.1" xmlns="http://www.w3.org/2000/svg" width="128" height="128" viewBox="0 0 128 128">
<title>uni6A</title>
<path fill="#333" d="M53.014 1.346c-1.247 0.046-2.298 0.944-2.54 2.169 0 0-2.396 12.104-2.396 12.104s-4.831 0.253-4.831 0.253c0 0-9.456-11.757-9.456-11.757-1.734-2.168-5.217-0.608-4.754 2.13 0 0 1.934 11.481 1.934 11.481s-10.847 15.878-10.847 15.878c-0.253 0.374-0.407 0.807-0.449 1.258 0 0-0.886 9.428-0.886 9.428-0.438 0.574-4.48 5.856-8.98 12.605-2.368 3.552-4.739 7.341-6.565 10.791s-3.244 6.306-3.244 9.28c0 8.026 3.462 13.819 8.089 17.083 0.991 0.699 3.508 2.51 6.741 1.776 0.262-0.060 0.481-0.684 0.739-0.771 0 0.022-0.025 0.073-0.025 0.094 0.035 0.671 0.199 1.458 0.686 2.158s1.254 1.163 1.843 1.363c1.178 0.4 1.82 0.258 2.277 0.277 2.249 0.094 5.024 0.463 7.813-0.249 1.394-0.356 2.862-1.073 3.959-2.358s1.699-3.020 1.8-4.954c0.182-3.455-0.492-5.966-0.518-7.108-0.016-0.571 0.035-0.691 0.161-0.9 0.129-0.209 0.495-0.628 1.52-1.205 1.964-1.105 5.568-2.026 9.418-2.939s7.958-1.85 11.439-3.682c3.89-2.048 4.568-3.802 6.727-6.303 0 0-0.806 12.553-0.806 12.553-0.021 0.074-0.246 1.148-2.029 3.549-1.842 2.481-5.213 5.972-11.281 9.613-14.431 8.659-13.030 29.079-13.030 29.079 0.073 1.431 1.254 2.554 2.687 2.554 0 0 25.687 0 25.687 0s0-12.31 0-12.31c0.784 1.762 1.743 3.258 2.874 4.501 3.317 3.648 7.648 4.943 11.481 5.879 0 0 0.052 0.015 0.052 0.015s0.040 0.015 0.040 0.015c11.050 2.314 19.242-1.528 28.020-1.244 1.001 0.051 1.539 0.175 1.682 0.224 0.051 0.109 0.822 1.456 2.501 2.186 0 0 0.515 0.224 0.515 0.224s0.557 0 0.557 0c3.097 0 8.298-0.133 13.691-0.133 0 0 2.688 0 2.688 0s0-2.687 0-2.687c0-3.018-0.808-5.313-1.853-7.256-0.993-1.846-2.396-4.267-5.045-6.159s-6.397-3.145-11.743-3.311c-5.741-0.178-14.492 1.683-21.809 1.563-3.658-0.060-6.822-0.65-8.741-1.787-1.239-0.734-1.441-2.358-1.892-3.734 3.889-0.699 7.846-1.987 10.486-5.35 0 0 0.571-0.729 0.571-0.729s0-17.506 0-17.506c2.955-1.765 9.467-6.535 10.58-15.040 0.917-7.003-0.578-13.332-5.773-20.047-4.747-6.135-12.629-12.987-24.545-22.32 3.324-1.762 5.609-5.261 5.609-9.259 0-5.752-5.019-10.475-10.771-10.475 0 0-0.006 0-0.006 0-0.020 0-0.038 0-0.057 0 0 0 0 5.392 0 5.392 0.019 0 0.038 0 0.057 0 2.844 0 5.383 2.24 5.383 5.083 0 2.563-2.064 4.647-4.553 5.032 0 0 0-4.462 0-4.462-3.78-6.011-8.923-10.8-8.923-10.8-0.524-0.505-1.229-0.776-1.955-0.753 0 0-0.004 0-0.004 0"></path>
</svg>
